<svg id="Layer_1" data-name="Layer 1" xmlns="http://www.w3.org/2000/svg" xmlns:xlink="http://www.w3.org/1999/xlink" viewBox="0 0 40 40"><defs><linearGradient id="linear-gradient" x1="299.09" y1="-232.12" x2="254.91" y2="-238.88" gradientTransform="matrix(1, 0, 0, -1, -257, -215.5)" gradientUnits="userSpaceOnUse"><stop offset="0" stop-color="#ec5f24"/><stop offset="1" stop-color="#f8995c"/></linearGradient></defs><circle cx="20" cy="20" r="20" fill="url(#linear-gradient)"/><path d="M23,18.5h1.59a1,1,0,0,1,.7,1.71L20.7,24.8a1,1,0,0,1-1.41,0L14.7,20.21a1,1,0,0,1,.71-1.71H17v-5a1,1,0,0,1,1-1h4a1,1,0,0,1,1,1Zm-9,11a1,1,0,0,1,0-2H26a1,1,0,0,1,0,2Z" fill="#fff" fill-rule="evenodd"/><path d="M24,7h0a4,4,0,0,1,4,4h0a4,4,0,0,1-4,4h0a4,4,0,0,1-4-4h0A4,4,0,0,1,24,7Z" fill="#f8b219"/></svg>