<?xml version="1.0" encoding="utf-8"?>
<!-- Generator: Adobe Illustrator 24.1.2, SVG Export Plug-In . SVG Version: 6.00 Build 0)  -->
<svg version="1.1" id="Layer_1" xmlns="http://www.w3.org/2000/svg" xmlns:xlink="http://www.w3.org/1999/xlink" x="0px" y="0px"
	 viewBox="0 0 328 80" style="enable-background:new 0 0 328 80;" xml:space="preserve">
<style type="text/css">
	.st0{fill:#F5F5F5;}
	.st1{opacity:0.4;}
	.st2{clip-path:url(#SVGID_2_);}
	.st3{fill:#FDFEFE;}
	.st4{fill:#D0D0CF;}
	.st5{fill:#9B9B9B;}
	.st6{fill:#DFDEDE;}
	.st7{fill:#AAAAAA;}
	.st8{fill:#D2D2D1;}
	.st9{fill:#606161;}
	.st10{fill:#DBDADA;}
	.st11{fill:#5E5F5F;}
	.st12{fill:#181715;}
	.st13{fill:#D2D2D2;}
	.st14{fill:#4C4C4D;}
	.st15{fill:#A5A4A4;}
	.st16{fill:#454546;}
	.st17{fill:#AFAEAE;}
	.st18{fill:#FFFFFF;}
	.st19{fill:#FBFCFD;}
	.st20{fill:#CECDCD;}
	.st21{fill:#F7F7F7;}
	.st22{fill:#E8E8E8;}
	.st23{fill:#F68A4E;}
	.st24{fill:#969696;}
</style>
<path class="st0" d="M12,0h304c6.6,0,12,5.4,12,12v56c0,6.6-5.4,12-12,12H12C5.4,80,0,74.6,0,68V12C0,5.4,5.4,0,12,0z"/>
<path class="st0" d="M12,0h304c6.6,0,12,5.4,12,12v56c0,6.6-5.4,12-12,12H12C5.4,80,0,74.6,0,68V12C0,5.4,5.4,0,12,0z"/>
<g class="st1">
	<g>
		<defs>
			<path id="SVGID_1_" d="M316,0h-95v80h95c6.6,0,12-5.4,12-12V12C328,5.4,322.6,0,316,0z"/>
		</defs>
		<clipPath id="SVGID_2_">
			<use xlink:href="#SVGID_1_"  style="overflow:visible;"/>
		</clipPath>
		<g class="st2">
			<path class="st3" d="M266.3,9.6c-1.7,0.9-4.7,3-7.3,6.2c-1.9,2.3-2.6,3.8-4.4,4.2c-1.3,0.3-2.8-0.2-4.9-1.3
				c-4.4-2.4-9.5-0.8-13.2,5.6c-3.7,6.4-2.3,12.4,4.5,19.5c5,5.2-1.7,5.3-5.6,14.3s1.6,19.2,19.7,19.1c18.1-0.1,45.6,0.1,45.6,0.1
				c14.3,0.1,29.8,2.3,43.1-3.9c4.8-2.3,9.1-5.7,11.4-10.2c3.1-5.9,2.1-13.4-2-18.7c-2.7-3.6-6.7-2.5-10-4.9
				c-3.4-2.4-5.5-5.1-0.6-9.4c4.9-4.3,8.7-7.3,6.2-13c-3.6-8.3-12.2-9.3-21.7-5.8c-9.5,3.5-21,8.7-29.5,6.5
				c-8.7-2.3-9.5-8.6-20.1-9.7C275.1,7.7,270.5,7.3,266.3,9.6z"/>
			<path class="st4" d="M301.4,18.9l8.4,3.2l0.3-2L301.4,18.9z"/>
			<path class="st5" d="M309.7,22.2L309.7,22.2l-8.3-3.2l8.1,1.6L309.7,22.2z"/>
			<path class="st6" d="M310.1,20.1l1.7-1.7l-10.4,0.6L310.1,20.1z"/>
			<path class="st6" d="M309.5,20.6l-2.8,2.7l-5.3-4.4L309.5,20.6z"/>
			<path class="st7" d="M309.5,45.9c0.4,0,0.8,0,1.2,0c0.1,0,0.1-0.1,0.1-0.1c0-0.1-0.1-0.1-0.1-0.1c-0.4,0-0.8,0-1.2,0
				c-0.1,0-0.1,0.1-0.1,0.1C309.4,45.8,309.5,45.9,309.5,45.9z M308.7,45.8c0.1,0,0.1-0.1,0.1-0.1c0-0.1,0-0.1-0.1-0.1
				c-0.4,0-0.8,0-1.2-0.1c-0.1,0-0.1,0-0.1,0.1c0,0.1,0,0.1,0.1,0.1C307.9,45.8,308.3,45.8,308.7,45.8
				C308.7,45.8,308.7,45.8,308.7,45.8z M311.6,45.8C311.6,45.8,311.6,45.8,311.6,45.8c0.4,0,0.8-0.1,1.2-0.1c0.1,0,0.1-0.1,0.1-0.1
				c0-0.1-0.1-0.1-0.1-0.1c-0.4,0.1-0.8,0.1-1.2,0.1c-0.1,0-0.1,0.1-0.1,0.1C311.4,45.7,311.5,45.8,311.6,45.8z M306.7,45.7
				c0.1,0,0.1,0,0.1-0.1c0-0.1,0-0.1-0.1-0.1c-0.1,0-0.1,0-0.1,0c-0.1,0-0.1,0-0.1,0.1c0,0.1,0,0.1,0.1,0.1
				C306.6,45.7,306.6,45.7,306.7,45.7C306.7,45.7,306.7,45.7,306.7,45.7z M313.6,45.5C313.6,45.5,313.6,45.5,313.6,45.5
				c0.4-0.1,0.8-0.2,1.2-0.2c0.1,0,0.1-0.1,0.1-0.1c0-0.1-0.1-0.1-0.1-0.1c-0.4,0.1-0.8,0.2-1.2,0.2c-0.1,0-0.1,0.1-0.1,0.1
				C313.5,45.4,313.5,45.5,313.6,45.5z M315.5,45C315.6,45,315.6,45,315.5,45c0.4-0.1,0.8-0.2,1.2-0.4c0.1,0,0.1-0.1,0.1-0.2
				c0-0.1-0.1-0.1-0.2-0.1c-0.4,0.1-0.7,0.3-1.1,0.4c-0.1,0-0.1,0.1-0.1,0.1C315.4,45,315.5,45,315.5,45z M317.4,44.4
				C317.5,44.4,317.5,44.4,317.4,44.4c0.4-0.2,0.8-0.3,1.1-0.5c0.1,0,0.1-0.1,0-0.2s-0.1-0.1-0.2-0.1c-0.3,0.2-0.7,0.4-1.1,0.5
				c-0.1,0-0.1,0.1-0.1,0.2C317.4,44.3,317.4,44.4,317.4,44.4z M319.2,43.4C319.3,43.4,319.3,43.4,319.2,43.4
				c0.4-0.2,0.7-0.5,1.1-0.7c0.1,0,0.1-0.1,0-0.2c0-0.1-0.1-0.1-0.2,0c-0.3,0.2-0.6,0.5-1,0.7c-0.1,0-0.1,0.1,0,0.2
				C319.2,43.4,319.2,43.4,319.2,43.4z M320.9,42.2C320.9,42.2,320.9,42.2,320.9,42.2c0.4-0.3,0.7-0.6,0.9-0.9c0,0,0-0.1,0-0.2
				c0,0-0.1,0-0.2,0c-0.3,0.3-0.5,0.6-0.8,0.8C320.7,42.1,320.7,42.1,320.9,42.2C320.8,42.2,320.8,42.2,320.9,42.2z M322.3,40.8
				C322.3,40.8,322.3,40.7,322.3,40.8c0.3-0.4,0.6-0.7,0.8-1c0-0.1,0-0.1,0-0.2s-0.1,0-0.2,0c-0.2,0.3-0.4,0.7-0.7,1
				C322.1,40.6,322.1,40.7,322.3,40.8C322.2,40.8,322.2,40.8,322.3,40.8z M323.3,39.1c0,0,0.1,0,0.1-0.1c0.2-0.4,0.3-0.7,0.5-1.1
				c0-0.1,0-0.1-0.1-0.2c-0.1,0-0.1,0-0.2,0.1c-0.1,0.4-0.3,0.7-0.5,1.1C323.2,38.9,323.2,39,323.3,39.1
				C323.3,39.1,323.3,39.1,323.3,39.1z M324.1,37.2c0.1,0,0.1,0,0.1-0.1c0.1-0.4,0.2-0.8,0.3-1.2c0-0.1,0-0.1-0.1-0.1
				c-0.1,0-0.1,0-0.1,0.1c-0.1,0.4-0.2,0.8-0.3,1.1C323.9,37.1,324,37.2,324.1,37.2C324.1,37.2,324.1,37.2,324.1,37.2z M324.5,35.2
				c0.1,0,0.1,0,0.1-0.1c0-0.2,0-0.4,0-0.6c0-0.2,0-0.4,0-0.6c0-0.1-0.1-0.1-0.1-0.1c-0.1,0-0.1,0.1-0.1,0.1c0,0.2,0,0.4,0,0.6
				c0,0.2,0,0.4,0,0.6C324.3,35.1,324.4,35.2,324.5,35.2C324.4,35.2,324.5,35.2,324.5,35.2z M324.3,33.2
				C324.4,33.2,324.4,33.2,324.3,33.2c0.1,0,0.1-0.1,0.1-0.1c-0.1-0.4-0.2-0.8-0.3-1.2c0-0.1-0.1-0.1-0.2-0.1
				c-0.1,0-0.1,0.1-0.1,0.2c0.1,0.4,0.2,0.7,0.3,1.1C324.2,33.1,324.3,33.2,324.3,33.2z M323.7,31.3
				C323.7,31.3,323.8,31.3,323.7,31.3c0.1,0,0.1-0.1,0.1-0.2c-0.2-0.4-0.4-0.7-0.6-1.1c0-0.1-0.1-0.1-0.2,0c-0.1,0-0.1,0.1,0,0.2
				c0.2,0.3,0.4,0.7,0.6,1C323.6,31.3,323.7,31.3,323.7,31.3z M322.7,29.6C322.7,29.6,322.7,29.5,322.7,29.6
				c0.1-0.1,0.1-0.1,0.1-0.2c-0.2-0.3-0.5-0.6-0.8-0.9c0,0-0.1-0.1-0.2,0c0,0-0.1,0.1,0,0.2C322.1,28.9,322.3,29.2,322.7,29.6
				C322.6,29.5,322.6,29.6,322.7,29.6z M321.3,28.1C321.3,28.1,321.4,28,321.3,28.1c0.1-0.1,0.1-0.2,0.1-0.2
				c-0.3-0.3-0.6-0.5-0.9-0.8c0,0-0.1,0-0.2,0c0,0.1,0,0.1,0,0.2C320.7,27.5,321,27.8,321.3,28.1C321.3,28,321.3,28.1,321.3,28.1z
				 M319.8,26.8C319.8,26.8,319.8,26.7,319.8,26.8c0.1-0.1,0.1-0.2,0.1-0.2c-0.3-0.2-0.6-0.5-1-0.7c-0.1,0-0.1,0-0.2,0
				c0,0.1,0,0.1,0,0.2C319,26.3,319.4,26.5,319.8,26.8C319.7,26.8,319.7,26.8,319.8,26.8z M318.1,25.6c0,0,0.1,0,0.1-0.1
				c0-0.1,0-0.1,0-0.2c-0.3-0.2-0.7-0.4-1-0.6c-0.1,0-0.1,0-0.2,0c0,0.1,0,0.1,0.1,0.2C317.3,25.2,317.7,25.4,318.1,25.6
				C318,25.6,318,25.6,318.1,25.6z M316.3,24.7c0,0,0.1,0,0.1-0.1c0-0.1,0-0.1-0.1-0.2c-0.4-0.2-0.7-0.3-1.1-0.5
				c-0.1,0-0.1,0-0.2,0.1s0,0.1,0.1,0.2C315.5,24.3,315.9,24.5,316.3,24.7C316.2,24.7,316.3,24.7,316.3,24.7z M314.4,23.8
				c0,0,0.1,0,0.1-0.1c0-0.1,0-0.1-0.1-0.2c-0.4-0.2-0.7-0.3-1.1-0.4c-0.1,0-0.1,0-0.2,0.1s0,0.1,0.1,0.2
				C313.7,23.5,314,23.7,314.4,23.8C314.4,23.8,314.4,23.8,314.4,23.8z M312.5,23.1c0,0,0.1,0,0.1-0.1c0-0.1,0-0.1-0.1-0.2
				c-0.7-0.2-1.1-0.4-1.2-0.4c-0.1,0-0.1,0-0.1,0.1c0,0.1,0,0.1,0.1,0.1C311.4,22.8,311.8,22.9,312.5,23.1
				C312.5,23.1,312.5,23.1,312.5,23.1z"/>
			<path class="st5" d="M293,39.1c0,0.8,0.7,1.5,1.5,1.5c0.8,0,1.5-0.7,1.5-1.5c0-0.8-0.7-1.5-1.5-1.5C293.7,37.7,293,38.3,293,39.1
				z"/>
			<path class="st5" d="M289.7,40.7c0,0,0.1,0,0.1,0c0.4-0.1,0.6-0.4,0.6-0.8c0-0.3-0.1-0.5-0.1-0.8c0-2.3,1.9-4.1,4.1-4.1
				c0.3,0,0.6,0,0.8,0.1c0.4,0.1,0.8-0.2,0.8-0.6c0.1-0.4-0.2-0.8-0.6-0.8c-0.4-0.1-0.7-0.1-1.1-0.1c-3.1,0-5.6,2.5-5.6,5.6
				c0,0.3,0,0.7,0.1,1C289.1,40.5,289.4,40.7,289.7,40.7z"/>
			<path class="st5" d="M291.8,40.7c0.1,0,0.2,0,0.2,0c0.4-0.1,0.6-0.5,0.4-0.9c-0.1-0.2-0.1-0.4-0.1-0.7c0-1.1,0.9-2.1,2.1-2.1
				c0.2,0,0.5,0,0.7,0.1c0.4,0.1,0.8-0.1,0.9-0.4c0.1-0.4-0.1-0.8-0.4-0.9c-0.4-0.1-0.8-0.2-1.2-0.2c-1.9,0-3.5,1.6-3.5,3.5
				c0,0.4,0.1,0.8,0.2,1.1C291.3,40.5,291.5,40.7,291.8,40.7z"/>
			<path class="st8" d="M288.7,22.3c0.7-2.3,4.4-5.6,4.4-5.6c2.9-2.4,4.8-6.1,4.8-10.1c0-7.2-5.9-13.1-13.1-13.1h0
				c-7.2,0-13.1,5.9-13.1,13.1c0,4.1,1.9,7.7,4.8,10.1c0,0,3.7,3.2,4.4,5.6H288.7z"/>
			<path class="st7" d="M286.3,25c0.2,0,0.4-0.2,0.4-0.4c0-4.6,0.1-11,0.2-15.6c2.9-0.4,4.2-1.4,4.8-2.3c0.6-0.9,0.7-1.9,0.3-2.9
				c-0.3-0.8-0.9-1.4-1.8-1.7c-1.3-0.4-2.8,0-3.4,0.5c-0.2,0.1-0.4,0.3-0.6,5.7c-0.3,0-0.7,0-1,0.1c-0.6,0-1.2,0-1.7,0
				c-0.1-2.9-0.2-5.2-0.5-5.8c-0.3-0.5-0.7-0.8-1.3-0.8c-1.4,0-3.3,1.7-4.1,3.3c-0.4,0.7-0.4,1.4,0,2c0.7,1.1,2.5,1.8,5.2,1.9
				c0.1,4.5,0.1,10.7,0,15.4c0,0.2,0.2,0.4,0.3,0.4c0.2,0,0.4-0.2,0.4-0.3c0-1.3,0.1-9.4,0-15.4c0.5,0,1.1,0,1.7,0
				c0.3,0,0.7,0,1-0.1c0,1.3-0.1,2.9-0.1,4.9c-0.1,5.3-0.1,10.6-0.1,10.6C286,24.8,286.1,25,286.3,25z M281.7,2.6
				c0.3,0,0.5,0.1,0.7,0.4c0.2,0.4,0.4,2.5,0.5,5.4c-2.4-0.2-4.1-0.7-4.6-1.6c-0.2-0.4-0.2-0.8,0-1.3C278.9,4.1,280.6,2.6,281.7,2.6
				z M289.2,2.8c0.3,0,0.6,0,0.9,0.1c0.7,0.2,1.1,0.6,1.4,1.2c0.3,0.8,0.2,1.6-0.2,2.3c-0.7,1-2.2,1.7-4.2,1.9
				c0.1-2.7,0.2-4.7,0.4-5.1C287.6,3,288.4,2.8,289.2,2.8z"/>
			<path class="st9" d="M282.6,26.7c0,1,0.8,1.9,1.9,1.9h0.8c1,0,1.9-0.8,1.9-1.9c0-1-0.8-1.9-1.9-1.9h-0.8
				C283.5,24.9,282.6,25.7,282.6,26.7z"/>
			<path class="st4" d="M288.8,22.2v3c0,1.1-0.7,1.9-1.5,1.9h-4.8c-0.8,0-1.5-0.9-1.5-1.9v-3H288.8z"/>
			<path class="st7" d="M267.4,4.1c0.1,0,0.3-0.1,0.3-0.2c0.1-0.2,0-0.4-0.2-0.5l-9-3.4c-0.2-0.1-0.4,0-0.5,0.2
				c-0.1,0.2,0,0.4,0.2,0.5l9,3.4C267.4,4.1,267.4,4.1,267.4,4.1z"/>
			<path class="st7" d="M302.3,4.1c0,0,0.1,0,0.1,0l9-3.4c0.2-0.1,0.3-0.3,0.2-0.5c-0.1-0.2-0.3-0.3-0.5-0.2l-9,3.4
				c-0.2,0.1-0.3,0.3-0.2,0.5C302,4,302.2,4.1,302.3,4.1z"/>
			<path class="st4" d="M320.5,86.8h-30.1c0,0,3.9-11.6,6-13.3c0,0,1.2-1.6,3.3-0.7c2.1,0.9,6.3,3.9,6.3,3.9s1-0.2,2.4,0
				C310.4,77.1,317.4,82.6,320.5,86.8z"/>
			<path class="st10" d="M314,86.8h-26.9c0,0,4.9-6.9,10-6.5c0,0,2.4-2.3,6.2-1.2C308.8,80.7,314,86.8,314,86.8z"/>
			<path class="st11" d="M295.8,80.3c5.1-14,23.3-24.7,24.1-25.2l0.7,0.4c-0.2,0.1-18.9,11.5-23.8,25.1L295.8,80.3z"/>
			<path class="st11" d="M302.2,69.8c0,0,8.8-2.4,16.4,7.3c0,0-3,0.3-6.7-2.6c0,0-2.5,0.1-3.6-1.1c-1.2-1.1-0.9-0.9-0.9-0.9
				S306,72.8,302.2,69.8z"/>
			<path class="st11" d="M311.4,61.1c0,0,6-2.1,11.7,4.2c0,0-2.1,0.3-4.8-1.5c0,0-1.7,0.2-2.6-0.6c-0.9-0.7-0.6-0.6-0.6-0.6
				S314.1,63,311.4,61.1z"/>
			<path class="st11" d="M315,58.4c0,0,4.4-2.2,9.4,2.2c0,0-1.6,0.5-3.8-0.7c0,0-1.3,0.3-2-0.2c-0.7-0.5-0.6-0.4-0.6-0.4
				S317.3,59.6,315,58.4z"/>
			<path class="st11" d="M319.7,55.4c0,0,4.4-2.2,9.4,2.2c0,0-1.6,0.5-3.8-0.7c0,0-1.3,0.3-2-0.2c-0.7-0.5-0.6-0.4-0.6-0.4
				S322,56.5,319.7,55.4z"/>
			<path class="st11" d="M303.7,69.6c0,0-0.6-9.2-12.3-13.1c0,0,0.7,2.9,4.7,5.5c0,0,0.7,2.3,2.2,3.1c1.5,0.7,1.2,0.5,1.2,0.5
				S299.7,67,303.7,69.6z"/>
			<path class="st11" d="M298.2,75.4c0,0,9.1-1.2,15.3,9.4c0,0-3-0.1-6.3-3.5c0,0-2.4-0.3-3.4-1.5c-1-1.3-0.7-1-0.7-1
				S301.5,78.8,298.2,75.4z"/>
			<path class="st11" d="M299.4,75.3c0,0-1.5-9.1-13.4-11.9c0,0,1,2.9,5.2,5c0,0,0.9,2.3,2.5,2.9c1.5,0.6,1.2,0.4,1.2,0.4
				S295.2,73.1,299.4,75.3z"/>
			<path class="st11" d="M308.6,64.5c0,0,0.6-7.9-8.9-12.6c0,0,0.3,2.6,3.4,5.2c0,0,0.3,2.1,1.5,2.9c1.2,0.8,0.9,0.6,0.9,0.6
				S305.5,61.9,308.6,64.5z"/>
			<path class="st11" d="M313.1,60.8c0,0,1.7-6.5-5.4-11.9c0,0-0.2,2.2,2,4.9c0,0,0,1.8,0.8,2.6c0.8,0.8,0.7,0.6,0.7,0.6
				S311,58.1,313.1,60.8z"/>
			<path class="st11" d="M316.7,57.9c0,0,2.8-3.7-0.4-9.2c0,0-0.7,1.4,0,3.7c0,0-0.5,1.1-0.2,1.9c0.3,0.8,0.3,0.6,0.3,0.6
				S316,55.6,316.7,57.9z"/>
			<path class="st11" d="M319.9,56c0,0,2.8-3.7-0.4-9.2c0,0-0.7,1.4,0,3.7c0,0-0.5,1.1-0.2,1.9c0.3,0.8,0.3,0.6,0.3,0.6
				S319.2,53.7,319.9,56z"/>
			<path class="st11" d="M307.1,64.8c0,0,7.5-2.3,14.3,5.9c0,0-2.6,0.3-5.8-2.1c0,0-2.1,0.1-3.1-0.8c-1-0.9-0.8-0.8-0.8-0.8
				S310.4,67.2,307.1,64.8z"/>
			<path class="st7" d="M300.3,70.4c0,0-2.7-6.4-12-6.4c0,0,1.2,1.9,4.7,2.8c0,0,1.1,1.5,2.3,1.7c1.2,0.2,1,0.1,1,0.1
				S296.8,69.6,300.3,70.4z"/>
			<path class="st7" d="M299.7,69.4c0,0,5.7-3.9,13.5,1.1c0,0-2.1,1-5.5-0.2c0,0-1.7,0.7-2.9,0.1c-1.1-0.5-0.9-0.5-0.9-0.5
				S303.1,70.6,299.7,69.4z"/>
			<path class="st7" d="M298.9,75.4c0,0-3.5-6-12.8-4.7c0,0,1.5,1.7,5.1,2.1c0,0,1.3,1.3,2.5,1.3c1.2,0,1-0.1,1-0.1
				S295.3,75,298.9,75.4z"/>
			<path class="st7" d="M298.4,74.6c0,0,6.1-3.4,13.4,2.4c0,0-2.2,0.8-5.4-0.7c0,0-1.8,0.5-2.9-0.1c-1.1-0.6-0.8-0.5-0.8-0.5
				S301.6,76.1,298.4,74.6z"/>
			<path class="st10" d="M221.7,85.3h30.1c0,0-3.9-11.6-6-13.3c0,0-1.2-1.6-3.3-0.7c-2.1,0.9-6.3,3.9-6.3,3.9s-1-0.2-2.4,0
				C231.8,75.6,224.9,81.1,221.7,85.3z"/>
			<path class="st4" d="M228.2,85.3h26.9c0,0-4.9-6.9-10-6.5c0,0-2.4-2.3-6.2-1.2C233.4,79.2,228.2,85.3,228.2,85.3z"/>
			<path class="st11" d="M243.6,65.6c0,0-8.5-3.4-17.1,5.5c0,0,3,0.6,7-1.9c0,0,2.4,0.3,3.7-0.7c1.3-1,1-0.8,1-0.8
				S239.6,68.1,243.6,65.6z"/>
			<path class="st11" d="M246.5,73.1c0,0,2.8-8.7,15.1-9.8c0,0-1.4,2.7-5.9,4.2c0,0-1.3,2.1-2.9,2.5c-1.6,0.3-1.3,0.2-1.3,0.2
				S251,71.5,246.5,73.1z"/>
			<path class="st11" d="M246.9,71.9c0,0-8.8-2.6-16.5,7c0,0,3,0.3,6.8-2.5c0,0,2.5,0.1,3.6-1c1.2-1.1,0.9-0.9,0.9-0.9
				S243.1,74.8,246.9,71.9z"/>
			<path class="st7" d="M249.4,75.7c-6.1-9.5-21.4-14.3-22-14.5l-0.4,0.4c0.2,0,15.9,5.3,21.8,14.5L249.4,75.7z"/>
			<path class="st7" d="M242.9,69.1c0,0-6.9-0.3-10.9,8.1c0,0,2.3-0.3,4.5-3.1c0,0,1.8-0.4,2.5-1.4c0.7-1,0.5-0.8,0.5-0.8
				S240.6,71.9,242.9,69.1z"/>
			<path class="st7" d="M234.7,64.2c0,0-4.8-0.5-7.9,5.1c0,0,1.6-0.1,3.3-1.9c0,0,1.3-0.2,1.8-0.8c0.5-0.7,0.4-0.6,0.4-0.6
				S233,66,234.7,64.2z"/>
			<path class="st7" d="M231.6,62.8c0,0-3.6-0.8-6.6,3.2c0,0,1.2,0.1,2.7-1.2c0,0,1,0,1.5-0.5c0.5-0.5,0.3-0.4,0.3-0.4
				S230.1,64.1,231.6,62.8z"/>
			<path class="st7" d="M227.6,61.4c0,0-3.6-0.8-6.6,3.2c0,0,1.2,0.1,2.7-1.2c0,0,1,0,1.5-0.5c0.5-0.5,0.3-0.4,0.3-0.4
				S226.1,62.6,227.6,61.4z"/>
			<path class="st7" d="M241.8,69.2c0,0-1.1-6.9,6.8-11.7c0,0,0,2.3-2.5,4.8c0,0-0.1,1.9-1.1,2.6c-1,0.8-0.8,0.6-0.8,0.6
				S244.3,66.6,241.8,69.2z"/>
			<path class="st7" d="M246.8,72.5c0,0-6.9,0.6-9.7,9.5c0,0,2.2-0.6,4.1-3.7c0,0,1.8-0.6,2.3-1.7c0.5-1.1,0.4-0.9,0.4-0.9
				S244.9,75.6,246.8,72.5z"/>
			<path class="st7" d="M245.9,72.6c0,0-0.5-6.9,7.9-11.1c0,0-0.2,2.3-3,4.6c0,0-0.3,1.8-1.3,2.5c-1,0.7-0.8,0.5-0.8,0.5
				S248.6,70.3,245.9,72.6z"/>
			<path class="st7" d="M237.3,66.3c0,0-1.7-5.7,4.4-10.8c0,0,0.2,1.9-1.6,4.4c0,0,0.1,1.6-0.6,2.4c-0.7,0.8-0.6,0.6-0.6,0.6
				S239.2,63.8,237.3,66.3z"/>
			<path class="st7" d="M233.4,64.3c0,0-2.4-4.5,2-9.7c0,0,0.5,1.6-0.6,3.9c0,0,0.3,1.3-0.1,2.1c-0.5,0.8-0.4,0.6-0.4,0.6
				S234.5,61.9,233.4,64.3z"/>
			<path class="st7" d="M230.2,62.7c0,0-2.7-2.3-1.3-6.8c0,0,0.8,0.9,0.6,2.7c0,0,0.6,0.8,0.5,1.4c-0.1,0.6-0.1,0.5-0.1,0.5
				S230.3,60.9,230.2,62.7z"/>
			<path class="st7" d="M227.6,61.8c0,0-2.7-2.3-1.3-6.8c0,0,0.8,0.9,0.6,2.7c0,0,0.6,0.8,0.5,1.4c-0.1,0.6-0.1,0.5-0.1,0.5
				S227.7,60,227.6,61.8z"/>
			<path class="st7" d="M238.5,66.2c0,0-5.9-0.4-9.5,6.7c0,0,1.9-0.2,3.9-2.5c0,0,1.6-0.3,2.2-1.1c0.6-0.9,0.4-0.7,0.4-0.7
				S236.5,68.5,238.5,66.2z"/>
			<path class="st12" d="M256.6,37.9c0,0-0.3-0.8,0.1-1.5c0.5-0.8,1.3-1,1.8-1.8c0.5-0.8,0.6-2.8,2-3.5c1.4-0.7,3.2-0.3,3.8,1.2
				c0.6,1.5,0.2,3.9,0.5,4.3c0.3,0.4,1.6,1.7,1.4,2.8c-0.2,1.1-0.7,1-0.7,1s0,2.1-1.9,2.6c-1.8,0.5-3.7-0.1-4.4-1.3
				c0,0-1.8,0-2.6-0.9C255.9,40,256.1,38.4,256.6,37.9z"/>
			<path class="st13" d="M279.2,51.8c0.6,3,1.1,5.7,1.2,5.7c0.1,0,0.4,0.1,0.7,0.3c-0.1,0.2-0.3,0.4-0.4,0.4c-0.2,0-1.7-0.4-2.3-0.5
				c0,0,0,0,0,0c-0.1-0.4-0.1-1-0.1-1l-2.2-5C277.6,51.8,278.6,51.8,279.2,51.8z"/>
			<path class="st12" d="M281.2,57.8c1,0.4,2.7,1.1,2.7,1.3c0,0.3-2,0.2-2.6,0c-0.6-0.2-2-0.7-2-0.7l0.2,0.6l-0.4,0
				c0,0-0.5-0.9-0.6-1.4c0.5,0.1,2.1,0.5,2.3,0.5C280.9,58.2,281,58,281.2,57.8z"/>
			<path class="st11" d="M276.9,42.7c0.7,1,1.6,5.4,2.3,9.1c-0.6,0-1.6,0-3-0.1l-2-4.6l-6.1,7.3l-5.8-2.6
				C262.3,51.8,275.7,40.9,276.9,42.7z"/>
			<path class="st11" d="M264,38.5c0,0,0.6,0.2,2.6,4.1c-0.5,0.2-1.4,0.7-2.5,1.4c-0.2-0.5-0.4-0.9-0.6-1.3
				C262.4,39.6,262.8,37.6,264,38.5z"/>
			<path class="st13" d="M268.2,45.7c1.4,2.8,2,3.7,2,3.7l-2.3,0.3c0,0-2.5-3-3.9-5.7c1.2-0.7,2-1.2,2.5-1.4
				C267.1,43.4,267.6,44.5,268.2,45.7z"/>
			<path class="st11" d="M260,38.3c0,0,3.5-0.4,4.1,0.3c0.5,0.8,0.5,2.3,0.8,3.2c0.3,0.9,0.7,2.3-0.7,2.9c-1.4,0.6-2,0.3-2.1,1.2
				c-0.1,0.9-0.2,5,0.5,5.8l-6.7,1.7c0,0-1.5-6.1-0.6-10.2C256.2,39.1,257,38.4,260,38.3z"/>
			<path class="st13" d="M261.4,48.5c0,0,7.8-1.5,8.1-1.5c0.3,0,1.6-0.1,2,1.1c0,0,0.5,1.5,0.1,1.5c-0.4-0.1-0.6-1.5-0.9-1.5
				c-0.3,0.1-0.7,0.7-1.2,0.7c-0.5-0.1-0.9-0.4-1.2-0.2c-0.3,0.1-7.8,2.9-9.3,1.8c-0.7-0.6-1.6-2.5-2.3-4.4c1.1-0.7,2.3-1.1,3-1.3
				C260.5,46.5,261.4,48.5,261.4,48.5z"/>
			<path class="st11" d="M255.7,41.5c0.2-1.3,0.7-1.8,1.4-1.7c0,0,1.1,0.1,1.4,1.4c0.1,0.5,0.7,1.9,1.3,3.3c-0.7,0.2-2,0.6-3,1.3
				C256,44,255.6,42.2,255.7,41.5z"/>
			<path class="st14" d="M256.6,45.9L256.6,45.9c-0.3-1.2-0.7-2.4-0.8-3.3l-0.1,0C255.9,43.5,256.2,44.7,256.6,45.9z"/>
			<path class="st12" d="M290.1,56.5c1.5-0.5,3.2-1.2,3.3-1c0.1,0.2-3.8,3.2-3.8,3.2l1,0.5l-0.1,0.3c0,0-1.6-0.4-2.4-0.9l2.2-1.5
				L290.1,56.5z"/>
			<path class="st13" d="M288.3,57c0.4-0.1,1-0.3,1.7-0.5l0.2,0.6l-2.2,1.5c-0.1,0-0.1-0.1-0.2-0.1c-0.7-0.5-1.2-0.6-1.5-0.7
				c-0.1,0-2.2-0.6-4.7-1.4c0.5-0.5,1-1.3,1.4-1.8C285.6,56,287.9,57.1,288.3,57z"/>
			<path class="st5" d="M273.1,49.4c0.7,0.2,5.7,3.1,9.8,5.2c-0.4,0.6-0.9,1.3-1.4,1.8c-4-1.2-10-2.8-10-2.8s-7.9,4.7-11.1,5
				c-4.1,0.3-4.4-3.6-4.6-5.2C255.9,53.3,272,49,273.1,49.4z"/>
			<path class="st4" d="M283.8,42l-3.5,7.9l-11.2-0.4l2.7-8.3L283.8,42z"/>
			<path class="st9" d="M283.8,42l-3.4,7.9l-10.9-0.4l2.6-8.3L283.8,42z"/>
			<path class="st4" d="M264.5,49.2l15.9,0.6l0,0.6l-15.9-0.6L264.5,49.2z"/>
			<path class="st4" d="M276.6,44.5c0,0.2,0.2,0.4,0.4,0.4c0.2,0,0.4-0.2,0.4-0.4c0-0.2-0.2-0.4-0.4-0.4
				C276.8,44.1,276.6,44.3,276.6,44.5z"/>
			<path class="st13" d="M260.2,34c0,0-0.6-0.2-0.8,0.2c-0.1,0.4,0.4,0.9,0.9,0.9L260.2,34z"/>
			<path class="st13" d="M263.4,34.1c0,0,0.6-0.2,0.8,0.2c0.1,0.4-0.4,0.9-1,0.8L263.4,34.1z"/>
			<path class="st13" d="M264,33.2c0,0-0.2,2.1-0.6,2.7c-0.4,0.7-1.2,0.9-1.8,0.7c-0.8-0.2-1.5-1.2-1.7-2.7c0,0,1.4-1.2,1.6-2.2
				C261.5,31.8,262.9,33.1,264,33.2z"/>
			<path class="st13" d="M262,34.5l-1.8-0.3c0,0-0.5,2.4-0.7,4c0,0,0.5,0.4,1.3,0.5c0.8,0.1,1.3-0.3,1.3-0.3L262,34.5z"/>
			<path class="st12" d="M284,77.6c0,0-35.3-1.4-40.2,0.4c-4.8,1.7-2.6,6.4,3,7.1c5.6,0.7,36.2,1.5,36.2,1.5L284,77.6z"/>
			<path class="st4" d="M300.4,79.1c0,0-0.2,5.9-0.2,7.3c0,0-21.3,0.5-22.6-1.3c-1.3-1.8-0.9-5.8-0.2-6.1
				C278.1,78.6,289.3,77.6,300.4,79.1z"/>
			<path class="st5" d="M290.6,87c5.6,0,10.9-0.3,11-0.3l-0.1-0.8c-0.1,0-5.6,0.3-11.3,0.3c-10.1,0-11.9-0.9-12.2-1.3
				c0,0-1.6-2.5-0.2-5.8l0,0c0.1-0.1,0.9-0.8,6.1-0.6c5.6,0.2,17.2,1.2,17.3,1.2l0.1-0.8c-0.1,0-11.7-1.1-17.4-1.2
				c-6-0.2-7,0.8-7.1,1.2c-1.5,3.6,0.2,6.3,0.3,6.4c0.5,0.7,2.5,1.7,13,1.7C290.4,87,290.5,87,290.6,87z"/>
			<path class="st5" d="M247.5,79.3c0,0,11-0.9,18.9-0.3c7.9,0.6,7.7,3.5,3,4.4s-20.3-0.5-22.8-0.7C244.2,82.4,243.8,80,247.5,79.3z
				"/>
			<path class="st4" d="M295.8,60.2c0,0-0.4,5.9-0.4,7.3c0,0-46,0.5-48.8-1.3c-2.8-1.8-2-5.8-0.5-6.1
				C247.7,59.7,271.9,58.7,295.8,60.2z"/>
			<path class="st5" d="M295.7,62.1l0-0.3l-50.3-0.4l0,0.3L295.7,62.1z"/>
			<path class="st5" d="M295.6,63.4l0-0.3l-50.5-0.6l0,0.3L295.6,63.4z"/>
			<path class="st5" d="M295.6,65l0-0.3l-50.3-0.6l0,0.3L295.6,65z"/>
			<path class="st5" d="M295.4,66.2l0-0.3L245.6,65l0,0.3L295.4,66.2z"/>
			<path class="st15" d="M274.8,68.3c12,0,23.6-0.3,23.7-0.3l0-1.1c-0.1,0-12.1,0.3-24.5,0.3c-22.2,0-26.1-1-26.8-1.4
				c-0.2-0.2-3.1-2.3-0.4-5.3l0,0c0.3-0.2,2.4-0.9,13.7-0.7c12.2,0.2,37.3,1.2,37.5,1.2l0.1-1.1c-0.3,0-25.4-1.1-37.6-1.2
				c-13.1-0.2-14.7,0.8-14.9,1.3c-3.5,3.9,0.6,6.8,0.7,6.8c0.6,0.4,2.6,1.6,27.8,1.7C274.2,68.3,274.5,68.3,274.8,68.3z"/>
			<path class="st16" d="M302,68.9c0,0,0.4,7-0.6,8.7c0,0-52.8,0-58.4-0.8c0,0-0.7-7.4,0.4-8.7C243.4,68.1,284.2,67.2,302,68.9z"/>
			<path class="st7" d="M298.8,67.9l-1.9,10.3h-2.1l0.7-10.3L298.8,67.9z"/>
			<path class="st7" d="M248.8,66.8l-1.7,10.8l-1.8-0.1l0.3-10.9L248.8,66.8z"/>
			<path class="st7" d="M250,67.1l-1.1,10.5l1.5-0.1l0.4-10.3L250,67.1z"/>
			<path class="st7" d="M294.6,68v10l-1.4,0.1l0.4-10.3L294.6,68z"/>
			<path class="st17" d="M307.2,43.3c0,0,0.1,3.3,0,4.6l-27.8,0.4V43L307.2,43.3z"/>
			<path class="st18" d="M305.9,44.4l0,2.1l-21.6,0.1v-2.4L305.9,44.4z"/>
			<path class="st19" d="M282,46.1c0.5,0,1-0.3,1.1-0.8c0.2-0.8-0.4-1.1-0.4-1.1c0,0-0.2-0.2-0.7-0.2c-0.2,0-0.3,0-0.5,0.1
				c-0.4,0.1-0.6,0.4-0.7,0.7c-0.1,0.4,0.1,0.8,0.4,1C281.4,46,281.7,46.1,282,46.1z M282,44.2c0.4,0,0.6,0.2,0.6,0.2
				c0,0,0.5,0.3,0.3,0.9c-0.1,0.4-0.5,0.6-0.9,0.6c-0.2,0-0.5-0.1-0.6-0.2c-0.3-0.2-0.4-0.5-0.3-0.8c0.1-0.3,0.3-0.5,0.5-0.6
				C281.7,44.2,281.9,44.2,282,44.2z"/>
			<path class="st19" d="M281,46.8l0.6-0.9l-0.2-0.1l-0.6,0.9L281,46.8z"/>
			<path class="st19" d="M280.1,47.5c-0.1,0.1,0,0.2,0.1,0.3c0.1,0.1,0.2,0,0.3-0.1l0.7-1c0.1-0.1,0-0.2-0.1-0.3
				c-0.1-0.1-0.2,0-0.3,0.1L280.1,47.5z"/>
			<path class="st17" d="M267.9,29.7c0,0-0.5,1.4-0.4,3.5c0.1,0.9,0.2,2.7,1.8,2.8c1.6,0.1,7.6,0.1,7.6,0.1l1.6,1.6
				c0,0,0.9-2.2,1-3.3c0.2-1.1,0.4-4.1-1.2-4.9C276.6,28.7,268.4,27.6,267.9,29.7z"/>
			<path class="st18" d="M275.5,30.8c0,0,1.3,0.7,0.8,2.2c-0.5,1.5-2.4,2-3.7,1c-1.3-1-0.9-3,0.6-3.5
				C274.7,30.1,275.5,30.8,275.5,30.8z"/>
			<path class="st8" d="M274.8,31.4c0,0,0.1,1.1-0.2,1.9c0,0-1.5-0.9-1.8-1.2C272.8,32.1,273.9,31.4,274.8,31.4z"/>
			<path class="st20" d="M301.8,28.7c0,0-0.5,5.6,0.3,5.7c0.8,0.1,7.8,0.4,8-0.6c0.3-1.1,0.5-5.7-0.1-5.8
				C309.5,27.8,301.9,28,301.8,28.7z"/>
			<path class="st17" d="M306.3,31.9c0.1,0,0.1,0,0.2,0c0.6-0.4,3.7-3.3,3.9-3.4c0,0,0-0.1,0-0.1s-0.1,0-0.1,0c0,0-3.3,3-3.9,3.4
				c-0.4,0.3-3-1.7-4.5-3c0,0-0.1,0-0.1,0c0,0,0,0.1,0,0.1C302.4,29.4,305.4,31.9,306.3,31.9z"/>
			<path class="st17" d="M310,34C310,34,310,34,310,34c0.1,0,0.1-0.1,0.1-0.1c-0.2-0.4-2.4-2.9-2.5-3c0,0-0.1,0-0.1,0
				c0,0,0,0.1,0,0.1C308.3,31.9,309.8,33.6,310,34C309.9,34,310,34,310,34z"/>
			<path class="st17" d="M302,34.2C302,34.2,302,34.2,302,34.2c0.1-0.1,1.8-2.1,2.8-3.1c0,0,0-0.1,0-0.1c0,0-0.1,0-0.1,0
				c-1,1-2.7,3-2.7,3.1C301.9,34.1,301.9,34.2,302,34.2C301.9,34.2,301.9,34.2,302,34.2z"/>
			<path class="st21" d="M263.4,24c0,0-14.5,0.7-15.4-0.5c-0.9-1.2-0.7-2.3,3.2-2.2c0,0-0.5-2,1.6-2.3c2.1-0.3,2.6,0.1,2.6,0.1
				s4-4.2,7.1-3.8c3.1,0.4,3.5,2.9,2.2,4.4c0,0,3.3,0,3.5,2.1C268.4,23.9,266,24.1,263.4,24z"/>
			<path class="st21" d="M312.5,10.7c0,0-2.7,0-2.5,1.4c0.1,1.4,1.3,0.9,4.6,0.9c3.4,0,10.3-0.1,10.9-0.4c0.5-0.3,0.6-1-0.1-1.3
				c-0.7-0.3-3-0.6-3.5-1.1c-0.5-0.5-0.1-2.9-1.1-4.1c-1.1-1.2-4.3-2.8-5.7,2.2c0,0-1.2-0.8-2,0.2C312.2,9.6,312.5,10.7,312.5,10.7z
				"/>
			<path class="st22" d="M248.4,7.3c0,0,2-0.4,3.2,1c1.2,1.3-0.2,2-2.6,2.1c-2.4,0.1-23.1,1.3-23.7,0c-0.6-1.3,2.6-2.3,7.4-2.7
				c0,0-1.9-4.1,2.2-4.8c4.1-0.6,6.6,1.1,6.6,1.1s0.3-0.3,2.3-0.3C245.7,3.8,247.6,5.3,248.4,7.3z"/>
			<path class="st21" d="M248,10.8c0,0,1.3-0.2,2.1,0.7c0.8,0.9-0.1,1.3-1.7,1.4c-1.6,0.1-15.4,0.9-15.8,0c-0.4-0.9,1.7-1.6,4.9-1.8
				c0,0-1.3-2.8,1.5-3.2c2.8-0.4,4.6,1.8,4.6,1.8s0-1.2,1.3-1.2C246.3,8.4,247.5,9.4,248,10.8z"/>
			<path class="st5" d="M246.4,34.7v-1.1h0.9c0.1-0.2,0.1-0.4,0.2-0.6l-0.7-0.7l0.7-0.8l0.7,0.7c0.2-0.1,0.4-0.2,0.6-0.2v-0.9h1.1
				v0.9c0.2,0,0.4,0.1,0.6,0.2l0.6-0.6l0.8,0.8l-0.6,0.6c0.1,0.2,0.2,0.4,0.3,0.6h0.8v1.1h-0.8c-0.1,0.2-0.1,0.5-0.3,0.7l0.6,0.6
				l-0.7,0.8l-0.5-0.5c-0.2,0.1-0.4,0.2-0.7,0.3v0.8h-1.1v-0.8c-0.2-0.1-0.4-0.2-0.6-0.3l-0.6,0.6l-0.8-0.8l0.6-0.6
				c-0.1-0.2-0.2-0.4-0.2-0.6H246.4z M249.5,35.9c0.9,0,1.6-0.7,1.6-1.6c0-0.9-0.7-1.6-1.6-1.6c-0.9,0-1.6,0.7-1.6,1.6
				C247.8,35.1,248.6,35.9,249.5,35.9z"/>
			<path class="st7" d="M237.6,29.7l0-1.6h1.4c0.1-0.3,0.2-0.6,0.4-0.9l-1-1l1.2-1.2l1,1c0.3-0.2,0.5-0.3,0.9-0.4v-1.5l1.6,0v1.4
				c0.3,0.1,0.6,0.2,0.9,0.3l1-1l1.2,1.2l-0.9,0.9c0.2,0.3,0.3,0.6,0.4,1l1.3,0l0,1.6h-1.2c-0.1,0.4-0.2,0.7-0.4,1l0.9,0.9l-1.2,1.2
				l-0.8-0.8c-0.3,0.2-0.7,0.3-1,0.4v1.2l-1.6,0v-1.2c-0.4-0.1-0.7-0.2-1-0.4l-0.9,0.9l-1.2-1.2l0.9-0.9c-0.2-0.3-0.3-0.6-0.4-0.9
				L237.6,29.7z M242.4,31.5c1.4,0,2.5-1.1,2.5-2.5c0-1.4-1.1-2.5-2.5-2.5c-1.4,0-2.5,1.1-2.5,2.5C239.8,30.4,241,31.5,242.4,31.5z"
				/>
		</g>
	</g>
</g>
<path class="st23" d="M272,8h38c5.5,0,10,4.5,10,10l0,0c0,5.5-4.5,10-10,10h-38c-5.5,0-10-4.5-10-10l0,0C262,12.5,266.5,8,272,8z"/>
<path class="st18" d="M272.1,15.6v-1h2V21h-1.1v-5.4H272.1z"/>
<path class="st18" d="M279.6,15.5h-3.1v1.9c0.1-0.2,0.3-0.3,0.6-0.4c0.3-0.1,0.6-0.2,0.9-0.2c0.4,0,0.8,0.1,1.1,0.3
	c0.3,0.2,0.5,0.4,0.6,0.7c0.1,0.3,0.2,0.7,0.2,1c0,0.7-0.2,1.2-0.6,1.6c-0.4,0.4-0.9,0.6-1.6,0.6c-0.7,0-1.2-0.2-1.6-0.5
	s-0.6-0.8-0.7-1.4h1c0.1,0.3,0.2,0.6,0.4,0.8c0.2,0.2,0.5,0.3,0.8,0.3c0.4,0,0.7-0.1,0.9-0.4s0.3-0.6,0.3-1c0-0.4-0.1-0.7-0.3-0.9
	c-0.2-0.2-0.5-0.3-0.9-0.3c-0.3,0-0.5,0.1-0.7,0.2c-0.2,0.1-0.4,0.3-0.5,0.5h-1v-3.7h4.1V15.5z"/>
<path class="st18" d="M284.1,18.5V21h-1v-6.4h2.2c0.7,0,1.3,0.2,1.6,0.5c0.4,0.3,0.6,0.8,0.6,1.4c0,0.6-0.2,1.1-0.6,1.4
	c-0.4,0.3-0.9,0.5-1.6,0.5H284.1z M285.2,17.7c0.8,0,1.3-0.4,1.3-1.1c0-0.4-0.1-0.6-0.3-0.8c-0.2-0.2-0.5-0.3-1-0.3h-1v2.2H285.2z"
	/>
<path class="st18" d="M290.6,16c0.5,0,0.9,0.1,1.3,0.3s0.7,0.5,0.9,0.9c0.2,0.4,0.3,0.8,0.3,1.4c0,0.5-0.1,1-0.3,1.4
	s-0.5,0.7-0.9,0.9s-0.8,0.3-1.3,0.3c-0.5,0-0.9-0.1-1.3-0.3c-0.4-0.2-0.7-0.5-0.9-0.9c-0.2-0.4-0.3-0.8-0.3-1.4c0-0.5,0.1-1,0.3-1.4
	c0.2-0.4,0.5-0.7,0.9-0.9C289.7,16.1,290.2,16,290.6,16z M290.6,16.9c-0.3,0-0.5,0.1-0.7,0.2c-0.2,0.1-0.4,0.3-0.5,0.6
	c-0.1,0.2-0.2,0.5-0.2,0.9c0,0.4,0.1,0.7,0.2,0.9c0.1,0.2,0.3,0.4,0.5,0.5c0.2,0.1,0.5,0.2,0.7,0.2s0.5-0.1,0.7-0.2
	c0.2-0.1,0.4-0.3,0.5-0.5c0.1-0.2,0.2-0.6,0.2-0.9c0-0.4-0.1-0.7-0.2-0.9c-0.1-0.3-0.3-0.4-0.5-0.6
	C291.1,16.9,290.9,16.9,290.6,16.9z"/>
<path class="st18" d="M294,14.6c0-0.2,0.1-0.3,0.2-0.4c0.1-0.1,0.3-0.2,0.5-0.2s0.4,0.1,0.5,0.2c0.1,0.1,0.2,0.3,0.2,0.4
	s-0.1,0.3-0.2,0.4c-0.1,0.1-0.3,0.2-0.5,0.2s-0.4-0.1-0.5-0.2S294,14.8,294,14.6z M295.2,16v5h-1v-5H295.2z"/>
<path class="st18" d="M299.2,16c0.6,0,1,0.2,1.4,0.6c0.3,0.4,0.5,0.9,0.5,1.6V21h-1v-2.8c0-0.4-0.1-0.8-0.3-1
	c-0.2-0.2-0.5-0.4-0.9-0.4c-0.4,0-0.7,0.1-1,0.4c-0.2,0.3-0.4,0.6-0.4,1.1V21h-1v-5h1v1.1c0.1-0.4,0.4-0.7,0.7-0.9
	C298.4,16.1,298.8,16,299.2,16z"/>
<path class="st18" d="M304.8,20.1V21h-0.6c-0.5,0-0.9-0.1-1.2-0.4c-0.3-0.3-0.4-0.7-0.4-1.3v-2.4h-0.7V16h0.7v-1.2h1V16h1.2v0.9
	h-1.2v2.4c0,0.3,0.1,0.5,0.2,0.6c0.1,0.1,0.3,0.2,0.6,0.2H304.8z"/>
<path class="st18" d="M307.4,16c0.6,0,1,0.2,1.4,0.4c0.4,0.3,0.6,0.7,0.6,1.2h-1c0-0.3-0.2-0.5-0.4-0.6c-0.2-0.2-0.4-0.3-0.7-0.3
	c-0.3,0-0.5,0.1-0.6,0.2c-0.1,0.1-0.2,0.3-0.2,0.5c0,0.2,0.1,0.3,0.2,0.4c0.1,0.1,0.2,0.2,0.4,0.2c0.2,0.1,0.4,0.1,0.7,0.2
	c0.4,0.1,0.7,0.2,0.9,0.3c0.2,0.1,0.4,0.2,0.6,0.4c0.2,0.2,0.3,0.5,0.3,0.8c0,0.4-0.2,0.8-0.5,1c-0.3,0.3-0.7,0.4-1.3,0.4
	c-0.6,0-1.1-0.1-1.5-0.4c-0.4-0.3-0.6-0.7-0.7-1.2h1c0,0.3,0.1,0.5,0.4,0.7c0.2,0.2,0.5,0.3,0.8,0.3c0.2,0,0.4-0.1,0.6-0.2
	c0.1-0.1,0.2-0.3,0.2-0.5c0-0.2-0.1-0.3-0.2-0.4s-0.2-0.2-0.4-0.2c-0.2-0.1-0.4-0.1-0.7-0.2c-0.4-0.1-0.7-0.2-0.9-0.3
	c-0.2-0.1-0.4-0.2-0.6-0.4c-0.2-0.2-0.2-0.5-0.2-0.8c0-0.4,0.2-0.8,0.5-1C306.4,16.1,306.8,16,307.4,16z"/>
<circle class="st19" cx="28" cy="40" r="12"/>
<path class="st23" d="M28,36.8c0.5,0,0.8,0.1,1.2,0.2c0.3,0.2,0.6,0.4,0.7,0.7c0.2,0.3,0.2,0.6,0.2,0.9c0,0.4-0.1,0.8-0.4,1.1
	c-0.3,0.3-0.6,0.5-1.1,0.5v0.1c0.5,0.1,0.9,0.3,1.2,0.6c0.3,0.3,0.4,0.7,0.4,1.2c0,0.6-0.2,1.1-0.6,1.4c-0.4,0.4-0.9,0.6-1.7,0.6
	c-0.7,0-1.3-0.2-1.8-0.6c-0.4-0.4-0.7-0.9-0.8-1.7h0.9c0.1,0.4,0.2,0.8,0.5,1c0.3,0.3,0.7,0.4,1.1,0.4c0.4,0,0.8-0.1,1-0.3
	c0.2-0.2,0.4-0.5,0.4-0.9c0-0.4-0.2-0.8-0.5-1c-0.3-0.2-0.8-0.4-1.5-0.4h-0.2v-0.8h0.2c1.2,0,1.8-0.4,1.8-1.2c0-0.4-0.1-0.6-0.3-0.9
	c-0.2-0.2-0.5-0.3-0.9-0.3c-0.4,0-0.7,0.1-1,0.3c-0.3,0.2-0.4,0.6-0.5,1h-0.9c0-0.7,0.3-1.2,0.7-1.6C26.7,36.9,27.3,36.8,28,36.8z"
	/>
<path d="M52.6,24.4c1.1,0,1.9,0.3,2.6,0.8c0.7,0.5,1.2,1.3,1.4,2.2h-1.8c-0.2-0.5-0.5-0.8-0.9-1.1c-0.4-0.3-0.8-0.4-1.4-0.4
	c-0.4,0-0.9,0.1-1.2,0.3c-0.4,0.2-0.6,0.5-0.8,1s-0.3,0.9-0.3,1.5c0,0.6,0.1,1,0.3,1.5s0.5,0.7,0.8,1c0.4,0.2,0.8,0.3,1.2,0.3
	c0.5,0,1-0.1,1.4-0.4c0.4-0.3,0.7-0.6,0.9-1.1h1.8c-0.2,0.9-0.7,1.7-1.4,2.2c-0.7,0.5-1.6,0.8-2.6,0.8c-0.8,0-1.5-0.2-2.1-0.5
	c-0.6-0.4-1.1-0.9-1.4-1.5c-0.3-0.7-0.5-1.4-0.5-2.2c0-0.8,0.2-1.6,0.5-2.2c0.3-0.7,0.8-1.2,1.4-1.5C51.1,24.6,51.8,24.4,52.6,24.4z
	"/>
<path d="M60.9,26.3c0.6,0,1.2,0.1,1.7,0.4c0.5,0.3,0.9,0.7,1.2,1.2c0.3,0.5,0.4,1.1,0.4,1.8c0,0.7-0.1,1.3-0.4,1.8
	c-0.3,0.5-0.7,0.9-1.2,1.2c-0.5,0.3-1.1,0.4-1.7,0.4s-1.2-0.1-1.8-0.4c-0.5-0.3-0.9-0.7-1.2-1.2c-0.3-0.5-0.4-1.1-0.4-1.8
	c0-0.7,0.1-1.3,0.4-1.8c0.3-0.5,0.7-0.9,1.2-1.2C59.7,26.4,60.3,26.3,60.9,26.3z M60.9,27.7c-0.5,0-0.9,0.2-1.2,0.5
	c-0.3,0.3-0.5,0.8-0.5,1.4s0.2,1.1,0.5,1.5c0.3,0.3,0.7,0.5,1.2,0.5s0.9-0.2,1.2-0.5c0.3-0.3,0.5-0.8,0.5-1.5s-0.2-1.1-0.5-1.4
	C61.8,27.9,61.4,27.7,60.9,27.7z"/>
<path d="M74,26.3c0.8,0,1.4,0.3,1.9,0.8c0.5,0.5,0.7,1.2,0.7,2.1V33h-1.7v-3.7c0-0.5-0.1-0.9-0.4-1.2c-0.3-0.3-0.6-0.4-1.1-0.4
	c-0.5,0-0.8,0.1-1.1,0.4c-0.3,0.3-0.4,0.7-0.4,1.3V33h-1.7v-3.7c0-0.5-0.1-0.9-0.4-1.2c-0.3-0.3-0.6-0.4-1.1-0.4
	c-0.5,0-0.8,0.1-1.1,0.4c-0.3,0.3-0.4,0.7-0.4,1.3V33h-1.7v-6.6h1.7v1.3c0.2-0.4,0.5-0.8,0.8-1c0.4-0.2,0.8-0.4,1.3-0.4
	c0.5,0,1,0.1,1.4,0.4c0.4,0.3,0.7,0.6,0.9,1.1c0.2-0.5,0.5-0.8,0.9-1.1C73,26.4,73.5,26.3,74,26.3z"/>
<path d="M82.1,26.3c0.6,0,1.1,0.1,1.5,0.4c0.4,0.3,0.8,0.7,1,1.2c0.3,0.5,0.4,1.1,0.4,1.8c0,0.7-0.1,1.3-0.4,1.8
	c-0.2,0.5-0.6,0.9-1,1.2c-0.4,0.3-1,0.4-1.5,0.4s-1-0.1-1.4-0.4c-0.4-0.3-0.7-0.6-0.8-1.1v4.6h-1.7v-9.8h1.7v1.4
	c0.2-0.4,0.4-0.8,0.8-1.1C81,26.4,81.5,26.3,82.1,26.3z M81.6,27.7c-0.5,0-0.9,0.2-1.3,0.5c-0.3,0.3-0.5,0.8-0.5,1.4
	c0,0.6,0.2,1.1,0.5,1.4c0.3,0.3,0.8,0.5,1.3,0.5c0.5,0,1-0.2,1.3-0.5c0.3-0.3,0.5-0.8,0.5-1.4c0-0.6-0.2-1.1-0.5-1.4
	S82.1,27.7,81.6,27.7z"/>
<path d="M87.9,24.1V33h-1.7v-8.9H87.9z"/>
<path d="M95.7,29.4c0,0.2,0,0.4-0.1,0.6h-4.9c0,0.6,0.2,1,0.5,1.3c0.3,0.3,0.7,0.4,1.1,0.4c0.4,0,0.7-0.1,1-0.3
	c0.3-0.2,0.4-0.5,0.5-0.8h1.8c-0.1,0.5-0.3,0.9-0.6,1.2c-0.3,0.4-0.7,0.7-1.1,0.9c-0.4,0.2-0.9,0.3-1.5,0.3c-0.6,0-1.2-0.1-1.7-0.4
	c-0.5-0.3-0.9-0.7-1.2-1.2c-0.3-0.5-0.4-1.1-0.4-1.8c0-0.7,0.1-1.3,0.4-1.8c0.3-0.5,0.7-0.9,1.2-1.2c0.5-0.3,1.1-0.4,1.7-0.4
	c0.7,0,1.2,0.1,1.7,0.4c0.5,0.3,0.9,0.6,1.1,1.1C95.6,28.3,95.7,28.8,95.7,29.4z M94,29.3c0-0.5-0.1-1-0.4-1.2
	c-0.3-0.3-0.7-0.4-1.1-0.4c-0.5,0-0.8,0.1-1.2,0.4c-0.3,0.3-0.5,0.7-0.5,1.2H94z"/>
<path d="M100.4,31.5V33h-0.9c-0.7,0-1.3-0.2-1.7-0.5c-0.4-0.4-0.6-1-0.6-1.8v-2.9h-0.9v-1.4h0.9v-1.6h1.7v1.6h1.5v1.4h-1.5v2.9
	c0,0.3,0.1,0.5,0.2,0.7c0.1,0.1,0.3,0.2,0.6,0.2H100.4z"/>
<path d="M107.9,29.4c0,0.2,0,0.4-0.1,0.6H103c0,0.6,0.2,1,0.5,1.3c0.3,0.3,0.7,0.4,1.1,0.4c0.4,0,0.7-0.1,1-0.3
	c0.3-0.2,0.4-0.5,0.5-0.8h1.8c-0.1,0.5-0.3,0.9-0.6,1.2c-0.3,0.4-0.7,0.7-1.1,0.9c-0.4,0.2-0.9,0.3-1.5,0.3c-0.6,0-1.2-0.1-1.7-0.4
	c-0.5-0.3-0.9-0.7-1.2-1.2c-0.3-0.5-0.4-1.1-0.4-1.8c0-0.7,0.1-1.3,0.4-1.8c0.3-0.5,0.7-0.9,1.2-1.2c0.5-0.3,1.1-0.4,1.7-0.4
	c0.7,0,1.2,0.1,1.7,0.4c0.5,0.3,0.9,0.6,1.1,1.1C107.8,28.3,107.9,28.8,107.9,29.4z M106.2,29.3c0-0.5-0.1-1-0.4-1.2
	c-0.3-0.3-0.7-0.4-1.1-0.4c-0.5,0-0.8,0.1-1.2,0.4c-0.3,0.3-0.5,0.7-0.5,1.2H106.2z"/>
<path d="M115.3,31.5V33h-0.9c-0.7,0-1.3-0.2-1.7-0.5c-0.4-0.4-0.6-1-0.6-1.8v-2.9h-0.9v-1.4h0.9v-1.6h1.7v1.6h1.5v1.4h-1.5v2.9
	c0,0.3,0.1,0.5,0.2,0.7c0.1,0.1,0.3,0.2,0.6,0.2H115.3z"/>
<path d="M120.5,26.3c0.8,0,1.4,0.3,1.8,0.8c0.5,0.5,0.7,1.2,0.7,2.1V33h-1.7v-3.7c0-0.5-0.1-0.9-0.4-1.2c-0.3-0.3-0.6-0.4-1.1-0.4
	c-0.5,0-0.9,0.2-1.2,0.5s-0.4,0.8-0.4,1.3V33h-1.7v-8.9h1.7v3.6c0.2-0.4,0.5-0.8,0.9-1C119.5,26.4,119.9,26.3,120.5,26.3z"/>
<path d="M130.7,29.4c0,0.2,0,0.4-0.1,0.6h-4.9c0,0.6,0.2,1,0.5,1.3c0.3,0.3,0.7,0.4,1.1,0.4c0.4,0,0.7-0.1,1-0.3
	c0.3-0.2,0.4-0.5,0.5-0.8h1.8c-0.1,0.5-0.3,0.9-0.6,1.2c-0.3,0.4-0.7,0.7-1.1,0.9c-0.4,0.2-0.9,0.3-1.5,0.3c-0.6,0-1.2-0.1-1.7-0.4
	c-0.5-0.3-0.9-0.7-1.2-1.2c-0.3-0.5-0.4-1.1-0.4-1.8c0-0.7,0.1-1.3,0.4-1.8c0.3-0.5,0.7-0.9,1.2-1.2c0.5-0.3,1.1-0.4,1.7-0.4
	c0.7,0,1.2,0.1,1.7,0.4c0.5,0.3,0.9,0.6,1.1,1.1C130.6,28.3,130.7,28.8,130.7,29.4z M129,29.3c0-0.5-0.1-1-0.4-1.2
	c-0.3-0.3-0.7-0.4-1.1-0.4c-0.5,0-0.8,0.1-1.2,0.4c-0.3,0.3-0.5,0.7-0.5,1.2H129z"/>
<path d="M137.3,26.3c0.5,0,1,0.1,1.3,0.3c0.4,0.2,0.7,0.5,0.9,0.9v-1.2h1.7v9.8h-1.7v-4.5c-0.2,0.4-0.5,0.8-0.9,1
	c-0.4,0.2-0.8,0.3-1.3,0.3c-0.6,0-1.1-0.1-1.5-0.4c-0.5-0.3-0.8-0.7-1.1-1.2c-0.3-0.5-0.4-1.1-0.4-1.8c0-0.7,0.1-1.3,0.4-1.8
	c0.3-0.5,0.6-0.9,1.1-1.2C136.2,26.4,136.7,26.3,137.3,26.3z M137.7,27.8c-0.5,0-0.9,0.2-1.3,0.5c-0.3,0.3-0.5,0.8-0.5,1.4
	c0,0.6,0.2,1.1,0.5,1.4c0.3,0.3,0.8,0.5,1.3,0.5c0.3,0,0.6-0.1,0.9-0.2c0.3-0.2,0.5-0.4,0.6-0.7s0.2-0.6,0.2-1c0-0.4-0.1-0.8-0.2-1
	s-0.4-0.5-0.6-0.6C138.3,27.8,138,27.8,137.7,27.8z"/>
<path d="M149,26.4V33h-1.7v-1.3c-0.2,0.4-0.5,0.8-0.9,1.1c-0.4,0.2-0.9,0.4-1.4,0.4c-0.8,0-1.4-0.3-1.8-0.8
	c-0.5-0.5-0.7-1.2-0.7-2.1v-3.9h1.7V30c0,0.5,0.1,0.9,0.4,1.2c0.3,0.3,0.6,0.4,1.1,0.4c0.5,0,0.9-0.2,1.2-0.5
	c0.3-0.3,0.4-0.8,0.4-1.3v-3.5H149z"/>
<path d="M150.4,24.4c0-0.3,0.1-0.5,0.3-0.7c0.2-0.2,0.4-0.3,0.8-0.3s0.6,0.1,0.8,0.3c0.2,0.2,0.3,0.4,0.3,0.7c0,0.3-0.1,0.5-0.3,0.7
	c-0.2,0.2-0.4,0.3-0.8,0.3s-0.6-0.1-0.8-0.3C150.4,24.9,150.4,24.7,150.4,24.4z M152.2,26.4V33h-1.7v-6.6H152.2z"/>
<path d="M155.1,31.6h3.3V33h-5.1v-1.3l3.1-3.9h-3v-1.4h4.9v1.3L155.1,31.6z"/>
<path class="st24" d="M50,52.4V55h-1.4v-7.1h2.6c0.8,0,1.5,0.2,1.9,0.6c0.4,0.4,0.6,0.9,0.6,1.6c0,0.7-0.2,1.2-0.7,1.6
	c-0.4,0.4-1.1,0.6-1.9,0.6H50z M51.1,51.2c0.8,0,1.2-0.4,1.2-1.1c0-0.4-0.1-0.6-0.3-0.8c-0.2-0.2-0.5-0.3-0.9-0.3h-1v2.2H51.1z"/>
<path class="st24" d="M56.1,50.5c0.2-0.4,0.5-0.6,0.8-0.8c0.3-0.2,0.7-0.3,1.1-0.3v1.5h-0.4c-1,0-1.5,0.5-1.5,1.4V55h-1.4v-5.5h1.4
	V50.5z"/>
<path class="st24" d="M61.4,49.4c0.5,0,1,0.1,1.5,0.3c0.4,0.2,0.8,0.6,1,1c0.2,0.4,0.4,0.9,0.4,1.5c0,0.6-0.1,1.1-0.4,1.5
	c-0.2,0.4-0.6,0.8-1,1c-0.4,0.2-0.9,0.3-1.5,0.3s-1-0.1-1.5-0.3c-0.4-0.2-0.8-0.6-1-1c-0.2-0.4-0.4-0.9-0.4-1.5
	c0-0.6,0.1-1.1,0.4-1.5c0.2-0.4,0.6-0.8,1-1C60.3,49.5,60.8,49.4,61.4,49.4z M61.4,50.6c-0.4,0-0.7,0.1-1,0.4
	c-0.3,0.3-0.4,0.7-0.4,1.2c0,0.5,0.1,0.9,0.4,1.2c0.3,0.3,0.6,0.4,1,0.4c0.4,0,0.7-0.1,1-0.4c0.3-0.3,0.4-0.7,0.4-1.2
	c0-0.5-0.1-0.9-0.4-1.2C62.1,50.7,61.7,50.6,61.4,50.6z"/>
<path class="st24" d="M67.4,49.4c0.5,0,0.9,0.1,1.2,0.3c0.3,0.2,0.6,0.5,0.7,0.9v-1.2h1.4V55c0,0.5-0.1,1-0.3,1.4
	c-0.2,0.4-0.5,0.7-0.9,1c-0.4,0.2-0.9,0.4-1.5,0.4c-0.8,0-1.4-0.2-1.9-0.6c-0.5-0.4-0.8-0.9-0.9-1.6h1.4c0.1,0.3,0.2,0.5,0.5,0.7
	c0.2,0.2,0.5,0.2,0.9,0.2c0.4,0,0.7-0.1,1-0.4c0.3-0.2,0.4-0.6,0.4-1.1v-1.2c-0.1,0.4-0.4,0.7-0.7,0.9c-0.3,0.2-0.7,0.3-1.2,0.3
	c-0.5,0-0.9-0.1-1.3-0.3c-0.4-0.2-0.7-0.6-0.9-1c-0.2-0.4-0.3-0.9-0.3-1.5c0-0.6,0.1-1.1,0.3-1.5c0.2-0.4,0.5-0.8,0.9-1
	C66.5,49.5,66.9,49.4,67.4,49.4z M67.8,50.6c-0.4,0-0.8,0.1-1.1,0.4c-0.3,0.3-0.4,0.7-0.4,1.2s0.1,0.9,0.4,1.2
	c0.3,0.3,0.6,0.4,1.1,0.4c0.4,0,0.8-0.1,1.1-0.4c0.3-0.3,0.4-0.7,0.4-1.2c0-0.5-0.1-0.9-0.4-1.2C68.6,50.8,68.2,50.6,67.8,50.6z"/>
<path class="st24" d="M73.4,50.5c0.2-0.4,0.5-0.6,0.8-0.8c0.3-0.2,0.7-0.3,1.1-0.3v1.5h-0.4c-1,0-1.5,0.5-1.5,1.4V55H72v-5.5h1.4
	V50.5z"/>
<path class="st24" d="M81.3,52c0,0.1,0,0.3,0,0.5h-4.1c0,0.5,0.2,0.9,0.4,1.1c0.2,0.2,0.6,0.3,0.9,0.3c0.3,0,0.6-0.1,0.8-0.2
	c0.2-0.2,0.4-0.4,0.4-0.7h1.5c-0.1,0.4-0.2,0.7-0.5,1c-0.2,0.3-0.6,0.5-0.9,0.7c-0.4,0.2-0.8,0.3-1.2,0.3c-0.5,0-1-0.1-1.4-0.3
	c-0.4-0.2-0.7-0.6-1-1c-0.2-0.4-0.3-0.9-0.3-1.5c0-0.6,0.1-1.1,0.3-1.5c0.2-0.4,0.6-0.8,1-1c0.4-0.2,0.9-0.3,1.4-0.3
	c0.5,0,1,0.1,1.4,0.3c0.4,0.2,0.7,0.5,0.9,0.9C81.2,51.1,81.3,51.5,81.3,52z M79.9,51.9c0-0.5-0.1-0.8-0.4-1
	c-0.3-0.2-0.6-0.3-0.9-0.3c-0.4,0-0.7,0.1-1,0.3c-0.3,0.2-0.4,0.6-0.4,1H79.9z"/>
<path class="st24" d="M84.2,49.4c0.7,0,1.2,0.2,1.6,0.5c0.4,0.3,0.7,0.8,0.8,1.4h-1.3c-0.1-0.3-0.2-0.5-0.4-0.6s-0.4-0.2-0.7-0.2
	c-0.2,0-0.4,0.1-0.6,0.2c-0.1,0.1-0.2,0.3-0.2,0.5c0,0.2,0.1,0.3,0.2,0.4c0.1,0.1,0.2,0.2,0.4,0.2c0.2,0.1,0.4,0.1,0.7,0.2
	c0.4,0.1,0.8,0.2,1,0.3c0.3,0.1,0.5,0.3,0.7,0.5c0.2,0.2,0.3,0.5,0.3,0.9c0,0.5-0.2,0.9-0.6,1.2c-0.4,0.3-0.9,0.4-1.5,0.4
	c-0.7,0-1.3-0.2-1.7-0.5c-0.4-0.3-0.7-0.8-0.8-1.4h1.3c0,0.3,0.2,0.5,0.4,0.6c0.2,0.2,0.5,0.2,0.8,0.2c0.2,0,0.4-0.1,0.5-0.2
	c0.1-0.1,0.2-0.3,0.2-0.5c0-0.2-0.1-0.3-0.2-0.4c-0.1-0.1-0.2-0.2-0.4-0.2c-0.2-0.1-0.4-0.1-0.7-0.2c-0.4-0.1-0.8-0.2-1-0.3
	c-0.3-0.1-0.5-0.3-0.7-0.5c-0.2-0.2-0.3-0.5-0.3-0.9c0-0.5,0.2-0.9,0.5-1.2C83.1,49.5,83.6,49.4,84.2,49.4z"/>
<path class="st24" d="M89.6,49.4c0.7,0,1.2,0.2,1.6,0.5c0.4,0.3,0.7,0.8,0.8,1.4h-1.3c-0.1-0.3-0.2-0.5-0.4-0.6
	c-0.2-0.2-0.4-0.2-0.7-0.2c-0.2,0-0.4,0.1-0.6,0.2c-0.1,0.1-0.2,0.3-0.2,0.5c0,0.2,0.1,0.3,0.2,0.4c0.1,0.1,0.2,0.2,0.4,0.2
	c0.2,0.1,0.4,0.1,0.7,0.2c0.4,0.1,0.8,0.2,1,0.3c0.3,0.1,0.5,0.3,0.7,0.5c0.2,0.2,0.3,0.5,0.3,0.9c0,0.5-0.2,0.9-0.6,1.2
	c-0.4,0.3-0.9,0.4-1.5,0.4c-0.7,0-1.3-0.2-1.7-0.5c-0.4-0.3-0.7-0.8-0.8-1.4h1.3c0,0.3,0.2,0.5,0.4,0.6c0.2,0.2,0.5,0.2,0.8,0.2
	c0.2,0,0.4-0.1,0.6-0.2c0.1-0.1,0.2-0.3,0.2-0.5c0-0.2-0.1-0.3-0.2-0.4c-0.1-0.1-0.2-0.2-0.4-0.2c-0.2-0.1-0.4-0.1-0.7-0.2
	c-0.4-0.1-0.8-0.2-1-0.3c-0.3-0.1-0.5-0.3-0.7-0.5c-0.2-0.2-0.3-0.5-0.3-0.9c0-0.5,0.2-0.9,0.6-1.2C88.5,49.5,89,49.4,89.6,49.4z"/>
<path class="st23" d="M97.4,51.8c0,2.2,0.8,3.2,2.4,3.2c0.9,0,1.5-0.3,1.9-0.9s0.6-1.4,0.6-2.4c0-1-0.2-1.8-0.6-2.4s-1-0.9-1.9-0.9
	C98.2,48.5,97.4,49.6,97.4,51.8z M101,51.8c0,0.7-0.1,1.2-0.2,1.5c-0.2,0.3-0.5,0.5-0.9,0.5c-0.5,0-0.8-0.2-0.9-0.5
	c-0.2-0.4-0.2-0.9-0.2-1.5c0-0.6,0.1-1.1,0.2-1.5c0.2-0.4,0.5-0.5,0.9-0.5c0.5,0,0.8,0.2,0.9,0.5C100.9,50.6,101,51.1,101,51.8z"/>
<path class="st23" d="M106.3,46.5l-2.4,10.2h-1.2l2.4-10.2H106.3z"/>
<path class="st23" d="M106.2,49.8v-1.2h2.3V55h-1.3v-5.2H106.2z"/>
</svg>
