<?xml version="1.0" encoding="utf-8"?>
<!-- Generator: Adobe Illustrator 24.1.2, SVG Export Plug-In . SVG Version: 6.00 Build 0)  -->
<svg version="1.1" id="Layer_1" xmlns="http://www.w3.org/2000/svg" xmlns:xlink="http://www.w3.org/1999/xlink" x="0px" y="0px"
	 viewBox="0 0 328 80" style="enable-background:new 0 0 328 80;" xml:space="preserve">
<style type="text/css">
	.st0{fill:#F5F5F5;}
	.st1{opacity:0.4;}
	.st2{clip-path:url(#SVGID_2_);}
	.st3{fill:#F1F0F0;}
	.st4{fill:#3E3E3E;}
	.st5{fill:#626363;}
	.st6{fill:#8A8A8A;}
	.st7{fill:#FCD4CA;}
	.st8{fill:url(#SVGID_3_);}
	.st9{fill:#434444;}
	.st10{fill:#B5242F;}
	.st11{fill:#716F70;}
	.st12{fill:#D4D4D4;}
	.st13{fill:#3D3D3D;}
	.st14{fill:#787979;}
	.st15{fill:#575958;}
	.st16{fill:#B0B0B0;}
	.st17{fill-rule:evenodd;clip-rule:evenodd;fill:#434343;}
	.st18{fill-rule:evenodd;clip-rule:evenodd;fill:#C6C6C5;}
	.st19{fill:#434343;}
	.st20{fill-rule:evenodd;clip-rule:evenodd;fill:#6C6C6C;}
	.st21{fill:#898989;}
	.st22{fill:#FFFFFF;}
	.st23{fill:#B5B5B6;}
	.st24{fill:#DAD9D9;}
	.st25{fill-rule:evenodd;clip-rule:evenodd;fill:#FFFFFF;}
	.st26{fill:url(#SVGID_4_);}
	.st27{fill:#B3B4B4;}
	.st28{fill:#747475;}
	.st29{fill-rule:evenodd;clip-rule:evenodd;fill:#808080;}
	.st30{fill-rule:evenodd;clip-rule:evenodd;fill:#48484A;}
	.st31{fill-rule:evenodd;clip-rule:evenodd;fill:#B0B0B0;}
	.st32{fill:#F68A4E;}
	.st33{fill:#FCC9AE;}
	.st34{fill:#FBFCFD;}
	.st35{fill:#969696;}
</style>
<path class="st0" d="M12,0h304c6.6,0,12,5.4,12,12v56c0,6.6-5.4,12-12,12H12C5.4,80,0,74.6,0,68V12C0,5.4,5.4,0,12,0z"/>
<path class="st0" d="M12,0h304c6.6,0,12,5.4,12,12v56c0,6.6-5.4,12-12,12H12C5.4,80,0,74.6,0,68V12C0,5.4,5.4,0,12,0z"/>
<g class="st1">
	<g>
		<defs>
			<path id="SVGID_1_" d="M205,0h111c6.6,0,12,5.4,12,12v56c0,6.6-5.4,12-12,12H205V0z"/>
		</defs>
		<clipPath id="SVGID_2_">
			<use xlink:href="#SVGID_1_"  style="overflow:visible;"/>
		</clipPath>
		<g class="st2">
			<path class="st3" d="M264,18.8c1.2,1.5,3.8,4.1,7.3,6.1c2.6,1.5,4.2,1.9,4.9,3.6c0.5,1.3,0.3,2.8-0.5,5
				c-1.6,4.7,0.9,9.5,7.8,12.1c6.9,2.6,12.6,0.1,18.4-7.9c4.3-5.9,5.5,0.8,15.1,3.1s18.6-4.9,15.4-22.7c-3.3-17.8-7.8-44.9-7.8-44.9
				c-2.4-14.1-2.9-29.7-11.3-41.8c-3.1-4.3-7.2-7.9-12.1-9.5c-6.4-2-13.5,0.3-18.1,5.3c-3,3.3-1.3,7-3.1,10.7
				c-1.8,3.8-4.1,6.3-9.2,2.2c-5.1-4.1-8.7-7.3-13.9-3.8c-7.5,4.9-7.1,13.7-2,22.4c5.1,8.8,12.2,19.2,11.5,27.9
				c-0.8,8.9-6.8,10.9-6.1,21.5C260.6,10.4,261,15,264,18.8z"/>
			<path class="st4" d="M276,67.1h-0.4v29h0.4V67.1z"/>
			<path class="st5" d="M289.2,67.4l-24.4-0.2c0,0-2.6-0.6-2.1-1.6c1.4-3.1,13.7-2.9,20.8-2.2c7.1,0.7,5.6,2,5.6,2L289.2,67.4z"/>
			<path class="st4" d="M289.3,66.2l-27.9-0.4l0.9,2.3l27.1,0L289.3,66.2z"/>
			<path d="M279.5,31.2c0.3-0.9,0.1-2.1-1.5-2.5c-0.6-0.1-1-0.3-1.6-0.1c-0.7-1.2-3.1,0.7-3.2,0.8c-2.8,1.3-0.9,2.9-1,3.8
				c-0.1,1,0.7-0.6,0.9-0.8c0,0-0.2-0.2,0.1-0.6c0.3-0.5,1.1-0.7,1,0.5c0,0.3,1.2-1.8,1.4-2c0,0,0.1,0,0.1-0.1c0,0,0,0,0.1-0.1
				c1-0.7,1.9,2,2.8,1.9C278.9,32,279.3,31.8,279.5,31.2z"/>
			<path class="st6" d="M286.5,62.6c1.2-0.3,5.1,0.6,4.6-5.4c-0.8-10.7-2.3-14.5-7-16.7c-1.1-0.5-4.3-1.2-4.5-1.3
				c-0.3-0.2-6,0.3-6.3,0.1c-1.1-0.6-6.3,1.5-7.7,3.4c0,0-6.5,11.9-4.8,15.4c0.9,1.7-1.1,4.4,6,3.2
				C267.4,61.2,276.8,63.9,286.5,62.6z"/>
			<path class="st7" d="M273.3,38.3c0.1,0.5,0,1.1,0,1.1c0,2.1,1.3,3.3,2.9,3.3s2.9-1.1,3.1-2.7l0.1-2.7
				C279.4,37.3,273,37.1,273.3,38.3z"/>
			
				<linearGradient id="SVGID_3_" gradientUnits="userSpaceOnUse" x1="530.356" y1="-214.0523" x2="536.4316" y2="-214.0523" gradientTransform="matrix(1 0 0 -1 -257 -175.5)">
				<stop  offset="0.4182" style="stop-color:#E6AF92"/>
				<stop  offset="1" style="stop-color:#E6A392"/>
			</linearGradient>
			<path class="st8" d="M279,41.1c0.5-0.6,0.4-3.3,0.4-5h-6.1c0,0.9,1.7,3.3,1.8,4.2C277.3,41.3,279,41.1,279,41.1z"/>
			<path class="st7" d="M279.5,35c0-0.8,0.2-2.5,0-3.2h-3.4H276h-3.3c-0.2,0.7-0.3,2.3-0.3,3.1c0,0,0,0,0,0c-0.3-0.1-0.5-0.5-0.5,0
				c-0.1,1.4,0.2,2,0.5,2c0.1,0,0.1,0,0.2,0c0.4,2.4,1.6,4.1,3.5,4.1c0,0,0,0,0,0c2,0,3.1-1.7,3.5-4.1c0.3,0,0.5,0,0.6-1.6
				C280.3,34.1,279.7,34.8,279.5,35z"/>
			<path d="M271.7,32.2c-0.3,0.3,0.4,1.4,0.6,2.6c0,0.3,0.2,0.7,0.3,0.7c0-0.3,0.1,2.2,0.2-1.8c-0.1-0.6,0.5-1.3,1.1-1.4
				c0.4-0.1,2.1,0.4,2.5,0.4c0.7,0,1.3-0.6,2-0.4c0.2,0.1,1,0.2,0.9,1.6c0,0.1,0.1,1.4,0,1.8c0-0.1,0.1-0.5,0.2-0.6
				c0.1-0.1,0.3-0.1,0.3-0.2c0.1-0.4,1.2-3.8,0-4.4c-1.7-2.4-5.5-0.7-5.9-0.6C272.2,30.2,272.7,31,271.7,32.2z"/>
			<path class="st9" d="M287.4,61.2c-6-1.3-7.9-1.1-8.9-1.1c-1.6-0.1-5.5-2.5-6.8-2.2c-3.2,0.6-7.2,5.9-4.5,6.1
				c10.7,1,16.9,2.8,18.6,4.4C285.7,65.8,286.5,63.5,287.4,61.2z"/>
			<path class="st10" d="M268.6,56.5c-2.4-0.1-3-0.5-4.6-0.6l-0.1,0c0.1,0,3.2,0.9,4.8,0.9L268.6,56.5z"/>
			<path class="st10" d="M287.4,56.9c-1.6,0.4-2,0.6-3.1,0.9l-0.1,0c0.1,0,2-0.9,3.2-1L287.4,56.9z"/>
			<path class="st9" d="M288.9,94.9c-0.8,0-1.5-1.3-2.6-1c-3.2,0.9-3-14.8-4.2-22.2c-1-6-2.3-7.5-2.3-7.5c-0.1-2.2,1.5-4.1,3.3-4.2
				c1.8-0.2,4.4,1.1,4.5,3.3l3.7,31.4C291.3,94.6,290.3,95,288.9,94.9z"/>
			<path class="st9" d="M266.8,61.5c-1.8,0-2.7,2.6-2.7,4.8c0,0-1.2,11.5-1,14c0.6,12.3-1.2,10.9-1.2,13.9c0,1.2,1.4,2.4,4.6,0.9
				c1.5-0.7,3.2,2.5,3.2-6.7c1-11.9,2-25.1,2-25.1C271.7,61.1,268.6,61.4,266.8,61.5z"/>
			<path class="st11" d="M312.2,82.5h-0.1l0-0.3h0.1c1,0,2-0.1,3-0.3l0,0.3C314.2,82.4,313.2,82.5,312.2,82.5z M308.9,82.2
				c-1-0.2-2-0.5-3-0.9l0.1-0.2c1,0.4,2,0.7,3,0.8L308.9,82.2z M318.2,81.4l-0.1-0.2c1-0.4,1.9-0.8,2.8-1.4l0.1,0.2
				C320.2,80.6,319.2,81,318.2,81.4z M323.6,78.2l-0.2-0.2c0.8-0.7,1.5-1.4,2.2-2.2l0.2,0.2C325.1,76.7,324.4,77.5,323.6,78.2z
				 M327.6,73.3l-0.2-0.1c0.5-0.9,1-1.8,1.3-2.8l0.2,0.1C328.6,71.5,328.2,72.4,327.6,73.3z M329.8,67.4l-0.3,0
				c0.1-0.8,0.2-1.7,0.2-2.5c0-0.2,0-0.4,0-0.6l0.3,0c0,0.2,0,0.4,0,0.6C330,65.8,329.9,66.6,329.8,67.4z M329.2,61.3
				c-0.3-1-0.7-2-1.2-2.8l0.2-0.1c0.5,0.9,0.9,1.9,1.2,2.9L329.2,61.3z M326.2,55.9c-0.7-0.7-1.5-1.4-2.3-2.1l0.2-0.2
				c0.9,0.6,1.7,1.3,2.4,2.1L326.2,55.9z M321.2,52.2c-0.9-0.5-1.8-0.9-2.9-1.2l0.1-0.2c1,0.4,2,0.8,2.9,1.2L321.2,52.2z
				 M315.4,50.1c-0.2,0-0.3-0.1-0.5-0.1l-0.5-0.1l0.5-0.1c0.9-0.2,1.7-0.5,2.5-0.8l0.1,0.2c-0.6,0.3-1.3,0.5-2,0.7c0,0,0,0,0,0
				L315.4,50.1z M320.3,47.8l-0.1-0.2c0.9-0.6,1.7-1.2,2.4-1.9l0.2,0.2C322,46.5,321.2,47.2,320.3,47.8z M324.7,43.3l-0.2-0.1
				c0.5-0.9,1-1.8,1.3-2.8l0.2,0.1C325.7,41.5,325.2,42.5,324.7,43.3z M326.8,37.4l-0.3,0c0.1-1,0.2-2,0.2-3.1v0h0.3v0
				C327,35.4,327,36.4,326.8,37.4z M326.6,31.2c-0.1-1-0.3-2-0.6-3.1l0.3-0.1c0.2,1,0.4,2.1,0.6,3.1L326.6,31.2z M325.1,25.1
				c-0.3-1-0.7-1.9-1.1-2.9l0.2-0.1c0.4,1,0.8,2,1.1,2.9L325.1,25.1z M322.7,19.4c-0.5-0.9-1-1.8-1.5-2.7l0.2-0.1
				c0.6,0.9,1.1,1.8,1.6,2.7L322.7,19.4z M319.4,14.1c-0.6-0.8-1.2-1.7-1.9-2.5l0.2-0.2c0.7,0.8,1.3,1.6,1.9,2.5L319.4,14.1z
				 M315.4,9.3c-0.7-0.8-1.5-1.5-2.2-2.2l0.2-0.2c0.8,0.7,1.5,1.4,2.2,2.2L315.4,9.3z M310.8,5.1c-0.8-0.6-1.7-1.3-2.5-1.8l0.1-0.2
				c0.9,0.6,1.7,1.2,2.6,1.8L310.8,5.1z M305.6,1.7c-0.9-0.5-1.9-0.9-2.8-1.3l0.1-0.2c1,0.4,1.9,0.8,2.9,1.3L305.6,1.7z M284.6,0.5
				l-0.1-0.2c1-0.4,2-0.8,3-1.1l0.1,0.2C286.5-0.3,285.5,0.1,284.6,0.5z M299.8-0.6c-1-0.3-2-0.5-3-0.6l0-0.3c1,0.1,2.1,0.4,3.1,0.6
				L299.8-0.6z M290.5-1.2l0-0.3c1-0.1,2.1-0.2,3.1-0.2h0v0.3h0C292.6-1.5,291.6-1.4,290.5-1.2z"/>
			<path class="st12" d="M310.6,31.9c-0.4-2.4,3.5-3.3,4.6-1.9c-0.3-2.3,1.5-5.3,4.7-5.6c6-0.6,4.3,3.9,7.1,4c2.6,0,0.7-3.9,6.7-2
				c1.4,0.4,2.2,2,3.2,4c2.1-2.3,3.3-0.8,3.7,1.4C330.6,33.3,320.5,33.3,310.6,31.9z"/>
			<path class="st13" d="M312.5,72.5c-0.6-1.1-0.3-2.9,0-5.2c0.2-1.5,0.4-3.2,0.5-5.3l0.6,0c-0.1,2.1-0.3,3.9-0.5,5.3
				c-0.3,2.3-0.5,3.9,0,4.9L312.5,72.5z"/>
			<path class="st14" d="M323.2,46.9c0.3,1.7,1.9,4.1,0.8,5.5c-1,1.2-4,1.2-4.6,2.7c-1,2.2,2,2.1,0.4,4.1c-0.7,0.8-4.2,3.9-5.1,4.4
				c-0.5,0.3-1.8,1.9-3.2,1.2c-3.2-1.5,3.3-22.9,11-24.7C325.8,39.4,322.9,45.4,323.2,46.9z"/>
			<path class="st13" d="M311.3,64.8l-0.3-0.1c2.7-12.1,6-16.6,9.5-21.3c0.3-0.4,0.6-0.8,0.8-1.1l0.2,0.2c-0.3,0.4-0.6,0.8-0.8,1.1
				C317.2,48.2,313.9,52.7,311.3,64.8z"/>
			<path class="st13" d="M320.5,48.6c-1.9,0-2.8,0.7-4,1.8c-0.2,0.2-0.4,0.3-0.6,0.5l-0.2-0.2c0.2-0.2,0.4-0.3,0.6-0.5
				c1.2-1.1,2.2-1.9,4.2-1.9L320.5,48.6z"/>
			<path class="st13" d="M313.6,56.2l-0.2-0.2c0.2-0.2,0.4-0.4,0.6-0.5c0.8-0.7,1.2-1.1,2.7-1.4l0.1,0.3c-1.4,0.3-1.8,0.6-2.6,1.3
				C314,55.9,313.9,56.1,313.6,56.2z"/>
			<path class="st13" d="M317.9,47.4l-0.3,0.1c0.4-0.7,0.5-1.8,0.6-2.5c0.1-0.5,0.1-1,0.3-1.5l0.3,0.1c-0.1,0.5-0.2,1-0.3,1.5
				C318.4,45.8,318.3,46.6,317.9,47.4z"/>
			<path class="st13" d="M312.2,75.2c-0.3-2.4-0.2-4.5-0.1-6.1c0.1-1.9,0.1-3.3-0.4-4.1l0.5-0.3c0.7,1,0.6,2.4,0.5,4.4
				c-0.1,1.6-0.2,3.6,0.1,6L312.2,75.2z"/>
			<path class="st15" d="M315.4,40.8c1.2,1.5,2.1,3.3,1.7,5.3c-0.4,1.8-3.1,6-3.1,7.9c0.1,2.7,3.2,2.1,2.4,5
				c-0.3,1.2-0.9,2.3-1.6,3.2c-0.4,0.6-0.9,2.8-2.7,2.8c-4.1,0-4-2.8-5.2-4.1c-2.4-2.6-4.5-6.1-3.4-9c0.4-1.2,2.4-1,2.8-2.2
				c0.4-1.1-1.4-3.9-1.4-5.2c-0.1-2.7,2.5-1.8,2.4-3.2c-0.2-3,3.4-8.6,5.4-8.5C316.7,33.1,314.4,39.4,315.4,40.8z"/>
			<path class="st13" d="M312,65.1l-0.3-0.1c-3.3-13.8-2-19.9-0.8-26.5c0.1-0.5,0.2-1,0.3-1.6l0.3,0.1c-0.1,0.5-0.2,1-0.3,1.6
				C310,45.1,308.8,51.3,312,65.1z"/>
			<path class="st13" d="M309.9,48.5l-0.3-0.1c0.1-0.3,0.2-0.5,0.3-0.8c0.7-1.7,1.3-3.1,3.4-4l0.1,0.3c-2,0.9-2.5,2.1-3.2,3.8
				C310.2,47.9,310,48.2,309.9,48.5z"/>
			<path class="st13" d="M310.2,55.1L310,55c0.1-0.3,0.2-0.6,0.3-0.8c0.4-1.1,0.7-1.8,2.1-2.8l0.2,0.2c-1.3,0.9-1.5,1.5-2,2.6
				C310.5,54.5,310.4,54.8,310.2,55.1z"/>
			<path class="st13" d="M310.2,43.9l-0.2,0.3c0-0.9-0.4-2.1-0.6-3c-0.2-0.5-0.4-1.1-0.5-1.7l0.3-0.1c0.1,0.5,0.3,1.1,0.5,1.6
				C310,42,310.3,42.9,310.2,43.9z"/>
			<path class="st16" d="M318.3,93.9c0.6-13,3.7-21.8,3.9-24.6h-19.5c0,0,0,0,0,0c0.2,2.8,1.8,8.7,3.9,24.6L318.3,93.9L318.3,93.9z"
				/>
			<path class="st6" d="M322.8,69.5h-21.1c0,0-0.5-2,0-2c11.5-1.2,21.1,0,21.1,0V69.5z"/>
			<path class="st11" d="M232.1,66c-0.4,0-0.7-0.1-1.1-0.1l0-0.3c0.3,0.1,0.7,0.1,1.1,0.1L232.1,66z M227.9,65.2
				c-1-0.4-2-0.8-2.8-1.3l0.1-0.2c0.9,0.5,1.8,1,2.8,1.3L227.9,65.2z M222.6,61.9c-0.7-0.7-1.4-1.5-2-2.4l0.2-0.1
				c0.6,0.9,1.2,1.7,2,2.4L222.6,61.9z M219.1,56.6c-0.4-0.9-0.7-1.9-1-3l0.3-0.1c0.3,1,0.6,2,1,3L219.1,56.6z M217.6,50.5
				c-0.1-1-0.2-1.9-0.2-2.9v-0.2l0.3,0v0.2c0,1,0.1,2,0.2,2.9L217.6,50.5z M217.9,44.3l-0.3,0c0.1-1,0.3-2.1,0.5-3.1l0.3,0.1
				C218.2,42.2,218,43.3,217.9,44.3z M219.2,38.2l-0.2-0.1c0.3-1,0.7-2,1.1-2.9l0.2,0.1C219.9,36.2,219.5,37.2,219.2,38.2z
				 M221.7,32.5l-0.2-0.1c0.5-0.9,1.1-1.8,1.8-2.6l0.2,0.2C222.8,30.7,222.2,31.6,221.7,32.5z M244.1,31c-0.6-0.7-1.3-1.4-2-2
				l0.2-0.2c0.6,0.5,1.2,1.2,1.8,1.8l0,0c0.1,0.1,0.1,0.2,0.2,0.3L244.1,31z M242.4,28c-0.5-1-0.9-2-1.1-2.9l0.2-0.1
				c0.3,1,0.7,1.9,1.1,2.9L242.4,28z M225.6,27.6l-0.2-0.2c0.8-0.7,1.7-1.3,2.6-1.8l0.1,0.2C227.2,26.3,226.4,26.9,225.6,27.6z
				 M239.7,27.1c-0.9-0.6-1.8-1.1-2.7-1.5l0.1-0.2c0.9,0.4,1.8,0.9,2.8,1.5L239.7,27.1z M231,24.8l0-0.3c1-0.2,2.1-0.2,3.2-0.1
				l0,0.3C233,24.6,232,24.6,231,24.8z M240.6,22c-0.1-0.5-0.1-1.1-0.1-1.6c0-0.5,0-1.1,0.1-1.6l0.3,0c-0.1,0.5-0.1,1-0.1,1.6
				c0,0.5,0,1,0.1,1.5L240.6,22z M241.6,15.8l-0.2-0.1c0.4-1,0.9-1.9,1.5-2.8l0.2,0.1C242.5,14,242,14.9,241.6,15.8z M268.8,15.1
				c-0.5-1-1-1.9-1.6-2.7l0.2-0.2c0.6,0.8,1.2,1.7,1.6,2.7L268.8,15.1z M245.1,10.8l-0.2-0.2c0.8-0.7,1.6-1.3,2.6-1.8l0.1,0.2
				C246.7,9.5,245.9,10.1,245.1,10.8z M265.1,10.2c-0.8-0.7-1.6-1.3-2.6-1.7l0.1-0.2c0.9,0.5,1.8,1.1,2.6,1.8L265.1,10.2z
				 M250.4,7.7l-0.1-0.2c1-0.3,2-0.6,3.1-0.7l0,0.3C252.4,7.1,251.4,7.4,250.4,7.7z M259.6,7.3c-1-0.3-2-0.4-3.1-0.5l0-0.3
				c1.1,0.1,2.1,0.2,3.1,0.5L259.6,7.3z"/>
			<path class="st16" d="M260.3,3.6l-0.1-0.4c1.4-0.3,2.8-0.6,4.1-0.9l1-0.2l0.1,0.4l-1,0.2C263.1,3,261.7,3.4,260.3,3.6z"/>
			<path class="st16" d="M287.1,3.6c-1.4-0.3-2.8-0.6-4.1-0.9l-1-0.2l0.1-0.4l1,0.2c1.3,0.3,2.7,0.6,4.1,0.9L287.1,3.6z"/>
			<path class="st17" d="M272.1,17.2c0,0.1,0.5,1.1,0.5,1.2c0.8,0,1.5,0,2.3,0c0-0.1,0.3-1.1,0.3-1.2
				C274.5,17.2,272.9,17.2,272.1,17.2z"/>
			<path class="st18" d="M270.8,10.1c0.2,0.6,0.4,3.4,0.6,4h4.8c0.2-0.6,0.5-3.4,0.7-4c0.5-0.8,3.1-3.7,3.9-6.5
				c1.2-3.5-2.1-8.3-7.1-8.3c-5,0-8.5,4.5-7.4,8C267.3,6.1,269.7,8.8,270.8,10.1z"/>
			<path class="st19" d="M274.7,13.7c-0.4-2-0.2-6.2,0.5-9.3c-0.1,0-0.2,0-0.3,0c-0.5-0.1-0.8-0.6-1-1.2c-0.3,0.8-0.8,1.2-1.3,1.3
				c-0.2,0-0.4,0-0.6-0.1c0.4,2.9,0.9,7.1,0.8,9.3l-0.3,0c0.1-2.1-0.3-6.4-0.8-9.5c-0.5-0.3-0.9-1-1.2-1.6c-0.3-0.6-0.6-1.5-0.3-1.8
				l0,0c0.2-0.2,0.5-0.2,0.7-0.1c0.5,0.2,0.7,1.1,0.8,1.6l0,0c0.1,0.4,0.2,1,0.3,1.7c0.2,0.1,0.4,0.2,0.6,0.1c0.3,0,0.8-0.4,1.1-1.4
				c-0.1-0.4-0.2-0.7-0.3-1c-0.2-1,0.1-1.7,0.4-2c0.1-0.1,0.3-0.1,0.4,0c0.2,0.1,0.3,0.5,0.2,1.1c-0.1,0.7-0.3,1.4-0.5,1.9
				c0.3,0.8,0.6,1.3,0.9,1.4c0.1,0,0.2,0,0.3,0c0.2-0.9,0.5-1.6,0.8-2.2l0.1-0.1c0.2-0.3,0.4-0.6,0.6-0.6c0.2,0,0.3,0.3,0.3,0.4
				c0.2,0.7-0.7,2-1,2.3c-0.2,0.2-0.4,0.4-0.6,0.5c-0.7,3-1,7.3-0.6,9.3L274.7,13.7z M276.8,1.5c-0.1,0-0.2,0.3-0.3,0.4L276.4,2
				c-0.3,0.5-0.5,1.1-0.7,1.8c0.1-0.1,0.2-0.2,0.3-0.3c0.4-0.5,1.1-1.5,0.9-2C276.9,1.6,276.8,1.5,276.8,1.5z M270.5,1.1
				c-0.1,0.1,0,0.6,0.4,1.4c0.2,0.4,0.5,0.9,0.9,1.3c-0.1-0.5-0.2-0.9-0.2-1.3l0,0c-0.1-0.4-0.2-1.2-0.6-1.4
				C270.8,0.9,270.6,1,270.5,1.1z M274.2,0C274.2,0,274.2,0,274.2,0c-0.3,0.2-0.6,0.8-0.4,1.7c0,0.2,0.1,0.4,0.1,0.6
				c0.1-0.4,0.2-0.9,0.3-1.4C274.4,0.3,274.3,0,274.2,0C274.2,0,274.2,0,274.2,0z"/>
			<path class="st20" d="M270.6,13.4c0.3,0.3,0.4,0.5,0.6,0.6c-0.5-0.1-0.6,0.8,0.1,0.9c-0.7,0-0.7,0.9,0,0.9c-0.7,0-0.7,1-0.1,1
				c-0.2,0.2-0.3,0.3-0.4,0.5c0.9,0.4,5.8,0.4,5.9,0c-0.1-0.1-0.3-0.3-0.4-0.5c0.7-0.1,0.5-1-0.1-0.9c0.8-0.1,0.5-1,0-0.9
				c0.6-0.1,0.5-0.8,0.1-0.9c0.2-0.2,0.3-0.4,0.5-0.6C274.7,13.4,272.8,13.4,270.6,13.4z"/>
			<path class="st21" d="M287.6,15.8c0.1,0,0,0.1,0,0.1c2.5-1,19.4-1.7,20,2.1c0.9,6.1,1.8,10.3-2.8,12.1c-3,1.2-9.4,0.9-13.6,0.5
				l-3.4,2.5l0.1-2.9c-0.2,0-0.3,0-0.4-0.1C282.9,29.3,280.3,15.7,287.6,15.8z"/>
			<path class="st22" d="M299,22.5c0,1.9-1.5,3.4-3.4,3.4c-1.9,0-3.4-1.5-3.4-3.4c0-1.9,1.5-3.4,3.4-3.4
				C297.5,19.1,299,20.6,299,22.5z"/>
			<path class="st23" d="M297.7,22.5l-3-1.7v3.4L297.7,22.5l-3-1.7v3.4L297.7,22.5z"/>
			<path class="st16" d="M235.6,59.4l24.4-0.1l0.5-2.9l-24.8,0.1C235.5,56.5,235.6,59.4,235.6,59.4z"/>
			<path class="st4" d="M258.4,59.3c-0.4-0.1-0.7-0.3-0.8-0.6c-0.1-0.4-0.1-0.9,0.1-1.5c0.1-0.4,0.2-0.6,0.3-0.8
				c0.2-0.2,0.5-0.2,0.9,0l0,0c-0.3-0.2-0.6-0.2-0.9,0c-0.1,0.2-0.3,0.4-0.3,0.8c-0.1,0.7-0.2,1.2-0.1,1.5
				C257.8,59.1,258,59.2,258.4,59.3L258.4,59.3z"/>
			<path class="st4" d="M258.5,59.4L258.5,59.4c-0.4-0.1-0.7-0.3-0.8-0.6c-0.1-0.4-0.1-0.9,0.1-1.5c0.1-0.4,0.2-0.6,0.4-0.8
				c0.2-0.2,0.5-0.2,0.9,0l0,0l0,0.1l0,0c-0.3-0.2-0.6-0.2-0.9,0c-0.1,0.2-0.3,0.4-0.3,0.8c-0.1,0.7-0.2,1.2-0.1,1.5
				C257.8,59,258,59.2,258.5,59.4L258.5,59.4L258.5,59.4z M257.8,59c0.1,0.2,0.3,0.3,0.6,0.3C258.1,59.3,257.9,59.2,257.8,59z
				 M257.8,57.1c0.1-0.3,0.2-0.5,0.3-0.7C257.9,56.6,257.8,56.8,257.8,57.1C257.7,57.1,257.8,57.1,257.8,57.1z M257.6,58
				c0,0.1,0,0.2,0,0.3C257.6,58.2,257.6,58.1,257.6,58z"/>
			<path class="st4" d="M256.6,59.4c-0.4-0.1-0.7-0.3-0.8-0.6c-0.1-0.3-0.1-0.9,0.1-1.5c0.1-0.4,0.2-0.6,0.3-0.8
				c0.2-0.2,0.5-0.2,0.9,0l0,0c-0.3-0.2-0.6-0.2-0.9,0c-0.1,0.2-0.3,0.4-0.3,0.8c-0.1,0.7-0.2,1.2-0.1,1.5
				C255.9,59.1,256.1,59.3,256.6,59.4L256.6,59.4z"/>
			<path class="st4" d="M256.6,59.4L256.6,59.4c-0.4-0.1-0.7-0.3-0.8-0.6c-0.1-0.4-0.1-0.9,0.1-1.5c0.1-0.4,0.2-0.6,0.3-0.8
				c0.2-0.2,0.5-0.2,0.9,0l0,0l0,0.1l0,0c-0.3-0.2-0.6-0.2-0.9,0c-0.1,0.2-0.3,0.4-0.3,0.8c-0.1,0.7-0.2,1.2-0.1,1.5
				C255.9,59.1,256.1,59.2,256.6,59.4L256.6,59.4L256.6,59.4z M255.9,59c0.1,0.2,0.3,0.3,0.6,0.3C256.3,59.3,256,59.2,255.9,59z
				 M255.9,57.1c0.1-0.3,0.2-0.5,0.3-0.7C256,56.6,255.9,56.8,255.9,57.1C255.9,57.2,255.9,57.1,255.9,57.1z M255.7,58
				c0,0.1,0,0.2,0,0.3C255.7,58.2,255.7,58.1,255.7,58z"/>
			<path class="st4" d="M254.7,59.4c-0.4-0.1-0.7-0.3-0.8-0.6c-0.1-0.4-0.1-0.9,0.1-1.5c0.1-0.4,0.2-0.6,0.3-0.8
				c0.2-0.2,0.5-0.2,0.9,0l0,0c-0.3-0.2-0.6-0.2-0.9,0c-0.1,0.2-0.3,0.4-0.3,0.8c-0.1,0.7-0.2,1.2-0.1,1.5
				C254,59.1,254.2,59.3,254.7,59.4L254.7,59.4z"/>
			<path class="st4" d="M254.7,59.4L254.7,59.4c-0.4-0.1-0.7-0.3-0.8-0.6c-0.1-0.4-0.1-0.9,0.1-1.5c0.1-0.4,0.2-0.6,0.4-0.8
				c0.2-0.2,0.5-0.2,0.9,0l0,0l0,0.1l0,0c-0.3-0.2-0.6-0.2-0.9,0c-0.1,0.2-0.3,0.4-0.3,0.8c-0.1,0.7-0.2,1.2-0.1,1.5
				C254,59.1,254.3,59.3,254.7,59.4L254.7,59.4L254.7,59.4z M254,59c0.1,0.2,0.3,0.3,0.6,0.3C254.4,59.3,254.2,59.2,254,59z
				 M254,57.1c0.1-0.3,0.2-0.5,0.3-0.7C254.1,56.6,254,56.8,254,57.1C254,57.2,254,57.1,254,57.1z M253.8,58c0,0.1,0,0.2,0,0.3
				C253.8,58.2,253.8,58.1,253.8,58z"/>
			<path class="st4" d="M252.8,59.4c-0.4-0.1-0.7-0.3-0.8-0.6c-0.1-0.3-0.1-0.9,0.1-1.5c0.1-0.4,0.2-0.6,0.3-0.8
				c0.2-0.2,0.5-0.2,0.9,0l0,0c-0.3-0.2-0.6-0.2-0.9,0c-0.2,0.2-0.3,0.4-0.3,0.8c-0.1,0.7-0.2,1.2-0.1,1.5
				C252.1,59.1,252.4,59.3,252.8,59.4L252.8,59.4z"/>
			<path class="st4" d="M252.8,59.4L252.8,59.4c-0.4-0.1-0.7-0.3-0.8-0.6c-0.1-0.4-0.1-0.9,0.1-1.6c0.1-0.4,0.2-0.6,0.3-0.8
				c0.2-0.2,0.5-0.2,0.9,0l0,0l0,0.1l0,0c-0.3-0.2-0.6-0.2-0.8,0c-0.1,0.2-0.3,0.4-0.3,0.8c-0.1,0.7-0.2,1.2-0.1,1.5
				C252.1,59.1,252.4,59.3,252.8,59.4L252.8,59.4L252.8,59.4z M252.1,59c0.1,0.2,0.3,0.3,0.6,0.3C252.5,59.3,252.3,59.2,252.1,59z
				 M252.1,57.1c0.1-0.3,0.2-0.5,0.3-0.7C252.2,56.6,252.1,56.9,252.1,57.1C252.1,57.2,252.1,57.2,252.1,57.1z M252,58.1
				c0,0.1,0,0.2,0,0.3C251.9,58.2,251.9,58.2,252,58.1z"/>
			<path class="st4" d="M250.9,59.4c-0.4-0.1-0.7-0.3-0.8-0.6c-0.1-0.3-0.1-0.9,0.1-1.5c0.1-0.4,0.2-0.6,0.3-0.8
				c0.2-0.2,0.5-0.2,0.9,0l0,0c-0.3-0.2-0.6-0.2-0.9,0c-0.1,0.2-0.3,0.4-0.3,0.8c-0.1,0.7-0.2,1.2-0.1,1.5
				C250.2,59.1,250.5,59.3,250.9,59.4L250.9,59.4z"/>
			<path class="st4" d="M250.9,59.4L250.9,59.4c-0.4-0.1-0.7-0.3-0.8-0.6c-0.1-0.4-0.1-0.9,0.1-1.6c0.1-0.4,0.2-0.6,0.4-0.8
				c0.2-0.2,0.5-0.2,0.9,0l0,0l0,0.1l0,0c-0.3-0.2-0.6-0.2-0.9,0c-0.1,0.2-0.3,0.4-0.3,0.8c-0.1,0.7-0.2,1.2-0.1,1.5
				C250.2,59.1,250.5,59.3,250.9,59.4L250.9,59.4L250.9,59.4z M250.2,59c0.1,0.2,0.3,0.3,0.6,0.3C250.6,59.3,250.4,59.2,250.2,59z
				 M250.2,57.1c0.1-0.3,0.2-0.5,0.3-0.7C250.4,56.6,250.2,56.9,250.2,57.1C250.2,57.2,250.2,57.2,250.2,57.1z M250.1,58.1
				c0,0.1,0,0.2,0,0.3C250.1,58.3,250.1,58.2,250.1,58.1z"/>
			<path class="st4" d="M249,59.4c-0.4-0.1-0.7-0.3-0.8-0.6c-0.1-0.3-0.1-0.9,0.1-1.5c0.1-0.4,0.2-0.6,0.3-0.8
				c0.2-0.2,0.5-0.2,0.9,0l0,0c-0.3-0.2-0.6-0.2-0.9,0c-0.1,0.2-0.3,0.4-0.3,0.8c-0.1,0.7-0.2,1.2-0.1,1.5
				C248.3,59.1,248.6,59.3,249,59.4L249,59.4z"/>
			<path class="st4" d="M249,59.4L249,59.4c-0.4-0.1-0.7-0.3-0.8-0.6c-0.1-0.4-0.1-0.9,0.1-1.5c0.1-0.4,0.2-0.6,0.3-0.8
				c0.2-0.2,0.5-0.2,0.9,0l0,0l0,0.1l0,0c-0.3-0.2-0.6-0.2-0.8,0c-0.1,0.2-0.3,0.4-0.3,0.8c-0.1,0.7-0.2,1.2-0.1,1.5
				C248.3,59.1,248.6,59.3,249,59.4L249,59.4L249,59.4z M248.4,59c0.1,0.2,0.3,0.3,0.6,0.3C248.7,59.3,248.5,59.2,248.4,59z
				 M248.3,57.2c0.1-0.3,0.2-0.5,0.3-0.7C248.5,56.6,248.4,56.9,248.3,57.2C248.3,57.2,248.3,57.2,248.3,57.2z M248.2,58.1
				c0,0.1,0,0.2,0,0.3C248.2,58.3,248.2,58.2,248.2,58.1z"/>
			<path class="st4" d="M247.1,59.4c-0.4-0.1-0.7-0.3-0.8-0.6c-0.1-0.3-0.1-0.9,0.1-1.5c0.1-0.4,0.2-0.6,0.3-0.8
				c0.2-0.2,0.5-0.2,0.9,0l0,0c-0.3-0.2-0.6-0.2-0.9,0c-0.1,0.2-0.3,0.4-0.3,0.8c-0.1,0.7-0.2,1.2-0.1,1.5
				C246.4,59.1,246.7,59.3,247.1,59.4L247.1,59.4z"/>
			<path class="st4" d="M247.1,59.4L247.1,59.4c-0.4-0.1-0.7-0.3-0.8-0.6c-0.1-0.4-0.1-0.9,0.1-1.6c0.1-0.4,0.2-0.6,0.4-0.8
				c0.2-0.2,0.5-0.2,0.9,0l0,0l0,0.1l0,0c-0.3-0.2-0.6-0.2-0.9,0c-0.1,0.2-0.3,0.4-0.3,0.8c-0.1,0.7-0.2,1.2-0.1,1.5
				C246.5,59.1,246.7,59.3,247.1,59.4L247.1,59.4L247.1,59.4z M246.5,59c0.1,0.2,0.3,0.3,0.6,0.3C246.8,59.3,246.6,59.2,246.5,59z
				 M246.4,57.2c0.1-0.3,0.2-0.5,0.3-0.7C246.6,56.6,246.5,56.9,246.4,57.2C246.4,57.2,246.4,57.2,246.4,57.2z M246.3,58.1
				c0,0.1,0,0.2,0,0.3C246.3,58.3,246.3,58.2,246.3,58.1z"/>
			<path class="st4" d="M245.2,59.4c-0.4-0.1-0.7-0.3-0.8-0.6c-0.1-0.3-0.1-0.9,0.1-1.5c0.1-0.4,0.2-0.6,0.3-0.8
				c0.2-0.2,0.5-0.2,0.9,0l0,0c-0.3-0.2-0.6-0.2-0.9,0c-0.1,0.2-0.3,0.4-0.3,0.8c-0.1,0.7-0.2,1.2-0.1,1.5
				C244.6,59.1,244.8,59.3,245.2,59.4L245.2,59.4z"/>
			<path class="st4" d="M245.2,59.4L245.2,59.4c-0.4-0.1-0.7-0.3-0.8-0.6c-0.1-0.4-0.1-0.9,0.1-1.6c0.1-0.4,0.2-0.6,0.4-0.8
				c0.2-0.2,0.5-0.2,0.9,0l0,0l0,0.1l0,0c-0.3-0.2-0.6-0.2-0.9,0c-0.1,0.2-0.3,0.4-0.3,0.8c-0.1,0.7-0.2,1.2-0.1,1.5
				C244.6,59.1,244.8,59.3,245.2,59.4L245.2,59.4L245.2,59.4z M244.6,59c0.1,0.2,0.3,0.3,0.6,0.3C244.9,59.4,244.7,59.2,244.6,59z
				 M244.5,57.2c0.1-0.3,0.2-0.5,0.3-0.7C244.7,56.6,244.6,56.9,244.5,57.2C244.5,57.2,244.5,57.2,244.5,57.2z M244.4,58.1
				c0,0.1,0,0.2,0,0.3C244.4,58.3,244.4,58.2,244.4,58.1z"/>
			<path class="st4" d="M243.3,59.4c-0.4-0.1-0.7-0.3-0.8-0.6c-0.1-0.3-0.1-0.9,0.1-1.5c0.1-0.4,0.2-0.6,0.3-0.8
				c0.2-0.2,0.5-0.2,0.9,0l0,0c-0.3-0.2-0.6-0.2-0.9,0c-0.2,0.2-0.3,0.4-0.3,0.8c-0.1,0.7-0.2,1.2-0.1,1.5
				C242.7,59.1,242.9,59.3,243.3,59.4L243.3,59.4z"/>
			<path class="st4" d="M243.3,59.4L243.3,59.4c-0.4-0.1-0.7-0.3-0.8-0.6c-0.1-0.4-0.1-0.9,0.1-1.6c0.1-0.4,0.2-0.6,0.4-0.8
				c0.2-0.2,0.5-0.2,0.9,0l0,0l0,0.1l0,0c-0.3-0.2-0.6-0.2-0.8,0c-0.1,0.2-0.3,0.4-0.3,0.8c-0.1,0.7-0.2,1.2-0.1,1.5
				C242.7,59.1,242.9,59.3,243.3,59.4L243.3,59.4L243.3,59.4z M242.7,59.1c0.1,0.2,0.3,0.3,0.6,0.3C243,59.4,242.8,59.3,242.7,59.1z
				 M242.6,57.2c0.1-0.3,0.2-0.5,0.3-0.7C242.8,56.7,242.7,56.9,242.6,57.2C242.6,57.2,242.6,57.2,242.6,57.2z M242.5,58.1
				c0,0.1,0,0.2,0,0.3C242.5,58.3,242.5,58.2,242.5,58.1z"/>
			<path class="st4" d="M241.4,59.4c-0.4-0.1-0.7-0.3-0.8-0.6c-0.1-0.3-0.1-0.9,0.1-1.5c0.1-0.4,0.2-0.6,0.3-0.8
				c0.2-0.2,0.5-0.2,0.9,0l0,0c-0.3-0.2-0.6-0.2-0.9,0c-0.1,0.2-0.3,0.4-0.3,0.8c-0.1,0.7-0.2,1.2-0.1,1.5
				C240.8,59.1,241,59.3,241.4,59.4L241.4,59.4z"/>
			<path class="st4" d="M241.4,59.5L241.4,59.5c-0.4-0.1-0.7-0.3-0.8-0.6c-0.1-0.4-0.1-0.9,0.1-1.5c0.1-0.4,0.2-0.6,0.4-0.8
				c0.2-0.2,0.5-0.2,0.9,0l0,0l0,0.1l0,0c-0.3-0.2-0.6-0.2-0.9,0c-0.1,0.2-0.3,0.4-0.3,0.8c-0.1,0.7-0.2,1.2-0.1,1.5
				C240.8,59.1,241,59.3,241.4,59.5L241.4,59.5L241.4,59.5z M240.8,59.1c0.1,0.2,0.3,0.3,0.6,0.3C241.1,59.4,240.9,59.3,240.8,59.1z
				 M240.7,57.2c0.1-0.3,0.2-0.5,0.3-0.7C240.9,56.7,240.8,56.9,240.7,57.2C240.7,57.2,240.7,57.2,240.7,57.2z M240.6,58.1
				c0,0.1,0,0.2,0,0.3C240.6,58.3,240.6,58.2,240.6,58.1z"/>
			<path class="st4" d="M239.5,59.4c-0.4-0.1-0.7-0.3-0.8-0.6c-0.1-0.3-0.1-0.9,0.1-1.5c0.1-0.4,0.2-0.6,0.3-0.8
				c0.2-0.2,0.5-0.2,0.9,0l0,0c-0.3-0.2-0.6-0.2-0.9,0c-0.2,0.2-0.3,0.4-0.3,0.8c-0.1,0.7-0.2,1.2-0.1,1.5
				C238.9,59.2,239.1,59.4,239.5,59.4L239.5,59.4z"/>
			<path class="st4" d="M239.5,59.5L239.5,59.5c-0.4-0.1-0.7-0.3-0.8-0.6c-0.1-0.4-0.1-0.9,0.1-1.5c0.1-0.4,0.2-0.6,0.3-0.8
				c0.2-0.2,0.5-0.2,0.9,0l0,0l0,0.1l0,0c-0.3-0.2-0.6-0.2-0.8,0c-0.1,0.2-0.3,0.4-0.3,0.8c-0.1,0.7-0.1,1.2-0.1,1.5
				C238.9,59.1,239.1,59.3,239.5,59.5L239.5,59.5L239.5,59.5z M238.9,59.1c0.1,0.2,0.3,0.3,0.6,0.3C239.2,59.4,239,59.3,238.9,59.1z
				 M238.8,57.2c0.1-0.3,0.2-0.5,0.3-0.7C239,56.7,238.9,56.9,238.8,57.2C238.8,57.2,238.8,57.2,238.8,57.2z M238.7,58.1
				c0,0.1,0,0.2,0,0.3C238.7,58.3,238.7,58.2,238.7,58.1z"/>
			<path class="st4" d="M237.6,59.5c-0.4-0.1-0.7-0.3-0.8-0.6c-0.1-0.3-0.1-0.9,0.1-1.5c0.1-0.4,0.2-0.6,0.3-0.8
				c0.2-0.2,0.5-0.2,0.9,0l0,0c-0.3-0.2-0.6-0.2-0.9,0c-0.1,0.2-0.3,0.4-0.3,0.8c-0.1,0.7-0.2,1.2-0.1,1.5
				C237,59.2,237.2,59.4,237.6,59.5L237.6,59.5z"/>
			<path class="st4" d="M237.6,59.5L237.6,59.5c-0.4-0.1-0.7-0.3-0.8-0.6c-0.1-0.4-0.1-0.9,0.1-1.5c0.1-0.4,0.2-0.6,0.4-0.8
				c0.2-0.2,0.5-0.2,0.9,0l0,0l0,0.1l0,0c-0.3-0.2-0.6-0.2-0.8,0c-0.1,0.2-0.3,0.4-0.3,0.8c-0.1,0.7-0.2,1.2-0.1,1.5
				C237,59.2,237.2,59.3,237.6,59.5L237.6,59.5L237.6,59.5z M237,59.1c0.1,0.2,0.3,0.3,0.6,0.3C237.3,59.4,237.1,59.3,237,59.1z
				 M237,57.2c0.1-0.3,0.2-0.5,0.3-0.7C237.1,56.7,237,56.9,237,57.2C236.9,57.3,236.9,57.2,237,57.2z M236.8,58.1
				c0,0.1,0,0.2,0,0.3C236.8,58.3,236.8,58.2,236.8,58.1z"/>
			<path class="st24" d="M260.1,51.6h-24.5v4.6h24.5V51.6z"/>
			<path class="st22" d="M239,51.6h-0.8v4.6h0.8V51.6z"/>
			<path class="st22" d="M239.8,51.6h-0.3v4.6h0.3V51.6z"/>
			<path class="st22" d="M257.4,51.6h-0.8v4.6h0.8V51.6z"/>
			<path class="st22" d="M256.1,51.6h-0.3v4.6h0.3V51.6z"/>
			<path class="st22" d="M243.6,52.6C243.6,52.6,243.6,52.7,243.6,52.6c1.3-0.2,9.7-0.4,10,0.3c0.5,1.1,1.5,1.8-0.9,2.1
				c-1.6,0.2-4.9,0.3-7.2,0.2l-1.8-0.1c-0.1,0-0.2,0-0.2,0C241.1,55.1,239.7,52.6,243.6,52.6z"/>
			<path class="st4" d="M243.9,52.9C243.9,52.9,243.9,52.9,243.9,52.9C243.9,52.9,243.9,52.9,243.9,52.9
				C243.9,52.9,243.9,52.9,243.9,52.9C243.9,52.9,243.9,52.9,243.9,52.9C244,52.9,244,52.9,243.9,52.9c0.1,0,0.1,0,0.1,0
				c0,0,0,0,0,0c0,0,0,0,0,0c0,0,0,0,0,0c0,0,0,0,0,0c0,0,0,0,0,0c0,0,0,0,0,0c0,0,0,0,0,0c0,0,0,0,0,0c0,0,0,0,0,0c0,0,0,0,0,0
				c0,0,0,0,0.1,0c0,0,0,0,0.1,0c0,0,0,0,0,0c0,0,0,0,0,0c0,0,0,0,0,0c0,0,0,0,0,0c0,0,0,0,0,0c0,0,0,0,0,0c0,0,0,0-0.1,0
				c0,0,0,0,0,0c0,0,0,0-0.1,0c0,0,0,0-0.1,0c0,0,0,0,0,0c0,0,0,0-0.1,0c0,0,0,0-0.1,0C244,53,244,53,243.9,52.9
				C243.9,53,243.9,53,243.9,52.9c0,0.1,0,0.1,0,0.2c0,0,0,0.1,0,0.1c0,0.1,0,0.1,0,0.2c0,0,0,0.1,0,0.1c0,0,0,0.1,0,0.1
				c0,0,0,0,0,0c0,0,0,0,0,0c0,0.1,0,0.1,0,0.2c0,0,0,0.1,0,0.1c0,0,0,0,0,0.1c0,0,0,0,0,0c0,0,0,0,0.1,0c0,0,0,0,0.1,0
				c0,0,0.1,0,0.1,0c0,0,0.1,0,0.1,0c0,0,0,0,0,0c0,0,0,0,0,0c0,0,0,0,0,0c0,0,0,0,0,0h0c0,0,0,0-0.1,0c0,0,0,0-0.1,0c0,0,0,0,0,0
				c0,0,0,0,0,0c0,0,0,0,0,0l0,0l0,0v0v0.1c0,0,0,0,0,0.1c0,0,0,0,0,0c0,0,0,0,0,0c0,0,0,0,0,0c0,0,0,0,0,0.1c0,0,0,0.1,0,0.1
				c0,0,0,0.1,0,0.1c0,0,0,0.1,0,0.1c0,0,0,0,0,0.1c0,0,0,0,0,0.1c0,0,0,0,0,0.1c0,0,0,0,0,0c0,0,0,0,0,0c0,0,0,0,0.1,0
				c0,0,0,0,0.1,0c0,0,0,0,0.1,0c0,0,0,0,0.1,0c0,0,0,0,0.1,0c0,0,0.1,0,0.1,0c0,0,0.1,0,0.1,0c0,0,0,0,0,0c0,0,0,0,0,0c0,0,0,0,0,0
				c0,0,0,0,0,0c0,0,0,0,0,0c0,0,0,0,0,0c0,0,0,0-0.1,0c0,0,0,0-0.1,0c0,0,0,0,0,0c0,0,0,0,0,0c0,0,0,0-0.1,0c0,0,0,0-0.1,0
				c0,0,0,0-0.1,0c0,0,0,0-0.1,0c0,0-0.1,0-0.1,0c0,0,0,0-0.1,0c0,0,0,0,0,0c0,0,0,0,0,0c0,0,0,0,0,0v0c0,0,0,0,0,0c0,0,0,0,0,0
				c0,0,0,0,0,0c0,0,0,0,0,0c0,0,0,0,0,0s0,0,0,0c0,0,0,0,0-0.1c0,0,0,0,0-0.1c0,0,0-0.1,0-0.1c0,0,0,0,0-0.1c0,0,0-0.1,0-0.1
				c0,0,0-0.1,0-0.1s0-0.1,0-0.1c0,0,0,0,0-0.1c0,0,0-0.1,0-0.1V54V54v-0.1v-0.1c0,0,0-0.1,0-0.1c0,0,0-0.1,0-0.1c0,0,0,0,0-0.1
				c0,0,0,0,0-0.1c0,0,0-0.1,0-0.1c0-0.1,0-0.1,0-0.2C243.9,53.1,243.9,53.1,243.9,52.9C243.9,53,243.9,52.9,243.9,52.9
				C243.9,52.9,243.9,52.9,243.9,52.9z"/>
			<path class="st4" d="M243.9,54.9C243.9,54.9,243.9,54.9,243.9,54.9C243.8,54.9,243.8,54.9,243.9,54.9
				C243.8,54.9,243.8,54.9,243.9,54.9c0-0.1,0-0.1,0-0.1c0,0,0,0,0-0.1c0,0,0,0,0-0.1c0,0,0-0.1,0-0.1c0,0,0,0,0-0.1
				c0,0,0-0.1,0-0.1c0,0,0-0.1,0-0.1s0-0.1,0-0.1c0,0,0,0,0-0.1c0,0,0,0,0-0.1v-0.3c0,0,0-0.1,0-0.1c0,0,0-0.1,0-0.1v0
				c0,0,0,0,0-0.1s0,0,0-0.1c0,0,0-0.1,0-0.1c0-0.1,0-0.1,0-0.2c0-0.1,0-0.1,0-0.2c0,0,0-0.1,0-0.1c0,0,0,0,0,0c0,0,0,0,0,0
				c0,0,0,0,0,0c0,0,0,0,0,0c0,0,0,0,0,0c0,0,0,0,0,0c0,0,0,0,0,0c0,0,0,0,0,0c0,0,0,0,0,0h0v0c0,0,0,0,0,0c0,0,0,0,0,0c0,0,0,0,0,0
				l0,0c0,0,0,0,0,0c0,0,0,0,0,0h0l0,0c0,0,0,0,0,0c0,0,0,0,0.1,0c0,0,0,0,0.1,0c0,0,0,0,0,0c0,0,0,0,0,0c0,0,0,0,0,0c0,0,0,0,0,0
				c0,0,0,0,0,0h0c0,0,0,0,0,0c0,0,0,0,0,0c0,0,0,0,0,0c0,0,0,0-0.1,0c0,0,0,0,0,0c0,0,0,0-0.1,0c0,0,0,0-0.1,0c0,0,0,0,0,0
				c0,0,0,0-0.1,0c0,0,0,0-0.1,0c0,0,0,0,0,0c0,0,0,0,0,0c0,0,0,0.1,0,0.1c0,0,0,0.1,0,0.1c0,0.1,0,0.1,0,0.2c0,0,0,0.1,0,0.1
				c0,0,0,0.1,0,0.1c0,0,0,0,0,0c0,0,0,0,0,0c0,0.1,0,0.1,0,0.2c0,0,0,0.1,0,0.1c0,0,0,0,0,0c0,0,0,0,0.1,0c0,0,0,0,0.1,0
				c0,0,0.1,0,0.1,0c0,0,0.1,0,0.1,0c0,0,0,0,0,0h0l0,0c0,0,0,0,0,0c0,0,0,0,0,0c0,0,0,0,0,0h0c0,0,0,0-0.1,0c0,0,0,0-0.1,0
				c0,0,0,0,0,0h0c0,0,0,0,0,0c0,0,0,0,0,0l0,0l0,0l0,0v0.1c0,0,0,0,0,0.1c0,0,0,0,0,0c0,0,0,0,0,0c0,0,0,0,0,0c0,0,0,0,0,0.1
				c0,0,0,0.1,0,0.1c0,0,0,0.1,0,0.1c0,0,0,0,0,0.1c0,0,0,0,0,0.1c0,0,0,0,0,0.1c0,0,0,0,0,0c0,0,0,0,0,0c0,0,0,0,0,0l0,0
				c0,0,0,0,0,0c0.1,0,0.1,0,0.1,0c0,0,0,0,0.1,0c0,0,0,0,0.1,0c0,0,0,0,0.1,0c0,0,0.1,0,0.1,0c0,0,0,0,0,0c0,0,0,0,0,0c0,0,0,0,0,0
				h0l0,0c0,0,0,0,0,0c0,0,0,0,0,0c0,0,0,0,0,0c0,0,0,0-0.1,0h0c0,0,0,0-0.1,0c0,0,0,0,0,0c0,0,0,0,0,0c0,0,0,0-0.1,0c0,0,0,0-0.1,0
				c0,0,0,0-0.1,0c0,0,0,0-0.1,0c0,0-0.1,0-0.1,0C244,54.9,243.9,54.9,243.9,54.9L243.9,54.9L243.9,54.9
				C243.9,54.9,243.9,54.9,243.9,54.9C243.9,54.9,243.9,54.9,243.9,54.9C243.9,54.9,243.9,54.9,243.9,54.9z M243.9,54.8
				C243.9,54.8,243.9,54.8,243.9,54.8c0,0.1,0,0.1,0,0.1c0,0,0,0,0,0c0,0,0,0,0,0C243.9,54.9,243.9,54.9,243.9,54.8L243.9,54.8
				L243.9,54.8C243.9,54.8,243.9,54.8,243.9,54.8C243.9,54.8,243.9,54.8,243.9,54.8z M244.4,54.9C244.4,54.9,244.4,54.9,244.4,54.9
				L244.4,54.9C244.4,54.9,244.4,54.9,244.4,54.9C244.4,54.9,244.4,54.9,244.4,54.9z M244.5,54.9C244.5,54.9,244.5,54.9,244.5,54.9
				C244.5,54.9,244.5,54.9,244.5,54.9C244.5,54.9,244.5,54.9,244.5,54.9C244.5,54.9,244.5,54.9,244.5,54.9
				C244.5,54.9,244.5,54.9,244.5,54.9C244.5,54.9,244.5,54.9,244.5,54.9C244.5,54.9,244.5,54.9,244.5,54.9z M243.9,54.8
				C244,54.8,244,54.8,243.9,54.8c0.1,0,0.1,0,0.2,0c0,0,0,0,0.1,0c0,0,0,0,0,0C244.1,54.8,244.1,54.8,243.9,54.8
				C244,54.8,244,54.8,243.9,54.8C244,54.8,243.9,54.8,243.9,54.8C243.9,54.8,243.9,54.8,243.9,54.8z M243.9,54.3
				C243.9,54.3,243.9,54.3,243.9,54.3c0,0.1,0,0.1,0,0.2c0,0,0,0,0,0.1c0,0,0,0,0-0.1C243.9,54.4,243.9,54.4,243.9,54.3
				C243.9,54.3,243.9,54.3,243.9,54.3z M243.9,53.9L243.9,53.9L243.9,53.9C243.9,53.9,243.9,53.9,243.9,53.9
				C243.9,53.9,243.9,53.9,243.9,53.9C243.9,53.9,243.9,53.9,243.9,53.9z M244,53.9C244,53.9,244,53.9,244,53.9c0.1,0,0.1,0,0.1,0
				c0,0,0,0,0.1,0h0c0,0,0,0,0,0c0,0,0,0,0,0c0,0,0,0-0.1,0C244.1,54,244.1,53.9,244,53.9C244,53.9,244,53.9,244,53.9
				C244,53.9,244,53.9,244,53.9z M244.4,53C244.4,53,244.4,53,244.4,53C244.4,53,244.4,53.1,244.4,53L244.4,53
				C244.4,53,244.4,53,244.4,53L244.4,53C244.4,53,244.4,53,244.4,53C244.4,53,244.4,53,244.4,53L244.4,53z M244.2,53
				C244.2,53,244.2,53,244.2,53c0.1,0,0.1,0,0.1,0c0,0,0,0,0,0c0,0,0,0,0,0C244.3,53,244.3,53,244.2,53C244.2,53,244.2,53,244.2,53
				C244.2,53,244.2,53,244.2,53L244.2,53z M243.9,52.9C243.9,52.9,243.9,52.9,243.9,52.9C243.9,52.9,243.9,52.9,243.9,52.9
				C243.9,52.9,243.9,53,243.9,52.9C243.9,53,243.9,52.9,243.9,52.9C244,52.9,244,52.9,243.9,52.9C244,53,244,53,243.9,52.9
				C244,52.9,244,52.9,243.9,52.9C244,52.9,244,52.9,243.9,52.9C243.9,52.9,243.9,52.9,243.9,52.9C243.9,52.9,243.9,52.9,243.9,52.9
				z"/>
			<path class="st4" d="M244.8,53C244.8,52.9,244.8,52.9,244.8,53C244.9,52.9,244.9,52.9,244.8,53C244.9,52.9,244.9,52.9,244.8,53
				C244.9,52.9,244.9,52.9,244.8,53c0.1,0,0.1,0,0.1,0c0,0,0,0,0,0c0,0,0,0,0,0c0,0,0,0,0,0c0,0,0,0,0,0c0,0,0,0,0,0c0,0,0,0,0,0
				c0,0,0,0,0,0c0,0,0.1,0.1,0.1,0.1c0,0,0,0,0,0.1c0,0,0,0,0,0c0,0,0,0,0,0c0,0,0,0,0,0c0,0,0,0,0,0s0,0,0,0c0,0,0,0,0,0
				c0,0,0,0,0,0s0,0,0,0.1c0,0,0,0,0,0.1c0,0,0,0,0,0.1s0,0.1,0,0.2c0,0.1,0,0.1,0,0.1c0,0,0,0.1,0,0.1c0,0,0,0,0,0.1c0,0,0,0,0,0
				c0,0,0,0,0,0.1c0,0,0,0,0,0.1c0,0,0,0,0,0.1c0,0,0,0,0,0.1c0,0,0,0,0,0c0,0,0,0,0,0c0,0,0,0,0,0c0,0,0,0,0,0c0,0,0,0.1,0,0.1
				c0,0,0,0.1,0,0.1c0,0,0,0,0,0c0,0,0,0,0,0c0,0,0,0,0,0c0,0,0,0,0,0c0,0,0,0,0,0c0,0-0.1,0-0.1,0c0,0-0.1,0-0.1,0c0,0,0,0,0,0
				c0,0,0,0,0,0c0,0,0,0,0,0s0,0,0,0c0,0,0,0,0,0c0,0,0,0,0,0c0,0,0,0,0,0c0,0,0,0,0,0c0,0,0,0,0,0c0,0,0,0,0,0c0,0,0,0,0,0
				c0,0,0.1,0,0.1,0c0,0,0.1,0,0.1,0c0,0,0,0,0,0c0,0,0,0,0,0c0,0,0,0,0,0c0,0,0,0,0,0c0,0,0,0,0,0s0,0,0,0c0,0,0,0,0,0c0,0,0,0,0,0
				c0,0,0,0,0,0c0,0,0,0,0,0c0,0,0,0,0,0c0,0,0,0,0,0c0,0,0,0,0,0c0,0,0,0,0-0.1c0,0,0,0,0,0c0,0,0,0,0-0.1c0,0,0,0,0,0c0,0,0,0,0,0
				c0,0,0,0,0,0c0,0,0,0,0-0.1c0,0,0-0.1,0-0.1c0-0.1,0-0.1,0-0.2c0-0.1,0-0.1,0-0.2c0-0.1,0-0.1,0-0.1c0,0,0-0.1,0-0.1c0,0,0,0,0,0
				c0,0,0,0,0,0c0,0,0,0,0,0c0,0,0,0,0,0s0,0,0,0c0,0,0,0,0,0c0,0,0,0,0-0.1c0,0,0,0,0,0c0,0,0,0,0,0c0,0,0,0,0,0c0,0-0.1,0-0.1-0.1
				h0L244.8,53C244.9,53,244.9,53,244.8,53C244.9,53,244.9,53,244.8,53C244.9,53,244.9,53,244.8,53c0,0.1,0,0.1,0,0.2
				c0,0,0,0.1,0,0.1c0,0,0,0,0,0.1c0,0,0,0,0,0.1c0,0,0,0.1,0,0.2c0,0.1,0,0.1,0,0.2s0,0.1,0,0.1c0,0,0,0,0,0.1c0,0,0,0.1,0,0.1
				c0,0,0,0.1,0,0.1c0,0,0,0.1,0,0.1c0,0,0,0,0,0.1c0,0,0,0.1,0,0.1c0,0,0,0,0,0.1c0,0,0,0,0,0c0,0,0,0,0,0c0,0,0,0,0,0c0,0,0,0,0,0
				c0,0,0,0,0,0c0,0,0,0,0,0.1c0,0,0,0,0,0c0,0,0,0,0,0c0,0,0,0,0,0c0,0,0,0,0,0c0,0,0,0,0,0c0,0,0,0,0,0c0,0,0,0,0,0c0,0,0,0,0,0
				c0,0,0,0,0,0c0,0,0,0,0,0s0,0,0,0c0,0,0,0,0,0c0,0,0,0,0-0.1s0,0,0-0.1c0,0,0,0,0,0c0,0,0,0,0,0c0,0,0,0,0,0c0,0,0,0,0,0
				c0,0,0,0,0,0c0,0,0,0,0,0c0,0,0,0,0,0c0,0,0,0,0,0c0,0,0,0,0-0.1c0,0,0,0,0-0.1c0,0,0-0.1,0-0.1c0,0,0-0.1,0-0.1c0,0,0-0.1,0-0.1
				c0,0,0-0.1,0-0.1c0,0,0-0.1,0-0.1c0,0,0,0,0-0.1s0-0.1,0-0.1c0,0,0-0.1,0-0.1v0c0,0,0,0,0-0.1c0,0,0-0.1,0-0.1c0,0,0-0.1,0-0.1
				C244.8,53,244.8,53,244.8,53L244.8,53L244.8,53C244.8,53,244.8,53,244.8,53z"/>
			<path class="st4" d="M244.9,54.9c0,0-0.1,0-0.1,0c0,0,0,0-0.1,0l0,0c0,0,0,0,0,0c0,0,0,0,0,0c0,0,0,0,0,0c0,0,0,0,0,0
				c0,0,0,0,0,0c0,0,0,0,0,0c0,0,0,0,0,0c0,0,0,0,0,0c0,0,0,0,0,0c0,0,0,0,0,0c0,0,0,0,0-0.1c0,0,0,0,0-0.1c0,0,0,0,0,0c0,0,0,0,0,0
				c0,0,0,0,0,0c0,0,0,0,0,0c0,0,0,0,0,0c0,0,0,0,0,0c0,0,0,0,0,0c0,0,0,0,0,0c0,0,0,0,0,0v0c0,0,0,0,0-0.1c0,0,0-0.1,0-0.1
				c0,0,0-0.1,0-0.1c0,0,0-0.1,0-0.1c0,0,0-0.1,0-0.1c0,0,0-0.1,0-0.1c0,0,0,0,0-0.1c0,0,0-0.1,0-0.1c0,0,0-0.1,0-0.1v0v0
				c0,0,0,0,0-0.1c0,0,0-0.1,0-0.1c0,0,0-0.1,0-0.1c0,0,0,0,0-0.1v0c0,0,0,0,0,0c0,0,0,0,0,0c0,0,0,0,0,0c0,0,0,0,0,0l0,0
				c0,0,0,0,0,0c0,0,0,0,0,0c0,0,0,0,0,0h0c0,0,0,0,0,0c0,0,0,0,0,0c0,0,0,0,0,0c0,0,0,0,0,0h0v0c0,0,0,0,0,0c0,0,0,0,0,0
				c0,0,0.1,0.1,0.1,0.1c0,0,0,0,0,0.1c0,0,0,0,0,0c0,0,0,0,0,0c0,0,0,0,0,0c0,0,0,0,0,0c0,0,0,0,0,0l0,0c0,0,0,0,0,0c0,0,0,0,0,0
				c0,0,0,0,0,0.1c0,0,0,0,0,0.1l0,0c0,0,0,0,0,0.1c0,0,0,0.1,0,0.2c0,0.1,0,0.1,0,0.1c0,0,0,0.1,0,0.1v0c0,0,0,0,0,0c0,0,0,0,0,0.1
				c0,0,0,0,0,0.1s0,0,0,0.1c0,0,0,0,0,0.1v0c0,0,0,0,0,0c0,0,0,0,0,0c0,0,0,0,0,0c0,0,0,0,0,0c0,0,0,0,0,0c0,0,0,0.1,0,0.1v0
				c0,0,0,0.1-0.1,0.1c0,0,0,0,0,0c0,0,0,0,0,0c0,0,0,0,0,0l0,0c0,0,0,0,0,0c0,0,0,0-0.1,0C245,54.9,245,54.9,244.9,54.9z
				 M245.1,54.8C245.1,54.9,245.1,54.9,245.1,54.8C245,54.9,245,54.9,245.1,54.8C245.1,54.9,245.1,54.9,245.1,54.8L245.1,54.8
				L245.1,54.8C245.1,54.8,245.1,54.8,245.1,54.8z M244.8,54.8C244.8,54.8,244.8,54.8,244.8,54.8c0,0,0.1,0,0.1,0c0,0,0.1,0,0.1,0
				c0,0,0,0,0,0l0,0l0,0c0,0,0,0,0,0c0,0,0,0,0,0c0,0,0,0,0,0c0,0,0,0,0,0c0,0,0,0,0,0c0,0,0,0,0,0c0,0,0,0,0,0c0,0,0,0,0,0
				c0,0,0,0,0,0c0,0,0,0,0,0c0,0,0,0,0,0c0,0,0,0,0,0c0,0,0,0,0,0c0,0,0,0,0-0.1c0,0,0,0,0-0.1c0,0,0,0,0,0c0,0,0,0,0,0c0,0,0,0,0,0
				c0,0,0,0,0-0.1v0c0,0,0-0.1,0-0.1c0-0.1,0-0.1,0-0.2c0-0.1,0-0.1,0-0.2c0-0.1,0-0.1,0-0.1c0,0,0-0.1,0-0.1c0,0,0,0,0-0.1
				c0,0,0,0,0,0c0,0,0,0,0,0c0,0,0,0,0,0c0,0,0,0,0,0c0,0,0,0,0,0c0,0,0,0,0-0.1c0,0,0,0,0,0c0,0,0,0,0,0c0,0,0,0,0,0c0,0,0,0-0.1,0
				h-0.1c0,0,0,0,0,0c0,0,0,0,0,0c0,0,0,0,0,0.1c0,0,0,0.1,0,0.1c0,0,0,0.1,0,0.1c0,0,0,0,0,0.1c0,0,0,0,0,0.1c0,0,0,0.1,0,0.2
				c0,0.1,0,0.1,0,0.2c0,0.1,0,0.1,0,0.1v0c0,0,0,0,0,0.1c0,0,0,0.1,0,0.1c0,0,0,0.1,0,0.1s0,0.1,0,0.1c0,0,0,0,0,0.1c0,0,0,0,0,0.1
				c0,0,0,0,0,0.1c0,0,0,0,0,0v0l0,0c0,0,0,0,0,0c0,0,0,0,0,0c0,0,0,0,0,0c0,0,0,0,0,0c0,0,0,0,0,0c0,0,0,0,0,0c0,0,0,0,0,0v0l0,0
				c0,0,0,0,0,0C244.8,54.7,244.8,54.7,244.8,54.8C244.8,54.7,244.8,54.8,244.8,54.8C244.8,54.8,244.8,54.8,244.8,54.8L244.8,54.8
				L244.8,54.8C244.8,54.8,244.8,54.8,244.8,54.8C244.8,54.8,244.8,54.8,244.8,54.8C244.8,54.8,244.8,54.8,244.8,54.8z M244.8,54.8
				C244.8,54.8,244.8,54.8,244.8,54.8C244.8,54.8,244.8,54.7,244.8,54.8L244.8,54.8C244.8,54.7,244.8,54.7,244.8,54.8
				C244.8,54.7,244.8,54.7,244.8,54.8C244.8,54.7,244.8,54.7,244.8,54.8C244.7,54.7,244.7,54.7,244.8,54.8
				C244.7,54.7,244.7,54.7,244.8,54.8L244.8,54.8C244.8,54.8,244.8,54.8,244.8,54.8z M244.8,54.5C244.8,54.5,244.8,54.5,244.8,54.5
				C244.8,54.5,244.8,54.5,244.8,54.5c0,0.1,0,0.1,0,0.2c0,0,0,0,0,0c0,0,0,0,0,0c0,0,0,0,0,0c0,0,0,0,0,0
				C244.8,54.6,244.8,54.6,244.8,54.5C244.8,54.5,244.8,54.5,244.8,54.5C244.8,54.5,244.8,54.5,244.8,54.5z M245.3,54.3L245.3,54.3
				C245.3,54.3,245.3,54.3,245.3,54.3C245.3,54.3,245.3,54.3,245.3,54.3c0,0.1,0,0.1,0,0.1c0,0,0,0,0,0v0c0,0,0,0,0,0.1c0,0,0,0,0,0
				c0,0,0,0,0,0c0,0,0,0,0,0c0,0,0,0,0,0c0,0,0,0,0,0c0,0,0,0,0,0c0,0,0,0,0-0.1c0,0,0,0,0,0c0,0,0,0,0,0v0l0,0c0,0,0,0,0,0
				c0,0,0,0,0,0c0,0,0,0,0-0.1C245.3,54.4,245.3,54.4,245.3,54.3C245.3,54.3,245.3,54.3,245.3,54.3
				C245.3,54.3,245.3,54.3,245.3,54.3z M244.8,54.3C244.8,54.3,244.8,54.3,244.8,54.3C244.8,54.3,244.8,54.3,244.8,54.3
				C244.8,54.4,244.8,54.4,244.8,54.3c0,0.1,0,0.1,0,0.1C244.8,54.4,244.8,54.4,244.8,54.3C244.8,54.4,244.8,54.3,244.8,54.3
				C244.8,54.3,244.8,54.3,244.8,54.3z M245.3,54.2C245.3,54.2,245.3,54.2,245.3,54.2C245.3,54.2,245.3,54.2,245.3,54.2
				C245.3,54.2,245.3,54.2,245.3,54.2C245.3,54.2,245.3,54.2,245.3,54.2C245.3,54.2,245.3,54.2,245.3,54.2
				C245.3,54.1,245.3,54.1,245.3,54.2c0-0.1,0-0.1,0-0.1C245.3,54.1,245.3,54.1,245.3,54.2z M244.8,54.2
				C244.8,54.2,244.8,54.2,244.8,54.2C244.8,54.2,244.8,54.2,244.8,54.2C244.8,54.1,244.8,54.1,244.8,54.2c0-0.1,0-0.1,0-0.2
				c0,0,0-0.1,0-0.1c0,0,0-0.1,0-0.1c0,0,0,0,0,0v0c0,0,0,0.1,0,0.1c0,0,0,0.1,0,0.1S244.8,54.1,244.8,54.2
				C244.8,54.1,244.8,54.2,244.8,54.2z M245.3,53.4C245.3,53.4,245.3,53.4,245.3,53.4C245.3,53.4,245.3,53.4,245.3,53.4
				c0,0.1,0,0.1,0,0.2c0,0,0,0,0,0.1c0,0.1,0,0.1,0,0.2c0,0,0,0.1,0,0.1c0,0,0,0,0,0c0-0.1,0-0.1,0-0.2c0-0.1,0-0.1,0-0.1
				c0,0,0,0,0-0.1c0,0,0,0,0,0c0,0,0,0,0,0C245.4,53.5,245.4,53.5,245.3,53.4C245.3,53.5,245.3,53.5,245.3,53.4
				C245.3,53.4,245.3,53.4,245.3,53.4z M244.8,53.5C244.8,53.5,244.8,53.5,244.8,53.5C244.8,53.5,244.8,53.5,244.8,53.5
				c0,0.1,0,0.1,0,0.1v0c0,0,0,0,0,0C244.8,53.6,244.8,53.6,244.8,53.5C244.8,53.5,244.8,53.5,244.8,53.5z M244.8,53.4
				C244.8,53.4,244.8,53.4,244.8,53.4C244.8,53.4,244.8,53.4,244.8,53.4C244.8,53.3,244.8,53.3,244.8,53.4c0-0.1,0-0.1,0-0.1
				c0,0,0-0.1,0-0.1c0,0,0-0.1,0-0.1c0,0,0,0,0-0.1l0,0c0,0,0,0,0,0c0,0,0,0,0,0h0c0,0,0,0,0,0c0,0,0,0,0,0c0,0,0,0,0,0c0,0,0,0,0,0
				l0,0c0,0,0,0,0,0s0,0,0,0v0c0,0,0,0,0,0.1c0,0,0,0.1,0,0.1C244.8,53.2,244.8,53.3,244.8,53.4C244.8,53.3,244.8,53.3,244.8,53.4
				L244.8,53.4z M245.2,53.1C245.2,53.1,245.2,53.1,245.2,53.1C245.2,53.1,245.2,53.2,245.2,53.1c0.1,0.1,0.1,0.1,0.1,0.1
				C245.2,53.2,245.2,53.1,245.2,53.1z M245.1,53C245.1,53,245.1,53,245.1,53C245.1,53,245.1,53,245.1,53
				C245.1,53,245.1,53,245.1,53C245.1,53,245.1,53,245.1,53C245.1,53,245.1,53,245.1,53C245.1,53,245.1,53,245.1,53z M245,53
				C245,53,245,53,245,53C245,53,245,53,245,53C245,53,245,53,245,53z"/>
			<path class="st4" d="M245.7,52.9C245.7,52.9,245.7,52.9,245.7,52.9C245.7,52.9,245.7,52.9,245.7,52.9
				C245.7,52.9,245.7,52.9,245.7,52.9L245.7,52.9c0,0.1,0,0.1,0,0.1c0,0,0,0.1,0,0.1c0,0,0,0.1,0,0.1c0,0,0,0,0,0.1c0,0,0,0,0,0
				c0,0,0,0,0,0c0,0,0,0,0,0.1s0,0,0,0.1c0,0,0,0,0,0.1c0,0,0,0.1,0,0.1c0,0,0,0.1,0,0.1c0,0.1,0,0.1,0,0.1c0,0,0,0.1,0,0.1
				c0,0,0,0.1,0,0.1c0,0,0,0.1,0,0.1c0,0,0,0.1,0,0.1c0,0,0,0,0,0.1c0,0,0,0,0,0c0,0,0,0,0,0c0,0,0,0,0,0c0,0,0,0,0,0c0,0,0,0,0,0.1
				c0,0,0,0,0,0c0,0,0,0,0,0c0,0,0,0,0,0c0,0,0,0,0,0c0,0,0,0,0,0c0,0,0,0,0,0c0,0,0,0,0.1,0c0,0,0.1,0,0.1,0c0,0,0,0,0,0
				c0,0,0,0,0,0c0,0,0,0,0,0c0,0,0,0,0,0c0,0,0,0,0,0c0,0,0,0,0,0c0,0,0,0,0,0c0,0,0,0,0,0c0,0,0,0,0-0.1c0,0,0-0.1,0-0.1
				c0,0,0-0.1,0-0.1c0,0,0,0,0-0.1c0,0,0,0,0,0c0,0,0,0,0-0.1c0,0,0,0,0-0.1c0,0,0-0.1,0-0.1c0,0,0-0.1,0-0.1c0,0,0-0.1,0-0.1
				c0,0,0-0.1,0-0.1c0,0,0,0,0-0.1c0,0,0-0.1,0-0.1c0,0,0-0.1,0-0.1c0,0,0-0.1,0-0.1c0,0,0,0,0,0c0,0,0,0,0,0c0,0,0,0,0,0s0,0,0-0.1
				c0,0,0,0,0-0.1c0,0,0,0,0,0c0,0,0,0,0,0c0,0,0,0,0,0h0v0v0.1c0,0,0,0.1,0,0.1c0,0,0,0.1,0,0.1c0,0,0,0.1,0,0.1c0,0,0,0.1,0,0.1
				c0,0,0,0,0,0c0,0,0,0,0,0.1c0,0,0,0.1,0,0.1c0,0,0,0.1,0,0.1c0,0,0,0.1,0,0.1s0,0,0,0.1c0,0,0,0,0,0c0,0,0,0,0,0.1
				c0,0,0,0.1,0,0.1c0,0,0,0.1,0,0.1c0,0,0,0,0,0.1c0,0,0,0,0,0c0,0,0,0,0,0.1c0,0,0,0,0,0.1c0,0,0,0,0,0.1c0,0,0,0,0,0c0,0,0,0,0,0
				c0,0,0,0,0,0c0,0,0,0,0,0c0,0,0,0,0,0c0,0,0,0,0,0c0,0,0,0,0,0c0,0,0,0,0,0c0,0,0,0,0,0c0,0,0,0-0.1,0c0,0-0.1,0-0.1,0
				c0,0-0.1,0-0.1,0c0,0,0,0,0,0c0,0,0,0,0,0c0,0,0,0,0,0c0,0,0,0,0,0c0,0,0,0,0,0c0,0,0,0,0,0c0,0,0,0,0,0c0,0,0,0,0,0c0,0,0,0,0,0
				c0,0,0,0,0,0c0,0,0,0,0,0c0,0,0,0,0,0c0,0,0,0,0-0.1c0,0,0-0.1,0-0.1c0,0,0-0.1,0-0.1c0,0,0-0.1,0-0.1c0-0.1,0-0.1,0-0.1
				c0,0,0-0.1,0-0.1c0,0,0-0.1,0-0.1c0,0,0,0,0-0.1c0,0,0,0,0-0.1c0,0,0,0,0-0.1c0,0,0,0,0-0.1c0,0,0,0,0,0c0,0,0,0,0,0c0,0,0,0,0,0
				c0,0,0,0,0,0c0,0,0,0,0-0.1c0,0,0,0,0,0s0,0,0-0.1c0,0,0-0.1,0-0.1C245.7,53,245.7,53,245.7,52.9C245.7,53,245.7,52.9,245.7,52.9
				C245.7,52.9,245.7,52.9,245.7,52.9z"/>
			<path class="st4" d="M246,54.9C245.9,54.9,245.9,54.9,246,54.9c-0.1,0-0.1,0-0.1,0c0,0,0,0,0,0h0l0,0c0,0,0,0,0,0l0,0
				c0,0,0,0,0,0c0,0,0,0,0,0l0,0c0,0,0,0,0,0c0,0,0,0,0-0.1c0,0,0,0,0,0c0,0,0,0,0,0c0,0,0,0,0,0c0,0,0,0,0,0c0,0,0,0,0,0
				c0,0,0,0,0-0.1c0,0,0-0.1,0-0.1c0,0,0-0.1,0-0.1c0,0,0-0.1,0-0.1c0-0.1,0-0.1,0-0.1c0,0,0-0.1,0-0.1s0-0.1,0-0.1c0,0,0,0,0-0.1
				c0,0,0,0,0-0.1c0,0,0,0,0-0.1c0,0,0,0,0-0.1l0,0c0,0,0,0,0,0c0,0,0,0,0,0c0,0,0,0,0,0c0,0,0,0,0,0c0,0,0,0,0-0.1c0,0,0,0,0,0
				c0,0,0,0,0-0.1c0,0,0,0,0-0.1c0,0,0,0,0-0.1c0,0,0,0,0,0c0,0,0,0,0,0c0,0,0,0,0,0l0,0h0c0,0,0,0,0,0c0,0,0,0,0,0l0,0V53
				c0,0,0,0,0,0.1c0,0,0,0.1,0,0.1c0,0,0,0.1,0,0.1c0,0,0,0.1,0,0.1c0,0,0,0,0,0c0,0,0,0,0,0l0,0c0,0,0,0,0,0.1c0,0,0,0,0,0v0
				c0,0,0,0,0,0.1c0,0,0,0.1,0,0.1s0,0.1,0,0.1c0,0.1,0,0.1,0,0.1c0,0,0,0.1,0,0.1c0,0,0,0.1,0,0.1c0,0,0,0.1,0,0.1s0,0.1,0,0.1
				c0,0,0,0,0,0.1c0,0,0,0,0,0c0,0,0,0,0,0s0,0,0,0c0,0,0,0,0,0c0,0,0,0,0,0c0,0,0,0,0,0c0,0,0,0,0,0c0,0,0,0,0,0c0,0,0,0,0,0
				C245.9,54.8,245.9,54.8,246,54.9C245.9,54.8,245.9,54.8,246,54.9C246,54.8,246,54.8,246,54.9c0.1-0.1,0.1-0.1,0.1-0.1
				c0,0,0,0,0,0c0,0,0,0,0,0l0,0c0,0,0,0,0,0c0,0,0,0,0,0c0,0,0,0,0,0c0,0,0,0,0,0v0h0c0,0,0,0,0,0c0,0,0,0,0-0.1c0,0,0-0.1,0-0.1
				c0,0,0-0.1,0-0.1c0,0,0,0,0-0.1c0,0,0,0,0,0c0,0,0,0,0-0.1c0,0,0-0.1,0-0.1c0,0,0,0,0-0.1c0,0,0-0.1,0-0.1c0,0,0-0.1,0-0.1
				c0,0,0-0.1,0-0.1c0,0,0,0,0-0.1c0,0,0-0.1,0-0.1c0,0,0-0.1,0-0.1c0,0,0-0.1,0-0.1s0,0,0-0.1c0,0,0,0,0,0c0,0,0,0,0,0
				c0,0,0,0,0-0.1c0,0,0-0.1,0-0.1c0,0,0,0,0,0c0,0,0,0,0,0c0,0,0,0,0,0h0v0.1c0,0,0,0.1,0,0.1c0,0,0,0.1,0,0.1c0,0,0,0.1,0,0.1
				c0,0,0,0.1,0,0.1c0,0,0,0,0,0c0,0,0,0,0,0.1v0c0,0,0,0.1,0,0.1c0,0,0,0.1,0,0.1c0,0,0,0.1,0,0.1c0,0,0,0,0,0.1c0,0,0,0,0,0
				c0,0,0,0,0,0.1c0,0,0,0.1,0,0.1c0,0,0,0.1,0,0.1c0,0,0,0,0,0.1c0,0,0,0,0,0.1c0,0,0,0,0,0.1c0,0,0,0,0,0.1c0,0,0,0,0,0.1
				c0,0,0,0,0,0c0,0,0,0,0,0c0,0,0,0,0,0v0l0,0c0,0,0,0,0,0c0,0,0,0,0,0l0,0c0,0,0,0,0,0c0,0,0,0,0,0c0,0,0,0,0,0c0,0,0,0,0,0
				C246.1,54.9,246.1,54.9,246,54.9C246,54.9,246,54.9,246,54.9z M245.8,54.8C245.8,54.8,245.9,54.8,245.8,54.8
				C245.9,54.9,245.9,54.9,245.8,54.8c0.1,0,0.1,0,0.1,0c0,0,0,0,0,0c0,0,0,0,0,0C245.9,54.9,245.9,54.9,245.8,54.8
				C245.9,54.9,245.9,54.8,245.8,54.8C245.8,54.8,245.8,54.8,245.8,54.8C245.8,54.8,245.8,54.8,245.8,54.8z M246.2,54.8
				C246.2,54.8,246.1,54.8,246.2,54.8C246.1,54.8,246.1,54.8,246.2,54.8C246.1,54.8,246.1,54.8,246.2,54.8
				C246.1,54.8,246.1,54.8,246.2,54.8C246.1,54.8,246.1,54.8,246.2,54.8C246.1,54.8,246.1,54.8,246.2,54.8
				C246.1,54.8,246.2,54.8,246.2,54.8C246.2,54.8,246.2,54.8,246.2,54.8C246.2,54.8,246.2,54.7,246.2,54.8
				C246.2,54.7,246.2,54.7,246.2,54.8C246.2,54.7,246.2,54.7,246.2,54.8C246.2,54.7,246.2,54.7,246.2,54.8
				C246.2,54.7,246.2,54.8,246.2,54.8z M245.7,54.6C245.7,54.6,245.7,54.6,245.7,54.6C245.7,54.6,245.7,54.6,245.7,54.6
				C245.7,54.6,245.7,54.6,245.7,54.6C245.7,54.6,245.7,54.6,245.7,54.6z M246.3,54.5C246.3,54.5,246.3,54.6,246.3,54.5L246.3,54.5
				C246.3,54.6,246.3,54.6,246.3,54.5C246.3,54.6,246.3,54.5,246.3,54.5z M245.7,54.3C245.7,54.3,245.7,54.3,245.7,54.3
				C245.7,54.4,245.7,54.4,245.7,54.3C245.7,54.4,245.7,54.4,245.7,54.3C245.7,54.4,245.7,54.4,245.7,54.3
				C245.7,54.4,245.7,54.4,245.7,54.3C245.7,54.3,245.7,54.3,245.7,54.3z M245.6,54.1c0,0,0,0.1,0,0.1c0,0,0,0,0,0c0,0,0,0,0,0
				C245.6,54.2,245.6,54.2,245.6,54.1C245.6,54.1,245.6,54.1,245.6,54.1z M245.6,53.9C245.6,53.9,245.6,53.9,245.6,53.9
				C245.6,53.9,245.6,53.9,245.6,53.9C245.6,53.9,245.6,53.9,245.6,53.9z M245.6,53.6C245.6,53.6,245.6,53.6,245.6,53.6
				c0,0.1,0,0.1,0,0.1c0,0,0,0,0,0.1c0,0,0,0,0,0c0,0,0,0,0,0C245.6,53.7,245.6,53.7,245.6,53.6C245.6,53.6,245.6,53.6,245.6,53.6z
				 M246.4,53.5C246.4,53.5,246.4,53.5,246.4,53.5C246.4,53.5,246.4,53.6,246.4,53.5C246.4,53.6,246.4,53.6,246.4,53.5
				C246.4,53.5,246.4,53.5,246.4,53.5z M245.6,53.5C245.6,53.5,245.6,53.5,245.6,53.5C245.6,53.5,245.6,53.5,245.6,53.5
				C245.6,53.5,245.6,53.5,245.6,53.5C245.6,53.5,245.6,53.5,245.6,53.5C245.6,53.5,245.7,53.4,245.6,53.5
				C245.7,53.4,245.7,53.4,245.6,53.5c0-0.1,0-0.1,0-0.1c0,0,0,0,0,0C245.7,53.4,245.7,53.4,245.6,53.5
				C245.7,53.4,245.7,53.4,245.6,53.5C245.7,53.4,245.7,53.4,245.6,53.5z M246.4,53.3C246.4,53.3,246.4,53.4,246.4,53.3
				C246.4,53.4,246.4,53.4,246.4,53.3C246.4,53.4,246.4,53.3,246.4,53.3z M245.7,53.1C245.7,53.1,245.7,53.1,245.7,53.1
				C245.7,53.2,245.7,53.2,245.7,53.1c0,0.1,0,0.1,0,0.1c0,0,0,0,0,0c0,0,0,0,0,0C245.7,53.2,245.7,53.2,245.7,53.1
				C245.7,53.2,245.7,53.1,245.7,53.1z M246.4,53.1C246.4,53.1,246.4,53.1,246.4,53.1L246.4,53.1C246.4,53.1,246.4,53.1,246.4,53.1
				C246.4,53.1,246.4,53.1,246.4,53.1c0,0.1,0,0.1,0,0.1C246.4,53.2,246.4,53.2,246.4,53.1L246.4,53.1
				C246.4,53.1,246.4,53.1,246.4,53.1z M245.7,53C245.7,53,245.7,53,245.7,53C245.7,53,245.7,53,245.7,53
				C245.7,53.1,245.7,53.1,245.7,53C245.7,53.1,245.7,53.1,245.7,53C245.7,53,245.7,53,245.7,53z"/>
			<path class="st4" d="M246.9,52.9L246.9,52.9L246.9,52.9C247,52.9,247,52.9,246.9,52.9c0.1,0,0.1,0,0.1,0c0,0,0,0,0,0c0,0,0,0,0,0
				c0,0,0,0,0,0c0,0,0,0,0,0c0,0,0,0,0,0c0,0,0,0,0,0c0,0,0,0,0,0c0,0,0,0,0,0c0,0,0,0,0,0.1c0,0,0,0,0,0.1c0,0,0,0.1,0,0.1s0,0,0,0
				c0,0,0,0,0,0v0v0c0,0,0,0,0,0c0,0,0,0,0,0c0,0,0,0,0,0c0,0,0,0,0-0.1c0,0,0,0,0-0.1c0,0,0,0,0-0.1c0,0,0,0,0,0c0,0,0,0,0,0
				c0,0,0,0,0,0c0,0,0,0,0,0c0,0,0,0,0,0C247,53,247,52.9,246.9,52.9C247,52.9,247,52.9,246.9,52.9
				C246.9,52.9,246.9,52.9,246.9,52.9C246.9,52.9,246.8,53,246.9,52.9c-0.1,0.1-0.1,0.1-0.1,0.1c0,0,0,0,0,0c0,0,0,0,0,0.1
				c0,0,0,0.1,0,0.1c0,0,0,0,0,0c0,0,0,0,0,0c0,0,0,0,0,0c0,0,0,0,0,0c0,0,0,0,0,0c0,0,0,0,0,0c0,0,0,0,0,0c0,0,0,0,0,0c0,0,0,0,0,0
				c0,0,0,0.1,0,0.1c0,0,0,0.1,0,0.1c0,0,0,0,0,0c0,0,0,0,0,0c0,0,0,0,0,0c0,0,0,0,0,0.1c0,0,0,0,0,0c0,0,0,0,0,0s0,0,0,0
				c0,0,0,0,0,0c0,0,0,0,0,0.1c0,0,0,0,0,0.1c0,0,0,0.1,0,0.1c0,0,0,0.1,0,0.1c0,0,0,0,0,0.1c0,0,0,0,0,0c0,0,0,0,0,0c0,0,0,0,0,0
				c0,0,0,0,0,0c0,0,0,0,0,0c0,0,0,0,0,0c0,0,0,0,0,0c0,0,0,0,0,0c0,0,0,0,0,0c0,0,0,0,0,0c0,0,0,0,0,0c0,0,0,0,0,0c0,0,0,0,0,0
				c0,0,0,0,0,0s0,0,0,0c0,0,0,0,0,0c0,0,0,0,0.1,0l0,0l0,0c0,0,0,0,0,0c0,0,0,0,0,0c0,0,0,0,0,0c0,0,0,0,0,0c0,0,0,0,0,0
				c0,0,0,0,0,0c0,0,0-0.1,0-0.1v-0.1c0,0,0,0,0,0c0,0,0,0,0,0c0,0,0,0,0,0c0,0,0,0,0,0c0,0,0,0,0,0c0,0,0,0,0,0c0,0,0,0,0,0.1
				c0,0,0,0,0,0c0,0,0,0,0,0c0,0,0,0,0,0c0,0,0,0,0,0c0,0,0,0,0,0c0,0,0,0,0,0l0,0l0,0c0,0,0,0,0,0c0,0,0,0,0,0c0,0,0,0,0,0
				c0,0,0,0-0.1,0c0,0,0,0-0.1,0c0,0,0,0,0,0c0,0,0,0,0,0c0,0,0,0-0.1-0.1c0,0,0,0,0-0.1c0,0,0,0,0-0.1c0,0,0,0,0-0.1
				c0,0,0-0.1,0-0.1c0,0,0,0,0-0.1c0,0,0,0,0,0c0,0,0,0,0-0.1v-0.1c0,0,0-0.1,0-0.1c0,0,0-0.1,0-0.1c0,0,0,0,0,0c0,0,0,0,0,0
				c0,0,0,0,0,0s0,0,0,0c0,0,0,0,0,0c0,0,0,0,0,0c0,0,0,0,0,0c0,0,0,0,0,0s0,0,0,0c0,0,0,0,0,0c0,0,0,0,0,0c0,0,0,0,0,0c0,0,0,0,0,0
				c0,0,0,0,0-0.1c0,0,0,0,0-0.1c0,0,0-0.1,0-0.1c0,0,0-0.1,0-0.1c0,0,0,0,0-0.1c0,0,0,0,0-0.1c0,0,0,0,0,0c0,0,0,0,0,0c0,0,0,0,0,0
				c0,0,0,0,0.1-0.1c0,0,0,0,0.1,0C246.8,52.9,246.8,52.9,246.9,52.9C246.9,52.9,246.9,52.9,246.9,52.9z"/>
			<path class="st4" d="M246.9,54.9C246.9,54.9,246.8,54.9,246.9,54.9L246.9,54.9L246.9,54.9c-0.1,0-0.1,0-0.1,0c0,0-0.1,0-0.1-0.1
				c0,0,0,0,0-0.1c0,0,0,0,0-0.1c0,0,0,0,0-0.1c0,0,0-0.1,0-0.1c0,0,0,0,0-0.1c0,0,0,0,0-0.1c0,0,0,0,0-0.1v-0.1c0,0,0-0.1,0-0.1
				c0,0,0-0.1,0-0.1l0,0c0,0,0,0,0,0c0,0,0,0,0,0c0,0,0,0,0,0c0,0,0,0,0,0l0,0v0c0,0,0,0,0,0c0,0,0,0,0,0c0,0,0,0,0,0c0,0,0,0,0,0
				c0,0,0,0,0,0c0,0,0,0,0,0c0,0,0,0,0,0c0,0,0,0,0,0c0,0,0,0,0-0.1c0,0,0,0,0-0.1c0,0,0-0.1,0-0.1c0,0,0-0.1,0-0.1c0,0,0-0.1,0-0.1
				c0,0,0-0.1,0-0.1c0,0,0,0,0,0c0,0,0,0,0,0c0,0,0,0,0,0c0,0,0,0,0-0.1c0,0,0,0,0.1-0.1c0,0,0,0,0.1,0c0,0,0,0,0,0c0,0,0,0,0,0l0,0
				h0.1c0,0,0,0,0,0c0,0,0,0,0,0c0,0,0,0,0,0c0,0,0,0,0,0c0,0,0,0,0,0c0,0,0,0,0,0c0,0,0,0,0,0c0,0,0,0,0,0c0,0,0,0,0,0c0,0,0,0,0,0
				l0,0c0,0,0,0,0,0.1c0,0,0,0,0,0.1c0,0,0,0.1,0,0.1c0,0,0,0,0,0l0,0c0,0,0,0,0,0l0,0v-0.1h0c0,0,0,0,0,0c0,0,0,0,0,0
				c0,0,0,0,0-0.1c0,0,0,0,0-0.1c0,0,0,0,0-0.1c0,0,0,0,0,0c0,0,0,0,0,0c0,0,0,0,0,0l0,0c0,0,0,0,0,0h0l0,0c0,0,0,0,0,0c0,0,0,0,0,0
				c0,0,0,0,0,0s0,0,0,0c0,0,0,0-0.1,0c0,0,0,0,0,0c0,0,0,0,0,0c0,0,0,0,0,0.1c0,0,0,0.1,0,0.1l0,0c0,0,0,0,0,0c0,0,0,0,0,0
				c0,0,0,0,0,0s0,0,0,0c0,0,0,0,0,0c0,0,0,0,0,0c0,0,0,0,0,0c0,0,0,0,0,0c0,0,0,0,0,0.1c0,0,0,0.1,0,0.1c0,0,0,0.1,0,0.1
				c0,0,0,0,0,0c0,0,0,0,0,0c0,0,0,0,0,0c0,0,0,0,0,0.1c0,0,0,0,0,0c0,0,0,0,0,0c0,0,0,0,0,0c0,0,0,0,0,0c0,0,0,0,0,0.1s0,0,0,0.1
				c0,0,0,0.1,0,0.1c0,0,0,0.1,0,0.1c0,0,0,0,0,0.1c0,0,0,0,0,0s0,0,0,0v0c0,0,0,0,0,0c0,0,0,0,0,0c0,0,0,0,0,0.1c0,0,0,0,0,0l0,0
				c0,0,0,0,0,0c0,0,0,0,0,0c0,0,0,0,0,0l0,0v0c0,0,0,0,0,0c0,0,0,0,0,0c0,0,0,0,0,0l0,0c0,0,0,0,0,0l0,0c0,0,0,0,0,0c0,0,0,0,0,0
				c0,0,0,0,0,0l0,0c0,0,0,0,0,0c0,0,0,0,0,0c0,0,0,0,0,0c0,0,0,0,0,0c0,0,0,0,0,0c0,0,0,0,0,0c0,0,0-0.1,0-0.1v-0.1c0,0,0,0,0,0
				c0,0,0,0,0,0c0,0,0,0,0,0c0,0,0,0,0,0.1c0,0,0,0,0,0c0,0,0,0,0,0c0,0,0,0,0,0.1c0,0,0,0,0,0c0,0,0,0,0,0c0,0,0,0,0,0l0,0
				c0,0,0,0,0,0l0,0c0,0,0,0,0,0c0,0,0,0,0,0l-0.1,0.1c0,0,0,0,0,0C247,54.9,247,54.9,246.9,54.9C247,54.9,247,54.9,246.9,54.9
				C246.9,54.9,246.9,54.9,246.9,54.9z M246.8,54.9c0.1,0,0.1,0,0.1,0c0,0,0,0,0,0c0,0,0,0,0,0c0,0,0,0,0,0l0.1,0c0,0,0,0,0,0
				l-0.1,0.1c0,0,0,0-0.1,0c0,0,0,0,0,0C246.9,54.8,246.9,54.8,246.8,54.9C246.9,54.8,246.9,54.8,246.8,54.9
				C246.8,54.8,246.8,54.8,246.8,54.9C246.8,54.8,246.8,54.8,246.8,54.9C246.7,54.8,246.7,54.8,246.8,54.9
				C246.8,54.8,246.8,54.8,246.8,54.9C246.8,54.8,246.8,54.8,246.8,54.9C246.8,54.8,246.8,54.8,246.8,54.9z M246.7,54.8
				C246.7,54.8,246.7,54.8,246.7,54.8C246.7,54.8,246.7,54.8,246.7,54.8C246.7,54.8,246.7,54.8,246.7,54.8
				C246.7,54.8,246.7,54.8,246.7,54.8z M247.2,54.3v0.1c0,0,0,0.1,0,0.1c0,0,0,0,0,0c0,0,0,0,0,0c0,0,0,0,0,0c0,0,0,0,0,0
				c0,0,0,0,0,0c0,0,0,0,0,0c0,0,0,0,0,0v0l0,0c0,0,0,0,0,0c0,0,0,0,0-0.1C247.2,54.4,247.2,54.4,247.2,54.3
				C247.2,54.4,247.2,54.4,247.2,54.3C247.2,54.4,247.2,54.4,247.2,54.3C247.2,54.3,247.2,54.3,247.2,54.3z M246.6,54.5
				C246.6,54.5,246.6,54.5,246.6,54.5C246.6,54.5,246.6,54.5,246.6,54.5C246.6,54.5,246.6,54.6,246.6,54.5
				C246.6,54.6,246.6,54.6,246.6,54.5C246.6,54.5,246.6,54.5,246.6,54.5C246.6,54.5,246.6,54.5,246.6,54.5L246.6,54.5z M246.6,54.1
				C246.6,54.1,246.6,54.2,246.6,54.1c0,0.1,0,0.2,0,0.2v0.1c0,0,0,0,0,0c0,0,0,0,0,0c0,0,0,0,0-0.1c0,0,0-0.1,0-0.1
				C246.6,54.2,246.6,54.2,246.6,54.1C246.6,54.1,246.6,54.1,246.6,54.1c0-0.1,0-0.1,0-0.1c0,0,0,0,0,0c0,0,0,0,0,0c0,0,0,0,0,0
				c0,0,0,0,0,0c0,0,0,0,0,0C246.6,54,246.6,54,246.6,54.1L246.6,54.1L246.6,54.1C246.6,54,246.6,54,246.6,54.1
				C246.6,54.1,246.6,54.1,246.6,54.1z M246.7,53C246.7,53,246.7,53,246.7,53C246.7,53.1,246.7,53.1,246.7,53L246.7,53L246.7,53
				C246.7,53.1,246.7,53.1,246.7,53c-0.1,0.1-0.1,0.1-0.1,0.1c0,0,0,0,0,0.1c0,0,0,0,0,0.1c0,0,0,0.1,0,0.1c0,0,0,0.1,0,0.1
				c0,0,0,0.1,0,0.1c0,0,0,0,0,0.1c0,0,0,0,0,0c0,0,0,0,0,0c0,0,0,0,0,0v0l0,0c0,0,0,0,0,0c0,0,0,0,0,0c0,0,0,0,0,0c0,0,0,0,0,0
				c0,0,0,0,0,0c0,0,0,0,0-0.1c0,0,0,0,0-0.1c0,0,0,0,0,0c0,0,0,0,0,0c0,0,0,0,0-0.1c0,0,0-0.1,0-0.1c0,0,0-0.1,0-0.1c0,0,0,0,0,0
				c0,0,0,0,0,0c0,0,0,0,0,0c0,0,0,0,0,0c0,0,0,0,0,0c0,0,0,0,0,0c0,0,0,0,0,0c0,0,0,0,0,0c0,0,0,0,0,0
				C246.7,53.2,246.7,53.1,246.7,53C246.7,53.1,246.7,53,246.7,53z"/>
			<path class="st4" d="M248,53C248,52.9,248,52.9,248,53C248,52.9,248,52.9,248,53C248,52.9,248,52.9,248,53
				C248,52.9,248.1,53,248,53c0.1,0,0.1,0.1,0.1,0.1c0,0,0,0,0,0.1c0,0,0,0,0,0.1c0,0,0,0,0,0c0,0,0,0,0,0c0,0,0,0,0,0.1
				c0,0,0,0,0,0.1c0,0,0,0,0,0.1c0,0,0,0,0,0.1c0,0,0,0,0,0.1c0,0,0,0,0,0.1s0,0.1,0,0.1c0,0,0,0.1,0,0.1c0,0,0,0,0,0s0,0,0,0
				c0,0,0,0,0,0c0,0,0,0,0,0c0,0,0,0,0,0.1c0,0,0,0,0,0.1c0,0,0,0.1,0,0.1c0,0,0,0.1,0,0.1c0,0,0,0.1,0,0.1c0,0,0,0,0,0s0,0,0,0
				c0,0,0,0,0,0c0,0,0,0,0,0.1c0,0,0,0,0,0.1c0,0,0,0,0,0c0,0,0,0,0,0.1c0,0,0,0,0,0.1c0,0,0,0,0,0c0,0,0,0,0,0s0,0,0,0c0,0,0,0,0,0
				c0,0,0,0,0,0c0,0,0,0,0,0c0,0,0,0,0-0.1c0,0,0,0,0-0.1c0,0,0-0.1,0-0.1c0,0,0-0.1,0-0.1c0,0,0,0,0,0c0,0,0,0,0,0c0,0,0,0,0-0.1
				c0-0.1,0-0.1,0-0.2c0,0,0-0.1,0-0.1c0,0,0,0,0,0c0,0,0,0-0.1,0h-0.1h-0.2c-0.1,0-0.1,0-0.2,0c-0.1,0-0.1,0-0.1,0h-0.1l0,0
				c0,0,0,0,0,0c0,0,0,0,0,0c0,0,0,0,0,0l0,0.1c0,0,0,0,0,0.1c0,0,0,0.1,0,0.1c0,0,0,0,0,0.1c0,0,0,0,0,0c0,0,0,0,0,0c0,0,0,0,0,0
				c0,0,0,0,0,0c0,0,0,0,0,0c0,0,0,0,0,0c0,0,0,0,0,0c0,0,0,0,0,0c0,0,0,0,0,0c0,0,0,0,0,0c0,0,0,0,0,0s0,0,0-0.1c0,0,0,0,0-0.1
				c0,0,0,0,0,0c0,0,0,0,0,0c0,0,0,0,0-0.1c0,0,0,0,0-0.1c0,0,0,0,0,0c0,0,0,0,0,0c0,0,0,0,0-0.1c0,0,0,0,0-0.1c0,0,0,0,0-0.1
				c0,0,0,0,0-0.1c0,0,0,0,0,0c0,0,0,0,0,0c0,0,0,0,0,0c0,0,0,0,0-0.1c0,0,0-0.1,0-0.1c0,0,0-0.1,0-0.1c0,0,0,0,0,0c0,0,0,0,0-0.1
				c0,0,0,0,0-0.1c0,0,0-0.1,0-0.1c0,0,0-0.1,0-0.1c0,0,0-0.1,0-0.1c0,0,0,0,0-0.1c0,0,0-0.1,0-0.1c0,0,0-0.1,0-0.1
				C247.9,53,247.9,53,248,53C247.9,53,248,53,248,53z M248,53.2C248,53.1,248,53.1,248,53.2c0-0.1,0-0.1,0-0.1c0,0,0,0,0,0
				c0,0,0,0,0,0C248,53,248,53.1,248,53.2c-0.1,0-0.1,0-0.1,0.1c0,0,0,0.1,0,0.1l0,0.1c0,0,0,0,0,0.1c0,0,0,0,0,0c0,0,0,0,0,0
				c0,0,0,0,0,0.1c0,0,0,0,0,0c0,0,0,0,0,0.1c0,0,0,0,0,0.1c0,0,0,0.1,0,0.1c0,0,0,0,0,0.1c0,0,0,0,0,0.1c0,0,0,0.1,0,0.1
				c0,0,0,0,0,0c0,0,0,0,0,0c0,0,0,0,0,0s0,0,0.1,0c0,0,0,0,0.1,0c0,0,0.1,0,0.1,0c0,0,0.1,0,0.1,0s0.1,0,0.1,0c0,0,0.1,0,0.1,0
				c0,0,0,0,0.1,0l0.1,0l0,0c0,0,0,0,0,0c0,0,0,0,0,0c0,0,0,0,0,0c0,0,0,0,0,0c0,0,0,0,0,0c0,0,0,0,0,0c0,0,0,0,0,0c0,0,0,0,0-0.1
				c0,0,0,0,0-0.1c0,0,0,0,0,0c0,0,0,0,0,0c0,0,0,0,0,0c0,0,0,0,0,0s0,0,0-0.1c0,0,0,0,0-0.1c0,0,0,0,0-0.1c0,0,0,0,0,0c0,0,0,0,0,0
				s0,0,0,0C248.1,53.2,248.1,53.2,248,53.2C248.1,53.2,248.1,53.2,248,53.2z"/>
			<path class="st4" d="M248.5,54.9C248.5,54.9,248.4,54.9,248.5,54.9c0,0-0.1-0.1-0.1-0.1c0,0,0,0,0-0.1c0,0,0-0.1,0-0.1
				c0,0,0-0.1,0-0.1c0,0,0,0,0,0c0,0,0,0,0,0c0,0,0,0,0-0.1c0-0.1,0-0.1,0-0.2c0,0,0-0.1,0-0.1c0,0,0,0,0,0h0c0,0,0,0-0.1,0h-0.3
				c0,0-0.1,0-0.2,0c-0.1,0-0.1,0-0.1,0h0l0,0c0,0,0,0,0,0c0,0,0,0,0,0c0,0,0,0,0,0.1l0,0.1c0,0,0,0,0,0.1c0,0,0,0.1,0,0.1
				c0,0,0,0,0,0.1c0,0,0,0,0,0l0,0c0,0,0,0,0,0c0,0,0,0,0,0c0,0,0,0,0,0c0,0,0,0,0,0l0,0c0,0,0,0,0,0c0,0,0,0,0,0c0,0,0,0,0,0
				c0,0,0,0,0,0c0,0,0,0,0,0c0,0,0,0,0,0c0,0,0,0,0,0c0,0,0,0,0-0.1c0,0,0,0,0-0.1c0,0,0,0,0-0.1l0,0c0,0,0,0,0,0c0,0,0,0,0-0.1
				c0,0,0,0,0-0.1c0,0,0,0,0,0c0,0,0,0,0,0c0,0,0,0,0-0.1c0,0,0,0,0-0.1c0,0,0,0,0-0.1c0,0,0,0,0,0c0,0,0,0,0,0c0,0,0,0,0,0
				c0,0,0,0,0,0c0,0,0,0,0-0.1c0,0,0-0.1,0-0.1c0,0,0-0.1,0-0.1c0,0,0,0,0,0v0l0,0c0,0,0,0,0,0c0,0,0,0,0-0.1c0,0,0-0.1,0-0.1
				c0,0,0-0.1,0-0.1c0,0,0-0.1,0-0.1c0,0,0,0,0-0.1c0,0,0-0.1,0-0.1c0,0,0-0.1,0-0.1c0,0,0-0.1,0-0.1c0,0,0,0,0,0c0,0,0,0,0,0l0,0
				c0,0,0,0,0,0h0l0,0c0,0,0,0,0,0l0,0c0,0,0,0,0,0.1c0,0,0,0,0,0.1c0,0,0,0,0,0.1c0,0,0,0,0,0.1c0,0,0,0,0,0c0,0,0,0,0,0
				c0,0,0,0,0,0.1l0,0.1c0,0,0,0,0,0c0,0,0,0,0,0.1c0,0,0,0,0,0.1c0,0,0,0,0,0.1c0,0,0,0.1,0,0.1c0,0,0,0.1,0,0.1c0,0,0,0,0,0.1
				c0,0,0,0,0,0h0v0c0,0,0,0,0,0c0,0,0,0,0,0.1c0,0,0,0,0,0.1c0,0,0,0.1,0,0.1c0,0,0,0.1,0,0.1c0,0,0,0.1,0,0.1l0,0c0,0,0,0,0,0
				c0,0,0,0,0,0c0,0,0,0,0,0c0,0,0,0,0,0.1c0,0,0,0,0,0.1c0,0,0,0,0,0l0,0.1c0,0,0,0,0,0.1c0,0,0,0,0,0
				C248.5,54.8,248.5,54.8,248.5,54.9C248.5,54.8,248.5,54.9,248.5,54.9C248.5,54.9,248.5,54.9,248.5,54.9
				C248.5,54.9,248.5,54.9,248.5,54.9z M248.3,54.1C248.3,54.1,248.3,54.1,248.3,54.1C248.3,54.2,248.3,54.2,248.3,54.1L248.3,54.1
				c0.1,0.1,0.1,0.1,0.1,0.1c0,0,0,0.1,0,0.2c0,0,0,0,0,0.1c0,0,0,0,0,0c0,0,0,0,0,0c0,0,0,0,0,0.1c0,0,0,0.1,0,0.1c0,0,0,0,0,0.1
				c0,0,0,0.1,0,0.1v0c0,0,0,0,0,0c0,0,0,0,0,0l0,0v0c0,0,0,0,0,0c0,0,0,0,0-0.1l0-0.1c0,0,0,0,0,0l0,0v0c0,0,0-0.1,0-0.1
				c0,0,0,0,0,0c0,0,0,0,0,0l0,0v0c0,0,0,0,0,0c0,0,0,0,0,0c0,0,0,0,0-0.1C248.4,54.2,248.3,54.2,248.3,54.1
				C248.3,54.1,248.3,54.1,248.3,54.1c0-0.1,0-0.1,0-0.2c0,0,0,0,0,0c0,0,0,0,0,0c0,0,0,0,0,0c0,0,0,0,0,0c0,0,0,0,0,0
				c0,0,0,0,0-0.1c0,0,0,0,0,0c0,0,0,0,0,0c0,0,0,0,0,0c0,0,0,0,0,0.1c0,0,0,0,0,0c0,0,0,0,0,0c0,0,0,0,0,0
				C248.3,54,248.3,54.1,248.3,54.1L248.3,54.1L248.3,54.1c-0.1,0-0.1,0-0.1,0c0,0-0.1,0-0.1,0c0,0-0.1,0-0.1,0c0,0-0.1,0-0.1,0
				c0,0-0.1,0-0.1,0c0,0-0.1,0-0.1,0c0,0-0.1,0-0.1,0c0,0,0,0,0,0c0,0,0,0,0,0c0,0,0,0,0,0c0,0,0,0,0,0c0,0,0,0,0-0.1c0,0,0,0,0-0.1
				c0,0,0,0,0-0.1l0,0c0,0,0,0,0-0.1c0,0,0-0.1,0-0.1v0c0,0,0,0,0,0c0,0,0,0,0,0c0,0,0,0.1,0,0.1c0,0,0,0.1,0,0.1c0,0,0,0,0,0
				c0,0,0,0,0,0.1c0,0,0,0,0,0l0,0c0,0,0,0,0,0c0,0,0,0,0,0.1c0,0,0,0,0,0c0,0,0,0,0,0.1c0,0,0,0,0,0.1c0,0,0,0,0,0c0,0,0,0,0,0
				c0,0,0,0,0,0.1c0,0,0,0,0,0.1c0,0,0,0,0,0c0,0,0,0,0,0c0,0,0,0,0,0.1c0,0,0,0,0,0.1c0,0,0,0,0,0c0,0,0,0,0,0c0,0,0,0,0,0
				c0,0,0,0,0,0c0,0,0,0,0,0c0,0,0,0,0,0c0,0,0,0,0,0c0,0,0,0,0,0c0,0,0,0,0,0c0,0,0,0,0,0c0,0,0,0,0-0.1c0,0,0,0,0-0.1
				c0,0,0-0.1,0-0.1l0-0.1c0,0,0,0,0,0c0,0,0,0,0,0c0,0,0,0,0,0l0-0.1h0.1c0,0,0.1,0,0.1,0c0.1,0,0.1,0,0.2,0h0.3
				C248.2,54.2,248.3,54.1,248.3,54.1z M247.7,54.1C247.7,54.1,247.7,54.1,247.7,54.1c0.1,0,0.1,0,0.2,0c0,0,0.1,0,0.1,0
				c0,0,0.1,0,0.1,0c0,0,0.1,0,0.1,0c0,0,0.1,0,0.1,0l0,0l0,0c0,0,0,0,0,0c0,0,0,0,0,0c0,0,0,0,0,0c0,0,0,0,0,0c0,0,0,0,0,0
				c0,0,0,0,0,0l0,0v0c0,0,0,0,0,0c0,0,0,0,0-0.1s0,0,0-0.1c0,0,0,0,0,0l0,0v0c0,0,0,0,0,0c0,0,0,0,0,0c0,0,0,0,0,0c0,0,0,0,0-0.1
				c0,0,0,0,0-0.1c0,0,0,0,0,0c0,0,0,0,0,0c0,0,0,0,0,0c0,0,0,0,0,0c0,0,0,0,0,0c0,0,0,0,0-0.1c0,0,0,0,0-0.1c0,0,0,0,0,0
				c0,0,0,0,0,0c0,0,0,0,0,0.1c0,0,0,0.1-0.1,0.1c0,0,0,0.1,0,0.1l0,0.1c0,0,0,0,0,0.1c0,0,0,0,0,0c0,0,0,0,0,0l0,0c0,0,0,0,0,0
				c0,0,0,0,0,0c0,0,0,0,0,0.1c0,0,0,0,0,0.1c0,0,0,0,0,0.1c0,0,0,0,0,0.1c0,0,0,0,0,0.1C247.6,54,247.6,54,247.7,54.1
				C247.6,54,247.6,54.1,247.7,54.1C247.6,54.1,247.6,54.1,247.7,54.1L247.7,54.1C247.6,54.1,247.6,54.1,247.7,54.1
				C247.7,54.1,247.7,54.1,247.7,54.1z M248.2,53.6C248.2,53.6,248.2,53.7,248.2,53.6C248.2,53.7,248.2,53.7,248.2,53.6
				C248.2,53.7,248.2,53.7,248.2,53.6C248.2,53.6,248.2,53.6,248.2,53.6L248.2,53.6c0-0.1,0-0.1,0-0.2c0,0,0,0,0,0c0,0,0,0,0-0.1
				l0-0.1c0,0,0,0,0-0.1c0,0,0,0,0,0l0,0c0,0,0,0,0-0.1c0,0,0,0,0,0v0c0,0,0,0,0-0.1c0,0,0,0,0,0l0,0l0,0c0,0,0,0,0-0.1c0,0,0,0,0,0
				c0,0,0,0,0,0c0,0,0,0,0,0c0,0,0,0,0,0v0c0,0,0,0,0,0.1c0,0,0,0.1,0,0.1c0,0,0,0.1,0,0.1c0,0,0,0.1,0,0.1c0,0,0,0,0,0.1
				c0,0,0,0.1,0,0.1c0,0,0,0.1,0,0.1c0,0,0,0.1,0,0.1c0,0,0,0,0,0c0,0,0,0,0-0.1c0,0,0,0,0,0c0,0,0,0,0-0.1c0,0,0,0,0,0c0,0,0,0,0,0
				c0,0,0,0,0-0.1l0-0.1c0,0,0-0.1,0-0.1c0,0,0-0.1,0-0.1c0-0.1,0-0.1,0-0.1c0,0,0,0,0,0c0,0,0,0,0,0c0,0,0,0,0,0c0,0,0,0,0,0.1
				c0,0,0,0,0,0c0,0,0,0,0,0l0,0c0,0,0,0,0,0.1c0,0,0,0,0,0.1c0,0,0,0,0,0c0,0,0,0,0,0c0,0,0,0,0,0.1c0,0,0,0,0,0.1l0,0
				C248.2,53.5,248.2,53.5,248.2,53.6C248.2,53.6,248.2,53.6,248.2,53.6C248.2,53.6,248.2,53.6,248.2,53.6
				C248.2,53.6,248.2,53.6,248.2,53.6z"/>
			<path class="st4" d="M248.7,52.9C248.7,52.9,248.7,52.9,248.7,52.9C248.8,52.9,248.8,52.9,248.7,52.9
				C248.8,52.9,248.8,52.9,248.7,52.9C248.8,52.9,248.8,52.9,248.7,52.9c0.1,0,0.1,0,0.1,0c0,0,0,0,0.1,0c0.1,0,0.1,0,0.2,0
				c0,0,0,0,0.1,0c0,0,0,0,0,0c0,0,0,0,0,0c0,0,0,0,0,0c0,0,0,0,0,0c0,0,0,0,0,0c0,0,0,0,0,0c0,0,0,0,0,0c0,0,0,0,0,0c0,0,0,0-0.1,0
				c0,0-0.1,0-0.1,0h0v0v0.1c0,0,0,0.1,0,0.1c0,0,0,0.1,0,0.1c0,0,0,0,0,0.1c0,0,0,0.1,0,0.1c0,0,0,0.1,0,0.1s0,0.1,0,0.1
				c0,0,0,0.1,0,0.1c0,0,0,0.1,0,0.1c0,0,0,0,0,0.1c0,0,0,0,0,0c0,0,0,0,0,0c0,0,0,0,0,0.1c0,0,0,0.1,0,0.1c0,0,0,0.1,0,0.1
				c0,0,0,0,0,0.1c0,0,0,0,0,0.1c0,0,0,0,0,0c0,0,0,0,0,0.1c0,0,0,0,0,0c0,0,0,0,0,0.1c0,0,0,0,0,0.1c0,0,0,0,0,0.1c0,0,0,0,0,0
				c0,0,0,0,0,0c0,0,0,0,0,0c0,0,0,0,0,0c0,0,0,0,0,0c0,0,0,0,0,0c0,0,0,0,0-0.1c0,0,0-0.1,0-0.1c0,0,0-0.1,0-0.1c0,0,0,0,0-0.1
				c0,0,0,0,0,0c0,0,0,0,0,0s0,0,0,0c0,0,0,0,0,0c0,0,0,0,0,0s0,0,0,0c0,0,0,0,0-0.1c0,0,0,0,0-0.1c0,0,0,0,0,0c0,0,0,0,0-0.1
				c0,0,0-0.1,0-0.1c0-0.1,0-0.1,0-0.2c0-0.1,0-0.1,0-0.2c0,0,0-0.1,0-0.1c0,0,0-0.1,0-0.1c0,0,0,0,0-0.1c0,0,0,0,0,0v0v-0.1v-0.1v0
				v-0.1v0l0,0L248.7,52.9C248.8,53,248.8,53,248.7,52.9C248.7,53,248.7,53,248.7,52.9C248.7,52.9,248.7,52.9,248.7,52.9z"/>
			<path class="st4" d="M248.8,54.9C248.8,54.9,248.8,54.9,248.8,54.9C248.8,54.9,248.8,54.9,248.8,54.9c0-0.1-0.1-0.1-0.1-0.1
				c0,0,0-0.1,0-0.1c0,0,0-0.1,0-0.1c0,0,0,0,0-0.1c0,0,0,0,0,0c0,0,0,0,0,0c0,0,0,0,0,0c0,0,0,0,0,0c0,0,0,0,0,0c0,0,0,0,0,0
				c0,0,0,0,0-0.1c0,0,0,0,0-0.1c0,0,0,0,0,0c0,0,0,0,0-0.1c0,0,0-0.1,0-0.1c0-0.1,0-0.1,0-0.2c0-0.1,0-0.1,0-0.2c0,0,0-0.1,0-0.1
				c0,0,0-0.1,0-0.1c0,0,0,0,0-0.1c0,0,0,0,0,0V53l0,0l0,0c0,0,0,0,0,0c0,0,0,0,0,0c0,0,0,0,0-0.1l0,0c0,0,0,0,0,0c0,0,0,0,0,0
				c0,0,0,0,0,0c0,0,0,0,0,0c0,0,0,0,0.1,0l0.1,0c0.1,0,0.1,0,0.1,0c0,0,0,0,0.1,0c0,0,0.1,0,0.1,0c0,0,0,0,0,0l0,0c0,0,0,0,0,0l0,0
				c0,0,0,0,0,0c0,0,0,0,0,0c0,0,0,0,0,0c0,0,0,0,0,0c0,0,0,0-0.1,0c0,0,0,0,0,0v0.1c0,0,0,0.1,0,0.1c0,0,0,0.1,0,0.1c0,0,0,0,0,0.1
				c0,0,0,0.1,0,0.1c0,0,0,0.1,0,0.1c0,0,0,0.1,0,0.1c0,0,0,0.1,0,0.1c0,0,0,0.1,0,0.1c0,0,0,0,0,0.1c0,0,0,0,0,0l0,0c0,0,0,0,0,0
				c0,0,0,0,0,0.1c0,0,0,0.1,0,0.1c0,0,0,0.1,0,0.1c0,0,0,0,0,0.1c0,0,0,0,0,0.1c0,0,0,0,0,0c0,0,0,0,0,0c0,0,0,0,0,0c0,0,0,0,0,0v0
				c0,0,0,0,0,0.1c0,0,0,0,0,0.1c0,0,0,0,0,0C248.8,54.8,248.8,54.8,248.8,54.9C248.8,54.8,248.8,54.9,248.8,54.9
				C248.8,54.9,248.8,54.9,248.8,54.9C248.8,54.9,248.8,54.9,248.8,54.9z M248.8,54.9L248.8,54.9L248.8,54.9z M248.8,54.9
				C248.8,54.9,248.8,54.9,248.8,54.9C248.8,54.9,248.8,54.9,248.8,54.9C248.8,54.9,248.8,54.8,248.8,54.9L248.8,54.9
				C248.8,54.8,248.8,54.8,248.8,54.9C248.8,54.8,248.8,54.8,248.8,54.9C248.8,54.9,248.8,54.9,248.8,54.9z M248.8,54.5
				C248.8,54.6,248.8,54.6,248.8,54.5C248.8,54.6,248.8,54.6,248.8,54.5z M249.1,53C249.1,53,249.1,53,249.1,53
				C249.1,53,249.1,53,249.1,53C249.1,53,249.1,53,249.1,53C249.2,53,249.2,53,249.1,53C249.2,53,249.1,53,249.1,53
				C249.1,53,249.1,53,249.1,53z M248.9,53L248.9,53L248.9,53L248.9,53z M248.7,52.9C248.7,52.9,248.8,52.9,248.7,52.9
				C248.8,52.9,248.8,52.9,248.7,52.9L248.7,52.9C248.8,52.9,248.8,52.9,248.7,52.9C248.8,52.9,248.8,52.9,248.7,52.9
				C248.7,52.9,248.7,52.9,248.7,52.9z"/>
			<path class="st4" d="M249.5,53C249.5,53,249.5,52.9,249.5,53C249.5,52.9,249.5,52.9,249.5,53C249.5,52.9,249.5,52.9,249.5,53
				C249.5,52.9,249.5,52.9,249.5,53c0,0,0,0,0,0.1c0,0.1,0,0.1,0,0.2c0,0,0,0.1,0,0.1c0,0,0,0,0,0c0,0,0,0,0,0c0,0,0,0,0,0.1
				c0,0,0,0.1,0,0.1c0,0.1,0,0.1,0,0.2c0,0.1,0,0.1,0,0.1c0,0,0,0.1,0,0.1c0,0.1,0,0.1,0,0.2s0,0.1,0,0.1c0,0,0,0.1,0,0.1
				c0,0,0,0,0,0c0,0,0,0,0,0.1c0,0,0,0,0,0.1s0,0.1,0,0.1c0,0,0,0.1,0,0.1c0,0,0,0,0,0.1c0,0,0,0,0,0c0,0,0,0,0,0c0,0,0,0,0,0
				s0,0,0,0c0,0,0,0,0,0c0,0,0,0,0,0c0,0,0,0,0-0.1c0,0,0-0.1,0-0.1c0,0,0-0.1,0-0.1c0,0,0,0,0,0c0,0,0,0,0,0c0,0,0,0,0,0v0v0
				c0,0,0,0,0,0c0,0,0,0,0,0v0v0v-0.1v-0.1c0,0,0-0.1,0-0.2c0-0.1,0-0.1,0-0.2c0-0.1,0-0.1,0-0.2c0,0,0-0.1,0-0.1c0,0,0,0,0-0.1
				c0,0,0-0.1,0-0.1v-0.1v-0.1C249.5,53.1,249.5,53,249.5,53z"/>
			<path class="st4" d="M249.5,54.9L249.5,54.9L249.5,54.9C249.5,54.9,249.5,54.9,249.5,54.9C249.4,54.9,249.4,54.9,249.5,54.9
				c-0.1-0.1-0.1-0.1-0.1-0.1c0,0,0,0,0-0.1c0,0,0-0.1,0-0.1c0,0,0-0.1,0-0.1c0,0,0,0,0,0v0l0,0c0,0,0,0,0,0c0,0,0,0,0,0v0
				c0,0,0,0,0,0c0,0,0,0,0,0v-0.3c0,0,0-0.1,0-0.2c0-0.1,0-0.1,0-0.2c0-0.1,0-0.1,0-0.2c0,0,0-0.1,0-0.1c0,0,0,0,0-0.1
				c0,0,0-0.1,0-0.1v-0.2c0,0,0-0.1,0-0.1c0,0,0,0,0-0.1c0,0,0,0,0,0c0,0,0,0,0,0c0,0,0,0,0,0.1c0,0,0,0.1,0,0.2c0,0.1,0,0.1,0,0.2
				c0,0.1,0,0.1,0,0.1c0,0,0,0,0,0c0,0,0,0,0,0l0,0v0c0,0,0,0,0,0.1c0,0,0,0.1,0,0.1c0,0.1,0,0.1,0,0.2c0,0.1,0,0.1,0,0.1
				c0,0,0,0.1,0,0.1c0,0.1,0,0.1,0,0.2s0,0.1,0,0.1c0,0,0,0,0,0.1l0,0l0,0c0,0,0,0,0,0c0,0,0,0,0,0.1c0,0,0,0,0,0.1c0,0,0,0.1,0,0.1
				c0,0,0,0.1,0,0.1c0,0,0,0,0,0.1C249.5,54.8,249.5,54.8,249.5,54.9C249.5,54.9,249.5,54.9,249.5,54.9
				C249.5,54.9,249.5,54.9,249.5,54.9z M249.5,54.8C249.5,54.8,249.5,54.8,249.5,54.8L249.5,54.8C249.5,54.8,249.5,54.8,249.5,54.8
				C249.5,54.8,249.5,54.8,249.5,54.8C249.5,54.8,249.5,54.8,249.5,54.8c0-0.1,0-0.1,0-0.1c0,0,0-0.1,0-0.1c0,0,0-0.1,0-0.1
				c0,0,0,0,0,0c0,0,0,0,0,0c0,0,0,0,0,0c0,0,0,0,0,0.1C249.5,54.7,249.5,54.7,249.5,54.8C249.5,54.8,249.5,54.8,249.5,54.8
				C249.5,54.8,249.5,54.8,249.5,54.8z M249.5,54.4L249.5,54.4L249.5,54.4C249.5,54.4,249.5,54.4,249.5,54.4
				C249.5,54.4,249.5,54.4,249.5,54.4C249.5,54.4,249.5,54.4,249.5,54.4c0-0.1,0-0.1,0-0.2c0,0,0-0.1,0-0.2c0,0,0-0.1,0-0.1
				c0,0.1,0,0.1,0,0.2L249.5,54.4C249.5,54.4,249.5,54.4,249.5,54.4z M249.5,53.9C249.5,53.9,249.5,53.9,249.5,53.9
				C249.5,53.9,249.5,53.9,249.5,53.9z M249.5,53.4C249.5,53.4,249.5,53.4,249.5,53.4C249.5,53.4,249.5,53.4,249.5,53.4
				C249.5,53.4,249.5,53.4,249.5,53.4C249.5,53.4,249.5,53.4,249.5,53.4z M249.5,53c0,0,0,0.1,0,0.1v0.1c0,0,0-0.1,0-0.1
				C249.5,53.1,249.5,53,249.5,53z"/>
			<path class="st4" d="M250.3,52.9C250.3,52.9,250.3,52.9,250.3,52.9C250.3,52.9,250.3,52.9,250.3,52.9
				C250.3,52.9,250.3,52.9,250.3,52.9c0.1,0,0.1,0,0.1,0c0,0,0,0,0.1,0c0,0,0,0,0,0c0,0,0,0,0,0c0,0,0,0,0,0s0,0,0,0c0,0,0,0,0,0.1
				c0,0,0,0,0,0.1c0,0,0,0.1,0,0.1c0,0,0,0,0,0.1c0,0,0,0,0,0c0,0.1,0,0.1,0,0.2c0,0.1,0,0.1,0,0.2c0,0.1,0,0.1,0,0.1c0,0,0,0,0,0.1
				c0,0,0,0.1,0,0.1c0,0,0,0.1,0,0.1c0,0,0,0.1,0,0.1s0,0,0,0c0,0,0,0,0,0c0,0,0,0,0,0.1c0,0,0,0,0,0.1c0,0,0,0,0,0c0,0,0,0,0,0
				s0,0,0,0c0,0,0,0,0,0c0,0,0,0,0,0c0,0,0,0,0,0c0,0,0,0,0,0.1c0,0,0,0,0,0c0,0,0,0,0,0c0,0,0,0,0,0c0,0,0,0,0,0s0,0,0,0
				c0,0,0,0,0,0c0,0,0,0,0,0c0,0,0,0,0,0c0,0,0,0,0,0c0,0,0,0,0,0c0,0,0,0,0,0c0,0,0,0-0.1,0c0,0,0,0,0,0c0,0,0,0,0-0.1l0-0.1l0-0.2
				c0,0,0-0.1,0-0.1c0,0,0-0.1,0-0.1c0,0,0-0.1,0-0.1c0,0,0,0,0,0c0,0,0,0,0,0c0,0,0,0,0,0c0,0,0,0,0-0.1c0,0,0,0,0-0.1
				c0,0,0-0.1,0-0.1s0,0,0-0.1c0,0,0,0,0-0.1c0,0,0,0,0,0c0,0,0,0,0,0c0,0,0,0,0,0c0,0,0,0,0-0.1c0,0,0,0,0,0c0,0,0,0,0,0
				c0,0,0-0.1,0-0.1c0,0,0,0,0,0c0,0,0,0,0,0c0,0,0,0,0-0.1c0,0,0,0,0-0.1c0,0,0,0,0-0.1C250.2,53,250.2,53,250.3,52.9
				C250.2,53,250.2,53,250.3,52.9C250.2,53,250.2,53,250.3,52.9C250.2,52.9,250.2,52.9,250.3,52.9C250.2,52.9,250.2,52.9,250.3,52.9
				L250.3,52.9z M250.4,53L250.4,53L250.4,53c-0.1,0-0.1-0.1-0.1-0.1c0,0,0,0,0,0c0,0,0,0-0.1,0c0,0,0,0,0,0c0,0,0,0,0,0
				c0,0,0,0,0,0c0,0,0,0,0,0s0,0,0,0c0,0,0,0,0,0s0,0,0,0c0,0,0,0,0,0c0,0,0,0,0,0c0,0,0,0,0,0c0,0,0,0,0,0c0,0,0,0,0,0c0,0,0,0,0,0
				c0,0,0,0,0,0c0,0,0,0,0,0c0,0,0,0,0,0.1c0,0,0,0.1,0,0.1c0,0,0,0.1,0,0.1c0,0,0,0,0,0c0,0,0,0,0,0l0,0c0,0,0,0,0,0.1
				c0,0,0,0,0,0.1c0,0,0,0,0,0.1c0,0,0,0,0,0.1c0,0,0,0.1,0,0.1c0,0,0,0.1,0,0.1l0,0.3l0,0.1c0,0,0,0,0,0c0,0,0,0,0,0c0,0,0,0,0,0
				c0,0,0,0,0,0c0,0,0,0,0,0c0,0,0,0,0,0c0,0,0,0,0,0c0,0,0,0,0.1,0c0,0,0,0,0.1,0c0,0,0,0,0.1,0c0,0,0,0,0,0c0,0,0,0,0,0
				c0,0,0,0,0,0s0,0,0,0c0,0,0,0,0,0c0,0,0,0,0-0.1c0,0,0,0,0-0.1c0,0,0,0,0,0c0,0,0,0,0,0c0,0,0,0,0,0c0,0,0,0,0-0.1c0,0,0,0,0-0.1
				c0,0,0,0,0-0.1c0,0,0-0.1,0-0.1c0,0,0,0,0-0.1c0,0,0-0.1,0-0.1c0,0,0-0.1,0-0.1c0,0,0-0.1,0-0.1c0,0,0-0.1,0-0.1v-0.2
				c0-0.1,0-0.2,0-0.2c0,0,0,0,0-0.1c0,0,0-0.1,0-0.1c0,0,0,0,0-0.1c0,0,0,0,0,0C250.6,53.1,250.5,53.1,250.4,53
				C250.5,53.1,250.5,53.1,250.4,53C250.5,53,250.5,53,250.4,53z"/>
			<path class="st4" d="M250.4,54.9C250.3,54.9,250.3,54.9,250.4,54.9C250.3,54.9,250.3,54.9,250.4,54.9c-0.1,0-0.1,0-0.1,0h0l0,0
				c0,0,0,0,0,0c0,0,0,0,0,0c0,0,0,0-0.1,0c0,0,0,0,0,0c0,0,0,0,0-0.1l0-0.1l0-0.2c0,0,0-0.1,0-0.1c0,0,0-0.1,0-0.1c0,0,0-0.1,0-0.1
				c0,0,0,0,0,0c0,0,0,0,0,0c0,0,0,0,0,0c0,0,0,0,0-0.1c0,0,0,0,0-0.1c0,0,0,0,0-0.1s0,0,0-0.1c0,0,0,0,0-0.1c0,0,0,0,0-0.1
				c0,0,0,0,0,0c0,0,0,0,0,0c0,0,0,0,0-0.1c0,0,0,0,0-0.1c0,0,0,0,0,0c0,0,0-0.1,0-0.1c0,0,0,0,0,0c0,0,0,0,0,0c0,0,0,0,0-0.1
				c0,0,0,0,0-0.1c0,0,0-0.1,0-0.1c0,0,0,0,0-0.1c0,0,0,0,0,0c0,0,0,0,0,0c0,0,0,0,0,0c0,0,0,0,0,0h0c0,0,0,0,0,0c0,0,0,0,0,0
				c0,0,0,0,0,0c0,0,0,0,0.1,0c0,0,0,0,0.1,0c0,0,0,0,0,0c0,0,0,0,0,0c0,0,0,0,0,0c0,0,0,0,0,0.1c0,0,0,0,0,0.1c0,0,0,0,0,0.1
				c0,0,0,0.1,0,0.1c0,0,0,0,0,0.1c0,0,0,0,0,0c0,0.1,0,0.1,0,0.2c0,0.1,0,0.1,0,0.2c0,0,0,0.1,0,0.1c0,0,0,0,0,0.1c0,0,0,0.1,0,0.1
				c0,0,0,0.1,0,0.1c0,0,0,0.1,0,0.1c0,0,0,0,0,0c0,0,0,0,0,0c0,0,0,0,0,0.1c0,0,0,0,0,0.1v0c0,0,0,0,0,0c0,0,0,0,0,0c0,0,0,0,0,0
				c0,0,0,0,0,0l0,0c0,0,0,0,0,0c0,0,0,0,0,0.1c0,0,0,0,0,0.1c0,0,0,0,0,0c0,0,0,0,0,0c0,0,0,0-0.1,0c0,0,0,0,0,0
				C250.4,54.9,250.4,54.9,250.4,54.9C250.4,54.9,250.4,54.9,250.4,54.9z M250.3,54.9C250.3,54.9,250.3,54.9,250.3,54.9
				C250.4,54.9,250.4,54.9,250.3,54.9C250.4,54.9,250.4,54.9,250.3,54.9C250.4,54.8,250.4,54.9,250.3,54.9
				C250.4,54.9,250.3,54.9,250.3,54.9z M250.2,54.8C250.2,54.8,250.2,54.8,250.2,54.8C250.2,54.8,250.2,54.8,250.2,54.8
				C250.2,54.8,250.2,54.8,250.2,54.8c0.1,0,0.1,0.1,0.1,0.1c0,0,0,0,0.1,0c0,0,0,0,0,0c0,0,0,0,0,0c0,0,0,0,0,0l0,0c0,0,0,0,0,0
				c0,0,0,0,0,0c0,0,0,0,0,0c0,0,0,0,0-0.1c0,0,0,0,0-0.1c0,0,0,0,0,0c0,0,0,0,0,0c0,0,0,0,0,0c0,0,0,0,0-0.1c0,0,0,0,0-0.1
				c0,0,0,0,0-0.1c0,0,0-0.1,0-0.1v0c0,0,0,0,0-0.1c0,0,0-0.1,0-0.1c0,0,0-0.1,0-0.1c0,0,0-0.1,0-0.1c0,0,0,0,0,0h0v-0.2
				c0-0.1,0-0.2,0-0.2c0,0,0,0,0-0.1c0,0,0-0.1,0-0.1c0,0,0,0,0-0.1c0,0,0,0,0,0c0,0,0,0,0,0c0,0,0,0,0,0c0,0,0,0,0,0l0,0l0,0
				c0,0,0,0,0,0c0,0,0,0,0,0c0,0-0.1,0-0.1,0c0,0,0,0,0,0c0,0,0,0,0,0c0,0,0,0,0,0c0,0,0,0,0,0c0,0,0,0,0,0c0,0,0,0,0,0c0,0,0,0,0,0
				c0,0,0,0,0,0c0,0,0,0,0,0c0,0,0,0,0,0v0c0,0,0,0,0,0c0,0,0,0,0,0c0,0,0,0,0,0c0,0,0,0,0,0c0,0,0,0,0,0c0,0,0,0,0,0.1
				c0,0,0,0.1,0,0.1c0,0,0,0.1,0,0.1c0,0,0,0,0,0c0,0,0,0,0,0l0,0c0,0,0,0,0,0.1c0,0,0,0,0,0.1c0,0,0,0,0,0c0,0,0,0,0,0.1
				c0,0,0,0.1,0,0.1c0,0,0,0.1,0,0.1l0,0.3l0,0C250.1,54.7,250.1,54.7,250.2,54.8C250.1,54.7,250.1,54.7,250.2,54.8
				C250.1,54.7,250.1,54.7,250.2,54.8C250.1,54.7,250.2,54.8,250.2,54.8z M250.6,54.7C250.6,54.7,250.6,54.7,250.6,54.7
				C250.6,54.7,250.6,54.7,250.6,54.7C250.6,54.7,250.6,54.7,250.6,54.7C250.6,54.7,250.6,54.7,250.6,54.7z M250,54.6L250,54.6
				C250.1,54.7,250.1,54.7,250,54.6C250.1,54.7,250.1,54.7,250,54.6L250,54.6l0-0.3c0-0.1,0-0.1,0-0.1c0,0,0,0,0,0c0,0,0,0,0,0.1
				c0,0,0,0.1,0,0.1L250,54.6z M250.1,53.6C250.1,53.6,250.1,53.6,250.1,53.6C250.1,53.7,250.1,53.7,250.1,53.6c0,0.1,0,0.1,0,0.2
				c0,0,0,0,0,0.1c0,0,0,0,0,0l0,0c0,0,0,0,0,0c0,0,0,0,0,0C250.1,53.7,250.1,53.7,250.1,53.6C250.1,53.7,250.1,53.6,250.1,53.6z
				 M250.2,53.3C250.1,53.3,250.1,53.3,250.2,53.3C250.1,53.4,250.1,53.4,250.2,53.3C250.1,53.4,250.1,53.4,250.2,53.3
				C250.1,53.4,250.1,53.4,250.2,53.3C250.2,53.3,250.2,53.3,250.2,53.3z M250.2,53C250.2,53,250.2,53.1,250.2,53
				C250.2,53.1,250.2,53.1,250.2,53c0,0.1,0,0.1,0,0.1c0,0,0,0,0,0.1c0,0,0,0,0,0c0,0,0,0,0,0c0,0,0,0,0,0c0,0,0,0,0,0
				C250.2,53.1,250.2,53.1,250.2,53C250.2,53.1,250.2,53.1,250.2,53C250.2,53.1,250.2,53.1,250.2,53C250.2,53,250.2,53,250.2,53z
				 M250.3,52.9C250.3,52.9,250.3,52.9,250.3,52.9C250.3,53,250.3,53,250.3,52.9C250.2,53,250.2,53,250.3,52.9
				C250.2,53,250.3,53,250.3,52.9C250.3,53,250.3,53,250.3,52.9L250.3,52.9C250.3,52.9,250.3,52.9,250.3,52.9
				C250.4,52.9,250.3,52.9,250.3,52.9C250.3,52.9,250.3,52.9,250.3,52.9C250.3,52.9,250.3,52.9,250.3,52.9
				C250.3,52.9,250.3,52.9,250.3,52.9L250.3,52.9L250.3,52.9L250.3,52.9z"/>
			<path class="st4" d="M251,53C251,52.9,251,52.9,251,53L251,53C251,52.9,251,52.9,251,53C251.1,52.9,251.1,52.9,251,53
				C251.1,53,251.1,53,251,53C251.1,53,251.1,53,251,53c0.1,0.1,0.1,0.1,0.1,0.2c0,0,0,0.1,0,0.1c0,0.1,0,0.1,0,0.2
				c0,0.1,0,0.1,0,0.1c0,0,0,0.1,0,0.1c0,0,0,0,0,0.1s0,0,0,0c0,0,0,0,0,0c0,0,0,0,0,0.1c0,0,0,0,0,0.1c0,0,0,0,0,0.1c0,0,0,0,0,0.1
				c0,0,0,0,0,0.1c0,0,0,0,0,0.1c0,0,0,0.1,0,0.1c0,0,0,0,0,0c0,0,0,0,0,0.1c0,0,0,0,0,0.1c0,0,0,0,0,0c0,0,0,0,0,0.1c0,0,0,0,0,0.1
				s0,0,0,0.1c0,0,0,0,0,0.1s0,0,0,0c0,0,0,0,0,0v0c0,0,0,0,0,0c0,0,0,0,0,0v0v-0.1c0,0,0-0.1,0-0.1c0,0,0,0,0-0.1c0,0,0-0.1,0-0.1
				c0,0,0-0.1,0-0.1c0,0,0-0.1,0-0.1c0,0,0,0,0-0.1c0,0,0,0,0-0.1c0,0,0-0.1,0-0.1c0,0,0-0.1,0-0.1c0-0.1,0-0.1,0-0.2
				c0,0,0-0.1,0-0.1c0,0,0-0.1,0-0.1c0,0,0-0.1,0-0.1c0,0,0-0.1,0-0.1c0,0,0-0.1,0-0.1c0,0,0-0.1,0-0.1c0,0,0-0.1,0-0.1c0,0,0,0,0,0
				c0,0,0,0,0,0c0,0,0,0,0,0c0,0,0,0,0,0c0,0,0,0,0,0c0,0,0,0,0,0c0,0,0,0,0,0.1c0,0,0,0,0,0.1c0,0,0,0.1,0,0.1c0,0,0,0.1,0,0.2
				c0,0.1,0,0.1,0,0.2c0,0.1,0,0.2,0,0.3s0,0.1,0,0.1c0,0,0,0,0,0c0,0,0,0,0,0.1c0,0,0,0.1,0,0.1c0,0,0,0.1,0,0.1c0,0,0,0,0,0.1
				c0,0,0,0,0,0v0c0,0,0,0,0,0c0,0,0,0,0,0c0,0,0,0,0,0c0,0,0,0,0,0.1v0.1v0.1c0,0,0,0.1,0,0.1c0,0,0,0.1,0,0.1c0,0,0,0,0,0.1
				c0,0,0,0,0,0c0,0,0,0,0,0s0,0,0,0c0,0,0,0,0,0c0,0,0,0,0-0.1v0c0,0,0,0,0,0c0,0,0,0,0,0c0,0,0,0,0,0c0,0,0,0,0,0s0,0,0,0
				c0,0,0,0,0,0c0,0,0,0,0-0.1c0,0,0,0,0,0c0,0,0,0,0-0.1c0,0,0-0.1,0-0.1c0,0,0,0,0,0c0,0,0,0,0,0c0,0,0,0,0,0c0,0,0,0,0-0.1
				c0,0,0,0,0,0c0,0,0,0,0,0c0,0,0,0,0-0.1c0,0,0-0.1,0-0.1c0,0,0-0.1,0-0.1c0,0,0,0,0-0.1c0,0,0,0,0,0c0,0,0,0,0,0c0,0,0,0,0,0
				c0,0,0,0,0-0.1c0,0,0,0,0-0.1c0,0,0,0,0-0.1c0,0,0,0,0-0.1c0,0,0,0,0-0.1c0,0,0,0,0-0.1c0,0,0-0.1,0-0.1c0,0,0,0,0-0.1
				c0,0,0-0.1,0-0.1c0,0,0,0,0-0.1c0,0,0,0,0-0.1c0,0,0,0,0,0s0,0,0,0c0,0,0,0,0,0c0,0,0,0,0,0.1c0,0,0,0.1,0,0.1c0,0,0,0.1,0,0.1
				c0,0,0,0.1,0,0.1s0,0,0,0.1c0,0,0,0,0,0.1c0,0,0,0,0,0c0,0,0,0,0,0.1c0,0,0,0.1,0,0.1c0,0,0,0.1,0,0.1c0,0,0,0.1,0,0.1
				c0,0,0,0,0,0c0,0,0,0,0,0c0,0,0,0,0,0s0,0,0,0c0,0,0,0,0,0.1c0,0,0,0.1,0,0.1c0,0,0,0,0,0.1c0,0,0,0,0,0.1s0,0,0,0.1
				c0,0,0,0,0,0.1c0,0,0,0,0,0.1c0,0,0,0.1,0,0.1c0,0,0,0.1,0,0.1c0,0,0,0,0,0c0,0,0,0,0,0c0,0,0,0,0,0c0,0,0,0,0,0c0,0,0,0,0-0.1
				c0,0,0,0,0-0.1c0,0,0-0.1,0-0.1v-0.1v-0.1v-0.1v-0.1c0,0,0,0,0-0.1c0,0,0-0.1,0-0.1c0,0,0-0.1,0-0.1c0,0,0-0.1,0-0.1
				c0,0,0-0.1,0-0.1c0,0,0-0.1,0-0.1c0,0,0-0.1,0-0.1c0,0,0,0,0-0.1c0,0,0,0,0,0c0,0,0,0,0-0.1c0,0,0-0.1,0-0.1c0,0,0-0.1,0-0.1
				c0,0,0,0,0-0.1c0,0,0-0.1,0-0.1C251,53,251,53,251,53z"/>
			<path class="st4" d="M251.5,54.9C251.5,54.9,251.5,54.9,251.5,54.9C251.4,54.9,251.4,54.9,251.5,54.9
				C251.4,54.9,251.4,54.9,251.5,54.9C251.4,54.8,251.4,54.8,251.5,54.9C251.4,54.8,251.4,54.8,251.5,54.9c-0.1-0.1-0.1-0.1-0.1-0.1
				c0,0,0,0,0-0.1c0,0,0,0,0,0l0-0.1c0,0,0-0.1,0-0.1c0,0,0,0,0-0.1c0,0,0,0,0,0c0,0,0,0,0,0c0,0,0,0,0-0.1c0,0,0,0,0,0c0,0,0,0,0,0
				l0,0l0,0c0,0,0,0,0-0.1c0,0,0-0.1,0-0.1c0,0,0-0.1,0-0.1c0,0,0,0,0-0.1c0,0,0,0,0,0c0,0,0,0,0,0c0,0,0,0,0,0c0,0,0,0,0-0.1l0,0
				c0,0,0,0,0-0.1c0,0,0,0,0-0.1v0c0,0,0,0,0-0.1c0,0,0,0,0-0.1c0,0,0,0,0-0.1c0,0,0,0,0-0.1l0,0c0,0,0,0,0-0.1c0,0,0-0.1,0-0.1
				c0,0,0,0,0,0c0,0,0,0.1,0,0.1s0,0.1,0,0.1c0,0,0,0.1,0,0.1c0,0,0,0,0,0.1c0,0,0,0,0,0.1c0,0,0,0,0,0c0,0,0,0,0,0.1l0,0.1
				c0,0,0,0.1,0,0.1c0,0,0,0.1,0,0.1c0,0,0,0,0,0c0,0,0,0,0,0c0,0,0,0,0,0c0,0,0,0,0,0c0,0,0,0,0,0.1c0,0,0,0.1,0,0.1v0
				c0,0,0,0,0,0.1c0,0,0,0,0,0.1c0,0,0,0,0,0.1c0,0,0,0,0,0.1c0,0,0,0,0,0.1c0,0,0,0.1,0,0.1c0,0,0,0.1,0,0.1c0,0,0,0,0,0h0h0
				c0,0,0,0,0,0c0,0,0,0,0,0c0,0,0,0,0,0c0,0,0,0,0-0.1c0,0,0,0,0-0.1c0,0,0-0.1,0-0.1v-0.3c0,0,0,0,0-0.1c0,0,0-0.1,0-0.1
				c0,0,0-0.1,0-0.1c0,0,0-0.1,0-0.1c0,0,0-0.1,0-0.1c0,0,0-0.1,0-0.1c0,0,0-0.1,0-0.1c0,0,0,0,0,0c0,0,0,0,0,0c0,0,0,0,0-0.1
				c0,0,0-0.1,0-0.1c0,0,0-0.1,0-0.1c0,0,0,0,0-0.1c0,0,0-0.1,0-0.1c0-0.1,0-0.1,0-0.1c0,0,0-0.1,0-0.1l0,0h0c0,0,0,0,0,0
				c0,0,0,0,0,0l0,0c0,0,0,0,0,0c0,0,0,0,0,0.1c0,0,0,0,0,0.1c0,0,0,0.1,0,0.1c0,0,0,0.1,0,0.2c0,0.1,0,0.1,0,0.1l0,0
				c0,0,0,0.1,0,0.1c0,0,0,0.1,0,0.1c0,0,0,0,0,0c0,0,0,0,0,0c0,0,0,0,0,0c0,0,0,0,0,0.1c0,0,0,0,0,0.1c0,0,0,0,0,0l0,0v0
				c0,0,0,0,0,0.1s0,0.1,0,0.1c0,0,0,0,0,0.1c0,0,0,0,0,0c0,0,0,0,0,0.1c0,0,0,0,0,0l0,0c0,0,0,0,0,0c0,0,0,0,0,0.1c0,0,0,0,0,0.1
				c0,0,0,0,0,0.1l0,0c0,0,0,0,0-0.1c0,0,0,0,0-0.1c0,0,0-0.1,0-0.1c0,0,0-0.1,0-0.1c0,0,0-0.1,0-0.1c0,0,0,0,0-0.1c0,0,0,0,0-0.1
				c0,0,0-0.1,0-0.1c0,0,0-0.1,0-0.1c0-0.1,0-0.1,0-0.2c0,0,0-0.1,0-0.1l0-0.1c0,0,0-0.1,0-0.1c0,0,0-0.1,0-0.1c0,0,0-0.1,0-0.1
				c0,0,0-0.1,0-0.1c0,0,0-0.1,0-0.1c0,0,0,0,0,0c0,0,0,0,0,0c0,0,0,0,0,0l0,0h0c0,0,0,0,0,0c0,0,0,0,0,0c0,0,0,0,0,0c0,0,0,0,0,0.1
				c0,0,0,0,0,0.1c0,0,0,0.1,0,0.1c0,0,0,0.1,0,0.2c0,0.1,0,0.1,0,0.2c0,0.1,0,0.2,0,0.3c0,0.1,0,0.1,0,0.1c0,0,0,0,0,0
				c0,0,0,0,0,0.1c0,0,0,0.1,0,0.1c0,0,0,0.1,0,0.1c0,0,0,0,0,0.1c0,0,0,0,0,0v0h0c0,0,0,0,0,0c0,0,0,0,0,0v0c0,0,0,0,0,0.1v0.1
				c0,0,0,0.1,0,0.1C251.5,54.8,251.5,54.8,251.5,54.9C251.5,54.8,251.5,54.9,251.5,54.9C251.5,54.9,251.5,54.9,251.5,54.9
				C251.5,54.9,251.5,54.9,251.5,54.9z M251.5,54.9C251.5,54.9,251.5,54.9,251.5,54.9C251.5,54.8,251.5,54.8,251.5,54.9
				c0-0.1,0-0.1,0-0.1c0,0,0-0.1,0-0.1v-0.1c0,0,0-0.1,0-0.1v0c0,0,0,0,0,0c0,0,0,0,0,0c0,0,0,0,0,0c0,0,0,0.1,0,0.1c0,0,0,0,0,0.1
				c0,0,0,0.1,0,0.1v0.1C251.5,54.8,251.5,54.8,251.5,54.9C251.5,54.8,251.5,54.8,251.5,54.9L251.5,54.9L251.5,54.9L251.5,54.9
				C251.5,54.9,251.5,54.9,251.5,54.9z M250.9,54.8L250.9,54.8C250.9,54.8,250.9,54.8,250.9,54.8c0,0,0-0.1,0-0.1c0,0,0-0.1,0-0.1
				c0,0,0-0.1,0-0.1c0,0,0,0,0-0.1c0,0,0,0,0-0.1c0,0,0,0,0-0.1c0,0,0,0,0-0.1c0,0,0-0.1,0-0.1c0,0,0,0,0-0.1c0,0,0,0,0,0
				c0,0,0,0,0,0c0,0,0,0,0,0c0,0,0,0,0,0c0,0,0,0,0-0.1c0,0,0-0.1,0-0.1l0-0.1c0,0,0-0.1,0-0.1c0,0,0,0,0-0.1c0,0,0,0,0-0.1
				c0,0,0,0,0-0.1c0,0,0-0.1,0-0.1c0,0,0-0.1,0-0.1c0,0,0-0.1,0-0.1c0,0,0-0.1,0-0.1c0,0,0,0,0,0v0l0,0c0,0,0,0,0,0c0,0,0,0,0,0
				c0,0,0,0,0,0.1c0,0,0,0,0,0.1c0,0,0,0,0,0.1c0,0,0,0,0,0.1c0,0,0,0,0,0.1c0,0,0,0,0,0.1c0,0,0,0,0,0.1c0,0,0,0,0,0.1
				c0,0,0,0,0,0.1c0,0,0,0,0,0.1c0,0,0,0,0,0.1c0,0,0,0,0,0c0,0,0,0,0,0c0,0,0,0,0,0l0,0v0c0,0,0,0,0,0.1c0,0,0,0.1,0,0.1
				c0,0,0,0.1,0,0.1c0,0,0,0,0,0.1c0,0,0,0,0,0c0,0,0,0,0,0c0,0,0,0,0,0l0,0c0,0,0,0,0,0c0,0,0,0,0,0.1c0,0,0,0,0,0c0,0,0,0,0,0.1
				l0,0.1c0,0,0,0,0,0c0,0,0,0,0,0c0,0,0,0,0,0h0l0,0c0,0,0,0,0,0c0,0,0,0,0,0v0c0,0,0,0,0,0l0,0v0c0,0,0,0,0,0l0-0.1c0,0,0,0,0-0.1
				c0,0,0,0,0-0.1c0,0,0,0,0-0.1c0,0,0,0,0,0c0,0,0,0,0-0.1c0,0,0,0,0-0.1v0c0,0,0,0,0,0c0,0,0,0,0-0.1c0,0,0,0,0-0.1c0,0,0,0,0-0.1
				c0,0,0,0,0-0.1c0,0,0,0,0-0.1v0c0,0,0,0,0-0.1c0,0,0,0,0-0.1c0,0,0,0,0,0c0,0,0,0,0,0c0,0,0,0,0-0.1c0,0,0-0.1,0-0.1
				c0,0,0-0.1,0-0.1c0-0.1,0-0.1,0-0.2c0-0.1,0-0.1,0-0.1c0-0.1,0-0.1,0-0.1c0,0,0,0,0-0.1c0,0,0,0,0,0c0,0,0,0,0,0c0,0,0,0,0,0h0
				c0,0,0,0,0,0c0,0,0,0.1,0,0.1c0,0,0,0.1,0,0.1c0,0,0,0.1,0,0.1c0,0,0,0,0,0.1c0,0,0,0.1,0,0.1c0,0,0,0.1,0,0.1c0,0,0,0,0,0
				c0,0,0,0,0,0.1c0,0,0,0.1,0,0.1c0,0,0,0.1,0,0.1c0,0,0,0.1,0,0.1c0,0,0,0.1,0,0.1c0,0,0,0.1,0,0.1c0,0,0,0,0,0.1c0,0,0,0,0,0.1
				v0.3c0,0,0,0,0,0.1C250.9,54.7,250.9,54.7,250.9,54.8C250.9,54.8,250.9,54.8,250.9,54.8C250.9,54.8,250.9,54.8,250.9,54.8z
				 M251.5,54.3C251.5,54.3,251.5,54.3,251.5,54.3C251.5,54.4,251.5,54.4,251.5,54.3L251.5,54.3C251.5,54.3,251.5,54.3,251.5,54.3
				C251.5,54.3,251.5,54.3,251.5,54.3z M251.5,52.9C251.5,52.9,251.5,52.9,251.5,52.9C251.5,52.9,251.5,53,251.5,52.9
				C251.5,53,251.5,53,251.5,52.9c0,0.1,0,0.1,0,0.1c0,0,0,0.1,0,0.1c0,0,0,0.1,0,0.1c0,0,0,0.1,0,0.1c0,0,0,0.1,0,0.1l0,0.1
				c0,0,0,0.1,0,0.1c0,0.1,0,0.1,0,0.2c0,0.1,0,0.1,0,0.1c0,0,0,0.1,0,0.1c0,0,0,0,0,0.1c0,0,0,0,0,0.1c0,0,0,0,0,0c0,0,0,0,0,0
				c0,0,0-0.1,0-0.1c0,0,0,0,0-0.1c0,0,0,0,0,0l0,0c0,0,0,0,0-0.1c0-0.1,0-0.2,0-0.3c0-0.1,0-0.1,0-0.2c0-0.1,0-0.1,0-0.2
				c0,0,0-0.1,0-0.1C251.5,53,251.5,53,251.5,52.9C251.5,53,251.5,53,251.5,52.9C251.5,52.9,251.5,52.9,251.5,52.9z"/>
			<path class="st22" d="M260,47.2c-1.6,0.1-18.5-0.1-23.6-0.1c-1,0-1,3.9-0.4,4c2.8,0.4,13.3,0.4,16.2,0.5c2.6,0.1,5.2-0.1,7.8-0.3
				"/>
			<path class="st5" d="M235.8,50.4L235.8,50.4c3.5-0.2,7.2-0.2,10.8-0.2c4.5,0,9.1,0,13.4-0.2l0,0.1c-4.3,0.2-8.9,0.2-13.4,0.2
				C242.9,50.3,239.2,50.3,235.8,50.4z"/>
			<path class="st5" d="M235.8,48.2L235.8,48.2c7.6-0.3,16.2-0.3,24.1-0.2V48C252,47.9,243.5,47.9,235.8,48.2z"/>
			<path class="st5" d="M253.1,49c-2.1,0-4.2,0-6.2-0.1c-3.7,0-7.6-0.1-11.2,0l0-0.1c3.6-0.1,7.5-0.1,11.2,0c4.4,0.1,9,0.1,13.2-0.1
				l0,0.1C257.8,49,255.5,49,253.1,49z"/>
			<path class="st5" d="M253.1,47.7c-2.1,0-4.1,0-6.2-0.1c-3.6-0.1-7.4-0.1-11,0l0-0.1c3.6-0.1,7.3-0.1,11,0
				c4.2,0.1,8.6,0.1,12.8-0.1l0,0.1C257.6,47.7,255.3,47.7,253.1,47.7z"/>
			<path class="st5" d="M253.4,50.8c-2.2,0-4.4,0-6.6-0.1c-3.7-0.1-7.5-0.1-11.2,0l0-0.1c3.7-0.1,7.5-0.1,11.2,0
				c4.3,0.1,8.8,0.1,13-0.1l0,0.1C257.8,50.8,255.6,50.8,253.4,50.8z"/>
			<path class="st5" d="M248.1,49.7c-3.9,0-7.9,0-11.8-0.1l-0.6,0v-0.1l0.6,0c7.8,0.1,15.9,0.2,23.5-0.1l0,0.1
				C256,49.7,252.1,49.7,248.1,49.7z"/>
			<path class="st5" d="M255.4,48.5c-2.1,0-4.2,0-6.5,0c-4.3,0-8.8,0-13.2,0v-0.1c4.4-0.1,8.9,0,13.2,0c3.8,0,7.3,0,10.8,0v0.1
				C258.4,48.5,256.9,48.5,255.4,48.5z"/>
			<path class="st5" d="M259.9,51.1L259.9,51.1l-0.1-0.9l0.1-0.1l-0.1-0.2v-0.7l0.2-0.3l-0.2-0.3v-0.4l0.1-0.1l-0.2-0.1v-0.5h0.1
				v0.5L260,48l-0.2,0.2v0.4l0.3,0.3l-0.2,0.3v0.7L260,50l-0.1,0.2V51.1z"/>
			<path class="st9" d="M253.2,51.7c-0.4,0-0.7,0-1.1,0c-0.6,0-1.6,0-2.8,0c-4.2,0-11.2-0.1-13.4-0.4c-0.5-0.1-0.6-1.5-0.5-2.2
				c0-0.6,0.2-2,1-2c2.1,0,6,0,10.2,0.1c6.1,0,12.4,0.1,13.3,0l0,0.3c-0.9,0-7.2,0-13.3,0c-4.2,0-8.2-0.1-10.2-0.1
				c-0.3,0-0.5,0.6-0.6,1.5c-0.1,0.5-0.1,1.1,0,1.5c0.1,0.5,0.2,0.7,0.2,0.7c2.2,0.3,9.2,0.4,13.4,0.4c1.2,0,2.2,0,2.8,0
				c2.3,0,4.7-0.1,7.8-0.3l0,0.3C257.3,51.6,255.2,51.7,253.2,51.7z"/>
			<path class="st12" d="M205,41.8c-0.3-2.7,2.4-3.7,3.1-2.1c-0.2-2.6,1-5.9,3.2-6.2c4.1-0.6,2.9,4.4,4.9,4.4
				c1.8-0.1,0.5-4.3,4.6-2.2c1,0.5,1.5,2.3,2.2,4.5c1.4-2.5,2.3-0.9,2.5,1.6C218.8,43.4,211.8,43.4,205,41.8z"/>
			<path class="st25" d="M263,58.4c0,0.1,0,0.2,0,0.3c0,0.5,0.4,0.8,0.8,0.8H287c0.5,0,0.8-0.4,0.8-0.8c0-0.1,0-0.2,0-0.3H263z"/>
			
				<linearGradient id="SVGID_4_" gradientUnits="userSpaceOnUse" x1="532.422" y1="-221.9703" x2="532.422" y2="-236.0415" gradientTransform="matrix(1 0 0 -1 -257 -175.5)">
				<stop  offset="0" style="stop-color:#F2F2F3"/>
				<stop  offset="0.2913" style="stop-color:#F1F0F0"/>
				<stop  offset="0.4777" style="stop-color:#E7E7E7"/>
				<stop  offset="0.6341" style="stop-color:#D8D8D8"/>
				<stop  offset="0.7231" style="stop-color:#CCCCCB"/>
			</linearGradient>
			<path class="st26" d="M284.8,46.2H266c-0.5,0-1,0.4-1,1v10.3c0,0.5,0.4,1,1,1h18.9c0.5,0,1-0.4,1-1V47.2
				C285.8,46.7,285.4,46.2,284.8,46.2z"/>
			<path class="st27" d="M229.5,98.4l8.5-37.7l-3.2-0.9l-7.3,38.5H229.5z"/>
			<path class="st27" d="M233.5,80.6l4.4-19.8l-3.2-0.9L233.5,80.6z"/>
			<path class="st27" d="M304.6,98.4l-6.8-38.5l-3.2,0.9l8.5,37.7H304.6z"/>
			<path class="st27" d="M299.1,80.6l-4.4-19.8l3.2-0.9L299.1,80.6z"/>
			<path class="st28" d="M265,59.2h-11.4H225v2.3h28.5H265h42v-2.3H265z"/>
			<path class="st29" d="M254.9,47.2l-0.1-6.4l-12.6,0.9l-1.1,5.4C241.4,47,254.2,47,254.9,47.2z"/>
			<path class="st30" d="M247.5,44.9l-9.7-4.4l11.9-5.1l8.1,5L247.5,44.9z"/>
			<path class="st25" d="M248.9,40.2c0,0.4-0.5,0.7-1,0.7c-0.6,0-1-0.3-1-0.7c0-0.4,0.5-0.7,1-0.7C248.4,39.4,248.9,39.8,248.9,40.2
				z"/>
			<path class="st16" d="M239.8,48.6c-0.6-4.7,1.4-7.3,6.1-8.2l0,0.2c-4.6,0.9-6.5,3.4-5.9,8L239.8,48.6z"/>
			<path class="st31" d="M239.2,54.3c0,1.5,0.3,1,0.5-0.1c0.1-0.5,0.8,0.6,0.8,0.6c0.8,0.1,0.3-1.5,0.6-1.3c0.6,1.7,0.8,0.9,0.8,0.4
				C241.2,50.4,239.1,43.2,239.2,54.3z"/>
			<path class="st12" d="M263.4,21.8c0.2-1.1-1.9-1.5-2.4-0.9c0.2-1-0.8-2.4-2.5-2.5c-3.2-0.3-2.3,1.8-3.8,1.8
				c-1.4,0-0.4-1.8-3.5-0.9c-0.8,0.2-1.1,0.9-1.7,1.8c-1.1-1-1.8-0.4-2,0.6C252.8,22.5,258.1,22.5,263.4,21.8z"/>
		</g>
	</g>
</g>
<path class="st32" d="M272,8h38c5.5,0,10,4.5,10,10l0,0c0,5.5-4.5,10-10,10h-38c-5.5,0-10-4.5-10-10l0,0C262,12.5,266.5,8,272,8z"/>
<path class="st22" d="M270.4,20.2c1-0.7,1.7-1.3,2.3-2c0.6-0.6,0.9-1.2,0.9-1.8c0-0.3-0.1-0.6-0.2-0.8c-0.2-0.2-0.4-0.3-0.8-0.3
	c-0.4,0-0.6,0.1-0.8,0.4c-0.2,0.2-0.3,0.6-0.3,1h-1c0-0.7,0.3-1.3,0.7-1.7c0.4-0.4,0.9-0.6,1.6-0.6c0.6,0,1.1,0.2,1.4,0.5
	c0.4,0.3,0.5,0.8,0.5,1.4c0,0.5-0.1,0.9-0.4,1.4c-0.3,0.5-0.6,0.9-1.1,1.3c-0.4,0.4-0.9,0.7-1.4,1h3V21h-4.4V20.2z"/>
<path class="st22" d="M275.6,17.8c0,1,0.2,1.8,0.5,2.4c0.4,0.6,1,0.9,1.8,0.9s1.4-0.3,1.8-0.9c0.4-0.6,0.5-1.4,0.5-2.4
	c0-1-0.2-1.8-0.5-2.4c-0.4-0.6-1-0.9-1.8-0.9s-1.4,0.3-1.8,0.9C275.8,16,275.6,16.8,275.6,17.8z M279.2,17.8c0,0.7-0.1,1.3-0.3,1.7
	c-0.2,0.4-0.5,0.6-1,0.6c-0.5,0-0.9-0.2-1.1-0.6c-0.2-0.4-0.3-1-0.3-1.7c0-0.7,0.1-1.3,0.3-1.7c0.2-0.4,0.5-0.6,1.1-0.6
	c0.5,0,0.9,0.2,1,0.6C279.1,16.5,279.2,17.1,279.2,17.8z"/>
<path class="st22" d="M284.5,18.5V21h-1v-6.4h2.2c0.7,0,1.3,0.2,1.6,0.5c0.4,0.3,0.6,0.8,0.6,1.4c0,0.6-0.2,1.1-0.6,1.4
	c-0.4,0.3-0.9,0.5-1.6,0.5H284.5z M285.5,17.7c0.8,0,1.3-0.4,1.3-1.1c0-0.4-0.1-0.6-0.3-0.8c-0.2-0.2-0.5-0.3-1-0.3h-1v2.2H285.5z"
	/>
<path class="st22" d="M291,16c0.5,0,0.9,0.1,1.3,0.3s0.7,0.5,0.9,0.9c0.2,0.4,0.3,0.8,0.3,1.4c0,0.5-0.1,1-0.3,1.4s-0.5,0.7-0.9,0.9
	s-0.8,0.3-1.3,0.3c-0.5,0-0.9-0.1-1.3-0.3c-0.4-0.2-0.7-0.5-0.9-0.9c-0.2-0.4-0.3-0.8-0.3-1.4c0-0.5,0.1-1,0.3-1.4
	c0.2-0.4,0.5-0.7,0.9-0.9C290.1,16.1,290.5,16,291,16z M291,16.9c-0.3,0-0.5,0.1-0.7,0.2c-0.2,0.1-0.4,0.3-0.5,0.6
	c-0.1,0.2-0.2,0.5-0.2,0.9c0,0.4,0.1,0.7,0.2,0.9c0.1,0.2,0.3,0.4,0.5,0.5c0.2,0.1,0.5,0.2,0.7,0.2c0.3,0,0.5-0.1,0.7-0.2
	c0.2-0.1,0.4-0.3,0.5-0.5c0.1-0.2,0.2-0.6,0.2-0.9c0-0.4-0.1-0.7-0.2-0.9c-0.1-0.3-0.3-0.4-0.5-0.6C291.5,16.9,291.2,16.9,291,16.9z
	"/>
<path class="st22" d="M294.3,14.6c0-0.2,0.1-0.3,0.2-0.4c0.1-0.1,0.3-0.2,0.5-0.2s0.4,0.1,0.5,0.2c0.1,0.1,0.2,0.3,0.2,0.4
	s-0.1,0.3-0.2,0.4c-0.1,0.1-0.3,0.2-0.5,0.2s-0.4-0.1-0.5-0.2C294.4,14.9,294.3,14.8,294.3,14.6z M295.5,16.1v5h-1v-5H295.5z"/>
<path class="st22" d="M299.5,16c0.6,0,1,0.2,1.4,0.6s0.5,0.9,0.5,1.6V21h-1v-2.8c0-0.4-0.1-0.8-0.3-1c-0.2-0.2-0.5-0.4-0.9-0.4
	c-0.4,0-0.7,0.1-1,0.4c-0.2,0.3-0.4,0.6-0.4,1.1V21h-1v-5h1v1.1c0.1-0.4,0.4-0.7,0.7-0.9C298.8,16.1,299.1,16,299.5,16z"/>
<path class="st22" d="M305.1,20.1V21h-0.6c-0.5,0-0.9-0.1-1.2-0.4c-0.3-0.3-0.4-0.7-0.4-1.3v-2.4h-0.7v-0.9h0.7v-1.2h1v1.2h1.2v0.9
	h-1.2v2.4c0,0.3,0.1,0.5,0.2,0.6c0.1,0.1,0.3,0.2,0.6,0.2H305.1z"/>
<path class="st22" d="M307.7,16c0.6,0,1,0.2,1.4,0.4c0.4,0.3,0.6,0.7,0.6,1.2h-1c0-0.3-0.2-0.5-0.4-0.6c-0.2-0.2-0.4-0.3-0.7-0.3
	c-0.3,0-0.5,0.1-0.6,0.2c-0.1,0.1-0.2,0.3-0.2,0.5c0,0.2,0.1,0.3,0.2,0.4s0.2,0.2,0.4,0.2c0.2,0.1,0.4,0.1,0.7,0.2
	c0.4,0.1,0.7,0.2,0.9,0.3c0.2,0.1,0.4,0.2,0.6,0.4c0.2,0.2,0.3,0.5,0.3,0.8c0,0.4-0.2,0.8-0.5,1c-0.3,0.3-0.7,0.4-1.3,0.4
	c-0.6,0-1.1-0.1-1.5-0.4c-0.4-0.3-0.6-0.7-0.7-1.2h1c0,0.3,0.1,0.5,0.4,0.7c0.2,0.2,0.5,0.3,0.8,0.3c0.2,0,0.4-0.1,0.6-0.2
	c0.1-0.1,0.2-0.3,0.2-0.5c0-0.2-0.1-0.3-0.2-0.4s-0.2-0.2-0.4-0.2c-0.2-0.1-0.4-0.1-0.7-0.2c-0.4-0.1-0.7-0.2-0.9-0.3
	c-0.2-0.1-0.4-0.2-0.6-0.4c-0.2-0.2-0.2-0.5-0.2-0.8c0-0.4,0.2-0.8,0.5-1C306.7,16.1,307.2,16,307.7,16z"/>
<circle class="st22" cx="28" cy="40" r="12"/>
<path class="st33" d="M31,37.2l-4.3,4.4L25,39.8c-0.1-0.1-0.3-0.2-0.4-0.2c-0.2,0-0.3,0.1-0.4,0.2c-0.2,0.2-0.2,0.6,0,0.8l2.1,2.2
	c0.2,0.2,0.6,0.2,0.8,0l4.7-4.8c0.2-0.2,0.2-0.6,0-0.8C31.6,37,31.2,37,31,37.2z"/>
<circle class="st34" cx="28" cy="40" r="12"/>
<path class="st32" d="M26.1,37.8V37h2v7h-1v-6.2H26.1z"/>
<path d="M53.9,31.3h-3.4L49.9,33h-1.8l3.1-8.4h1.9l3.1,8.4h-1.8L53.9,31.3z M53.5,30l-1.2-3.6L51,30H53.5z"/>
<path d="M60.8,31.6V33h-0.9c-0.7,0-1.3-0.2-1.7-0.5c-0.4-0.4-0.6-1-0.6-1.8v-2.9h-0.9v-1.4h0.9v-1.6h1.7v1.6h1.5v1.4h-1.5v2.9
	c0,0.3,0.1,0.5,0.2,0.7c0.1,0.1,0.3,0.2,0.6,0.2H60.8z"/>
<path d="M65.5,31.6V33h-0.9c-0.7,0-1.3-0.2-1.7-0.5c-0.4-0.4-0.6-1-0.6-1.8v-2.9h-0.9v-1.4h0.9v-1.6H64v1.6h1.5v1.4H64v2.9
	c0,0.3,0.1,0.5,0.2,0.7c0.1,0.1,0.3,0.2,0.6,0.2H65.5z"/>
<path d="M73,29.4c0,0.2,0,0.4-0.1,0.6h-4.9c0,0.6,0.2,1,0.5,1.3c0.3,0.3,0.7,0.4,1.1,0.4c0.4,0,0.7-0.1,1-0.3
	c0.3-0.2,0.4-0.5,0.5-0.8h1.8c-0.1,0.5-0.3,0.9-0.6,1.2c-0.3,0.4-0.7,0.7-1.1,0.9c-0.4,0.2-0.9,0.3-1.5,0.3c-0.6,0-1.2-0.1-1.7-0.4
	c-0.5-0.3-0.9-0.7-1.2-1.2c-0.3-0.5-0.4-1.1-0.4-1.8c0-0.7,0.1-1.3,0.4-1.8c0.3-0.5,0.7-0.9,1.2-1.2c0.5-0.3,1.1-0.4,1.7-0.4
	c0.7,0,1.2,0.1,1.7,0.4c0.5,0.3,0.9,0.6,1.1,1.1C72.9,28.3,73,28.8,73,29.4z M71.3,29.3c0-0.5-0.1-1-0.4-1.2
	c-0.3-0.3-0.7-0.4-1.1-0.4c-0.5,0-0.8,0.1-1.2,0.4c-0.3,0.3-0.5,0.7-0.5,1.2H71.3z"/>
<path d="M78.2,26.3c0.8,0,1.4,0.3,1.8,0.8s0.7,1.2,0.7,2.1V33H79v-3.7c0-0.5-0.1-0.9-0.4-1.2c-0.3-0.3-0.6-0.4-1.1-0.4
	c-0.5,0-0.9,0.2-1.2,0.5c-0.3,0.3-0.4,0.8-0.4,1.3V33h-1.7v-6.6h1.7v1.3c0.2-0.4,0.5-0.8,0.9-1C77.2,26.4,77.6,26.3,78.2,26.3z"/>
<path d="M84.8,26.3c0.6,0,1,0.1,1.4,0.4c0.4,0.3,0.7,0.6,0.9,1.1v-3.6h1.7V33h-1.7v-1.4c-0.2,0.4-0.5,0.8-0.9,1.1
	c-0.4,0.3-0.9,0.4-1.4,0.4c-0.6,0-1.1-0.1-1.5-0.4c-0.4-0.3-0.8-0.7-1.1-1.2c-0.2-0.5-0.4-1.1-0.4-1.8c0-0.7,0.1-1.3,0.4-1.8
	c0.3-0.5,0.6-0.9,1.1-1.2C83.7,26.4,84.2,26.3,84.8,26.3z M85.3,27.8c-0.5,0-1,0.2-1.3,0.5s-0.5,0.8-0.5,1.4c0,0.6,0.2,1.1,0.5,1.4
	c0.3,0.3,0.7,0.5,1.3,0.5c0.5,0,0.9-0.2,1.3-0.5c0.3-0.4,0.5-0.8,0.5-1.4c0-0.6-0.2-1.1-0.5-1.4C86.2,27.9,85.8,27.8,85.3,27.8z"/>
<path d="M94.6,24.1V33h-1.7v-8.9H94.6z"/>
<path d="M95.9,24.5c0-0.3,0.1-0.5,0.3-0.7c0.2-0.2,0.4-0.3,0.8-0.3c0.3,0,0.6,0.1,0.8,0.3c0.2,0.2,0.3,0.4,0.3,0.7
	c0,0.3-0.1,0.5-0.3,0.7c-0.2,0.2-0.4,0.3-0.8,0.3c-0.3,0-0.6-0.1-0.8-0.3C96,24.9,95.9,24.7,95.9,24.5z M97.8,26.4V33h-1.7v-6.6
	H97.8z"/>
<path d="M102.2,31.3l1.7-5h1.8l-2.5,6.6h-2.1l-2.5-6.6h1.8L102.2,31.3z"/>
<path d="M112.9,29.4c0,0.2,0,0.4-0.1,0.6H108c0,0.6,0.2,1,0.5,1.3c0.3,0.3,0.7,0.4,1.1,0.4c0.4,0,0.7-0.1,1-0.3
	c0.3-0.2,0.4-0.5,0.5-0.8h1.8c-0.1,0.5-0.3,0.9-0.6,1.2c-0.3,0.4-0.7,0.7-1.1,0.9c-0.4,0.2-0.9,0.3-1.5,0.3c-0.6,0-1.2-0.1-1.7-0.4
	c-0.5-0.3-0.9-0.7-1.2-1.2c-0.3-0.5-0.4-1.1-0.4-1.8c0-0.7,0.1-1.3,0.4-1.8c0.3-0.5,0.7-0.9,1.2-1.2c0.5-0.3,1.1-0.4,1.7-0.4
	c0.7,0,1.2,0.1,1.7,0.4c0.5,0.3,0.9,0.6,1.1,1.1C112.8,28.3,112.9,28.8,112.9,29.4z M111.2,29.3c0-0.5-0.1-1-0.4-1.2
	c-0.3-0.3-0.7-0.4-1.1-0.4c-0.5,0-0.8,0.1-1.2,0.4c-0.3,0.3-0.5,0.7-0.5,1.2H111.2z"/>
<path d="M119.7,26.3c0.9,0,1.6,0.2,2.1,0.7c0.6,0.5,0.9,1.1,1.1,1.9h-1.8c-0.1-0.4-0.2-0.6-0.5-0.8c-0.3-0.2-0.6-0.3-1-0.3
	c-0.4,0-0.8,0.2-1.1,0.5c-0.3,0.3-0.4,0.8-0.4,1.5c0,0.6,0.1,1.1,0.4,1.5c0.3,0.3,0.7,0.5,1.1,0.5c0.4,0,0.7-0.1,1-0.3
	c0.3-0.2,0.4-0.5,0.5-0.8h1.8c-0.1,0.8-0.5,1.4-1.1,1.9c-0.6,0.5-1.3,0.7-2.1,0.7c-0.6,0-1.2-0.1-1.7-0.4c-0.5-0.3-0.9-0.7-1.2-1.2
	c-0.3-0.5-0.4-1.1-0.4-1.8c0-0.7,0.1-1.3,0.4-1.8c0.3-0.5,0.7-0.9,1.2-1.2C118.5,26.4,119.1,26.3,119.7,26.3z"/>
<path d="M125.8,24.1V33h-1.7v-8.9H125.8z"/>
<path d="M130,26.3c0.6,0,1,0.1,1.4,0.4c0.4,0.3,0.7,0.6,0.9,1.1v-1.4h1.7V33h-1.7v-1.4c-0.2,0.4-0.5,0.8-0.9,1.1
	c-0.4,0.3-0.9,0.4-1.4,0.4c-0.6,0-1.1-0.1-1.5-0.4s-0.8-0.7-1.1-1.2c-0.2-0.5-0.4-1.1-0.4-1.8c0-0.7,0.1-1.3,0.4-1.8
	c0.3-0.5,0.6-0.9,1.1-1.2C128.9,26.4,129.4,26.3,130,26.3z M130.5,27.8c-0.5,0-1,0.2-1.3,0.5c-0.3,0.3-0.5,0.8-0.5,1.4
	c0,0.6,0.2,1.1,0.5,1.4c0.3,0.3,0.7,0.5,1.3,0.5c0.5,0,0.9-0.2,1.3-0.5c0.3-0.4,0.5-0.8,0.5-1.4c0-0.6-0.2-1.1-0.5-1.4
	C131.4,27.9,131,27.8,130.5,27.8z"/>
<path d="M137.8,26.3c0.8,0,1.5,0.2,1.9,0.6c0.5,0.4,0.8,1,0.9,1.6H139c-0.1-0.3-0.2-0.6-0.4-0.8s-0.5-0.3-0.9-0.3
	c-0.3,0-0.5,0.1-0.7,0.2s-0.2,0.3-0.2,0.6c0,0.2,0.1,0.3,0.2,0.4c0.1,0.1,0.3,0.2,0.5,0.3c0.2,0.1,0.5,0.1,0.8,0.2
	c0.5,0.1,0.9,0.2,1.2,0.4c0.3,0.1,0.6,0.3,0.8,0.6c0.2,0.3,0.3,0.6,0.3,1.1c0,0.6-0.2,1-0.7,1.4c-0.4,0.4-1,0.5-1.8,0.5
	c-0.9,0-1.6-0.2-2.1-0.6c-0.5-0.4-0.8-0.9-0.9-1.7h1.6c0,0.3,0.2,0.6,0.4,0.8c0.2,0.2,0.6,0.3,1,0.3c0.3,0,0.5-0.1,0.7-0.2
	c0.2-0.1,0.2-0.3,0.2-0.6c0-0.2-0.1-0.3-0.2-0.5c-0.1-0.1-0.3-0.2-0.5-0.3c-0.2-0.1-0.5-0.1-0.8-0.2c-0.5-0.1-0.9-0.2-1.2-0.3
	c-0.3-0.1-0.6-0.3-0.8-0.6c-0.2-0.3-0.3-0.6-0.3-1.1c0-0.6,0.2-1,0.7-1.4C136.4,26.5,137,26.3,137.8,26.3z"/>
<path d="M144.2,26.3c0.8,0,1.5,0.2,1.9,0.6c0.5,0.4,0.8,1,0.9,1.6h-1.6c-0.1-0.3-0.2-0.6-0.4-0.8s-0.5-0.3-0.9-0.3
	c-0.3,0-0.5,0.1-0.7,0.2c-0.2,0.1-0.2,0.3-0.2,0.6c0,0.2,0.1,0.3,0.2,0.4c0.1,0.1,0.3,0.2,0.5,0.3c0.2,0.1,0.5,0.1,0.8,0.2
	c0.5,0.1,0.9,0.2,1.2,0.4c0.3,0.1,0.6,0.3,0.8,0.6c0.2,0.3,0.3,0.6,0.3,1.1c0,0.6-0.2,1-0.7,1.4c-0.4,0.4-1,0.5-1.8,0.5
	c-0.9,0-1.6-0.2-2.1-0.6c-0.5-0.4-0.8-0.9-0.9-1.7h1.6c0,0.3,0.2,0.6,0.4,0.8c0.2,0.2,0.6,0.3,1,0.3c0.3,0,0.5-0.1,0.7-0.2
	c0.2-0.1,0.2-0.3,0.2-0.6c0-0.2-0.1-0.3-0.2-0.5c-0.1-0.1-0.3-0.2-0.5-0.3c-0.2-0.1-0.5-0.1-0.8-0.2c-0.5-0.1-0.9-0.2-1.2-0.3
	c-0.3-0.1-0.6-0.3-0.8-0.6c-0.2-0.3-0.3-0.6-0.3-1.1c0-0.6,0.2-1,0.7-1.4C142.9,26.5,143.5,26.3,144.2,26.3z"/>
<path class="st32" d="M97.4,51.8c0,2.2,0.8,3.2,2.4,3.2c0.9,0,1.5-0.3,1.9-0.9s0.6-1.4,0.6-2.4c0-1-0.2-1.8-0.6-2.4s-1-0.9-1.9-0.9
	C98.2,48.6,97.4,49.6,97.4,51.8z M101,51.8c0,0.7-0.1,1.2-0.2,1.5c-0.2,0.3-0.5,0.5-0.9,0.5c-0.5,0-0.8-0.2-0.9-0.5
	c-0.2-0.4-0.2-0.9-0.2-1.5c0-0.6,0.1-1.1,0.2-1.5c0.2-0.4,0.5-0.5,0.9-0.5c0.5,0,0.8,0.2,0.9,0.5C100.9,50.6,101,51.1,101,51.8z"/>
<path class="st32" d="M106.3,46.5l-2.4,10.2h-1.2l2.4-10.2H106.3z"/>
<path class="st32" d="M106.2,49.8v-1.2h2.3V55h-1.3v-5.2H106.2z"/>
<path class="st35" d="M50,52.4V55h-1.4V48h2.6c0.8,0,1.5,0.2,1.9,0.6c0.4,0.4,0.6,0.9,0.6,1.6c0,0.7-0.2,1.2-0.7,1.6
	c-0.4,0.4-1.1,0.6-1.9,0.6H50z M51.1,51.3c0.8,0,1.2-0.4,1.2-1.1c0-0.4-0.1-0.6-0.3-0.8c-0.2-0.2-0.5-0.3-0.9-0.3h-1v2.2H51.1z"/>
<path class="st35" d="M56.1,50.5c0.2-0.4,0.5-0.6,0.8-0.8c0.3-0.2,0.7-0.3,1.1-0.3v1.5h-0.4c-1,0-1.5,0.5-1.5,1.4V55h-1.4v-5.5h1.4
	V50.5z"/>
<path class="st35" d="M61.4,49.4c0.5,0,1,0.1,1.5,0.3c0.4,0.2,0.8,0.6,1,1c0.2,0.4,0.4,0.9,0.4,1.5c0,0.6-0.1,1.1-0.4,1.5
	c-0.2,0.4-0.6,0.8-1,1c-0.4,0.2-0.9,0.3-1.5,0.3s-1-0.1-1.5-0.3c-0.4-0.2-0.8-0.6-1-1c-0.2-0.4-0.4-0.9-0.4-1.5
	c0-0.6,0.1-1.1,0.4-1.5c0.2-0.4,0.6-0.8,1-1C60.3,49.5,60.8,49.4,61.4,49.4z M61.4,50.6c-0.4,0-0.7,0.1-1,0.4
	c-0.3,0.3-0.4,0.7-0.4,1.2c0,0.5,0.1,0.9,0.4,1.2c0.3,0.3,0.6,0.4,1,0.4c0.4,0,0.7-0.1,1-0.4c0.3-0.3,0.4-0.7,0.4-1.2
	c0-0.5-0.1-0.9-0.4-1.2C62.1,50.8,61.7,50.6,61.4,50.6z"/>
<path class="st35" d="M67.4,49.4c0.5,0,0.9,0.1,1.2,0.3c0.3,0.2,0.6,0.5,0.7,0.9v-1.2h1.4V55c0,0.5-0.1,1-0.3,1.4
	c-0.2,0.4-0.5,0.7-0.9,1c-0.4,0.2-0.9,0.4-1.5,0.4c-0.8,0-1.4-0.2-1.9-0.6c-0.5-0.4-0.8-0.9-0.9-1.6h1.4c0.1,0.3,0.2,0.5,0.5,0.7
	c0.2,0.2,0.5,0.2,0.9,0.2c0.4,0,0.7-0.1,1-0.4c0.3-0.2,0.4-0.6,0.4-1.1v-1.2c-0.1,0.4-0.4,0.7-0.7,0.9c-0.3,0.2-0.7,0.3-1.2,0.3
	c-0.5,0-0.9-0.1-1.3-0.3c-0.4-0.2-0.7-0.6-0.9-1c-0.2-0.4-0.3-0.9-0.3-1.5c0-0.6,0.1-1.1,0.3-1.5c0.2-0.4,0.5-0.8,0.9-1
	C66.5,49.5,66.9,49.4,67.4,49.4z M67.8,50.6c-0.4,0-0.8,0.1-1.1,0.4c-0.3,0.3-0.4,0.7-0.4,1.2s0.1,0.9,0.4,1.2
	c0.3,0.3,0.6,0.4,1.1,0.4c0.4,0,0.8-0.1,1.1-0.4c0.3-0.3,0.4-0.7,0.4-1.2c0-0.5-0.1-0.9-0.4-1.2C68.6,50.8,68.2,50.6,67.8,50.6z"/>
<path class="st35" d="M73.4,50.5c0.2-0.4,0.5-0.6,0.8-0.8c0.3-0.2,0.7-0.3,1.1-0.3v1.5h-0.4c-1,0-1.5,0.5-1.5,1.4V55H72v-5.5h1.4
	V50.5z"/>
<path class="st35" d="M81.3,52c0,0.1,0,0.3,0,0.5h-4.1c0,0.5,0.2,0.9,0.4,1.1c0.2,0.2,0.6,0.3,0.9,0.3c0.3,0,0.6-0.1,0.8-0.2
	c0.2-0.2,0.4-0.4,0.4-0.7h1.5c-0.1,0.4-0.2,0.7-0.5,1c-0.2,0.3-0.6,0.5-0.9,0.7c-0.4,0.2-0.8,0.3-1.2,0.3c-0.5,0-1-0.1-1.4-0.3
	c-0.4-0.2-0.7-0.6-1-1c-0.2-0.4-0.3-0.9-0.3-1.5c0-0.6,0.1-1.1,0.3-1.5c0.2-0.4,0.6-0.8,1-1c0.4-0.2,0.9-0.3,1.4-0.3
	c0.5,0,1,0.1,1.4,0.3c0.4,0.2,0.7,0.5,0.9,0.9C81.2,51.1,81.3,51.5,81.3,52z M79.9,51.9c0-0.5-0.1-0.8-0.4-1
	c-0.3-0.2-0.6-0.3-0.9-0.3c-0.4,0-0.7,0.1-1,0.3c-0.3,0.2-0.4,0.6-0.4,1H79.9z"/>
<path class="st35" d="M84.2,49.4c0.7,0,1.2,0.2,1.6,0.5c0.4,0.3,0.7,0.8,0.8,1.4h-1.3c-0.1-0.3-0.2-0.5-0.4-0.6s-0.4-0.2-0.7-0.2
	c-0.2,0-0.4,0.1-0.6,0.2c-0.1,0.1-0.2,0.3-0.2,0.5c0,0.2,0.1,0.3,0.2,0.4c0.1,0.1,0.2,0.2,0.4,0.2c0.2,0.1,0.4,0.1,0.7,0.2
	c0.4,0.1,0.8,0.2,1,0.3c0.3,0.1,0.5,0.3,0.7,0.5c0.2,0.2,0.3,0.5,0.3,0.9c0,0.5-0.2,0.9-0.6,1.2c-0.4,0.3-0.9,0.4-1.5,0.4
	c-0.7,0-1.3-0.2-1.7-0.5c-0.4-0.3-0.7-0.8-0.8-1.4h1.3c0,0.3,0.2,0.5,0.4,0.6c0.2,0.2,0.5,0.2,0.8,0.2c0.2,0,0.4-0.1,0.5-0.2
	c0.1-0.1,0.2-0.3,0.2-0.5c0-0.2-0.1-0.3-0.2-0.4c-0.1-0.1-0.2-0.2-0.4-0.2c-0.2-0.1-0.4-0.1-0.7-0.2c-0.4-0.1-0.8-0.2-1-0.3
	c-0.3-0.1-0.5-0.3-0.7-0.5c-0.2-0.2-0.3-0.5-0.3-0.9c0-0.5,0.2-0.9,0.5-1.2C83.1,49.6,83.6,49.4,84.2,49.4z"/>
<path class="st35" d="M89.6,49.4c0.7,0,1.2,0.2,1.6,0.5c0.4,0.3,0.7,0.8,0.8,1.4h-1.3c-0.1-0.3-0.2-0.5-0.4-0.6
	c-0.2-0.2-0.4-0.2-0.7-0.2c-0.2,0-0.4,0.1-0.6,0.2c-0.1,0.1-0.2,0.3-0.2,0.5c0,0.2,0.1,0.3,0.2,0.4c0.1,0.1,0.2,0.2,0.4,0.2
	c0.2,0.1,0.4,0.1,0.7,0.2c0.4,0.1,0.8,0.2,1,0.3c0.3,0.1,0.5,0.3,0.7,0.5c0.2,0.2,0.3,0.5,0.3,0.9c0,0.5-0.2,0.9-0.6,1.2
	c-0.4,0.3-0.9,0.4-1.5,0.4c-0.7,0-1.3-0.2-1.7-0.5c-0.4-0.3-0.7-0.8-0.8-1.4h1.3c0,0.3,0.2,0.5,0.4,0.6c0.2,0.2,0.5,0.2,0.8,0.2
	c0.2,0,0.4-0.1,0.6-0.2c0.1-0.1,0.2-0.3,0.2-0.5c0-0.2-0.1-0.3-0.2-0.4c-0.1-0.1-0.2-0.2-0.4-0.2c-0.2-0.1-0.4-0.1-0.7-0.2
	c-0.4-0.1-0.8-0.2-1-0.3c-0.3-0.1-0.5-0.3-0.7-0.5c-0.2-0.2-0.3-0.5-0.3-0.9c0-0.5,0.2-0.9,0.6-1.2C88.5,49.6,89,49.4,89.6,49.4z"/>
</svg>
