<svg id="Layer_1" data-name="Layer 1" xmlns="http://www.w3.org/2000/svg" viewBox="0 0 328 209"><path d="M0,8A8,8,0,0,1,8,0H320a8,8,0,0,1,8,8V201a8,8,0,0,1-8,8H8a8,8,0,0,1-8-8Z" fill="#f8f8f8"/><line x1="16" y1="167.5" x2="312" y2="167.5" fill="none" stroke="#e8e8e8"/><path d="M19.14,89.56v-1h2.42V97H20.41V89.56Zm5,6.16V97H22.81V95.72Zm8-7.26a4.09,4.09,0,0,1,2.55.76,3.88,3.88,0,0,1,1.4,2.08H34.91a2.75,2.75,0,0,0-1-1.33,3,3,0,0,0-1.76-.51,2.78,2.78,0,0,0-1.49.41,2.82,2.82,0,0,0-1,1.15,4.22,4.22,0,0,0,0,3.5,2.68,2.68,0,0,0,2.52,1.54,3,3,0,0,0,1.76-.49,2.77,2.77,0,0,0,1-1.34h1.16a3.94,3.94,0,0,1-1.4,2.09,4.15,4.15,0,0,1-2.55.75,4.05,4.05,0,0,1-2.1-.54A3.81,3.81,0,0,1,28.59,95a4.78,4.78,0,0,1-.5-2.23,4.84,4.84,0,0,1,.5-2.25A3.75,3.75,0,0,1,30,89,4,4,0,0,1,32.12,88.46Zm8.41,1.87a3.36,3.36,0,0,1,1.69.41,2.83,2.83,0,0,1,1.18,1.17,4,4,0,0,1,0,3.6,2.89,2.89,0,0,1-1.18,1.17,3.46,3.46,0,0,1-1.69.4,3.53,3.53,0,0,1-1.7-.4,3,3,0,0,1-1.18-1.17,4,4,0,0,1,0-3.6,3,3,0,0,1,1.18-1.17A3.42,3.42,0,0,1,40.53,90.33Zm0,1a2.4,2.4,0,0,0-1.09.26,2,2,0,0,0-.8.82,2.74,2.74,0,0,0-.3,1.34,2.81,2.81,0,0,0,.3,1.35,2,2,0,0,0,.8.8,2.28,2.28,0,0,0,1.09.26,2.21,2.21,0,0,0,1.08-.26,2,2,0,0,0,.81-.8,2.81,2.81,0,0,0,.31-1.35,2.74,2.74,0,0,0-.31-1.34,1.94,1.94,0,0,0-.81-.82A2.33,2.33,0,0,0,40.53,91.29Zm8.38-1a2.93,2.93,0,0,1,1.56.41,2.76,2.76,0,0,1,1.07,1.17,4.35,4.35,0,0,1,0,3.6,2.82,2.82,0,0,1-1.07,1.17,3,3,0,0,1-1.56.4,2.73,2.73,0,0,1-1.63-.48,2.42,2.42,0,0,1-.91-1.28v4.8h-1.1V90.41h1.1v1.68a2.39,2.39,0,0,1,.91-1.27A2.67,2.67,0,0,1,48.91,90.33Zm-.31,1a2.22,2.22,0,0,0-1.15.3,1.94,1.94,0,0,0-.81.84,2.73,2.73,0,0,0-.29,1.27A2.7,2.7,0,0,0,46.64,95a2,2,0,0,0,.81.84,2.22,2.22,0,0,0,1.15.3,2.13,2.13,0,0,0,1.62-.63,2.48,2.48,0,0,0,.61-1.78A2.42,2.42,0,0,0,50.22,92,2.11,2.11,0,0,0,48.6,91.3Zm5.23-.89L56,95.6l2-5.19h1.21l-3.91,9.71H54l1.37-3.23-2.77-6.48Zm12-.08a2.68,2.68,0,0,1,1.62.48,2.52,2.52,0,0,1,.94,1.28V90.41h1.09V97H68.42V95.32a2.48,2.48,0,0,1-.94,1.28,2.68,2.68,0,0,1-1.62.48,3,3,0,0,1-1.56-.4,3,3,0,0,1-1.08-1.17,4.45,4.45,0,0,1,0-3.6,2.86,2.86,0,0,1,2.64-1.58Zm.32,1a2.11,2.11,0,0,0-1.62.65,2.41,2.41,0,0,0-.6,1.76,2.48,2.48,0,0,0,.6,1.78,2.13,2.13,0,0,0,1.62.63,2.22,2.22,0,0,0,1.15-.3,2.09,2.09,0,0,0,.8-.84,2.7,2.7,0,0,0,.29-1.27,2.73,2.73,0,0,0-.29-1.27,2,2,0,0,0-.8-.84A2.22,2.22,0,0,0,66.18,91.3Zm8.55-1a2.43,2.43,0,0,1,1.86.75,2.89,2.89,0,0,1,.71,2.12V97H76.21V93.27a2.12,2.12,0,0,0-.5-1.51,1.79,1.79,0,0,0-1.37-.53,1.84,1.84,0,0,0-1.44.59,2.37,2.37,0,0,0-.54,1.69V97H71.27V90.41h1.09V92a2.22,2.22,0,0,1,.89-1.23A2.58,2.58,0,0,1,74.73,90.3Zm7,0a2.68,2.68,0,0,1,1.62.48,2.5,2.5,0,0,1,.93,1.28v-4h1.09V97H84.25V95.32a2.46,2.46,0,0,1-.93,1.28,2.68,2.68,0,0,1-1.62.48,3,3,0,0,1-1.56-.4,2.85,2.85,0,0,1-1.08-1.17,4.35,4.35,0,0,1,0-3.6,2.79,2.79,0,0,1,1.08-1.17A2.89,2.89,0,0,1,81.7,90.33Zm.31,1a2.14,2.14,0,0,0-1.62.65,2.45,2.45,0,0,0-.6,1.76,2.52,2.52,0,0,0,.6,1.78,2.16,2.16,0,0,0,1.62.63,2.22,2.22,0,0,0,1.15-.3A2.09,2.09,0,0,0,84,95a2.59,2.59,0,0,0,.29-1.27A2.62,2.62,0,0,0,84,92.44a2,2,0,0,0-.8-.84A2.22,2.22,0,0,0,82,91.3Zm11.82-2.84a4.09,4.09,0,0,1,2.55.76,3.88,3.88,0,0,1,1.4,2.08H96.62a2.75,2.75,0,0,0-1-1.33,3,3,0,0,0-1.76-.51,2.78,2.78,0,0,0-1.49.41,2.84,2.84,0,0,0-1,1.15,4.32,4.32,0,0,0,0,3.5,2.9,2.9,0,0,0,1,1.15,2.86,2.86,0,0,0,1.49.39,3,3,0,0,0,1.76-.49,2.77,2.77,0,0,0,1-1.34h1.16a3.94,3.94,0,0,1-1.4,2.09,4.15,4.15,0,0,1-2.55.75,4,4,0,0,1-2.1-.54A3.81,3.81,0,0,1,90.3,95a4.79,4.79,0,0,1-.51-2.23,4.84,4.84,0,0,1,.51-2.25A3.75,3.75,0,0,1,91.73,89,3.94,3.94,0,0,1,93.83,88.46Zm8.41,1.87a3.36,3.36,0,0,1,1.69.41,2.83,2.83,0,0,1,1.18,1.17,4,4,0,0,1,0,3.6,2.89,2.89,0,0,1-1.18,1.17,3.46,3.46,0,0,1-1.69.4,3.53,3.53,0,0,1-1.7-.4,3,3,0,0,1-1.18-1.17,4,4,0,0,1,0-3.6,3,3,0,0,1,1.18-1.17A3.42,3.42,0,0,1,102.24,90.33Zm0,1a2.4,2.4,0,0,0-1.09.26,2,2,0,0,0-.8.82,2.63,2.63,0,0,0-.31,1.34,2.7,2.7,0,0,0,.31,1.35,2,2,0,0,0,.8.8,2.28,2.28,0,0,0,1.09.26,2.21,2.21,0,0,0,1.08-.26,1.87,1.87,0,0,0,.8-.8,2.7,2.7,0,0,0,.32-1.35,2.63,2.63,0,0,0-.32-1.34,1.87,1.87,0,0,0-.8-.82A2.33,2.33,0,0,0,102.24,91.29Zm12.84-1a2.4,2.4,0,0,1,1.85.75,2.93,2.93,0,0,1,.71,2.12V97h-1.09V93.27a2.1,2.1,0,0,0-.48-1.49,1.7,1.7,0,0,0-1.3-.52,1.8,1.8,0,0,0-1.39.58,2.37,2.37,0,0,0-.52,1.67V97h-1.09V93.27a2.1,2.1,0,0,0-.48-1.49,1.7,1.7,0,0,0-1.3-.52,1.82,1.82,0,0,0-1.4.58,2.42,2.42,0,0,0-.52,1.67V97H107V90.41h1.09v1.5a2.16,2.16,0,0,1,.86-1.19,2.63,2.63,0,0,1,2.88,0,2.25,2.25,0,0,1,.88,1.24,2.42,2.42,0,0,1,.93-1.23A2.5,2.5,0,0,1,115.08,90.3Zm7.91,0a2.93,2.93,0,0,1,1.56.41,2.83,2.83,0,0,1,1.07,1.17,4.35,4.35,0,0,1,0,3.6,2.89,2.89,0,0,1-1.07,1.17,3,3,0,0,1-1.56.4,2.71,2.71,0,0,1-1.63-.48,2.49,2.49,0,0,1-.92-1.28v4.8h-1.09V90.41h1.09v1.68a2.46,2.46,0,0,1,.92-1.27A2.65,2.65,0,0,1,123,90.33Zm-.31,1a2.28,2.28,0,0,0-1.16.3,2,2,0,0,0-.8.84,2.73,2.73,0,0,0-.29,1.27,2.7,2.7,0,0,0,.29,1.27,2.09,2.09,0,0,0,.8.84,2.28,2.28,0,0,0,1.16.3,2.13,2.13,0,0,0,1.62-.63,2.53,2.53,0,0,0,.61-1.78A2.46,2.46,0,0,0,124.3,92,2.11,2.11,0,0,0,122.68,91.3Zm5.87-3.18V97h-1.09V88.12Zm7.83,5.22a2.69,2.69,0,0,1,0,.6h-5.26a2.29,2.29,0,0,0,.63,1.69,2.1,2.1,0,0,0,1.49.57,2.16,2.16,0,0,0,1.32-.4,1.67,1.67,0,0,0,.66-1.08h1.16a2.7,2.7,0,0,1-.54,1.22,2.75,2.75,0,0,1-1.06.84,3.57,3.57,0,0,1-1.49.3,3.37,3.37,0,0,1-1.68-.4,3,3,0,0,1-1.16-1.17,4.25,4.25,0,0,1,0-3.6,2.9,2.9,0,0,1,1.16-1.17,3.27,3.27,0,0,1,1.68-.41,3.17,3.17,0,0,1,1.66.41,2.75,2.75,0,0,1,1.1,1.09A3.08,3.08,0,0,1,136.38,93.34Zm-1.1.07a2.3,2.3,0,0,0-.24-1.22,1.78,1.78,0,0,0-.76-.73,2.3,2.3,0,0,0-1-.24,2.11,2.11,0,0,0-1.51.56,2.21,2.21,0,0,0-.66,1.63ZM141,96v1h-.82a2.12,2.12,0,0,1-1.51-.48,2.23,2.23,0,0,1-.49-1.61V91.36h-1v-1h1V88.77h1.11v1.64H141v1h-1.7v3.58a1.28,1.28,0,0,0,.22.87,1.18,1.18,0,0,0,.82.23Zm7.41-2.7a2.69,2.69,0,0,1,0,.6h-5.26a2.29,2.29,0,0,0,.63,1.69,2.12,2.12,0,0,0,1.49.57,2.16,2.16,0,0,0,1.32-.4,1.67,1.67,0,0,0,.66-1.08h1.16a2.8,2.8,0,0,1-1.6,2.06,3.57,3.57,0,0,1-1.49.3,3.42,3.42,0,0,1-1.68-.4,2.94,2.94,0,0,1-1.15-1.17,4.16,4.16,0,0,1,0-3.6,2.88,2.88,0,0,1,1.15-1.17,3.32,3.32,0,0,1,1.68-.41,3.23,3.23,0,0,1,1.67.41A2.72,2.72,0,0,1,148,91.83,3.08,3.08,0,0,1,148.38,93.34Zm-1.1.07a2.3,2.3,0,0,0-.24-1.22,1.78,1.78,0,0,0-.76-.73,2.3,2.3,0,0,0-1-.24,2.11,2.11,0,0,0-1.51.56,2.21,2.21,0,0,0-.66,1.63ZM156,96v1h-.82a2.11,2.11,0,0,1-1.51-.48,2.18,2.18,0,0,1-.5-1.61V91.36h-1v-1h1V88.77h1.11v1.64h1.7v1h-1.7v3.58a1.28,1.28,0,0,0,.23.87,1.17,1.17,0,0,0,.81.23Zm4.81-5.74a2.43,2.43,0,0,1,1.86.75,2.89,2.89,0,0,1,.71,2.12V97h-1.09V93.27a2.12,2.12,0,0,0-.5-1.51,1.79,1.79,0,0,0-1.37-.53,1.84,1.84,0,0,0-1.44.59,2.37,2.37,0,0,0-.54,1.69V97h-1.09V88.12h1.09V92a2.22,2.22,0,0,1,.89-1.23A2.58,2.58,0,0,1,160.77,90.3Zm10.33,3a3.45,3.45,0,0,1,0,.6h-5.27a2.29,2.29,0,0,0,.63,1.69,2.12,2.12,0,0,0,1.49.57,2.16,2.16,0,0,0,1.32-.4,1.67,1.67,0,0,0,.66-1.08h1.17a2.79,2.79,0,0,1-1.61,2.06,3.57,3.57,0,0,1-1.49.3,3.42,3.42,0,0,1-1.68-.4,2.94,2.94,0,0,1-1.15-1.17,4.16,4.16,0,0,1,0-3.6,2.88,2.88,0,0,1,1.15-1.17,3.32,3.32,0,0,1,1.68-.41,3.21,3.21,0,0,1,1.67.41,2.72,2.72,0,0,1,1.09,1.09A3,3,0,0,1,171.1,93.34Zm-1.11.07a2.3,2.3,0,0,0-.24-1.22,1.68,1.68,0,0,0-.76-.73,2.24,2.24,0,0,0-1-.24,2.13,2.13,0,0,0-1.51.56,2.21,2.21,0,0,0-.66,1.63Zm8.45-3.08a3.2,3.2,0,0,1,2.09.67,2.87,2.87,0,0,1,1,1.8H180.4a1.64,1.64,0,0,0-.66-1.1,2.08,2.08,0,0,0-1.32-.41,2.22,2.22,0,0,0-1.06.26,2,2,0,0,0-.76.82,2.86,2.86,0,0,0-.28,1.34,2.94,2.94,0,0,0,.28,1.36,2,2,0,0,0,.76.8,2.12,2.12,0,0,0,1.06.27,2.14,2.14,0,0,0,1.32-.41,1.71,1.71,0,0,0,.66-1.12h1.15a2.85,2.85,0,0,1-1,1.81,3.25,3.25,0,0,1-2.09.66,3.42,3.42,0,0,1-1.68-.4,2.94,2.94,0,0,1-1.15-1.17,4.16,4.16,0,0,1,0-3.6,2.88,2.88,0,0,1,1.15-1.17A3.32,3.32,0,0,1,178.44,90.33Zm5.65,1.41a2.36,2.36,0,0,1,.95-1,2.72,2.72,0,0,1,1.48-.39v1.19h-.33a2.3,2.3,0,0,0-1.51.48,1.85,1.85,0,0,0-.59,1.56V97H183V90.41h1.1Zm6.52-1.41a3.38,3.38,0,0,1,1.69.41,2.87,2.87,0,0,1,1.17,1.17,3.9,3.9,0,0,1,0,3.6,2.93,2.93,0,0,1-1.17,1.17,3.49,3.49,0,0,1-1.69.4,3.57,3.57,0,0,1-1.71-.4,3,3,0,0,1-1.17-1.17,3.9,3.9,0,0,1,0-3.6,2.93,2.93,0,0,1,1.17-1.17A3.46,3.46,0,0,1,190.61,90.33Zm0,1a2.41,2.41,0,0,0-1.1.26,2.11,2.11,0,0,0-.8.82,2.74,2.74,0,0,0-.3,1.34,2.81,2.81,0,0,0,.3,1.35,2.12,2.12,0,0,0,.8.8,2.29,2.29,0,0,0,1.1.26,2.21,2.21,0,0,0,1.08-.26,2,2,0,0,0,.8-.8,2.7,2.7,0,0,0,.31-1.35,2.63,2.63,0,0,0-.31-1.34,2,2,0,0,0-.8-.82A2.33,2.33,0,0,0,190.61,91.29Zm6.8-1a2.6,2.6,0,0,1,1.79.59,2.44,2.44,0,0,1,.83,1.56H199a1.45,1.45,0,0,0-.49-1,1.52,1.52,0,0,0-1.1-.39,1.4,1.4,0,0,0-.93.29,1,1,0,0,0-.32.76.81.81,0,0,0,.21.58,1.59,1.59,0,0,0,.56.34c.22.07.52.15.91.24a7.34,7.34,0,0,1,1.17.35,1.69,1.69,0,0,1,.77.55,1.53,1.53,0,0,1,.33,1,1.64,1.64,0,0,1-.61,1.31,2.42,2.42,0,0,1-1.61.5,3,3,0,0,1-1.92-.56,2.25,2.25,0,0,1-.88-1.57h1.06a1.39,1.39,0,0,0,.51,1,1.92,1.92,0,0,0,1.23.37,1.19,1.19,0,0,0,.87-.29.94.94,0,0,0,.33-.75.82.82,0,0,0-.23-.61,1.37,1.37,0,0,0-.57-.35,6.69,6.69,0,0,0-.92-.25,10.56,10.56,0,0,1-1.17-.34,1.87,1.87,0,0,1-.75-.53,1.54,1.54,0,0,1-.3-1,1.67,1.67,0,0,1,.61-1.34A2.54,2.54,0,0,1,197.41,90.33Zm6.22,0a2.6,2.6,0,0,1,1.79.59,2.39,2.39,0,0,1,.82,1.56h-1a1.45,1.45,0,0,0-.49-1,1.53,1.53,0,0,0-1.11-.39,1.37,1.37,0,0,0-.92.29.93.93,0,0,0-.32.76.81.81,0,0,0,.21.58,1.55,1.55,0,0,0,.55.34c.23.07.53.15.92.24a7.68,7.68,0,0,1,1.17.35,1.69,1.69,0,0,1,.77.55,1.53,1.53,0,0,1,.32,1,1.61,1.61,0,0,1-.61,1.31,2.39,2.39,0,0,1-1.61.5,3.08,3.08,0,0,1-1.92-.56,2.28,2.28,0,0,1-.87-1.57h1.05a1.4,1.4,0,0,0,.52,1,1.89,1.89,0,0,0,1.22.37A1.22,1.22,0,0,0,205,96a.93.93,0,0,0,.32-.75.82.82,0,0,0-.22-.61,1.44,1.44,0,0,0-.57-.35,6.69,6.69,0,0,0-.92-.25,11.55,11.55,0,0,1-1.18-.34,1.84,1.84,0,0,1-.74-.53,1.54,1.54,0,0,1-.3-1,1.64,1.64,0,0,1,.61-1.34A2.52,2.52,0,0,1,203.63,90.33Zm13.2.08L214.93,97h-1.17L212,91.64,210.12,97h-1.19l-1.87-6.59h1.11l1.4,5.55,1.82-5.55h1.14l1.84,5.53,1.42-5.53Zm4-.08a3.4,3.4,0,0,1,1.7.41,2.87,2.87,0,0,1,1.17,1.17,4,4,0,0,1,0,3.6,2.93,2.93,0,0,1-1.17,1.17,3.81,3.81,0,0,1-3.4,0A3,3,0,0,1,218,95.51a4,4,0,0,1,0-3.6,3,3,0,0,1,1.18-1.17A3.42,3.42,0,0,1,220.85,90.33Zm0,1a2.4,2.4,0,0,0-1.09.26,2,2,0,0,0-.8.82,2.74,2.74,0,0,0-.3,1.34,2.81,2.81,0,0,0,.3,1.35,2,2,0,0,0,.8.8,2.28,2.28,0,0,0,1.09.26,2.16,2.16,0,0,0,1.08-.26,2,2,0,0,0,.81-.8,2.7,2.7,0,0,0,.31-1.35,2.63,2.63,0,0,0-.31-1.34,1.94,1.94,0,0,0-.81-.82A2.27,2.27,0,0,0,220.85,91.29Zm5.84.45a2.4,2.4,0,0,1,.94-1,2.78,2.78,0,0,1,1.49-.39v1.19h-.33a2.34,2.34,0,0,0-1.52.48,1.88,1.88,0,0,0-.58,1.56V97H225.6V90.41h1.09Zm6.23-1.41a2.68,2.68,0,0,1,1.62.48,2.45,2.45,0,0,1,.93,1.28v-4h1.1V97h-1.1V95.32a2.41,2.41,0,0,1-.93,1.28,2.68,2.68,0,0,1-1.62.48,3,3,0,0,1-1.56-.4,2.85,2.85,0,0,1-1.08-1.17,4.35,4.35,0,0,1,0-3.6,2.79,2.79,0,0,1,1.08-1.17A2.89,2.89,0,0,1,232.92,90.33Zm.31,1a2.14,2.14,0,0,0-1.62.65,2.45,2.45,0,0,0-.6,1.76,2.52,2.52,0,0,0,.6,1.78,2.16,2.16,0,0,0,1.62.63,2.19,2.19,0,0,0,1.15-.3,2.11,2.11,0,0,0,.81-.84,2.7,2.7,0,0,0,.28-1.27,2.73,2.73,0,0,0-.28-1.27,2,2,0,0,0-.81-.84A2.19,2.19,0,0,0,233.23,91.3Zm11.71-1a2.91,2.91,0,0,1,1.56.41,2.76,2.76,0,0,1,1.07,1.17,4.35,4.35,0,0,1,0,3.6,2.82,2.82,0,0,1-1.07,1.17,3,3,0,0,1-1.56.4,2.73,2.73,0,0,1-1.63-.48,2.47,2.47,0,0,1-.91-1.28v4.8h-1.1V90.41h1.1v1.68a2.44,2.44,0,0,1,.91-1.27A2.67,2.67,0,0,1,244.94,90.33Zm-.31,1a2.22,2.22,0,0,0-1.15.3,1.94,1.94,0,0,0-.81.84,2.73,2.73,0,0,0-.28,1.27,2.7,2.7,0,0,0,.28,1.27,2,2,0,0,0,.81.84,2.22,2.22,0,0,0,1.15.3,2.13,2.13,0,0,0,1.62-.63,2.48,2.48,0,0,0,.61-1.78,2.42,2.42,0,0,0-.61-1.76A2.11,2.11,0,0,0,244.63,91.3Zm10.64-.89V97h-1.1V95.45a2.21,2.21,0,0,1-.9,1.24,2.62,2.62,0,0,1-1.48.42,2.47,2.47,0,0,1-1.85-.73,3,3,0,0,1-.71-2.13V90.41h1.09v3.73a2.14,2.14,0,0,0,.51,1.53,1.79,1.79,0,0,0,1.36.53,1.9,1.9,0,0,0,1.44-.58,2.43,2.43,0,0,0,.54-1.7V90.41Zm2.4,5.67h3.53V97h-4.73v-.88l3.36-4.78h-3.26v-.93h4.51v.89Zm5.37,0h3.53V97h-4.73v-.88l3.36-4.78h-3.26v-.93h4.51v.89Zm5.83-8V97h-1.09V88.12Zm7.83,5.22a3.54,3.54,0,0,1,0,.6h-5.27a2.29,2.29,0,0,0,.63,1.69,2.12,2.12,0,0,0,1.49.57,2.16,2.16,0,0,0,1.32-.4,1.67,1.67,0,0,0,.66-1.08h1.17a2.79,2.79,0,0,1-1.61,2.06,3.57,3.57,0,0,1-1.49.3,3.42,3.42,0,0,1-1.68-.4,2.94,2.94,0,0,1-1.15-1.17,4.16,4.16,0,0,1,0-3.6,2.88,2.88,0,0,1,1.15-1.17,3.32,3.32,0,0,1,1.68-.41,3.21,3.21,0,0,1,1.67.41,2.72,2.72,0,0,1,1.09,1.09A3,3,0,0,1,276.7,93.34Zm-1.1.07a2.21,2.21,0,0,0-.24-1.22,1.76,1.76,0,0,0-.75-.73,2.31,2.31,0,0,0-1.05-.24,2.13,2.13,0,0,0-1.51.56,2.21,2.21,0,0,0-.66,1.63Zm8.45-4.56a1.78,1.78,0,0,0-1.22.3,1.41,1.41,0,0,0-.34,1.08v.18h1.56v1h-1.56V97H281.4V91.37h-.95v-1h.95v-.26c0-1.58.88-2.33,2.65-2.26Zm2.3,2.89a2.4,2.4,0,0,1,.94-1,2.78,2.78,0,0,1,1.49-.39v1.19h-.33a2.34,2.34,0,0,0-1.52.48,1.88,1.88,0,0,0-.58,1.56V97h-1.1V90.41h1.1Zm6.51-1.41a3.4,3.4,0,0,1,1.7.41,2.87,2.87,0,0,1,1.17,1.17,3.9,3.9,0,0,1,0,3.6,2.93,2.93,0,0,1-1.17,1.17,3.5,3.5,0,0,1-1.7.4,3.55,3.55,0,0,1-1.7-.4A3.08,3.08,0,0,1,290,95.51a4,4,0,0,1,0-3.6,3,3,0,0,1,1.18-1.17A3.45,3.45,0,0,1,292.86,90.33Zm0,1a2.4,2.4,0,0,0-1.09.26,2.11,2.11,0,0,0-.8.82,2.74,2.74,0,0,0-.3,1.34,2.81,2.81,0,0,0,.3,1.35,2.12,2.12,0,0,0,.8.8,2.28,2.28,0,0,0,1.09.26,2.22,2.22,0,0,0,1.09-.26,2,2,0,0,0,.8-.8,2.7,2.7,0,0,0,.31-1.35,2.63,2.63,0,0,0-.31-1.34,2,2,0,0,0-.8-.82A2.34,2.34,0,0,0,292.86,91.29Zm12.85-1a2.39,2.39,0,0,1,1.84.75,2.89,2.89,0,0,1,.71,2.12V97h-1.09V93.27a2.1,2.1,0,0,0-.48-1.49,1.67,1.67,0,0,0-1.3-.52,1.82,1.82,0,0,0-1.39.58,2.42,2.42,0,0,0-.51,1.67V97h-1.1V93.27a2.1,2.1,0,0,0-.48-1.49,1.69,1.69,0,0,0-1.29-.52,1.85,1.85,0,0,0-1.41.58,2.42,2.42,0,0,0-.51,1.67V97h-1.09V90.41h1.09v1.5a2.14,2.14,0,0,1,.85-1.19A2.5,2.5,0,0,1,301,90.3a2.44,2.44,0,0,1,1.45.44,2.27,2.27,0,0,1,.89,1.24,2.35,2.35,0,0,1,.92-1.23A2.51,2.51,0,0,1,305.71,90.3ZM27.28,106.54,25.13,115H23.8l-2-6.91L19.89,115H18.56l-2.16-8.46h1.21l1.62,7.19,2-7.19h1.21l2,7.16,1.63-7.16Zm6.65,6.26a2.28,2.28,0,0,1-.29,1.12,2.2,2.2,0,0,1-.87.84,3,3,0,0,1-1.46.32,3.59,3.59,0,0,1-1.5-.3,2.62,2.62,0,0,1-1-.84,2.37,2.37,0,0,1-.44-1.22h1.16a1.62,1.62,0,0,0,.24.71,1.71,1.71,0,0,0,.6.56,1.88,1.88,0,0,0,1,.22,1.46,1.46,0,0,0,1.1-.39,1.3,1.3,0,0,0,.39-1,1.29,1.29,0,0,0-.28-.84,1.81,1.81,0,0,0-.66-.5,7.12,7.12,0,0,0-1.08-.41,13.82,13.82,0,0,1-1.3-.49,2.31,2.31,0,0,1-.82-.71,2,2,0,0,1-.34-1.24,2,2,0,0,1,1.22-1.94,3.26,3.26,0,0,1,1.41-.28,3,3,0,0,1,2,.61,2.3,2.3,0,0,1,.85,1.54H32.57a1.56,1.56,0,0,0-.51-.89,1.65,1.65,0,0,0-1.14-.38,1.53,1.53,0,0,0-1.06.35,1.19,1.19,0,0,0-.39,1,1.23,1.23,0,0,0,.25.8,1.87,1.87,0,0,0,.65.48,10.25,10.25,0,0,0,1.05.38,10.64,10.64,0,0,1,1.31.51,2.12,2.12,0,0,1,.85.73A2.16,2.16,0,0,1,33.93,112.8Zm4.1,1.36a18.12,18.12,0,0,0,3.26-2.71,3.93,3.93,0,0,0,1.22-2.52,1.67,1.67,0,0,0-.37-1.15,1.41,1.41,0,0,0-1.17-.45,1.55,1.55,0,0,0-1.28.54,2.57,2.57,0,0,0-.48,1.47H38.13a3.16,3.16,0,0,1,.88-2.18,2.82,2.82,0,0,1,2-.76,2.69,2.69,0,0,1,1.88.63,2.31,2.31,0,0,1,.7,1.8,3.75,3.75,0,0,1-.62,2,8.81,8.81,0,0,1-1.55,1.83,11.88,11.88,0,0,1-1.91,1.43h4.3v.9H38Zm9.91-7.85a3.18,3.18,0,0,1,1.4.29,2.09,2.09,0,0,1,.89.79,2.21,2.21,0,0,1,.3,1.14,1.91,1.91,0,0,1-1.81,2v.07a3.18,3.18,0,0,1,1.44.75,1.83,1.83,0,0,1,.53,1.39,2.25,2.25,0,0,1-.7,1.7,2.79,2.79,0,0,1-2,.66,3.23,3.23,0,0,1-2.13-.67,2.94,2.94,0,0,1-1-2H46a2.14,2.14,0,0,0,.6,1.26,1.94,1.94,0,0,0,1.36.47,1.75,1.75,0,0,0,1.24-.41,1.47,1.47,0,0,0,.43-1.08,1.33,1.33,0,0,0-.63-1.2,3.06,3.06,0,0,0-1.75-.42H47v-.91h.29c1.47,0,2.21-.49,2.21-1.48a1.36,1.36,0,0,0-.41-1,1.56,1.56,0,0,0-1.13-.38,1.8,1.8,0,0,0-1.21.42,1.68,1.68,0,0,0-.57,1.21H45.06a2.6,2.6,0,0,1,.83-1.87A2.91,2.91,0,0,1,47.94,106.31Zm7.16.17a.63.63,0,0,1,.2-.48.76.76,0,0,1,.54-.19.73.73,0,0,1,.54.19.6.6,0,0,1,.21.48.64.64,0,0,1-.21.49.77.77,0,0,1-.54.18.8.8,0,0,1-.54-.18A.66.66,0,0,1,55.1,106.48Zm1.28,1.93V115H55.29v-6.59Zm5.25-.11a2.46,2.46,0,0,1,1.86.75,2.93,2.93,0,0,1,.7,2.12V115H63.1v-3.73a2.12,2.12,0,0,0-.5-1.51,1.78,1.78,0,0,0-1.37-.53,1.84,1.84,0,0,0-1.44.59,2.37,2.37,0,0,0-.54,1.69V115H58.16v-6.59h1.09V110a2.22,2.22,0,0,1,.89-1.23A2.61,2.61,0,0,1,61.63,108.3Zm13.25-1.76-2.77,5.26V115H71v-3.2l-2.79-5.26h1.27l2.08,4.09,2.06-4.09ZM79,108.33a3.36,3.36,0,0,1,1.69.41,2.83,2.83,0,0,1,1.18,1.17,4,4,0,0,1,0,3.6,2.89,2.89,0,0,1-1.18,1.17,3.46,3.46,0,0,1-1.69.4,3.53,3.53,0,0,1-1.7-.4,3,3,0,0,1-1.18-1.17,4,4,0,0,1,0-3.6,3,3,0,0,1,1.18-1.17A3.42,3.42,0,0,1,79,108.33Zm0,1a2.37,2.37,0,0,0-1.09.26,2.06,2.06,0,0,0-.81.82,2.74,2.74,0,0,0-.3,1.34,2.81,2.81,0,0,0,.3,1.35,2.07,2.07,0,0,0,.81.8,2.25,2.25,0,0,0,1.09.26,2.21,2.21,0,0,0,1.08-.26,1.93,1.93,0,0,0,.8-.8,2.7,2.7,0,0,0,.32-1.35,2.63,2.63,0,0,0-.32-1.34,1.92,1.92,0,0,0-.8-.82A2.33,2.33,0,0,0,79,109.29Zm10.6-.88V115h-1.1v-1.55a2.16,2.16,0,0,1-.9,1.24,2.62,2.62,0,0,1-1.48.42,2.49,2.49,0,0,1-1.85-.73,3,3,0,0,1-.71-2.13v-3.84h1.09v3.73a2.14,2.14,0,0,0,.51,1.53,1.79,1.79,0,0,0,1.36.53,1.9,1.9,0,0,0,1.44-.58,2.43,2.43,0,0,0,.54-1.7v-3.51Zm2.86,1.33a2.4,2.4,0,0,1,.94-1,2.78,2.78,0,0,1,1.49-.39v1.19h-.33A2.34,2.34,0,0,0,93,110a1.88,1.88,0,0,0-.58,1.56V115h-1.1v-6.59h1.1Zm10-1.44a2.43,2.43,0,0,1,1.86.75,2.93,2.93,0,0,1,.71,2.12V115h-1.1v-3.73a2.07,2.07,0,0,0-.5-1.51,1.78,1.78,0,0,0-1.37-.53,1.84,1.84,0,0,0-1.44.59,2.37,2.37,0,0,0-.54,1.69V115H99v-6.59h1.09V110a2.26,2.26,0,0,1,.89-1.23A2.61,2.61,0,0,1,102.43,108.3Zm7.25,0a3.38,3.38,0,0,1,1.69.41,2.87,2.87,0,0,1,1.17,1.17,3.9,3.9,0,0,1,0,3.6,2.93,2.93,0,0,1-1.17,1.17,3.49,3.49,0,0,1-1.69.4,3.57,3.57,0,0,1-1.71-.4,3,3,0,0,1-1.17-1.17,3.9,3.9,0,0,1,0-3.6,2.93,2.93,0,0,1,1.17-1.17A3.46,3.46,0,0,1,109.68,108.33Zm0,1a2.44,2.44,0,0,0-1.1.26,2.11,2.11,0,0,0-.8.82,2.74,2.74,0,0,0-.3,1.34,2.81,2.81,0,0,0,.3,1.35,2.12,2.12,0,0,0,.8.8,2.32,2.32,0,0,0,1.1.26,2.21,2.21,0,0,0,1.08-.26,2,2,0,0,0,.8-.8,2.7,2.7,0,0,0,.31-1.35,2.63,2.63,0,0,0-.31-1.34,2,2,0,0,0-.8-.82A2.33,2.33,0,0,0,109.68,109.29Zm7.88,4.75v1h-.81a2.13,2.13,0,0,1-1.52-.48,2.23,2.23,0,0,1-.49-1.61v-3.55h-1v-1h1v-1.64h1.11v1.64h1.7v1h-1.7v3.58a1.28,1.28,0,0,0,.22.87,1.2,1.2,0,0,0,.82.23Zm7.41-2.7a2.69,2.69,0,0,1,0,.6h-5.26a2.29,2.29,0,0,0,.63,1.69,2.12,2.12,0,0,0,1.49.57,2.16,2.16,0,0,0,1.32-.4,1.67,1.67,0,0,0,.66-1.08h1.16a2.8,2.8,0,0,1-1.6,2.06,3.57,3.57,0,0,1-1.49.3,3.42,3.42,0,0,1-1.68-.4,2.94,2.94,0,0,1-1.15-1.17,4.16,4.16,0,0,1,0-3.6,2.88,2.88,0,0,1,1.15-1.17,3.32,3.32,0,0,1,1.68-.41,3.23,3.23,0,0,1,1.67.41,2.72,2.72,0,0,1,1.09,1.09A3.08,3.08,0,0,1,125,111.34Zm-1.1.07a2.3,2.3,0,0,0-.24-1.22,1.78,1.78,0,0,0-.76-.73,2.3,2.3,0,0,0-1-.24,2.11,2.11,0,0,0-1.51.56,2.21,2.21,0,0,0-.66,1.63Zm6.18-3.08a2.94,2.94,0,0,1,1.57.41,2.74,2.74,0,0,1,1.06,1.17,4.25,4.25,0,0,1,0,3.6,2.8,2.8,0,0,1-1.06,1.17,3,3,0,0,1-1.57.4,2.73,2.73,0,0,1-1.63-.48,2.47,2.47,0,0,1-.91-1.28V115h-1.09v-8.88h1.09v4a2.44,2.44,0,0,1,.91-1.27A2.67,2.67,0,0,1,130.05,108.33Zm-.31,1a2.24,2.24,0,0,0-1.15.3,2,2,0,0,0-.8.84,2.73,2.73,0,0,0-.29,1.27,2.7,2.7,0,0,0,.29,1.27,2.09,2.09,0,0,0,.8.84,2.24,2.24,0,0,0,1.15.3,2.13,2.13,0,0,0,1.62-.63,2.49,2.49,0,0,0,.62-1.78,2.42,2.42,0,0,0-.62-1.76A2.11,2.11,0,0,0,129.74,109.3Zm7.77-1a3.36,3.36,0,0,1,1.69.41,2.83,2.83,0,0,1,1.18,1.17,4,4,0,0,1,0,3.6,2.89,2.89,0,0,1-1.18,1.17,3.46,3.46,0,0,1-1.69.4,3.53,3.53,0,0,1-1.7-.4,3,3,0,0,1-1.18-1.17,4,4,0,0,1,0-3.6,3,3,0,0,1,1.18-1.17A3.42,3.42,0,0,1,137.51,108.33Zm0,1a2.4,2.4,0,0,0-1.09.26,2,2,0,0,0-.8.82,2.63,2.63,0,0,0-.3,1.34,2.7,2.7,0,0,0,.3,1.35,2,2,0,0,0,.8.8,2.28,2.28,0,0,0,1.09.26,2.21,2.21,0,0,0,1.08-.26,2,2,0,0,0,.81-.8,2.81,2.81,0,0,0,.31-1.35,2.74,2.74,0,0,0-.31-1.34,1.94,1.94,0,0,0-.81-.82A2.33,2.33,0,0,0,137.51,109.29Zm7.73-1a3.36,3.36,0,0,1,1.69.41,2.83,2.83,0,0,1,1.18,1.17,4,4,0,0,1,0,3.6,2.89,2.89,0,0,1-1.18,1.17,3.46,3.46,0,0,1-1.69.4,3.53,3.53,0,0,1-1.7-.4,3,3,0,0,1-1.18-1.17,4,4,0,0,1,0-3.6,3,3,0,0,1,1.18-1.17A3.42,3.42,0,0,1,145.24,108.33Zm0,1a2.37,2.37,0,0,0-1.09.26,2.06,2.06,0,0,0-.81.82,2.74,2.74,0,0,0-.3,1.34,2.81,2.81,0,0,0,.3,1.35,2.07,2.07,0,0,0,.81.8,2.25,2.25,0,0,0,1.09.26,2.21,2.21,0,0,0,1.08-.26,1.93,1.93,0,0,0,.8-.8,2.7,2.7,0,0,0,.32-1.35,2.63,2.63,0,0,0-.32-1.34,1.92,1.92,0,0,0-.8-.82A2.33,2.33,0,0,0,145.24,109.29Zm8.35,5.71-2.52-3v3H150v-8.88h1.09v5.16l2.49-2.87h1.33l-2.95,3.28,3,3.31ZM16.16,125.56v-1h2.42V133H17.43v-7.44Zm5,6.16V133H19.82v-1.28Zm8-7.26a4.1,4.1,0,0,1,2.56.76,3.86,3.86,0,0,1,1.39,2.08H31.93a2.81,2.81,0,0,0-1-1.33,3,3,0,0,0-1.77-.51,2.8,2.8,0,0,0-1.49.41,2.89,2.89,0,0,0-1,1.15,4.32,4.32,0,0,0,0,3.5,3,3,0,0,0,1,1.15,2.88,2.88,0,0,0,1.49.39,3,3,0,0,0,1.77-.49,2.83,2.83,0,0,0,1-1.34h1.15a3.93,3.93,0,0,1-1.39,2.09,4.16,4.16,0,0,1-2.56.75,4.05,4.05,0,0,1-2.1-.54A3.86,3.86,0,0,1,25.61,131a4.79,4.79,0,0,1-.51-2.23,4.84,4.84,0,0,1,.51-2.25A3.79,3.79,0,0,1,27,125,4,4,0,0,1,29.13,124.46Zm8.42,1.87a3.36,3.36,0,0,1,1.69.41,2.83,2.83,0,0,1,1.18,1.17,4,4,0,0,1,0,3.6,2.89,2.89,0,0,1-1.18,1.17,3.46,3.46,0,0,1-1.69.4,3.53,3.53,0,0,1-1.7-.4,3,3,0,0,1-1.18-1.17,4,4,0,0,1,0-3.6,3,3,0,0,1,1.18-1.17A3.42,3.42,0,0,1,37.55,126.33Zm0,1a2.37,2.37,0,0,0-1.09.26,2.06,2.06,0,0,0-.81.82,2.74,2.74,0,0,0-.3,1.34,2.81,2.81,0,0,0,.3,1.35,2.07,2.07,0,0,0,.81.8,2.25,2.25,0,0,0,1.09.26,2.21,2.21,0,0,0,1.08-.26,1.93,1.93,0,0,0,.8-.8,2.7,2.7,0,0,0,.32-1.35,2.63,2.63,0,0,0-.32-1.34,1.92,1.92,0,0,0-.8-.82A2.33,2.33,0,0,0,37.55,127.29Zm8.38-1a2.93,2.93,0,0,1,1.56.41,2.74,2.74,0,0,1,1.06,1.17,4.25,4.25,0,0,1,0,3.6,2.8,2.8,0,0,1-1.06,1.17,3,3,0,0,1-1.56.4,2.76,2.76,0,0,1-1.64-.48,2.47,2.47,0,0,1-.91-1.28v4.8H42.29v-9.71h1.09v1.68a2.44,2.44,0,0,1,.91-1.27A2.7,2.7,0,0,1,45.93,126.33Zm-.32,1a2.27,2.27,0,0,0-1.15.3,2,2,0,0,0-.8.84,2.73,2.73,0,0,0-.29,1.27,2.7,2.7,0,0,0,.29,1.27,2.09,2.09,0,0,0,.8.84,2.27,2.27,0,0,0,1.15.3,2.13,2.13,0,0,0,1.62-.63,2.49,2.49,0,0,0,.62-1.78,2.42,2.42,0,0,0-.62-1.76A2.11,2.11,0,0,0,45.61,127.3Zm5.24-.89L53,131.6l2-5.19h1.21l-3.91,9.71H51l1.37-3.23-2.77-6.48Zm12-.08a2.68,2.68,0,0,1,1.62.48,2.52,2.52,0,0,1,.94,1.28v-1.68h1.09V133H65.44v-1.68a2.48,2.48,0,0,1-.94,1.28,2.68,2.68,0,0,1-1.62.48,3,3,0,0,1-1.56-.4,2.85,2.85,0,0,1-1.08-1.17,4.45,4.45,0,0,1,0-3.6,2.79,2.79,0,0,1,1.08-1.17A2.93,2.93,0,0,1,62.88,126.33Zm.31,1a2.14,2.14,0,0,0-1.62.65,2.45,2.45,0,0,0-.6,1.76,2.52,2.52,0,0,0,.6,1.78,2.16,2.16,0,0,0,1.62.63,2.19,2.19,0,0,0,1.15-.3,2,2,0,0,0,.81-.84,2.7,2.7,0,0,0,.29-1.27,2.73,2.73,0,0,0-.29-1.27,1.94,1.94,0,0,0-.81-.84A2.19,2.19,0,0,0,63.19,127.3Zm8.56-1a2.43,2.43,0,0,1,1.86.75,2.93,2.93,0,0,1,.71,2.12V133H73.23v-3.73a2.07,2.07,0,0,0-.51-1.51,1.76,1.76,0,0,0-1.36-.53,1.84,1.84,0,0,0-1.44.59,2.37,2.37,0,0,0-.54,1.69V133h-1.1v-6.59h1.1V128a2.2,2.2,0,0,1,.88-1.23A2.64,2.64,0,0,1,71.75,126.3Zm7,0a2.68,2.68,0,0,1,1.62.48,2.52,2.52,0,0,1,.94,1.28v-4h1.09V133H81.27v-1.68a2.48,2.48,0,0,1-.94,1.28,2.68,2.68,0,0,1-1.62.48,3,3,0,0,1-1.56-.4,3,3,0,0,1-1.08-1.17,4.45,4.45,0,0,1,0-3.6,2.86,2.86,0,0,1,2.64-1.58Zm.32,1a2.15,2.15,0,0,0-1.63.65,2.45,2.45,0,0,0-.59,1.76,2.52,2.52,0,0,0,.59,1.78,2.17,2.17,0,0,0,1.63.63,2.22,2.22,0,0,0,1.15-.3A2.09,2.09,0,0,0,81,131a2.7,2.7,0,0,0,.29-1.27,2.73,2.73,0,0,0-.29-1.27,2,2,0,0,0-.8-.84A2.22,2.22,0,0,0,79,127.3Zm11.81-2.84a4.1,4.1,0,0,1,2.56.76,3.86,3.86,0,0,1,1.39,2.08H93.64a2.81,2.81,0,0,0-1-1.33,3,3,0,0,0-1.77-.51,2.8,2.8,0,0,0-1.49.41,2.89,2.89,0,0,0-1,1.15,4.32,4.32,0,0,0,0,3.5,3,3,0,0,0,1,1.15,2.88,2.88,0,0,0,1.49.39,3,3,0,0,0,1.77-.49,2.83,2.83,0,0,0,1-1.34h1.15a3.93,3.93,0,0,1-1.39,2.09,4.16,4.16,0,0,1-2.56.75,4.05,4.05,0,0,1-2.1-.54A3.86,3.86,0,0,1,87.32,131a4.79,4.79,0,0,1-.51-2.23,4.84,4.84,0,0,1,.51-2.25A3.79,3.79,0,0,1,88.74,125,4,4,0,0,1,90.84,124.46Zm8.42,1.87a3.38,3.38,0,0,1,1.69.41,2.89,2.89,0,0,1,1.18,1.17,4,4,0,0,1,0,3.6,3,3,0,0,1-1.18,1.17,3.49,3.49,0,0,1-1.69.4,3.59,3.59,0,0,1-1.71-.4,3.06,3.06,0,0,1-1.17-1.17,4,4,0,0,1,0-3.6,3,3,0,0,1,1.17-1.17A3.49,3.49,0,0,1,99.26,126.33Zm0,1a2.37,2.37,0,0,0-1.09.26,2.06,2.06,0,0,0-.81.82,2.74,2.74,0,0,0-.3,1.34,2.81,2.81,0,0,0,.3,1.35,2.07,2.07,0,0,0,.81.8,2.25,2.25,0,0,0,1.09.26,2.21,2.21,0,0,0,1.08-.26,2,2,0,0,0,.8-.8,2.7,2.7,0,0,0,.31-1.35,2.63,2.63,0,0,0-.31-1.34,2,2,0,0,0-.8-.82A2.33,2.33,0,0,0,99.26,127.29Zm12.84-1a2.41,2.41,0,0,1,1.85.75,2.93,2.93,0,0,1,.7,2.12V133h-1.09v-3.73a2.1,2.1,0,0,0-.48-1.49,1.66,1.66,0,0,0-1.29-.52,1.84,1.84,0,0,0-1.4.58,2.42,2.42,0,0,0-.51,1.67V133h-1.09v-3.73a2.1,2.1,0,0,0-.48-1.49,1.7,1.7,0,0,0-1.3-.52,1.82,1.82,0,0,0-1.4.58,2.37,2.37,0,0,0-.52,1.67V133H104v-6.59h1.09v1.5a2.19,2.19,0,0,1,.85-1.19,2.5,2.5,0,0,1,1.43-.42,2.42,2.42,0,0,1,1.45.44,2.22,2.22,0,0,1,.89,1.24,2.32,2.32,0,0,1,.93-1.23A2.5,2.5,0,0,1,112.1,126.3Zm7.91,0a2.93,2.93,0,0,1,1.56.41,2.74,2.74,0,0,1,1.06,1.17,4.25,4.25,0,0,1,0,3.6,2.8,2.8,0,0,1-1.06,1.17,3,3,0,0,1-1.56.4,2.76,2.76,0,0,1-1.64-.48,2.47,2.47,0,0,1-.91-1.28v4.8h-1.09v-9.71h1.09v1.68a2.44,2.44,0,0,1,.91-1.27A2.7,2.7,0,0,1,120,126.33Zm-.32,1a2.24,2.24,0,0,0-1.15.3,2,2,0,0,0-.8.84,2.62,2.62,0,0,0-.29,1.27,2.59,2.59,0,0,0,.29,1.27,2.09,2.09,0,0,0,.8.84,2.24,2.24,0,0,0,1.15.3,2.13,2.13,0,0,0,1.62-.63,2.49,2.49,0,0,0,.62-1.78,2.42,2.42,0,0,0-.62-1.76A2.11,2.11,0,0,0,119.69,127.3Zm5.88-3.18V133h-1.1v-8.88Zm7.83,5.22a3.45,3.45,0,0,1-.05.6h-5.27a2.34,2.34,0,0,0,.64,1.69,2.1,2.1,0,0,0,1.49.57,2.2,2.2,0,0,0,1.32-.4,1.67,1.67,0,0,0,.66-1.08h1.16a2.79,2.79,0,0,1-1.61,2.06,3.54,3.54,0,0,1-1.49.3,3.42,3.42,0,0,1-1.68-.4,3,3,0,0,1-1.15-1.17,4.16,4.16,0,0,1,0-3.6,2.94,2.94,0,0,1,1.15-1.17,3.32,3.32,0,0,1,1.68-.41,3.21,3.21,0,0,1,1.67.41,2.66,2.66,0,0,1,1.09,1.09A3,3,0,0,1,133.4,129.34Zm-1.11.07a2.13,2.13,0,0,0-.24-1.22,1.7,1.7,0,0,0-.75-.73,2.31,2.31,0,0,0-1.05-.24,2.13,2.13,0,0,0-1.51.56,2.21,2.21,0,0,0-.66,1.63ZM138,132v1h-.82a2.12,2.12,0,0,1-1.51-.48,2.18,2.18,0,0,1-.49-1.61v-3.55h-1v-1h1v-1.64h1.1v1.64H138v1h-1.71v3.58a1.28,1.28,0,0,0,.23.87,1.18,1.18,0,0,0,.82.23Zm7.41-2.7a3.45,3.45,0,0,1-.05.6h-5.27a2.34,2.34,0,0,0,.64,1.69,2.1,2.1,0,0,0,1.49.57,2.16,2.16,0,0,0,1.32-.4,1.67,1.67,0,0,0,.66-1.08h1.16a2.79,2.79,0,0,1-1.61,2.06,3.53,3.53,0,0,1-1.48.3,3.43,3.43,0,0,1-1.69-.4,3,3,0,0,1-1.15-1.17,4.16,4.16,0,0,1,0-3.6,2.94,2.94,0,0,1,1.15-1.17,3.33,3.33,0,0,1,1.69-.41,3.17,3.17,0,0,1,1.66.41,2.66,2.66,0,0,1,1.09,1.09A3,3,0,0,1,145.4,129.34Zm-1.11.07a2.13,2.13,0,0,0-.24-1.22,1.7,1.7,0,0,0-.75-.73,2.3,2.3,0,0,0-1-.24,2.13,2.13,0,0,0-1.52.56,2.29,2.29,0,0,0-.66,1.63ZM153,132v1h-.81a2.13,2.13,0,0,1-1.52-.48,2.23,2.23,0,0,1-.49-1.61v-3.55h-1v-1h1v-1.64h1.11v1.64H153v1h-1.7v3.58a1.28,1.28,0,0,0,.22.87,1.2,1.2,0,0,0,.82.23Zm4.82-5.74a2.43,2.43,0,0,1,1.86.75,2.93,2.93,0,0,1,.71,2.12V133h-1.09v-3.73a2.07,2.07,0,0,0-.51-1.51,1.76,1.76,0,0,0-1.36-.53,1.82,1.82,0,0,0-1.44.59,2.37,2.37,0,0,0-.55,1.69V133h-1.09v-8.88h1.09V128a2.26,2.26,0,0,1,.89-1.23A2.64,2.64,0,0,1,157.79,126.3Zm10.32,3a2.69,2.69,0,0,1-.05.6H162.8a2.29,2.29,0,0,0,.63,1.69,2.12,2.12,0,0,0,1.49.57,2.16,2.16,0,0,0,1.32-.4,1.67,1.67,0,0,0,.66-1.08h1.16a2.8,2.8,0,0,1-1.6,2.06,3.57,3.57,0,0,1-1.49.3,3.42,3.42,0,0,1-1.68-.4,2.94,2.94,0,0,1-1.15-1.17,4.16,4.16,0,0,1,0-3.6,2.88,2.88,0,0,1,1.15-1.17,3.32,3.32,0,0,1,1.68-.41,3.23,3.23,0,0,1,1.67.41,2.72,2.72,0,0,1,1.09,1.09A3.08,3.08,0,0,1,168.11,129.34Zm-1.1.07a2.3,2.3,0,0,0-.24-1.22,1.78,1.78,0,0,0-.76-.73,2.3,2.3,0,0,0-1-.24,2.11,2.11,0,0,0-1.51.56,2.21,2.21,0,0,0-.66,1.63Zm8.45-3.08a3.17,3.17,0,0,1,2.08.67,2.84,2.84,0,0,1,1,1.8h-1.16a1.64,1.64,0,0,0-.66-1.1,2,2,0,0,0-1.32-.41,2.21,2.21,0,0,0-1.05.26,2,2,0,0,0-.76.82,2.86,2.86,0,0,0-.29,1.34,2.94,2.94,0,0,0,.29,1.36,1.9,1.9,0,0,0,.76.8,2.26,2.26,0,0,0,2.37-.14,1.71,1.71,0,0,0,.66-1.12h1.16a2.82,2.82,0,0,1-1,1.81,3.22,3.22,0,0,1-2.08.66,3.37,3.37,0,0,1-1.68-.4,3,3,0,0,1-1.16-1.17,4.25,4.25,0,0,1,0-3.6,2.9,2.9,0,0,1,1.16-1.17A3.27,3.27,0,0,1,175.46,126.33Zm5.64,1.41a2.48,2.48,0,0,1,1-1,2.76,2.76,0,0,1,1.49-.39v1.19h-.34a2.32,2.32,0,0,0-1.51.48,1.88,1.88,0,0,0-.59,1.56V133H180v-6.59h1.09Zm6.52-1.41a3.4,3.4,0,0,1,1.7.41,2.87,2.87,0,0,1,1.17,1.17,4,4,0,0,1,0,3.6,2.93,2.93,0,0,1-1.17,1.17,3.81,3.81,0,0,1-3.4,0,3,3,0,0,1-1.18-1.17,4,4,0,0,1,0-3.6,3,3,0,0,1,1.18-1.17A3.42,3.42,0,0,1,187.62,126.33Zm0,1a2.4,2.4,0,0,0-1.09.26,2,2,0,0,0-.8.82,2.74,2.74,0,0,0-.3,1.34,2.81,2.81,0,0,0,.3,1.35,2,2,0,0,0,.8.8,2.28,2.28,0,0,0,1.09.26,2.18,2.18,0,0,0,1.08-.26,2,2,0,0,0,.81-.8,2.81,2.81,0,0,0,.31-1.35,2.74,2.74,0,0,0-.31-1.34,1.94,1.94,0,0,0-.81-.82A2.3,2.3,0,0,0,187.62,127.29Zm6.81-1a2.6,2.6,0,0,1,1.79.59,2.39,2.39,0,0,1,.82,1.56h-1a1.45,1.45,0,0,0-.49-1,1.53,1.53,0,0,0-1.11-.39,1.37,1.37,0,0,0-.92.29.93.93,0,0,0-.32.76.81.81,0,0,0,.21.58,1.55,1.55,0,0,0,.55.34c.23.07.53.15.92.24a7.68,7.68,0,0,1,1.17.35,1.69,1.69,0,0,1,.77.55,1.53,1.53,0,0,1,.32,1,1.61,1.61,0,0,1-.61,1.31,2.39,2.39,0,0,1-1.61.5,3.08,3.08,0,0,1-1.92-.56,2.28,2.28,0,0,1-.87-1.57h1a1.4,1.4,0,0,0,.52,1,1.89,1.89,0,0,0,1.22.37,1.22,1.22,0,0,0,.88-.29.93.93,0,0,0,.32-.75.82.82,0,0,0-.22-.61,1.44,1.44,0,0,0-.57-.35,6.69,6.69,0,0,0-.92-.25,11.55,11.55,0,0,1-1.18-.34,1.84,1.84,0,0,1-.74-.53,1.54,1.54,0,0,1-.3-1,1.64,1.64,0,0,1,.61-1.34A2.52,2.52,0,0,1,194.43,126.33Zm6.22,0a2.55,2.55,0,0,1,1.78.59,2.36,2.36,0,0,1,.83,1.56h-1a1.45,1.45,0,0,0-.49-1,1.55,1.55,0,0,0-1.11-.39,1.37,1.37,0,0,0-.92.29.94.94,0,0,0-.33.76.82.82,0,0,0,.22.58,1.55,1.55,0,0,0,.55.34c.23.07.53.15.91.24a7.86,7.86,0,0,1,1.18.35,1.74,1.74,0,0,1,.77.55,1.59,1.59,0,0,1,.32,1,1.61,1.61,0,0,1-.61,1.31,2.41,2.41,0,0,1-1.61.5,3.08,3.08,0,0,1-1.92-.56,2.24,2.24,0,0,1-.87-1.57h1.05a1.37,1.37,0,0,0,.52,1,1.89,1.89,0,0,0,1.22.37A1.22,1.22,0,0,0,202,132a1,1,0,0,0,.32-.75.78.78,0,0,0-.23-.61,1.4,1.4,0,0,0-.56-.35,6.69,6.69,0,0,0-.92-.25,11.55,11.55,0,0,1-1.18-.34,1.78,1.78,0,0,1-.74-.53,1.54,1.54,0,0,1-.3-1,1.64,1.64,0,0,1,.61-1.34A2.52,2.52,0,0,1,200.65,126.33Zm13.2.08L212,133h-1.18L209,127.64,207.14,133H206l-1.87-6.59h1.1l1.41,5.55,1.82-5.55h1.14l1.84,5.53,1.41-5.53Zm4-.08a3.36,3.36,0,0,1,1.69.41,2.83,2.83,0,0,1,1.18,1.17,4,4,0,0,1,0,3.6,2.89,2.89,0,0,1-1.18,1.17,3.46,3.46,0,0,1-1.69.4,3.53,3.53,0,0,1-1.7-.4,3,3,0,0,1-1.18-1.17,4,4,0,0,1,0-3.6,3,3,0,0,1,1.18-1.17A3.42,3.42,0,0,1,217.87,126.33Zm0,1a2.4,2.4,0,0,0-1.09.26,2,2,0,0,0-.8.82,2.63,2.63,0,0,0-.3,1.34,2.7,2.7,0,0,0,.3,1.35,2,2,0,0,0,.8.8,2.28,2.28,0,0,0,1.09.26,2.21,2.21,0,0,0,1.08-.26,2,2,0,0,0,.81-.8,2.81,2.81,0,0,0,.31-1.35,2.74,2.74,0,0,0-.31-1.34,2,2,0,0,0-.81-.82A2.33,2.33,0,0,0,217.87,127.29Zm5.83.45a2.48,2.48,0,0,1,1-1,2.76,2.76,0,0,1,1.49-.39v1.19h-.34a2.32,2.32,0,0,0-1.51.48,1.88,1.88,0,0,0-.59,1.56V133h-1.09v-6.59h1.09Zm6.24-1.41a2.68,2.68,0,0,1,1.62.48,2.5,2.5,0,0,1,.93,1.28v-4h1.09V133h-1.09v-1.68a2.46,2.46,0,0,1-.93,1.28,2.68,2.68,0,0,1-1.62.48,3,3,0,0,1-1.56-.4,2.85,2.85,0,0,1-1.08-1.17,4.35,4.35,0,0,1,0-3.6,2.79,2.79,0,0,1,1.08-1.17A2.89,2.89,0,0,1,229.94,126.33Zm.31,1a2.14,2.14,0,0,0-1.62.65,2.45,2.45,0,0,0-.6,1.76,2.52,2.52,0,0,0,.6,1.78,2.16,2.16,0,0,0,1.62.63,2.22,2.22,0,0,0,1.15-.3,2.09,2.09,0,0,0,.8-.84,2.59,2.59,0,0,0,.29-1.27,2.62,2.62,0,0,0-.29-1.27,2,2,0,0,0-.8-.84A2.22,2.22,0,0,0,230.25,127.3Zm11.71-1a2.93,2.93,0,0,1,1.56.41,2.83,2.83,0,0,1,1.07,1.17,4.35,4.35,0,0,1,0,3.6,2.89,2.89,0,0,1-1.07,1.17,3,3,0,0,1-1.56.4,2.71,2.71,0,0,1-1.63-.48,2.49,2.49,0,0,1-.92-1.28v4.8h-1.09v-9.71h1.09v1.68a2.46,2.46,0,0,1,.92-1.27A2.65,2.65,0,0,1,242,126.33Zm-.31,1a2.28,2.28,0,0,0-1.16.3,2,2,0,0,0-.8.84,2.73,2.73,0,0,0-.29,1.27,2.7,2.7,0,0,0,.29,1.27,2.09,2.09,0,0,0,.8.84,2.28,2.28,0,0,0,1.16.3,2.13,2.13,0,0,0,1.62-.63,2.53,2.53,0,0,0,.61-1.78,2.46,2.46,0,0,0-.61-1.76A2.11,2.11,0,0,0,241.65,127.3Zm10.63-.89V133h-1.09v-1.55a2.26,2.26,0,0,1-.9,1.24,2.63,2.63,0,0,1-1.49.42,2.5,2.5,0,0,1-1.85-.73,3,3,0,0,1-.7-2.13v-3.84h1.09v3.73a2.18,2.18,0,0,0,.5,1.53,1.81,1.81,0,0,0,1.37.53,1.9,1.9,0,0,0,1.44-.58,2.43,2.43,0,0,0,.54-1.7v-3.51Zm2.41,5.67h3.52V133h-4.72v-.88l3.36-4.78h-3.27v-.93h4.51v.89Zm5.37,0h3.53V133h-4.73v-.88l3.36-4.78H259v-.93h4.52v.89Zm5.83-8V133H264.8v-8.88Zm7.83,5.22a2.69,2.69,0,0,1-.05.6h-5.26a2.29,2.29,0,0,0,.63,1.69,2.12,2.12,0,0,0,1.49.57,2.16,2.16,0,0,0,1.32-.4,1.67,1.67,0,0,0,.66-1.08h1.16a2.8,2.8,0,0,1-1.6,2.06,3.57,3.57,0,0,1-1.49.3,3.42,3.42,0,0,1-1.68-.4,2.94,2.94,0,0,1-1.15-1.17,4.16,4.16,0,0,1,0-3.6,2.88,2.88,0,0,1,1.15-1.17,3.32,3.32,0,0,1,1.68-.41,3.23,3.23,0,0,1,1.67.41,2.72,2.72,0,0,1,1.09,1.09A3.08,3.08,0,0,1,273.72,129.34Zm-1.1.07a2.3,2.3,0,0,0-.24-1.22,1.78,1.78,0,0,0-.76-.73,2.3,2.3,0,0,0-1-.24,2.11,2.11,0,0,0-1.51.56,2.21,2.21,0,0,0-.66,1.63Zm8.45-4.56a1.81,1.81,0,0,0-1.23.3,1.45,1.45,0,0,0-.33,1.08v.18h1.56v1h-1.56V133h-1.09v-5.63h-.95v-1h.95v-.26c0-1.58.88-2.33,2.65-2.26Zm2.29,2.89a2.42,2.42,0,0,1,.95-1,2.76,2.76,0,0,1,1.49-.39v1.19h-.34A2.32,2.32,0,0,0,284,128a1.88,1.88,0,0,0-.59,1.56V133h-1.09v-6.59h1.09Zm6.52-1.41a3.4,3.4,0,0,1,1.7.41,2.87,2.87,0,0,1,1.17,1.17,4,4,0,0,1,0,3.6,2.93,2.93,0,0,1-1.17,1.17,3.81,3.81,0,0,1-3.4,0,3,3,0,0,1-1.18-1.17,4,4,0,0,1,0-3.6,3,3,0,0,1,1.18-1.17A3.42,3.42,0,0,1,289.88,126.33Zm0,1a2.4,2.4,0,0,0-1.09.26,2,2,0,0,0-.8.82,2.74,2.74,0,0,0-.3,1.34,2.81,2.81,0,0,0,.3,1.35,2,2,0,0,0,.8.8,2.28,2.28,0,0,0,1.09.26,2.18,2.18,0,0,0,1.08-.26,2,2,0,0,0,.81-.8,2.7,2.7,0,0,0,.31-1.35,2.63,2.63,0,0,0-.31-1.34,1.94,1.94,0,0,0-.81-.82A2.3,2.3,0,0,0,289.88,127.29Zm12.84-1a2.4,2.4,0,0,1,1.85.75,2.93,2.93,0,0,1,.71,2.12V133h-1.09v-3.73a2.1,2.1,0,0,0-.48-1.49,1.7,1.7,0,0,0-1.3-.52,1.8,1.8,0,0,0-1.39.58,2.37,2.37,0,0,0-.52,1.67V133h-1.09v-3.73a2.1,2.1,0,0,0-.48-1.49,1.69,1.69,0,0,0-1.29-.52,1.83,1.83,0,0,0-1.41.58,2.42,2.42,0,0,0-.52,1.67V133h-1.09v-6.59h1.09v1.5a2.21,2.21,0,0,1,.86-1.19,2.63,2.63,0,0,1,2.88,0,2.25,2.25,0,0,1,.88,1.24,2.42,2.42,0,0,1,.93-1.23A2.5,2.5,0,0,1,302.72,126.3ZM27.28,142.54,25.13,151H23.8l-2-6.91L19.89,151H18.56l-2.16-8.46h1.21l1.62,7.19,2-7.19h1.21l2,7.16,1.63-7.16Zm6.65,6.26a2.28,2.28,0,0,1-.29,1.12,2.2,2.2,0,0,1-.87.84,3,3,0,0,1-1.46.32,3.59,3.59,0,0,1-1.5-.3,2.62,2.62,0,0,1-1-.84,2.37,2.37,0,0,1-.44-1.22h1.16a1.62,1.62,0,0,0,.24.71,1.71,1.71,0,0,0,.6.56,1.88,1.88,0,0,0,1,.22,1.46,1.46,0,0,0,1.1-.39,1.3,1.3,0,0,0,.39-1,1.29,1.29,0,0,0-.28-.84,1.81,1.81,0,0,0-.66-.5,7.12,7.12,0,0,0-1.08-.41,13.82,13.82,0,0,1-1.3-.49,2.31,2.31,0,0,1-.82-.71,2,2,0,0,1-.34-1.24,2,2,0,0,1,1.22-1.94,3.26,3.26,0,0,1,1.41-.28,3,3,0,0,1,2,.61,2.3,2.3,0,0,1,.85,1.54H32.57a1.56,1.56,0,0,0-.51-.89,1.65,1.65,0,0,0-1.14-.38,1.53,1.53,0,0,0-1.06.35,1.19,1.19,0,0,0-.39,1,1.23,1.23,0,0,0,.25.8,1.87,1.87,0,0,0,.65.48,10.25,10.25,0,0,0,1.05.38,10.64,10.64,0,0,1,1.31.51,2.12,2.12,0,0,1,.85.73A2.16,2.16,0,0,1,33.93,148.8Zm4.1,1.36a18.12,18.12,0,0,0,3.26-2.71,3.93,3.93,0,0,0,1.22-2.52,1.67,1.67,0,0,0-.37-1.15,1.41,1.41,0,0,0-1.17-.45,1.55,1.55,0,0,0-1.28.54,2.57,2.57,0,0,0-.48,1.47H38.13a3.16,3.16,0,0,1,.88-2.18,2.82,2.82,0,0,1,2-.76,2.69,2.69,0,0,1,1.88.63,2.31,2.31,0,0,1,.7,1.8,3.75,3.75,0,0,1-.62,2,8.81,8.81,0,0,1-1.55,1.83,11.88,11.88,0,0,1-1.91,1.43h4.3v.9H38Zm11.78-5.36a1.88,1.88,0,0,0-.52-1.17,1.51,1.51,0,0,0-1.14-.42,1.74,1.74,0,0,0-1.54.79,4.68,4.68,0,0,0-.52,2.51V147a1.87,1.87,0,0,1,.83-1.14,2.66,2.66,0,0,1,1.52-.44,2.58,2.58,0,0,1,2,.76,2.93,2.93,0,0,1,.72,2.11,3.24,3.24,0,0,1-.31,1.44,2.36,2.36,0,0,1-1,1,3.05,3.05,0,0,1-1.58.37,2.68,2.68,0,0,1-2.5-1.14,6.06,6.06,0,0,1-.67-3.09,6.4,6.4,0,0,1,.72-3.39,2.61,2.61,0,0,1,2.37-1.14,2.42,2.42,0,0,1,1.86.69,2.93,2.93,0,0,1,.78,1.79Zm-3.59,3.27a2.2,2.2,0,0,0,.51,1.48,1.92,1.92,0,0,0,1.53.59,1.86,1.86,0,0,0,1.35-.5,1.9,1.9,0,0,0,.5-1.4,2,2,0,0,0-.5-1.48,1.88,1.88,0,0,0-1.4-.51,2.46,2.46,0,0,0-1,.2,1.8,1.8,0,0,0-.74.63A1.68,1.68,0,0,0,46.22,148.07Zm9.27-5.59a.63.63,0,0,1,.2-.48.76.76,0,0,1,.54-.19.73.73,0,0,1,.54.19.6.6,0,0,1,.21.48.64.64,0,0,1-.21.49.77.77,0,0,1-.54.18.8.8,0,0,1-.54-.18A.66.66,0,0,1,55.49,142.48Zm1.28,1.93V151H55.68v-6.59ZM62,144.3a2.43,2.43,0,0,1,1.86.75,2.89,2.89,0,0,1,.71,2.12V151H63.49v-3.73a2.12,2.12,0,0,0-.5-1.51,1.79,1.79,0,0,0-1.37-.53,1.84,1.84,0,0,0-1.44.59,2.37,2.37,0,0,0-.54,1.69V151h-1.1v-6.59h1.1V146a2.22,2.22,0,0,1,.89-1.23A2.58,2.58,0,0,1,62,144.3Zm13.26-1.76L72.5,147.8V151H71.39v-3.2l-2.78-5.26h1.27L72,146.63,74,142.54Zm4.11,1.79a3.38,3.38,0,0,1,1.69.41,2.87,2.87,0,0,1,1.17,1.17,3.9,3.9,0,0,1,0,3.6,2.93,2.93,0,0,1-1.17,1.17,3.49,3.49,0,0,1-1.69.4,3.57,3.57,0,0,1-1.71-.4,3,3,0,0,1-1.17-1.17,3.9,3.9,0,0,1,0-3.6,2.93,2.93,0,0,1,1.17-1.17A3.46,3.46,0,0,1,79.38,144.33Zm0,1a2.41,2.41,0,0,0-1.1.26,2.11,2.11,0,0,0-.8.82,2.74,2.74,0,0,0-.3,1.34,2.81,2.81,0,0,0,.3,1.35,2.12,2.12,0,0,0,.8.8,2.29,2.29,0,0,0,1.1.26,2.21,2.21,0,0,0,1.08-.26,2,2,0,0,0,.8-.8,2.7,2.7,0,0,0,.31-1.35,2.63,2.63,0,0,0-.31-1.34,2,2,0,0,0-.8-.82A2.33,2.33,0,0,0,79.38,145.29ZM90,144.41V151H88.88v-1.55a2.26,2.26,0,0,1-.9,1.24,2.63,2.63,0,0,1-1.49.42,2.5,2.5,0,0,1-1.85-.73,3,3,0,0,1-.7-2.13v-3.84H85v3.73a2.18,2.18,0,0,0,.5,1.53,1.81,1.81,0,0,0,1.37.53,1.9,1.9,0,0,0,1.44-.58,2.43,2.43,0,0,0,.54-1.7v-3.51Zm2.86,1.33a2.42,2.42,0,0,1,1-1.05,2.76,2.76,0,0,1,1.49-.39v1.19h-.34a2.32,2.32,0,0,0-1.51.48,1.88,1.88,0,0,0-.59,1.56V151H91.74v-6.59h1.09Zm10-1.44a2.46,2.46,0,0,1,1.86.75,2.93,2.93,0,0,1,.7,2.12V151h-1.09v-3.73a2.12,2.12,0,0,0-.5-1.51,1.78,1.78,0,0,0-1.37-.53,1.84,1.84,0,0,0-1.44.59,2.37,2.37,0,0,0-.54,1.69V151H99.35v-6.59h1.09V146a2.22,2.22,0,0,1,.89-1.23A2.59,2.59,0,0,1,102.82,144.3Zm7.24,0a3.4,3.4,0,0,1,1.7.41,2.87,2.87,0,0,1,1.17,1.17,4,4,0,0,1,0,3.6,2.93,2.93,0,0,1-1.17,1.17,3.81,3.81,0,0,1-3.4,0,3,3,0,0,1-1.18-1.17,4,4,0,0,1,0-3.6,3,3,0,0,1,1.18-1.17A3.42,3.42,0,0,1,110.06,144.33Zm0,1a2.4,2.4,0,0,0-1.09.26,2,2,0,0,0-.8.82,2.74,2.74,0,0,0-.3,1.34,2.81,2.81,0,0,0,.3,1.35,2,2,0,0,0,.8.8,2.28,2.28,0,0,0,1.09.26,2.16,2.16,0,0,0,1.08-.26,2,2,0,0,0,.81-.8,2.7,2.7,0,0,0,.31-1.35,2.63,2.63,0,0,0-.31-1.34,1.94,1.94,0,0,0-.81-.82A2.27,2.27,0,0,0,110.06,145.29ZM118,150v1h-.82a2.12,2.12,0,0,1-1.51-.48,2.18,2.18,0,0,1-.49-1.61v-3.55h-1v-1h1v-1.64h1.1v1.64h1.71v1h-1.71v3.58a1.28,1.28,0,0,0,.23.87,1.18,1.18,0,0,0,.82.23Zm7.41-2.7a3.45,3.45,0,0,1,0,.6H120a2.34,2.34,0,0,0,.64,1.69,2.1,2.1,0,0,0,1.49.57,2.18,2.18,0,0,0,1.32-.4,1.67,1.67,0,0,0,.66-1.08h1.16a2.79,2.79,0,0,1-1.61,2.06,3.54,3.54,0,0,1-1.49.3,3.36,3.36,0,0,1-1.67-.4,3,3,0,0,1-1.16-1.17,4.25,4.25,0,0,1,0-3.6,2.9,2.9,0,0,1,1.16-1.17,3.26,3.26,0,0,1,1.67-.41,3.21,3.21,0,0,1,1.67.41,2.75,2.75,0,0,1,1.1,1.09A3.08,3.08,0,0,1,125.36,147.34Zm-1.1.07a2.21,2.21,0,0,0-.25-1.22,1.7,1.7,0,0,0-.75-.73,2.31,2.31,0,0,0-1.05-.24,2.14,2.14,0,0,0-1.51.56,2.21,2.21,0,0,0-.66,1.63Zm6.18-3.08a2.93,2.93,0,0,1,1.56.41,2.76,2.76,0,0,1,1.07,1.17,4.35,4.35,0,0,1,0,3.6,2.82,2.82,0,0,1-1.07,1.17,3,3,0,0,1-1.56.4,2.73,2.73,0,0,1-1.63-.48,2.47,2.47,0,0,1-.91-1.28V151h-1.1v-8.88h1.1v4a2.44,2.44,0,0,1,.91-1.27A2.67,2.67,0,0,1,130.44,144.33Zm-.31,1a2.24,2.24,0,0,0-1.15.3,2,2,0,0,0-.81.84,2.73,2.73,0,0,0-.29,1.27,2.7,2.7,0,0,0,.29,1.27,2.11,2.11,0,0,0,.81.84,2.24,2.24,0,0,0,1.15.3,2.13,2.13,0,0,0,1.62-.63,2.48,2.48,0,0,0,.61-1.78,2.42,2.42,0,0,0-.61-1.76A2.11,2.11,0,0,0,130.13,145.3Zm7.77-1a3.38,3.38,0,0,1,1.69.41,2.81,2.81,0,0,1,1.17,1.17,3.9,3.9,0,0,1,0,3.6,2.87,2.87,0,0,1-1.17,1.17,3.49,3.49,0,0,1-1.69.4,3.57,3.57,0,0,1-1.71-.4,3,3,0,0,1-1.17-1.17,4,4,0,0,1,0-3.6,2.93,2.93,0,0,1,1.17-1.17A3.46,3.46,0,0,1,137.9,144.33Zm0,1a2.44,2.44,0,0,0-1.1.26,2.11,2.11,0,0,0-.8.82,2.74,2.74,0,0,0-.3,1.34,2.81,2.81,0,0,0,.3,1.35,2.12,2.12,0,0,0,.8.8,2.32,2.32,0,0,0,1.1.26,2.21,2.21,0,0,0,1.08-.26,2,2,0,0,0,.8-.8,2.7,2.7,0,0,0,.31-1.35,2.63,2.63,0,0,0-.31-1.34,2,2,0,0,0-.8-.82A2.33,2.33,0,0,0,137.9,145.29Zm7.73-1a3.38,3.38,0,0,1,1.69.41,2.87,2.87,0,0,1,1.17,1.17,3.9,3.9,0,0,1,0,3.6,2.93,2.93,0,0,1-1.17,1.17,3.49,3.49,0,0,1-1.69.4,3.57,3.57,0,0,1-1.71-.4,3,3,0,0,1-1.17-1.17,3.9,3.9,0,0,1,0-3.6,2.93,2.93,0,0,1,1.17-1.17A3.46,3.46,0,0,1,145.63,144.33Zm0,1a2.41,2.41,0,0,0-1.1.26,2.11,2.11,0,0,0-.8.82,2.74,2.74,0,0,0-.3,1.34,2.81,2.81,0,0,0,.3,1.35,2.12,2.12,0,0,0,.8.8,2.29,2.29,0,0,0,1.1.26,2.21,2.21,0,0,0,1.08-.26,2,2,0,0,0,.8-.8,2.7,2.7,0,0,0,.31-1.35,2.63,2.63,0,0,0-.31-1.34,2,2,0,0,0-.8-.82A2.33,2.33,0,0,0,145.63,145.29ZM154,151l-2.52-3v3h-1.09v-8.88h1.09v5.16l2.48-2.87h1.33l-3,3.28,3,3.31Z" fill="#969696"/><line x1="16" y1="71.5" x2="312" y2="71.5" fill="none" stroke="#e8e8e8"/><path d="M18.46,47.87v2.2h3v1.29h-3v2.28h3.36V55H16.77V46.53h5.05v1.34Zm8.57.39a2.37,2.37,0,0,1,1.84.75,3.09,3.09,0,0,1,.68,2.13V55H27.87V51.33a1.69,1.69,0,0,0-.41-1.23,1.45,1.45,0,0,0-1.11-.44,1.48,1.48,0,0,0-1.15.47,1.9,1.9,0,0,0-.44,1.34V55H23.07V48.35h1.69v1.33a2.16,2.16,0,0,1,.87-1A2.54,2.54,0,0,1,27,48.26Zm6.62,0a2.58,2.58,0,0,1,1.44.39,2.19,2.19,0,0,1,.85,1.07V48.35h1.68V55a3.72,3.72,0,0,1-.37,1.66,2.62,2.62,0,0,1-1.1,1.16,3.41,3.41,0,0,1-1.75.42,3.71,3.71,0,0,1-2.33-.68A2.87,2.87,0,0,1,31,55.72h1.67a1.36,1.36,0,0,0,.55.78,1.87,1.87,0,0,0,1.07.29,1.62,1.62,0,0,0,1.2-.45A1.69,1.69,0,0,0,35.94,55V53.61a2.21,2.21,0,0,1-.85,1.08,2.58,2.58,0,0,1-1.44.39,2.73,2.73,0,0,1-2.57-1.58,4.66,4.66,0,0,1,0-3.64,2.75,2.75,0,0,1,1.05-1.18A2.82,2.82,0,0,1,33.65,48.27Zm.52,1.47a1.68,1.68,0,0,0-1.27.52,2,2,0,0,0-.48,1.42,2,2,0,0,0,.48,1.41,1.81,1.81,0,0,0,2.53,0,2.19,2.19,0,0,0,0-2.81A1.63,1.63,0,0,0,34.17,49.74Zm6.67-3.62V55H39.15V46.12Zm1.34.32a.85.85,0,0,1,.29-.66,1.23,1.23,0,0,1,1.51,0,.9.9,0,0,1,0,1.32,1.23,1.23,0,0,1-1.51,0A.85.85,0,0,1,42.18,46.44Zm1.89,1.91V55h-1.7V48.35Zm3.82-.08a2.91,2.91,0,0,1,1.94.61,2.64,2.64,0,0,1,.91,1.63H49.16a1.34,1.34,0,0,0-.43-.77,1.33,1.33,0,0,0-.88-.28,1,1,0,0,0-.67.2.69.69,0,0,0-.24.55.57.57,0,0,0,.19.45,1.38,1.38,0,0,0,.48.26l.83.23a7.33,7.33,0,0,1,1.22.36,1.84,1.84,0,0,1,.82.59,1.58,1.58,0,0,1,.35,1.08,1.71,1.71,0,0,1-.67,1.38,2.8,2.8,0,0,1-1.79.52,3.44,3.44,0,0,1-2.08-.57,2.5,2.5,0,0,1-.95-1.67H47a1.11,1.11,0,0,0,.44.78,1.6,1.6,0,0,0,1,.28.93.93,0,0,0,.66-.21.73.73,0,0,0,.23-.55.59.59,0,0,0-.21-.47,1.22,1.22,0,0,0-.49-.27c-.19-.07-.47-.14-.83-.23a10.71,10.71,0,0,1-1.21-.34,2.08,2.08,0,0,1-.79-.56,1.58,1.58,0,0,1-.33-1.06,1.73,1.73,0,0,1,.66-1.4A2.81,2.81,0,0,1,47.89,48.27Zm8.16,0a2.34,2.34,0,0,1,1.83.75,3,3,0,0,1,.69,2.13V55H56.89V51.33a1.74,1.74,0,0,0-.41-1.23,1.45,1.45,0,0,0-1.12-.44,1.5,1.5,0,0,0-1.15.47,1.89,1.89,0,0,0-.43,1.34V55H52.09V46.12h1.69v3.56a2.14,2.14,0,0,1,.86-1A2.57,2.57,0,0,1,56.05,48.26Zm8.1,8.19h-1.7V45.3h1.7Zm5.63-8.58v2.2h3v1.29h-3v2.28h3.36V55H68.08V46.53h5.06v1.34Zm6.3,5.83h2.85V55H74.39V46.53h1.69Zm7.78-7.26a4.14,4.14,0,0,1,2.56.77,3.39,3.39,0,0,1,1.31,2H86a2,2,0,0,0-.81-.91A2.34,2.34,0,0,0,83.87,48a2.54,2.54,0,0,0-1.3.34,2.2,2.2,0,0,0-.87,1,3.2,3.2,0,0,0-.32,1.46,2.91,2.91,0,0,0,.71,2.08,2.58,2.58,0,0,0,2,.74A2.35,2.35,0,0,0,85.61,53a2.5,2.5,0,0,0,.85-1.5H83.59V50.33h4.29V52a4,4,0,0,1-.71,1.55,3.84,3.84,0,0,1-1.37,1.14,4.25,4.25,0,0,1-1.93.42,4.44,4.44,0,0,1-2.21-.54A3.93,3.93,0,0,1,80.18,53a4.84,4.84,0,0,1-.51-2.25,4.73,4.73,0,0,1,.51-2.23A3.89,3.89,0,0,1,81.66,47,4.26,4.26,0,0,1,83.86,46.44ZM94.3,53.3H90.91l-.6,1.7H88.52l3.12-8.38h1.93L96.68,55H94.89ZM93.85,52,92.6,48.44,91.35,52Zm5.73-3.9V46.53h3V55h-1.78V48.11Zm8.87.72c-.13-.83-.55-1.25-1.27-1.25a1.3,1.3,0,0,0-1.23.75,5,5,0,0,0-.33,2.3,1.65,1.65,0,0,1,.74-.91,2.75,2.75,0,0,1,3.23.4,2.86,2.86,0,0,1,.71,2.08,3.12,3.12,0,0,1-.34,1.49,2.42,2.42,0,0,1-1,1,3.18,3.18,0,0,1-1.6.37,2.74,2.74,0,0,1-2.55-1.14,6.12,6.12,0,0,1-.69-3.16,6.28,6.28,0,0,1,.74-3.44,2.74,2.74,0,0,1,2.44-1.11,2.54,2.54,0,0,1,2,.73,3,3,0,0,1,.78,1.87Zm-2.69,3.25a1.64,1.64,0,0,0,.39,1.12,1.46,1.46,0,0,0,1.15.43,1.32,1.32,0,0,0,1.41-1.45,1.46,1.46,0,0,0-.39-1.1,1.42,1.42,0,0,0-1-.39,1.62,1.62,0,0,0-1.06.36A1.25,1.25,0,0,0,105.76,52.08Zm10,4.37h-1.7V45.3h1.7Zm5.57-9.92v5a2.26,2.26,0,0,0,.43,1.5,1.64,1.64,0,0,0,1.27.49,1.61,1.61,0,0,0,1.25-.49,2.26,2.26,0,0,0,.44-1.5v-5h1.68v5a4.21,4.21,0,0,1-.44,2,2.86,2.86,0,0,1-1.21,1.2,3.86,3.86,0,0,1-1.76.39,3.28,3.28,0,0,1-2.43-.91,3.62,3.62,0,0,1-.91-2.67v-5Zm10.52,1.73a2.35,2.35,0,0,1,1.83.75,3,3,0,0,1,.69,2.13V55h-1.69V51.33a1.74,1.74,0,0,0-.4-1.23,1.47,1.47,0,0,0-1.12-.44,1.5,1.5,0,0,0-1.15.47,1.89,1.89,0,0,0-.43,1.34V55h-1.7V48.35h1.7v1.33a2.09,2.09,0,0,1,.86-1A2.57,2.57,0,0,1,131.85,48.26Zm3.81-1.82a.85.85,0,0,1,.29-.66,1.23,1.23,0,0,1,1.51,0,.9.9,0,0,1,0,1.32,1.23,1.23,0,0,1-1.51,0A.85.85,0,0,1,135.66,46.44Zm1.89,1.91V55h-1.7V48.35Zm5.08,5.2V55h-.89a2.52,2.52,0,0,1-1.72-.54,2.36,2.36,0,0,1-.58-1.8V49.78h-.93V48.35h.93V46.71h1.69v1.64h1.49v1.43h-1.49v2.9a1,1,0,0,0,.19.68.93.93,0,0,0,.65.19Zm3.21-5.44V46.53h3V55h-1.77V48.11Zm8.67,8.34h-1.69V45.3h1.69Zm11.39-5.7a4.55,4.55,0,0,1-.53,2.22,3.69,3.69,0,0,1-1.53,1.5,5.07,5.07,0,0,1-2.38.53h-3V46.53h3a5,5,0,0,1,2.38.53,3.51,3.51,0,0,1,1.53,1.47A4.5,4.5,0,0,1,165.9,50.75Zm-4.58,2.74a2.92,2.92,0,0,0,2.11-.72,3.11,3.11,0,0,0,0-4.05,2.92,2.92,0,0,0-2.11-.72h-1.18v5.49Zm8.45-5.22a2.58,2.58,0,0,1,1.44.39,2.19,2.19,0,0,1,.85,1.07V48.35h1.68V55h-1.68V53.61a2.21,2.21,0,0,1-.85,1.08,2.58,2.58,0,0,1-1.44.39,2.87,2.87,0,0,1-1.51-.4,2.9,2.9,0,0,1-1.06-1.18,4.66,4.66,0,0,1,0-3.64,2.78,2.78,0,0,1,2.57-1.59Zm.53,1.47a1.66,1.66,0,0,0-1.27.52,2,2,0,0,0-.48,1.42,2,2,0,0,0,.48,1.41,1.66,1.66,0,0,0,1.27.51,1.69,1.69,0,0,0,1.26-.52,2.22,2.22,0,0,0,0-2.81A1.66,1.66,0,0,0,170.3,49.74Zm6.12-1.39,1.81,4.51,1.68-4.51h1.86l-4.07,9.82h-1.87l1.5-3.36-2.8-6.46Zm8.13-.24V46.53h3V55h-1.77V48.11Zm4.29,5.19V51.89l4.06-5.46h1.81v5.4h1.1V53.3h-1.1V55H193V53.3Zm4.29-4.89-2.56,3.42h2.56Z"/><path d="M21.87,27.14H18.22L17.55,29H16.4l3-8.32h1.26l3,8.32H22.54Zm-.31-.89L20,22l-1.51,4.22Zm4.54-2.61a2.63,2.63,0,0,1,1-.94,2.84,2.84,0,0,1,1.5-.38,3.07,3.07,0,0,1,1.59.42,2.9,2.9,0,0,1,1.12,1.18,3.62,3.62,0,0,1,.41,1.77,3.67,3.67,0,0,1-.41,1.77,3,3,0,0,1-1.12,1.22,3.08,3.08,0,0,1-1.59.43,3,3,0,0,1-1.49-.37,2.94,2.94,0,0,1-1-.95v4.33H25v-9.7H26.1Zm4.47,2.05a2.68,2.68,0,0,0-.3-1.3,2.07,2.07,0,0,0-.82-.84,2.25,2.25,0,0,0-1.12-.29,2.15,2.15,0,0,0-1.11.3,2.2,2.2,0,0,0-.82.86,2.6,2.6,0,0,0-.3,1.28A2.75,2.75,0,0,0,26.4,27a2.24,2.24,0,0,0,3.05.85,2.17,2.17,0,0,0,.82-.85A2.79,2.79,0,0,0,30.57,25.69Zm3.64-2.2a2.09,2.09,0,0,1,.82-.87,2.54,2.54,0,0,1,1.31-.32v1.13h-.29c-1.23,0-1.84.67-1.84,2V29H33.12V22.42h1.09Zm3.95-2.13a.75.75,0,0,1-.53-.22.72.72,0,0,1-.21-.53.72.72,0,0,1,.74-.74.66.66,0,0,1,.5.21.71.71,0,0,1,.22.53.69.69,0,0,1-.22.53A.67.67,0,0,1,38.16,21.36Zm.53,1.06V29H37.6V22.42Zm3-2.3V29H40.55V20.12Zm4.88,4.45a6.47,6.47,0,0,1,.67-3.21,2.95,2.95,0,0,1,4.7,0,6.47,6.47,0,0,1,.67,3.21,6.7,6.7,0,0,1-.67,3.27,3,3,0,0,1-4.7,0A6.7,6.7,0,0,1,46.52,24.57Zm5,0a8.81,8.81,0,0,0-.15-1.76,2.14,2.14,0,0,0-.56-1.18,1.63,1.63,0,0,0-1.22-.44,1.68,1.68,0,0,0-1.25.44,2.38,2.38,0,0,0-.57,1.18,10.84,10.84,0,0,0-.13,1.76,11.23,11.23,0,0,0,.13,1.81,2.38,2.38,0,0,0,.57,1.18,1.64,1.64,0,0,0,1.25.44,1.59,1.59,0,0,0,1.22-.44,2.14,2.14,0,0,0,.56-1.18A9.14,9.14,0,0,0,51.48,24.57Zm7.41-2.18a1.5,1.5,0,0,0-1.64-1.33,1.77,1.77,0,0,0-1.6.82,5.15,5.15,0,0,0-.51,2.7,2,2,0,0,1,.91-1,2.9,2.9,0,0,1,1.44-.36,2.61,2.61,0,0,1,2,.77,2.94,2.94,0,0,1,.74,2.12,3.31,3.31,0,0,1-.32,1.47,2.44,2.44,0,0,1-1,1,2.92,2.92,0,0,1-1.55.38,3,3,0,0,1-1.93-.55,2.89,2.89,0,0,1-1-1.52,9.13,9.13,0,0,1-.27-2.4q0-4.41,3.07-4.41a2.61,2.61,0,0,1,1.85.64,2.55,2.55,0,0,1,.79,1.61Zm-1.63,1.79a2.29,2.29,0,0,0-1,.21,1.78,1.78,0,0,0-.75.64,1.86,1.86,0,0,0-.27,1,2.09,2.09,0,0,0,.53,1.49,2,2,0,0,0,1.51.56,1.76,1.76,0,0,0,1.33-.51,2,2,0,0,0,.5-1.42,2.09,2.09,0,0,0-.48-1.46A1.77,1.77,0,0,0,57.26,24.18Zm9.16,6.09H65.33V19.46h1.09Zm5.14-5.7a6.36,6.36,0,0,1,.68-3.21,2.94,2.94,0,0,1,4.69,0,6.37,6.37,0,0,1,.67,3.21,6.59,6.59,0,0,1-.67,3.27,3,3,0,0,1-4.69,0A6.58,6.58,0,0,1,71.56,24.57Zm5,0a9.72,9.72,0,0,0-.14-1.76,2.22,2.22,0,0,0-.57-1.18,1.63,1.63,0,0,0-1.22-.44,1.68,1.68,0,0,0-1.25.44,2.29,2.29,0,0,0-.56,1.18,9.72,9.72,0,0,0-.14,1.76,10.08,10.08,0,0,0,.14,1.81,2.29,2.29,0,0,0,.56,1.18,1.64,1.64,0,0,0,1.25.44,1.59,1.59,0,0,0,1.22-.44,2.22,2.22,0,0,0,.57-1.18A10.08,10.08,0,0,0,76.52,24.57Zm4,2.1a1.74,1.74,0,0,0,.56,1.06,1.76,1.76,0,0,0,1.18.37,1.59,1.59,0,0,0,1.47-.78,5.14,5.14,0,0,0,.45-2.63,1.73,1.73,0,0,1-.84.85,2.8,2.8,0,0,1-1.3.3,3.05,3.05,0,0,1-1.44-.32,2.43,2.43,0,0,1-1-1A3.1,3.1,0,0,1,79.23,23,2.85,2.85,0,0,1,80,21a2.74,2.74,0,0,1,2.11-.79,2.53,2.53,0,0,1,2.35,1.09,6.17,6.17,0,0,1,.68,3.25,9.68,9.68,0,0,1-.27,2.5,2.84,2.84,0,0,1-.91,1.5,2.75,2.75,0,0,1-1.76.51,2.61,2.61,0,0,1-1.9-.66,2.55,2.55,0,0,1-.78-1.68Zm1.7-1.75A1.72,1.72,0,0,0,84,23.07a2.09,2.09,0,0,0-.5-1.45,1.82,1.82,0,0,0-1.42-.55,1.73,1.73,0,0,0-1.34.53A1.94,1.94,0,0,0,80.28,23a2,2,0,0,0,.49,1.4A1.86,1.86,0,0,0,82.2,24.92Zm5,4.15a.72.72,0,0,1-.53-.21.71.71,0,0,1-.22-.53.69.69,0,0,1,.22-.53.73.73,0,0,1,.53-.22.68.68,0,0,1,.5.22.73.73,0,0,1,.22.53.75.75,0,0,1-.22.53A.67.67,0,0,1,87.19,29.07Zm0-5.13a.73.73,0,0,1-.53-.22.69.69,0,0,1-.22-.53.71.71,0,0,1,.22-.53.72.72,0,0,1,.53-.21.67.67,0,0,1,.5.21.75.75,0,0,1,.22.53.73.73,0,0,1-.22.53A.68.68,0,0,1,87.19,23.94Zm2,.63a6.36,6.36,0,0,1,.68-3.21,2.94,2.94,0,0,1,4.69,0,6.37,6.37,0,0,1,.67,3.21,6.59,6.59,0,0,1-.67,3.27,3,3,0,0,1-4.69,0A6.58,6.58,0,0,1,89.21,24.57Zm5,0A9.72,9.72,0,0,0,94,22.81a2.22,2.22,0,0,0-.57-1.18,1.63,1.63,0,0,0-1.22-.44,1.68,1.68,0,0,0-1.25.44,2.29,2.29,0,0,0-.56,1.18,9.72,9.72,0,0,0-.14,1.76,10.08,10.08,0,0,0,.14,1.81A2.29,2.29,0,0,0,91,27.56a1.64,1.64,0,0,0,1.25.44,1.59,1.59,0,0,0,1.22-.44A2.22,2.22,0,0,0,94,26.38,10.08,10.08,0,0,0,94.17,24.57Zm2.58,0a6.37,6.37,0,0,1,.67-3.21,2.94,2.94,0,0,1,4.69,0,6.37,6.37,0,0,1,.67,3.21,6.59,6.59,0,0,1-.67,3.27,3,3,0,0,1-4.69,0A6.59,6.59,0,0,1,96.75,24.57Zm5,0a8.89,8.89,0,0,0-.14-1.76,2.29,2.29,0,0,0-.56-1.18,1.63,1.63,0,0,0-1.23-.44,1.7,1.7,0,0,0-1.25.44A2.37,2.37,0,0,0,98,22.81a9.81,9.81,0,0,0-.13,1.76A10.19,10.19,0,0,0,98,26.38a2.37,2.37,0,0,0,.56,1.18,1.66,1.66,0,0,0,1.25.44,1.6,1.6,0,0,0,1.23-.44,2.29,2.29,0,0,0,.56-1.18A9.23,9.23,0,0,0,101.7,24.57Zm10.91,2.57H109L108.29,29h-1.16l3-8.32h1.26l3,8.32h-1.15Zm-.32-.89L110.78,22l-1.51,4.22Zm11.94-5.55V29h-1.09V22.81L120.38,29h-.77l-2.77-6.2V29h-1.09V20.7h1.17L120,27.56l3.07-6.86Z" fill="#969696"/><path d="M20.83,187H17.11l-.71,2H15.23l3.13-8.3H19.6l3.12,8.3H21.54Zm-.31-.85L19,181.92l-1.55,4.27Zm5.38-3.86a2.58,2.58,0,0,1,1.79.59,2.4,2.4,0,0,1,.83,1.56h-1a1.46,1.46,0,0,0-.5-1,1.52,1.52,0,0,0-1.1-.39,1.37,1.37,0,0,0-.92.29.94.94,0,0,0-.33.76.78.78,0,0,0,.22.58,1.46,1.46,0,0,0,.55.34c.22.07.53.15.91.24a7.86,7.86,0,0,1,1.18.35,1.74,1.74,0,0,1,.77.55,1.59,1.59,0,0,1,.32,1,1.61,1.61,0,0,1-.61,1.31,2.41,2.41,0,0,1-1.61.5,3.08,3.08,0,0,1-1.92-.56,2.25,2.25,0,0,1-.88-1.57h1.06a1.37,1.37,0,0,0,.52,1,1.89,1.89,0,0,0,1.22.37,1.22,1.22,0,0,0,.88-.29,1,1,0,0,0,.32-.75.82.82,0,0,0-.23-.61,1.4,1.4,0,0,0-.56-.35,6.9,6.9,0,0,0-.93-.25,11.26,11.26,0,0,1-1.17-.34,1.87,1.87,0,0,1-.75-.53,1.54,1.54,0,0,1-.3-1,1.65,1.65,0,0,1,.62-1.34A2.5,2.5,0,0,1,25.9,182.33ZM33.67,189l-2.52-3v3H30.06v-8.88h1.09v5.16l2.48-2.87H35l-3,3.28L35,189Zm12.46-4.24a4.73,4.73,0,0,1-.52,2.25,3.54,3.54,0,0,1-1.52,1.47,5.12,5.12,0,0,1-2.4.52H39v-8.46h2.69a5.12,5.12,0,0,1,2.4.52,3.36,3.36,0,0,1,1.52,1.46A4.66,4.66,0,0,1,46.13,184.76ZM41.6,188a3.46,3.46,0,0,0,2.53-.86,3.71,3.71,0,0,0,0-4.8,3.44,3.44,0,0,0-2.53-.86H40.09V188Zm9-5.69a3.38,3.38,0,0,1,1.69.41,2.87,2.87,0,0,1,1.17,1.17,3.9,3.9,0,0,1,0,3.6,2.93,2.93,0,0,1-1.17,1.17,3.49,3.49,0,0,1-1.69.4,3.57,3.57,0,0,1-1.71-.4,3,3,0,0,1-1.17-1.17,3.9,3.9,0,0,1,0-3.6,2.93,2.93,0,0,1,1.17-1.17A3.46,3.46,0,0,1,50.61,182.33Zm0,1a2.41,2.41,0,0,0-1.1.26,2.11,2.11,0,0,0-.8.82,2.74,2.74,0,0,0-.3,1.34,2.81,2.81,0,0,0,.3,1.35,2.12,2.12,0,0,0,.8.8,2.29,2.29,0,0,0,1.1.26,2.21,2.21,0,0,0,1.08-.26,2,2,0,0,0,.8-.8,2.7,2.7,0,0,0,.31-1.35,2.63,2.63,0,0,0-.31-1.34,2,2,0,0,0-.8-.82A2.33,2.33,0,0,0,50.61,183.29Zm10.59-.88V189H60.11v-1.55a2.26,2.26,0,0,1-.9,1.24,2.63,2.63,0,0,1-1.49.42,2.46,2.46,0,0,1-1.84-.73,3,3,0,0,1-.71-2.13v-3.84h1.09v3.73a2.18,2.18,0,0,0,.5,1.53,1.83,1.83,0,0,0,1.37.53,1.9,1.9,0,0,0,1.44-.58,2.43,2.43,0,0,0,.54-1.7v-3.51Zm5.41-.08a2.93,2.93,0,0,1,1.56.41,2.74,2.74,0,0,1,1.06,1.17,4.25,4.25,0,0,1,0,3.6,2.8,2.8,0,0,1-1.06,1.17,3,3,0,0,1-1.56.4A2.76,2.76,0,0,1,65,188.6a2.47,2.47,0,0,1-.91-1.28V189H63v-8.88h1.09v4a2.44,2.44,0,0,1,.91-1.27A2.7,2.7,0,0,1,66.61,182.33Zm-.32,1a2.27,2.27,0,0,0-1.15.3,2,2,0,0,0-.8.84,2.73,2.73,0,0,0-.29,1.27,2.7,2.7,0,0,0,.29,1.27,2.09,2.09,0,0,0,.8.84,2.27,2.27,0,0,0,1.15.3,2.13,2.13,0,0,0,1.62-.63,2.49,2.49,0,0,0,.62-1.78,2.42,2.42,0,0,0-.62-1.76A2.11,2.11,0,0,0,66.29,183.3ZM74.22,188v1H73.4a2.12,2.12,0,0,1-1.51-.48,2.18,2.18,0,0,1-.49-1.61v-3.55h-1v-1h1v-1.64h1.1v1.64h1.71v1H72.5v3.58a1.28,1.28,0,0,0,.23.87,1.18,1.18,0,0,0,.82.23Zm3.41-5.71a2.58,2.58,0,0,1,1.79.59,2.4,2.4,0,0,1,.83,1.56h-1a1.46,1.46,0,0,0-.5-1,1.52,1.52,0,0,0-1.1-.39,1.37,1.37,0,0,0-.92.29.94.94,0,0,0-.33.76.78.78,0,0,0,.22.58,1.46,1.46,0,0,0,.55.34c.22.07.53.15.91.24a7.86,7.86,0,0,1,1.18.35,1.74,1.74,0,0,1,.77.55,1.59,1.59,0,0,1,.32,1,1.61,1.61,0,0,1-.61,1.31,2.41,2.41,0,0,1-1.61.5,3.08,3.08,0,0,1-1.92-.56,2.25,2.25,0,0,1-.88-1.57h1.06a1.37,1.37,0,0,0,.52,1,1.89,1.89,0,0,0,1.22.37A1.22,1.22,0,0,0,79,188a1,1,0,0,0,.32-.75.82.82,0,0,0-.23-.61,1.4,1.4,0,0,0-.56-.35,6.9,6.9,0,0,0-.93-.25,11.26,11.26,0,0,1-1.17-.34,1.87,1.87,0,0,1-.75-.53,1.54,1.54,0,0,1-.3-1,1.65,1.65,0,0,1,.62-1.34A2.5,2.5,0,0,1,77.63,182.33Z" fill="#f58138"/><path d="M240.35,180.68V189h-1.09v-6.64L236.6,189h-1L233,182.39V189h-1.09v-8.32h1.3l3,7,2.9-7Zm4.46,1.65a2.68,2.68,0,0,1,1.62.48,2.52,2.52,0,0,1,.94,1.28v-1.68h1.09V189h-1.09v-1.68a2.48,2.48,0,0,1-.94,1.28,2.68,2.68,0,0,1-1.62.48,3,3,0,0,1-1.56-.4,3,3,0,0,1-1.08-1.17,4.45,4.45,0,0,1,0-3.6,2.86,2.86,0,0,1,2.64-1.58Zm.31,1a2.1,2.1,0,0,0-1.61.65,2.46,2.46,0,0,0-.61,1.76,2.53,2.53,0,0,0,.61,1.78,2.12,2.12,0,0,0,1.61.63,2.23,2.23,0,0,0,1.16-.3,2.09,2.09,0,0,0,.8-.84,2.7,2.7,0,0,0,.29-1.27,2.73,2.73,0,0,0-.29-1.27,2,2,0,0,0-.8-.84A2.23,2.23,0,0,0,245.12,183.3Zm6.19.44a2.36,2.36,0,0,1,.95-1.05,2.72,2.72,0,0,1,1.48-.39v1.19h-.33a2.3,2.3,0,0,0-1.51.48,1.88,1.88,0,0,0-.59,1.56V189h-1.09v-6.59h1.09Zm7.14,5.26-2.52-3v3h-1.09v-8.88h1.09v5.16l2.49-2.87h1.33l-2.95,3.28,3,3.31Zm8-6.67a2.68,2.68,0,0,1,1.62.48,2.52,2.52,0,0,1,.94,1.28v-1.68h1.09V189H269v-1.68a2.48,2.48,0,0,1-.94,1.28,2.68,2.68,0,0,1-1.62.48,3,3,0,0,1-1.56-.4,3,3,0,0,1-1.08-1.17,4.45,4.45,0,0,1,0-3.6,2.86,2.86,0,0,1,2.64-1.58Zm.31,1a2.14,2.14,0,0,0-1.62.65,2.45,2.45,0,0,0-.6,1.76,2.52,2.52,0,0,0,.6,1.78,2.16,2.16,0,0,0,1.62.63,2.23,2.23,0,0,0,1.16-.3,2.09,2.09,0,0,0,.8-.84,2.7,2.7,0,0,0,.29-1.27,2.73,2.73,0,0,0-.29-1.27,2,2,0,0,0-.8-.84A2.23,2.23,0,0,0,266.79,183.3Zm7.16-1a2.6,2.6,0,0,1,1.79.59,2.44,2.44,0,0,1,.83,1.56h-1.05a1.45,1.45,0,0,0-.49-1,1.52,1.52,0,0,0-1.1-.39,1.4,1.4,0,0,0-.93.29,1,1,0,0,0-.32.76.81.81,0,0,0,.21.58,1.59,1.59,0,0,0,.56.34c.22.07.52.15.91.24a7.34,7.34,0,0,1,1.17.35,1.69,1.69,0,0,1,.77.55,1.53,1.53,0,0,1,.33,1,1.62,1.62,0,0,1-.62,1.31,2.38,2.38,0,0,1-1.6.5,3,3,0,0,1-1.92-.56,2.25,2.25,0,0,1-.88-1.57h1.06a1.39,1.39,0,0,0,.51,1,1.9,1.9,0,0,0,1.23.37,1.21,1.21,0,0,0,.87-.29.94.94,0,0,0,.33-.75.82.82,0,0,0-.23-.61,1.37,1.37,0,0,0-.57-.35,6.69,6.69,0,0,0-.92-.25,11.55,11.55,0,0,1-1.18-.34,1.91,1.91,0,0,1-.74-.53,1.54,1.54,0,0,1-.3-1,1.64,1.64,0,0,1,.61-1.34A2.54,2.54,0,0,1,274,182.33Zm9.84,0a2.68,2.68,0,0,1,1.62.48,2.5,2.5,0,0,1,.93,1.28v-4h1.09V189h-1.09v-1.68a2.46,2.46,0,0,1-.93,1.28,2.68,2.68,0,0,1-1.62.48,3,3,0,0,1-1.56-.4,2.85,2.85,0,0,1-1.08-1.17,4.35,4.35,0,0,1,0-3.6,2.79,2.79,0,0,1,1.08-1.17A2.89,2.89,0,0,1,283.79,182.33Zm.31,1a2.14,2.14,0,0,0-1.62.65,2.45,2.45,0,0,0-.6,1.76,2.52,2.52,0,0,0,.6,1.78,2.16,2.16,0,0,0,1.62.63,2.22,2.22,0,0,0,1.15-.3,2.09,2.09,0,0,0,.8-.84,2.59,2.59,0,0,0,.29-1.27,2.62,2.62,0,0,0-.29-1.27,2,2,0,0,0-.8-.84A2.22,2.22,0,0,0,284.1,183.3Zm8.08-1a3.38,3.38,0,0,1,1.69.41,2.89,2.89,0,0,1,1.18,1.17,4,4,0,0,1,0,3.6,3,3,0,0,1-1.18,1.17,3.49,3.49,0,0,1-1.69.4,3.59,3.59,0,0,1-1.71-.4,3.06,3.06,0,0,1-1.17-1.17,4,4,0,0,1,0-3.6,3,3,0,0,1,1.17-1.17A3.49,3.49,0,0,1,292.18,182.33Zm0,1a2.37,2.37,0,0,0-1.09.26,2.06,2.06,0,0,0-.81.82,2.74,2.74,0,0,0-.3,1.34,2.81,2.81,0,0,0,.3,1.35,2.07,2.07,0,0,0,.81.8,2.25,2.25,0,0,0,1.09.26,2.21,2.21,0,0,0,1.08-.26,2,2,0,0,0,.8-.8,2.7,2.7,0,0,0,.31-1.35,2.63,2.63,0,0,0-.31-1.34,2,2,0,0,0-.8-.82A2.33,2.33,0,0,0,292.18,183.29Zm8.21-1a2.46,2.46,0,0,1,1.86.75,2.93,2.93,0,0,1,.7,2.12V189h-1.09v-3.73a2.07,2.07,0,0,0-.5-1.51,1.78,1.78,0,0,0-1.37-.53,1.84,1.84,0,0,0-1.44.59,2.37,2.37,0,0,0-.54,1.69V189h-1.09v-6.59H298V184a2.26,2.26,0,0,1,.89-1.23A2.61,2.61,0,0,1,300.39,182.3Zm10.32,3a3.45,3.45,0,0,1,0,.6h-5.27a2.34,2.34,0,0,0,.64,1.69,2.1,2.1,0,0,0,1.49.57,2.2,2.2,0,0,0,1.32-.4,1.67,1.67,0,0,0,.66-1.08h1.16a2.79,2.79,0,0,1-1.61,2.06,3.54,3.54,0,0,1-1.49.3,3.42,3.42,0,0,1-1.68-.4,3,3,0,0,1-1.15-1.17,4.16,4.16,0,0,1,0-3.6,2.94,2.94,0,0,1,1.15-1.17,3.32,3.32,0,0,1,1.68-.41,3.21,3.21,0,0,1,1.67.41,2.66,2.66,0,0,1,1.09,1.09A3,3,0,0,1,310.71,185.34Zm-1.11.07a2.13,2.13,0,0,0-.24-1.22,1.7,1.7,0,0,0-.75-.73,2.31,2.31,0,0,0-1.05-.24,2.13,2.13,0,0,0-1.51.56,2.21,2.21,0,0,0-.66,1.63Z" fill="#969696"/><path d="M221.52,181.15l-6.44,6.63-2.59-2.66a.87.87,0,0,0-.62-.26.83.83,0,0,0-.61.26.89.89,0,0,0,0,1.26l3.21,3.3a.85.85,0,0,0,1.23,0l7-7.25a.9.9,0,0,0,0-1.27A.85.85,0,0,0,221.52,181.15Z" fill="#969696"/></svg>