<svg id="Layer_1" data-name="Layer 1" xmlns="http://www.w3.org/2000/svg" xmlns:xlink="http://www.w3.org/1999/xlink" viewBox="0 0 360 56"><defs><linearGradient id="linear-gradient" x1="540.34" y1="-125.79" x2="333.66" y2="-329.21" gradientTransform="matrix(1, 0, 0, -1, -257, -199.5)" gradientUnits="userSpaceOnUse"><stop offset="0" stop-color="#ec5f24"/><stop offset="1" stop-color="#f8995c"/></linearGradient></defs><rect width="360" height="56" fill="url(#linear-gradient)"/><path d="M327,25.5h1.59a1,1,0,0,1,.7,1.71L324.7,31.8a1,1,0,0,1-1.41,0l-4.59-4.59a1,1,0,0,1,.71-1.71H321v-5a1,1,0,0,1,1-1h4a1,1,0,0,1,1,1Zm-9,11a1,1,0,0,1,0-2h12a1,1,0,0,1,0,2Z" fill="#fff" fill-rule="evenodd"/><path d="M328,14h0a4,4,0,0,1,4,4h0a4,4,0,0,1-4,4h0a4,4,0,0,1-4-4h0A4,4,0,0,1,328,14Z" fill="#f8b219"/><path d="M65.84,30.3a4.15,4.15,0,0,1-1.35,2.84,5.06,5.06,0,0,1-5.51.38,4.36,4.36,0,0,1-1.6-1.84,6.6,6.6,0,0,1-.58-2.76V27.86A6.7,6.7,0,0,1,57.37,25,4.37,4.37,0,0,1,59,23.13a4.61,4.61,0,0,1,2.47-.66,4.41,4.41,0,0,1,3,1,4.29,4.29,0,0,1,1.34,2.89h-2a2.85,2.85,0,0,0-.72-1.76,2.67,2.67,0,0,0-3.67.4,4.73,4.73,0,0,0-.7,2.75v1a5,5,0,0,0,.66,2.81,2.19,2.19,0,0,0,1.94,1A2.53,2.53,0,0,0,63.12,32a2.72,2.72,0,0,0,.75-1.74Zm1.73-.6a5,5,0,0,1,.49-2.24,3.51,3.51,0,0,1,1.39-1.53,3.84,3.84,0,0,1,2-.54,3.71,3.71,0,0,1,2.78,1.1,4.36,4.36,0,0,1,1.15,2.92v.45A5,5,0,0,1,75,32.09a3.54,3.54,0,0,1-1.38,1.53,3.88,3.88,0,0,1-2.06.54A3.7,3.7,0,0,1,68.64,33a4.62,4.62,0,0,1-1.07-3.18Zm1.9.16A3.44,3.44,0,0,0,70,31.91a1.75,1.75,0,0,0,1.5.73A1.72,1.72,0,0,0,73,31.89a3.73,3.73,0,0,0,.54-2.19,3.36,3.36,0,0,0-.56-2,1.74,1.74,0,0,0-1.49-.75,1.72,1.72,0,0,0-1.47.75A3.62,3.62,0,0,0,69.47,29.86Zm9.85-4.31.06.88a3,3,0,0,1,2.43-1,2.32,2.32,0,0,1,2.32,1.3,3,3,0,0,1,2.6-1.3,2.62,2.62,0,0,1,2.07.77,3.41,3.41,0,0,1,.71,2.29V34h-1.9V28.5a1.7,1.7,0,0,0-.35-1.18,1.91,1.91,0,0,0-2.23,0,1.84,1.84,0,0,0-.57.9V34h-1.9V28.44A1.35,1.35,0,0,0,81.05,27a1.68,1.68,0,0,0-1.62.93V34h-1.9V25.55Zm20,4.31A5.06,5.06,0,0,1,98.47,33a2.84,2.84,0,0,1-2.39,1.17,2.88,2.88,0,0,1-2.23-.92v4H92V25.55H93.7l.08.86a2.79,2.79,0,0,1,2.27-1,2.88,2.88,0,0,1,2.43,1.16,5.11,5.11,0,0,1,.88,3.19Zm-1.89-.16a3.48,3.48,0,0,0-.51-2A1.61,1.61,0,0,0,95.52,27a1.75,1.75,0,0,0-1.67,1v3.75a1.78,1.78,0,0,0,1.69,1A1.62,1.62,0,0,0,97,31.91,3.82,3.82,0,0,0,97.47,29.7Zm6,4.3h-1.9V22h1.9Zm6.3.16A3.94,3.94,0,0,1,106.86,33a4.12,4.12,0,0,1-1.12-3v-.23a5,5,0,0,1,.49-2.26A3.7,3.7,0,0,1,107.6,26a3.64,3.64,0,0,1,2-.56,3.3,3.3,0,0,1,2.66,1.1,4.67,4.67,0,0,1,1,3.12v.77h-5.52a2.5,2.5,0,0,0,.69,1.65,2.1,2.1,0,0,0,1.55.61A2.56,2.56,0,0,0,112,31.59l1,1a3.46,3.46,0,0,1-1.36,1.18A4.24,4.24,0,0,1,109.79,34.16Zm-.23-7.25a1.61,1.61,0,0,0-1.26.55,2.86,2.86,0,0,0-.61,1.52h3.62v-.14a2.36,2.36,0,0,0-.51-1.43A1.59,1.59,0,0,0,109.56,26.91Zm8-3.42v2.06H119V27h-1.49v4.72a1.08,1.08,0,0,0,.19.71.91.91,0,0,0,.68.21,3.14,3.14,0,0,0,.67-.08V34a4.66,4.66,0,0,1-1.25.18c-1.46,0-2.19-.81-2.19-2.42V27h-1.39v-1.4h1.39V23.49Zm7.17,10.67A3.94,3.94,0,0,1,121.78,33a4.16,4.16,0,0,1-1.12-3v-.23a5.11,5.11,0,0,1,.49-2.26A3.7,3.7,0,0,1,122.52,26a3.64,3.64,0,0,1,2-.56,3.34,3.34,0,0,1,2.67,1.1,4.67,4.67,0,0,1,.94,3.12v.77h-5.52a2.6,2.6,0,0,0,.69,1.65,2.1,2.1,0,0,0,1.55.61,2.56,2.56,0,0,0,2.12-1.05l1,1a3.39,3.39,0,0,1-1.36,1.18A4.21,4.21,0,0,1,124.71,34.16Zm-.23-7.25a1.61,1.61,0,0,0-1.26.55,2.86,2.86,0,0,0-.61,1.52h3.62v-.14a2.3,2.3,0,0,0-.51-1.43A1.59,1.59,0,0,0,124.48,26.91Zm13,4.37,1.72-5.73h2l-3.36,9.73a2.73,2.73,0,0,1-2.63,2.13,3.15,3.15,0,0,1-.91-.14V35.8l.36,0a1.74,1.74,0,0,0,1.07-.27,1.65,1.65,0,0,0,.58-.87l.28-.73-3-8.41h2Zm4.86-1.58a5,5,0,0,1,.5-2.24,3.43,3.43,0,0,1,1.38-1.53,3.84,3.84,0,0,1,2-.54,3.7,3.7,0,0,1,2.78,1.1,4.31,4.31,0,0,1,1.15,2.92v.45a5,5,0,0,1-.48,2.23,3.54,3.54,0,0,1-1.38,1.53,3.88,3.88,0,0,1-2.06.54A3.7,3.7,0,0,1,143.45,33a4.62,4.62,0,0,1-1.07-3.18Zm1.9.16a3.44,3.44,0,0,0,.54,2.05,1.75,1.75,0,0,0,1.5.73,1.72,1.72,0,0,0,1.49-.75,3.73,3.73,0,0,0,.54-2.19,3.36,3.36,0,0,0-.55-2,1.77,1.77,0,0,0-1.5-.75,1.72,1.72,0,0,0-1.47.75A3.62,3.62,0,0,0,144.28,29.86Zm13.19,3.31a3,3,0,0,1-2.38,1,2.62,2.62,0,0,1-2.08-.81A3.42,3.42,0,0,1,152.3,31V25.55h1.9V31c0,1.07.45,1.61,1.34,1.61a1.89,1.89,0,0,0,1.87-1V25.55h1.89V34h-1.78Zm8.69-5.89a4.81,4.81,0,0,0-.77-.06,1.74,1.74,0,0,0-1.76,1V34h-1.9V25.55h1.82l0,.94a2.16,2.16,0,0,1,1.91-1.1,1.84,1.84,0,0,1,.67.11ZM181.56,34h-2V29h-5.08V34h-2V22.62h2v4.74h5.08V22.62h2Zm2.31-4.3a5,5,0,0,1,.49-2.24,3.55,3.55,0,0,1,1.38-1.53,3.9,3.9,0,0,1,2-.54,3.69,3.69,0,0,1,2.77,1.1,4.32,4.32,0,0,1,1.16,2.92v.45a4.88,4.88,0,0,1-.49,2.23,3.52,3.52,0,0,1-1.37,1.53,3.92,3.92,0,0,1-2.07.54A3.68,3.68,0,0,1,184.94,33a4.57,4.57,0,0,1-1.07-3.18Zm1.9.16a3.51,3.51,0,0,0,.53,2.05,1.75,1.75,0,0,0,1.5.73,1.73,1.73,0,0,0,1.5-.75,3.73,3.73,0,0,0,.54-2.19,3.36,3.36,0,0,0-.56-2,1.85,1.85,0,0,0-3,0A3.7,3.7,0,0,0,185.77,29.86Zm9.85-4.31,0,.88a3.07,3.07,0,0,1,2.44-1,2.33,2.33,0,0,1,2.32,1.3,3,3,0,0,1,2.59-1.3,2.63,2.63,0,0,1,2.08.77,3.41,3.41,0,0,1,.7,2.29V34h-1.89V28.5a1.65,1.65,0,0,0-.36-1.18,1.52,1.52,0,0,0-1.16-.37,1.54,1.54,0,0,0-1.06.35,1.84,1.84,0,0,0-.57.9V34h-1.9V28.44A1.36,1.36,0,0,0,197.34,27a1.65,1.65,0,0,0-1.61.93V34h-1.9V25.55ZM212,34.16A3.92,3.92,0,0,1,209.05,33a4.12,4.12,0,0,1-1.12-3v-.23a5.11,5.11,0,0,1,.48-2.26A3.72,3.72,0,0,1,209.79,26a3.62,3.62,0,0,1,2-.56,3.3,3.3,0,0,1,2.66,1.1,4.67,4.67,0,0,1,1,3.12v.77h-5.53a2.56,2.56,0,0,0,.7,1.65,2.1,2.1,0,0,0,1.55.61,2.57,2.57,0,0,0,2.12-1.05l1,1a3.36,3.36,0,0,1-1.35,1.18A4.24,4.24,0,0,1,212,34.16Zm-.23-7.25a1.65,1.65,0,0,0-1.27.55,2.85,2.85,0,0,0-.6,1.52h3.61v-.14a2.25,2.25,0,0,0-.51-1.43A1.55,1.55,0,0,0,211.75,26.91Zm13,4.47,1.35-5.83H228L225.66,34H224.1l-1.81-5.8L220.51,34H219l-2.32-8.45h1.85l1.37,5.77,1.74-5.77H223Zm4.61-1.68a5,5,0,0,1,.5-2.24,3.43,3.43,0,0,1,1.38-1.53,3.84,3.84,0,0,1,2-.54,3.7,3.7,0,0,1,2.78,1.1,4.31,4.31,0,0,1,1.15,2.92v.45a5,5,0,0,1-.48,2.23,3.54,3.54,0,0,1-1.38,1.53,3.88,3.88,0,0,1-2.06.54A3.7,3.7,0,0,1,230.45,33a4.62,4.62,0,0,1-1.07-3.18Zm1.9.16a3.44,3.44,0,0,0,.54,2.05,1.75,1.75,0,0,0,1.5.73,1.72,1.72,0,0,0,1.49-.75,3.73,3.73,0,0,0,.54-2.19,3.36,3.36,0,0,0-.55-2,1.77,1.77,0,0,0-1.5-.75,1.72,1.72,0,0,0-1.47.75A3.62,3.62,0,0,0,231.28,29.86Zm12.49-2.58a4.81,4.81,0,0,0-.77-.06,1.74,1.74,0,0,0-1.76,1V34h-1.9V25.55h1.82l0,.94a2.16,2.16,0,0,1,1.91-1.1,1.84,1.84,0,0,1,.67.11Zm4.45,3.1-.84.86V34h-1.9V22h1.9v6.92l.59-.74,2.33-2.63h2.29l-3.14,3.52L252.92,34h-2.19Z" fill="#fff"/><path d="M31.41,22.41,30,21l-6,6,6,6,1.41-1.41L26.83,27Z" fill="#fff" fill-opacity="0.87" fill-rule="evenodd"/></svg>