<svg id="Layer_1" data-name="Layer 1" xmlns="http://www.w3.org/2000/svg" xmlns:xlink="http://www.w3.org/1999/xlink" viewBox="0 0 360 56"><defs><linearGradient id="linear-gradient" x1="540.34" y1="-127.79" x2="333.66" y2="-331.21" gradientTransform="matrix(1, 0, 0, -1, -257, -201.5)" gradientUnits="userSpaceOnUse"><stop offset="0" stop-color="#ed5e1e"/><stop offset="1" stop-color="#ff9a5a"/></linearGradient></defs><rect width="360" height="56" fill="url(#linear-gradient)"/><path d="M327,25.5h1.59a1,1,0,0,1,.7,1.71L324.7,31.8a1,1,0,0,1-1.41,0l-4.59-4.59a1,1,0,0,1,.71-1.71H321v-5a1,1,0,0,1,1-1h4a1,1,0,0,1,1,1Zm-9,11a1,1,0,0,1,0-2h12a1,1,0,0,1,0,2Z" fill="#fff" fill-rule="evenodd"/><path d="M328,14h0a4,4,0,0,1,4,4h0a4,4,0,0,1-4,4h0a4,4,0,0,1-4-4h0A4,4,0,0,1,328,14Z" fill="#fab217"/><path d="M63.52,31.35h-4.4L58.2,34H56.14l4.3-11.38h1.77L66.52,34H64.45Zm-3.85-1.59H63L61.32,25Zm10.7-6.27v2.06h1.49V27H70.37v4.72a1.14,1.14,0,0,0,.18.71.92.92,0,0,0,.69.21,3.14,3.14,0,0,0,.67-.08V34a4.72,4.72,0,0,1-1.25.18c-1.46,0-2.19-.81-2.19-2.42V27H67.08v-1.4h1.39V23.49Zm5.83,0v2.06h1.49V27H76.2v4.72a1.14,1.14,0,0,0,.18.71.92.92,0,0,0,.69.21,3,3,0,0,0,.66-.08V34a4.61,4.61,0,0,1-1.25.18c-1.45,0-2.18-.81-2.18-2.42V27H72.91v-1.4H74.3V23.49Zm7.17,10.67A3.92,3.92,0,0,1,80.44,33a4.12,4.12,0,0,1-1.12-3v-.23a5.11,5.11,0,0,1,.48-2.26A3.72,3.72,0,0,1,81.18,26a3.62,3.62,0,0,1,2-.56,3.3,3.3,0,0,1,2.66,1.1,4.67,4.67,0,0,1,1,3.12v.77H81.23a2.56,2.56,0,0,0,.7,1.65,2.1,2.1,0,0,0,1.55.61,2.57,2.57,0,0,0,2.12-1.05l1,1a3.36,3.36,0,0,1-1.35,1.18A4.24,4.24,0,0,1,83.37,34.16Zm-.23-7.25a1.61,1.61,0,0,0-1.26.55A2.78,2.78,0,0,0,81.27,29h3.61v-.14a2.3,2.3,0,0,0-.5-1.43A1.59,1.59,0,0,0,83.14,26.91Zm7.36-1.36,0,1A3.07,3.07,0,0,1,93,25.39c1.76,0,2.65,1,2.68,3V34H93.8V28.52a1.67,1.67,0,0,0-.35-1.18A1.43,1.43,0,0,0,92.32,27a1.82,1.82,0,0,0-1.71,1v6h-1.9V25.55Zm7.29,4.16a5,5,0,0,1,.91-3.13,2.89,2.89,0,0,1,2.42-1.19,2.75,2.75,0,0,1,2.18.94V22h1.89V34h-1.71l-.1-.88a2.78,2.78,0,0,1-2.27,1A2.91,2.91,0,0,1,98.7,33,5.23,5.23,0,0,1,97.79,29.71Zm1.9.17a3.54,3.54,0,0,0,.49,2,1.61,1.61,0,0,0,1.41.72,1.8,1.8,0,0,0,1.71-1V28a1.76,1.76,0,0,0-1.69-1,1.61,1.61,0,0,0-1.42.73A3.85,3.85,0,0,0,99.69,29.88Zm14.63,2.54h5.16V34h-7.14V22.62h2Zm9,1.58h-1.9V25.55h1.9Zm-2-10.65a1,1,0,0,1,.27-.73,1.28,1.28,0,0,1,1.6,0,1,1,0,0,1,.28.73,1,1,0,0,1-.28.72,1.28,1.28,0,0,1-1.6,0A1,1,0,0,1,121.32,23.35Zm7.57,8.24,1.79-6h2L129.71,34h-1.65l-3-8.45h2ZM138,34.16A3.92,3.92,0,0,1,135,33a4.12,4.12,0,0,1-1.12-3v-.23a5.11,5.11,0,0,1,.48-2.26A3.72,3.72,0,0,1,135.76,26a3.62,3.62,0,0,1,2-.56,3.3,3.3,0,0,1,2.66,1.1,4.67,4.67,0,0,1,1,3.12v.77h-5.53a2.56,2.56,0,0,0,.7,1.65,2.08,2.08,0,0,0,1.54.61,2.59,2.59,0,0,0,2.13-1.05l1,1a3.33,3.33,0,0,1-1.36,1.18A4.17,4.17,0,0,1,138,34.16Zm-.23-7.25a1.65,1.65,0,0,0-1.27.55,2.86,2.86,0,0,0-.61,1.52h3.62v-.14a2.25,2.25,0,0,0-.51-1.43A1.57,1.57,0,0,0,137.72,26.91Zm18.94,3.39a4.1,4.1,0,0,1-1.34,2.84,5.07,5.07,0,0,1-5.52.38,4.41,4.41,0,0,1-1.59-1.84,6.75,6.75,0,0,1-.59-2.76V27.86A6.7,6.7,0,0,1,148.2,25a4.37,4.37,0,0,1,1.63-1.89,4.61,4.61,0,0,1,2.47-.66,4.41,4.41,0,0,1,3,1,4.28,4.28,0,0,1,1.33,2.89h-2a2.85,2.85,0,0,0-.72-1.76,2.67,2.67,0,0,0-3.67.4,4.66,4.66,0,0,0-.7,2.75v1a5,5,0,0,0,.66,2.81,2.18,2.18,0,0,0,1.93,1A2.54,2.54,0,0,0,154,32a2.77,2.77,0,0,0,.75-1.74Zm4.11,3.7h-1.89V22h1.89Zm7.63,0a2.88,2.88,0,0,1-.22-.79,3,3,0,0,1-2.22.95,3,3,0,0,1-2.08-.73,2.33,2.33,0,0,1-.8-1.8,2.39,2.39,0,0,1,1-2.07,4.89,4.89,0,0,1,2.87-.72h1.17v-.56a1.49,1.49,0,0,0-.37-1.05,1.47,1.47,0,0,0-1.12-.39,1.71,1.71,0,0,0-1.06.32,1,1,0,0,0-.41.82h-1.9a2.06,2.06,0,0,1,.46-1.29,3,3,0,0,1,1.25-1,4.58,4.58,0,0,1,1.77-.34,3.54,3.54,0,0,1,2.37.75,2.66,2.66,0,0,1,.91,2.09v3.82a4.24,4.24,0,0,0,.32,1.82V34Zm-2.09-1.37a2.17,2.17,0,0,0,1.06-.27,1.84,1.84,0,0,0,.75-.74V30h-1a2.73,2.73,0,0,0-1.58.37,1.17,1.17,0,0,0-.53,1,1.12,1.12,0,0,0,.36.87A1.39,1.39,0,0,0,166.31,32.63Zm10.93-.93a.86.86,0,0,0-.42-.77,4.5,4.5,0,0,0-1.38-.47,7.21,7.21,0,0,1-1.62-.51,2.16,2.16,0,0,1-1.42-2,2.26,2.26,0,0,1,.92-1.83,3.69,3.69,0,0,1,2.34-.73,3.79,3.79,0,0,1,2.45.75,2.4,2.4,0,0,1,.94,1.95h-1.9a1.16,1.16,0,0,0-.41-.91,1.52,1.52,0,0,0-1.08-.37,1.73,1.73,0,0,0-1,.29.91.91,0,0,0-.39.78.75.75,0,0,0,.37.67,4.85,4.85,0,0,0,1.48.5,6.59,6.59,0,0,1,1.75.58,2.51,2.51,0,0,1,1,.82,2,2,0,0,1,.31,1.15,2.21,2.21,0,0,1-1,1.85,4,4,0,0,1-2.47.71,4.34,4.34,0,0,1-1.85-.38,3,3,0,0,1-1.27-1,2.46,2.46,0,0,1-.45-1.41H174a1.4,1.4,0,0,0,.51,1,2,2,0,0,0,1.24.35,1.92,1.92,0,0,0,1.14-.28A.89.89,0,0,0,177.24,31.7Zm8.77,0a.86.86,0,0,0-.42-.77,4.48,4.48,0,0,0-1.39-.47,7.28,7.28,0,0,1-1.61-.51,2.17,2.17,0,0,1-1.43-2,2.25,2.25,0,0,1,.93-1.83,3.67,3.67,0,0,1,2.34-.73,3.79,3.79,0,0,1,2.45.75,2.39,2.39,0,0,1,.93,1.95h-1.9a1.16,1.16,0,0,0-.4-.91,1.52,1.52,0,0,0-1.08-.37,1.69,1.69,0,0,0-1,.29.91.91,0,0,0-.39.78.76.76,0,0,0,.36.67,4.94,4.94,0,0,0,1.49.5,6.72,6.72,0,0,1,1.75.58,2.47,2.47,0,0,1,.94.82,2,2,0,0,1,.32,1.15,2.21,2.21,0,0,1-.95,1.85,4.05,4.05,0,0,1-2.48.71,4.37,4.37,0,0,1-1.85-.38,3,3,0,0,1-1.26-1,2.4,2.4,0,0,1-.46-1.41h1.85a1.35,1.35,0,0,0,.5,1,2.08,2.08,0,0,0,1.25.35,1.92,1.92,0,0,0,1.14-.28A.89.89,0,0,0,186,31.7Z" fill="#fff"/><path d="M31.41,22.41,30,21l-6,6,6,6,1.41-1.41L26.83,27Z" fill="#fff" fill-opacity="0.87" fill-rule="evenodd"/></svg>