<svg id="Layer_1" data-name="Layer 1" xmlns="http://www.w3.org/2000/svg" viewBox="0 0 328 20"><path d="M265.31,0h52a10,10,0,0,1,10,10h0a10,10,0,0,1-10,10h-52a10,10,0,0,1-10-10h0A10,10,0,0,1,265.31,0Z" fill="#f68a4e"/><path d="M271.2,7.2l-4.83,5.13-1.95-2.07a.61.61,0,0,0-.46-.2.63.63,0,0,0-.46.2.73.73,0,0,0,0,1l2.41,2.56a.62.62,0,0,0,.92,0l5.29-5.62a.73.73,0,0,0,0-1A.62.62,0,0,0,271.2,7.2Z" fill="#fff"/><path d="M276.71,13.11a15,15,0,0,0,2.59-2.17,3.08,3.08,0,0,0,1-2A1.28,1.28,0,0,0,280,8.1a1,1,0,0,0-.85-.32,1.08,1.08,0,0,0-.92.4,1.93,1.93,0,0,0-.35,1.12h-1.11a2.66,2.66,0,0,1,.74-1.85,2.4,2.4,0,0,1,1.73-.64,2.23,2.23,0,0,1,1.61.55,1.94,1.94,0,0,1,.59,1.5,3,3,0,0,1-.48,1.56,6.3,6.3,0,0,1-1.2,1.46A10.5,10.5,0,0,1,278.26,13h3.35V14h-4.9Zm5.79-2.69a5,5,0,0,0,.6,2.65,2.19,2.19,0,0,0,2,.95,2.17,2.17,0,0,0,2-1,5,5,0,0,0,.6-2.64,4.89,4.89,0,0,0-.6-2.62,2.17,2.17,0,0,0-2-1,2.19,2.19,0,0,0-2,1A4.9,4.9,0,0,0,282.5,10.42Zm4.06,0a4.6,4.6,0,0,1-.3,1.87,1.15,1.15,0,0,1-1.16.65,1.17,1.17,0,0,1-1.17-.65,4.6,4.6,0,0,1-.3-1.87,4.5,4.5,0,0,1,.3-1.85,1.37,1.37,0,0,1,2.33,0A4.48,4.48,0,0,1,286.56,10.42Zm5.83.84V14h-1.14V6.94h2.4a2.56,2.56,0,0,1,1.83.58,2.09,2.09,0,0,1,.62,1.59,2,2,0,0,1-.63,1.58,2.63,2.63,0,0,1-1.82.57Zm1.14-.93c.94,0,1.41-.41,1.41-1.22a1.16,1.16,0,0,0-.34-.91,1.52,1.52,0,0,0-1.07-.32h-1.14v2.45Zm6.09-1.91a3,3,0,0,1,1.44.34,2.48,2.48,0,0,1,1,1,3,3,0,0,1,.36,1.5,3,3,0,0,1-.36,1.51,2.48,2.48,0,0,1-1,1,3,3,0,0,1-1.44.34,3,3,0,0,1-1.44-.34,2.48,2.48,0,0,1-1-1,3.07,3.07,0,0,1-.36-1.51,3,3,0,0,1,.36-1.5,2.48,2.48,0,0,1,1-1A3,3,0,0,1,299.62,8.42Zm0,1a1.68,1.68,0,0,0-.81.2,1.44,1.44,0,0,0-.6.62,2.07,2.07,0,0,0-.22,1,2.08,2.08,0,0,0,.22,1,1.47,1.47,0,0,0,.6.61,1.68,1.68,0,0,0,.81.2,1.73,1.73,0,0,0,.81-.2,1.51,1.51,0,0,0,.59-.61,2.08,2.08,0,0,0,.23-1,2.07,2.07,0,0,0-.23-1,1.48,1.48,0,0,0-.59-.62A1.73,1.73,0,0,0,299.62,9.41Zm3.73-2.52a.66.66,0,0,1,.2-.48.73.73,0,0,1,.53-.19.72.72,0,0,1,.53.19.63.63,0,0,1,.21.48.59.59,0,0,1-.21.47.76.76,0,0,1-.53.18.77.77,0,0,1-.53-.18A.62.62,0,0,1,303.35,6.89Zm1.3,1.6V14h-1.14V8.49Zm4.46-.09a2,2,0,0,1,1.54.62,2.47,2.47,0,0,1,.58,1.77V14h-1.14V10.91a1.57,1.57,0,0,0-.38-1.14,1.36,1.36,0,0,0-1-.41,1.45,1.45,0,0,0-1.09.44,1.79,1.79,0,0,0-.41,1.27V14H306V8.49h1.14V9.7a1.93,1.93,0,0,1,.74-1A2.13,2.13,0,0,1,309.11,8.4ZM315.34,13v1h-.7a1.91,1.91,0,0,1-1.34-.42,1.9,1.9,0,0,1-.45-1.42V9.46h-.79v-1h.79V7.12H314V8.49h1.33v1H314v2.72a.92.92,0,0,0,.17.65.85.85,0,0,0,.62.18Zm2.87-4.59a2.29,2.29,0,0,1,1.55.5,2,2,0,0,1,.72,1.32H319.4a1.08,1.08,0,0,0-.39-.72,1.16,1.16,0,0,0-.83-.28,1,1,0,0,0-.67.21.7.7,0,0,0-.23.55.57.57,0,0,0,.17.42,1.27,1.27,0,0,0,.42.25c.18.06.42.13.73.2a6.27,6.27,0,0,1,1,.29,1.57,1.57,0,0,1,.66.48,1.27,1.27,0,0,1,.28.88,1.36,1.36,0,0,1-.53,1.12,2.1,2.1,0,0,1-1.41.43,2.73,2.73,0,0,1-1.67-.48,2,2,0,0,1-.76-1.34h1.11a1.09,1.09,0,0,0,.4.73,1.42,1.42,0,0,0,.92.28.9.9,0,0,0,.64-.21.72.72,0,0,0,.24-.55.6.6,0,0,0-.18-.46,1.24,1.24,0,0,0-.45-.26,5.28,5.28,0,0,0-.74-.2,8.92,8.92,0,0,1-1-.28,1.56,1.56,0,0,1-.64-.45,1.34,1.34,0,0,1-.26-.86,1.41,1.41,0,0,1,.52-1.13A2.25,2.25,0,0,1,318.21,8.42Z" fill="#fff"/><path d="M56.31,2.5h28a7.5,7.5,0,0,1,7.5,7.5h0a7.5,7.5,0,0,1-7.5,7.5h-28a7.5,7.5,0,0,1-7.5-7.5h0A7.5,7.5,0,0,1,56.31,2.5Z" fill="#fff" stroke="#f5f5f5"/><circle cx="80.31" cy="10" r="4" fill="#f68a4e"/><path d="M56.43,7.61v-1h2V13H57.38V7.61ZM62.51,4.5,60.06,14.58h-1L61.51,4.5Zm.08,3.11v-1h2V13H63.54V7.61Z" fill="#f68a4e"/><path d="M5.09,8.18a2.16,2.16,0,0,1-.27,1.05A1.87,1.87,0,0,1,4,10a3,3,0,0,1-1.42.3H1.4V13H0V6H2.57A3.06,3.06,0,0,1,4,6.3a1.94,1.94,0,0,1,.85.77A2.19,2.19,0,0,1,5.09,8.18Zm-2.58,1a1.24,1.24,0,0,0,.86-.26,1,1,0,0,0,.28-.75q0-1-1.14-1H1.4v2Zm5-.87a2.1,2.1,0,0,1,.7-.69,2,2,0,0,1,1-.25V8.85H8.81a1.43,1.43,0,0,0-1,.31,1.45,1.45,0,0,0-.33,1.08V13H6.08V7.46h1.4Zm5.11,4.77a3,3,0,0,1-1.44-.35,2.58,2.58,0,0,1-1-1,3,3,0,0,1-.36-1.5,2.93,2.93,0,0,1,.37-1.5,2.54,2.54,0,0,1,1-1,2.91,2.91,0,0,1,1.45-.36,3,3,0,0,1,1.45.36,2.58,2.58,0,0,1,1,1,2.93,2.93,0,0,1,.38,1.5,2.84,2.84,0,0,1-.39,1.5,2.73,2.73,0,0,1-1,1A3.09,3.09,0,0,1,12.59,13.09Zm0-1.22a1.38,1.38,0,0,0,1.25-.74,1.93,1.93,0,0,0,.2-.9A1.63,1.63,0,0,0,13.62,9a1.34,1.34,0,0,0-1-.43,1.32,1.32,0,0,0-1,.43,1.67,1.67,0,0,0-.4,1.21,1.75,1.75,0,0,0,.39,1.22A1.31,1.31,0,0,0,12.59,11.87Zm6.08-4.5a2.22,2.22,0,0,1,1.09.25,1.92,1.92,0,0,1,.74.63V7.46h1.41V13a2.91,2.91,0,0,1-.31,1.37,2.16,2.16,0,0,1-.93,1,2.92,2.92,0,0,1-1.5.36,3.22,3.22,0,0,1-1.94-.55,2.07,2.07,0,0,1-.85-1.5h1.39a1.07,1.07,0,0,0,.47.6,1.71,1.71,0,0,0,.89.23,1.34,1.34,0,0,0,1-.37A1.43,1.43,0,0,0,20.5,13v-.86a2.08,2.08,0,0,1-.75.65,2.21,2.21,0,0,1-1.08.26,2.4,2.4,0,0,1-1.28-.36,2.65,2.65,0,0,1-.92-1,3.32,3.32,0,0,1-.33-1.51,3.24,3.24,0,0,1,.33-1.49,2.53,2.53,0,0,1,.91-1A2.5,2.5,0,0,1,18.67,7.37Zm1.83,2.86a1.7,1.7,0,0,0-.2-.87,1.33,1.33,0,0,0-.54-.56A1.43,1.43,0,0,0,19,8.6a1.39,1.39,0,0,0-.72.19,1.46,1.46,0,0,0-.54.56,1.79,1.79,0,0,0-.2.86,1.9,1.9,0,0,0,.2.88,1.49,1.49,0,0,0,.54.57,1.45,1.45,0,0,0,.72.2,1.42,1.42,0,0,0,.73-.19,1.39,1.39,0,0,0,.54-.56A1.76,1.76,0,0,0,20.5,10.23Zm4.18-1.91a2,2,0,0,1,.7-.69,2,2,0,0,1,1-.25V8.85H26a1.43,1.43,0,0,0-1,.31,1.45,1.45,0,0,0-.33,1.08V13h-1.4V7.46h1.4Zm7.79,1.79a3,3,0,0,1,0,.54H28.38a1.45,1.45,0,0,0,.42.94,1.29,1.29,0,0,0,.91.34,1.14,1.14,0,0,0,1.11-.67h1.51a2.54,2.54,0,0,1-.92,1.32,2.7,2.7,0,0,1-1.67.51,3,3,0,0,1-1.44-.35,2.6,2.6,0,0,1-1-1,3.13,3.13,0,0,1-.35-1.5,3.18,3.18,0,0,1,.35-1.51,2.48,2.48,0,0,1,1-1,3,3,0,0,1,1.45-.35,2.83,2.83,0,0,1,1.41.34,2.33,2.33,0,0,1,1,1A2.78,2.78,0,0,1,32.47,10.11ZM31,9.71a1.05,1.05,0,0,0-.39-.86,1.36,1.36,0,0,0-.93-.33,1.31,1.31,0,0,0-.88.32,1.44,1.44,0,0,0-.43.87Zm4.6,3.38a3,3,0,0,1-1.22-.24,2.24,2.24,0,0,1-.86-.67,1.68,1.68,0,0,1-.34-.93h1.41a.76.76,0,0,0,.31.53,1.09,1.09,0,0,0,.69.21,1,1,0,0,0,.62-.16.49.49,0,0,0,.23-.41.44.44,0,0,0-.28-.4,5.19,5.19,0,0,0-.87-.3,6.69,6.69,0,0,1-1-.31,1.82,1.82,0,0,1-.68-.49A1.32,1.32,0,0,1,33.33,9a1.39,1.39,0,0,1,.26-.84,1.85,1.85,0,0,1,.76-.6,2.81,2.81,0,0,1,1.17-.22,2.39,2.39,0,0,1,1.58.5,1.84,1.84,0,0,1,.65,1.33H36.41a.73.73,0,0,0-.28-.52,1,1,0,0,0-.65-.2,1.07,1.07,0,0,0-.59.14.43.43,0,0,0-.2.39.46.46,0,0,0,.28.43,4.54,4.54,0,0,0,.87.29,6.93,6.93,0,0,1,1,.31,1.71,1.71,0,0,1,.67.5,1.35,1.35,0,0,1,.3.88,1.44,1.44,0,0,1-.27.86,1.85,1.85,0,0,1-.76.6A2.91,2.91,0,0,1,35.62,13.09Zm5.45,0a3,3,0,0,1-1.22-.24,2.24,2.24,0,0,1-.86-.67,1.68,1.68,0,0,1-.34-.93h1.41a.76.76,0,0,0,.31.53,1.09,1.09,0,0,0,.69.21,1,1,0,0,0,.62-.16.49.49,0,0,0,.23-.41.44.44,0,0,0-.28-.4,5.19,5.19,0,0,0-.87-.3,6.69,6.69,0,0,1-1-.31,1.82,1.82,0,0,1-.68-.49A1.32,1.32,0,0,1,38.78,9,1.39,1.39,0,0,1,39,8.19a1.85,1.85,0,0,1,.76-.6A2.81,2.81,0,0,1,41,7.37a2.39,2.39,0,0,1,1.58.5A1.84,1.84,0,0,1,43.2,9.2H41.86a.73.73,0,0,0-.28-.52,1,1,0,0,0-.65-.2,1.07,1.07,0,0,0-.59.14.43.43,0,0,0-.2.39.46.46,0,0,0,.28.43,4.54,4.54,0,0,0,.87.29,6.93,6.93,0,0,1,1,.31,1.71,1.71,0,0,1,.67.5,1.35,1.35,0,0,1,.3.88,1.44,1.44,0,0,1-.27.86,1.85,1.85,0,0,1-.76.6A2.91,2.91,0,0,1,41.07,13.09Z" fill="#969696"/></svg>