<svg id="Layer_1" data-name="Layer 1" xmlns="http://www.w3.org/2000/svg" xmlns:xlink="http://www.w3.org/1999/xlink" viewBox="0 0 360 56"><defs><linearGradient id="linear-gradient" x1="540.34" y1="-125.79" x2="333.66" y2="-329.21" gradientTransform="matrix(1, 0, 0, -1, -257, -199.5)" gradientUnits="userSpaceOnUse"><stop offset="0" stop-color="#ec5f24"/><stop offset="1" stop-color="#f8995c"/></linearGradient></defs><rect width="360" height="56" fill="url(#linear-gradient)"/><path d="M327,25.5h1.59a1,1,0,0,1,.7,1.71L324.7,31.8a1,1,0,0,1-1.41,0l-4.59-4.59a1,1,0,0,1,.71-1.71H321v-5a1,1,0,0,1,1-1h4a1,1,0,0,1,1,1Zm-9,11a1,1,0,0,1,0-2h12a1,1,0,0,1,0,2Z" fill="#fff" fill-rule="evenodd"/><path d="M328,14h0a4,4,0,0,1,4,4h0a4,4,0,0,1-4,4h0a4,4,0,0,1-4-4h0A4,4,0,0,1,328,14Z" fill="#f8b219"/><path d="M62.92,31H58.84l-.7,2H56.48L60,23.26h1.85L65.3,33H63.62Zm-.45-1.3-1.58-4.52-1.6,4.52Zm6.7-3.12v4.27a.86.86,0,0,0,.2.63,1.07,1.07,0,0,0,.7.18h1V33H69.79a2.45,2.45,0,0,1-1.65-.5,2.11,2.11,0,0,1-.58-1.64V26.59h-.91v-1.3h.91V23.37h1.61v1.92h1.88v1.3Zm5.71,0v4.27a.86.86,0,0,0,.2.63,1.07,1.07,0,0,0,.7.18h1V33H75.5a2.45,2.45,0,0,1-1.65-.5,2.07,2.07,0,0,1-.58-1.64V26.59h-.91v-1.3h.91V23.37h1.61v1.92h1.88v1.3ZM85.8,29a4.79,4.79,0,0,1-.06.79H79.85a2.13,2.13,0,0,0,2.2,2,1.87,1.87,0,0,0,1.82-1.08h1.72a3.47,3.47,0,0,1-1.27,1.75,3.73,3.73,0,0,1-2.27.68,4.1,4.1,0,0,1-2-.49,3.68,3.68,0,0,1-1.37-1.4,4.34,4.34,0,0,1-.49-2.1,4.47,4.47,0,0,1,.47-2.09A3.46,3.46,0,0,1,80,25.65a4.06,4.06,0,0,1,2-.49,3.88,3.88,0,0,1,1.94.48A3.24,3.24,0,0,1,85.32,27,4,4,0,0,1,85.8,29Zm-1.67-.5A1.8,1.8,0,0,0,83.5,27,2.23,2.23,0,0,0,82,26.5a2,2,0,0,0-1.42.54,2.17,2.17,0,0,0-.7,1.41Zm13.08-3.29a3.4,3.4,0,0,1,1.62.38A2.62,2.62,0,0,1,100,26.66a3.56,3.56,0,0,1,.42,1.79V33H98.8V28.69a2.22,2.22,0,0,0-.51-1.58,1.82,1.82,0,0,0-1.42-.56,1.88,1.88,0,0,0-1.43.56,2.22,2.22,0,0,0-.51,1.58V33H93.34V28.69a2.22,2.22,0,0,0-.51-1.58,1.82,1.82,0,0,0-1.42-.56,1.88,1.88,0,0,0-1.43.56,2.22,2.22,0,0,0-.51,1.58V33h-1.6V25.29h1.6v.88a2.53,2.53,0,0,1,1-.74,3.11,3.11,0,0,1,1.29-.27,3.44,3.44,0,0,1,1.65.39,2.62,2.62,0,0,1,1.12,1.14,2.54,2.54,0,0,1,1.09-1.11A3.21,3.21,0,0,1,97.21,25.16Zm7.3,1.26a3.36,3.36,0,0,1,2.69-1.26,3.53,3.53,0,0,1,1.84.5,3.45,3.45,0,0,1,1.31,1.39,4.29,4.29,0,0,1,.48,2.06,4.43,4.43,0,0,1-.48,2.08A3.56,3.56,0,0,1,109,32.62a3.63,3.63,0,0,1-3.41.16,3.89,3.89,0,0,1-1.12-.9v4.79h-1.59V25.29h1.59Zm4.69,2.69a2.7,2.7,0,0,0-.33-1.37,2.2,2.2,0,0,0-.87-.89,2.32,2.32,0,0,0-1.15-.3,2.38,2.38,0,0,0-1.15.3,2.51,2.51,0,0,0-.87.9,2.88,2.88,0,0,0-.32,1.39,3,3,0,0,0,.32,1.4,2.4,2.4,0,0,0,.87.89,2.28,2.28,0,0,0,1.15.31,2.23,2.23,0,0,0,1.15-.31,2.34,2.34,0,0,0,.87-.92A2.87,2.87,0,0,0,109.2,29.11Zm5.57-2.52v4.27a.86.86,0,0,0,.19.63,1.09,1.09,0,0,0,.7.18h1V33h-1.26a2.46,2.46,0,0,1-1.65-.5,2.1,2.1,0,0,1-.57-1.64V26.59h-.91v-1.3h.91V23.37h1.61v1.92h1.87v1.3Zm15.51,8.17-1.71-1.84a5,5,0,0,1-1.38.18,5.14,5.14,0,0,1-2.51-.63,4.8,4.8,0,0,1-1.8-1.78,5.08,5.08,0,0,1-.66-2.58,5,5,0,0,1,.66-2.56,4.75,4.75,0,0,1,1.8-1.76,5.17,5.17,0,0,1,5,0,4.68,4.68,0,0,1,1.8,1.76,5,5,0,0,1,.66,2.56,5.09,5.09,0,0,1-.59,2.44A4.59,4.59,0,0,1,130,32.29l2.33,2.47Zm-6.42-6.65a4.16,4.16,0,0,0,.42,1.91,3.14,3.14,0,0,0,1.19,1.26,3.66,3.66,0,0,0,3.44,0A3.12,3.12,0,0,0,130.09,30a4,4,0,0,0,.43-1.91,4,4,0,0,0-.43-1.89A3,3,0,0,0,128.91,25a3.58,3.58,0,0,0-3.44,0,3,3,0,0,0-1.19,1.24A4.11,4.11,0,0,0,123.86,28.11Zm17.4-2.82V33h-1.6v-.91a2.62,2.62,0,0,1-1,.76,3.3,3.3,0,0,1-1.29.26,3.42,3.42,0,0,1-1.64-.38,2.71,2.71,0,0,1-1.13-1.12,3.67,3.67,0,0,1-.41-1.79V25.29h1.58v4.29a2.3,2.3,0,0,0,.52,1.6,2.1,2.1,0,0,0,2.83,0,2.25,2.25,0,0,0,.53-1.6V25.29Zm3.42-1A1,1,0,0,1,144,24a1,1,0,1,1,1.44,0A1,1,0,0,1,144.68,24.26Zm.78,1V33h-1.6V25.29Zm4,6.41H153V33h-5.35V31.7l3.51-5.11h-3.51v-1.3H153v1.3Z" fill="#fff"/><path d="M31.41,22.41,30,21l-6,6,6,6,1.41-1.41L26.83,27Z" fill="#fff" fill-opacity="0.87" fill-rule="evenodd"/></svg>