<svg id="Layer_1" data-name="Layer 1" xmlns="http://www.w3.org/2000/svg" xmlns:xlink="http://www.w3.org/1999/xlink" viewBox="0 0 328 100"><defs><linearGradient id="linear-gradient" x1="298.58" y1="-230.57" x2="298.58" y2="-178.43" gradientTransform="matrix(1, 0, 0, -1, -257, -155.5)" gradientUnits="userSpaceOnUse"><stop offset="0" stop-color="#f9a15c"/><stop offset="1" stop-color="#ed9f2b"/></linearGradient><clipPath id="clip-path"><rect x="46.48" y="45.9" width="13.79" height="13.79" fill="none"/></clipPath><clipPath id="clip-path-2"><rect x="24" y="45.9" width="13.79" height="13.79" fill="none"/></clipPath><clipPath id="clip-path-3"><rect x="28.97" y="33.48" width="26.07" height="26.07" fill="none"/></clipPath></defs><rect width="328" height="100" fill="#fff"/><line x1="148.13" y1="56.68" x2="148.13" y2="78.68" fill="none" stroke="#000" stroke-opacity="0.6" stroke-width="0.26"/><path d="M83.14,57.8V56.21h3v8.47H84.42V57.8Zm10.71-.27h-4v2.14a1.83,1.83,0,0,1,.75-.52,2.92,2.92,0,0,1,1.08-.2,2.58,2.58,0,0,1,1.45.38,2.24,2.24,0,0,1,.87,1,3.32,3.32,0,0,1,.29,1.39,3,3,0,0,1-.77,2.17,2.79,2.79,0,0,1-2.17.82,3.82,3.82,0,0,1-1.61-.32,2.7,2.7,0,0,1-1.07-.93,2.68,2.68,0,0,1-.42-1.39h1.65a1.45,1.45,0,0,0,.44.86,1.32,1.32,0,0,0,.92.32,1.26,1.26,0,0,0,1-.42,1.78,1.78,0,0,0,.34-1.14,1.45,1.45,0,0,0-.36-1.05,1.35,1.35,0,0,0-1-.37,1.4,1.4,0,0,0-.81.22,1.21,1.21,0,0,0-.5.55H88.29V56h5.56Zm6-4.21L96.59,66.86H95l3.25-13.54Zm.24,4.48V56.21h3v8.47h-1.78V57.8Zm10.7-.27h-4v2.14a1.94,1.94,0,0,1,.76-.52,2.92,2.92,0,0,1,1.08-.2,2.6,2.6,0,0,1,1.45.38,2.31,2.31,0,0,1,.87,1,3.32,3.32,0,0,1,.28,1.39,3,3,0,0,1-.77,2.17,2.78,2.78,0,0,1-2.17.82,3.85,3.85,0,0,1-1.61-.32,2.6,2.6,0,0,1-1.48-2.32h1.64a1.51,1.51,0,0,0,.44.86,1.35,1.35,0,0,0,.93.32,1.24,1.24,0,0,0,1-.42,1.78,1.78,0,0,0,.35-1.14,1.45,1.45,0,0,0-.36-1.05,1.35,1.35,0,0,0-1-.37,1.46,1.46,0,0,0-.82.22,1.19,1.19,0,0,0-.49.55h-1.64V56h5.55Z" fill="#202020"/><path d="M87.94,76a1.78,1.78,0,0,1-.24.9,1.69,1.69,0,0,1-.72.65,2.45,2.45,0,0,1-1.16.25,3.07,3.07,0,0,1-1.21-.23,2.08,2.08,0,0,1-.85-.66,2,2,0,0,1-.36-1h1.35a1.09,1.09,0,0,0,.3.65,1,1,0,0,0,.71.25.82.82,0,0,0,.61-.21.75.75,0,0,0,.21-.55.64.64,0,0,0-.17-.48,1.16,1.16,0,0,0-.43-.32,6.37,6.37,0,0,0-.72-.27,6.46,6.46,0,0,1-1-.39,1.93,1.93,0,0,1-.65-.56,1.61,1.61,0,0,1-.26-1A1.55,1.55,0,0,1,84,71.72a2.83,2.83,0,0,1,3.17,0A1.84,1.84,0,0,1,87.82,73H86.45a1,1,0,0,0-.29-.56.89.89,0,0,0-.64-.22.84.84,0,0,0-.57.19.66.66,0,0,0-.21.53.69.69,0,0,0,.16.47,1.17,1.17,0,0,0,.42.29c.18.08.41.17.7.27a7.42,7.42,0,0,1,1,.4,1.8,1.8,0,0,1,.66.57A1.66,1.66,0,0,1,87.94,76Zm3.31-3.31a2.44,2.44,0,0,1,1.6.52,2.29,2.29,0,0,1,.81,1.42H92.32A1.06,1.06,0,0,0,92,74a1.11,1.11,0,0,0-.73-.24,1.09,1.09,0,0,0-.84.38A1.55,1.55,0,0,0,90,75.19a1.58,1.58,0,0,0,.34,1.1,1.08,1.08,0,0,0,.84.37,1.16,1.16,0,0,0,.73-.23,1.06,1.06,0,0,0,.37-.63h1.34a2.32,2.32,0,0,1-.81,1.43,2.5,2.5,0,0,1-1.6.52,2.63,2.63,0,0,1-1.3-.31,2.22,2.22,0,0,1-.88-.89,3.05,3.05,0,0,1,0-2.72,2.16,2.16,0,0,1,.88-.89A2.74,2.74,0,0,1,91.25,72.64Zm5.75,0a2.77,2.77,0,0,1,1.3.3,2.25,2.25,0,0,1,.92.89,3,3,0,0,1,0,2.72,2.32,2.32,0,0,1-.92.89,2.66,2.66,0,0,1-1.3.31,2.74,2.74,0,0,1-1.32-.31,2.43,2.43,0,0,1-.91-.89,3,3,0,0,1,0-2.72,2.36,2.36,0,0,1,.91-.89A2.85,2.85,0,0,1,97,72.64Zm0,1.09a1.2,1.2,0,0,0-.9.38,1.78,1.78,0,0,0,0,2.17,1.19,1.19,0,0,0,.9.37,1.22,1.22,0,0,0,.9-.37,1.78,1.78,0,0,0,0-2.17A1.23,1.23,0,0,0,97,73.73Zm4.85-.08a2,2,0,0,1,.74-.74,1.89,1.89,0,0,1,1-.28V74h-.36c-.93,0-1.4.43-1.4,1.29v2.4h-1.27v-5h1.27ZM109.14,75a2.37,2.37,0,0,1,0,.43h-3.65a1.36,1.36,0,0,0,.36,1,1.28,1.28,0,0,0,1.55.09.9.9,0,0,0,.38-.58h1.34a2.06,2.06,0,0,1-.42.94,2.24,2.24,0,0,1-.84.64,2.56,2.56,0,0,1-1.12.24,2.63,2.63,0,0,1-1.3-.31,2.22,2.22,0,0,1-.88-.89,3.05,3.05,0,0,1,0-2.72,2.16,2.16,0,0,1,.88-.89,2.74,2.74,0,0,1,1.3-.3,2.6,2.6,0,0,1,1.28.3,2.13,2.13,0,0,1,.86.85A2.42,2.42,0,0,1,109.14,75Zm-1.28-.12a1.09,1.09,0,0,0-.33-.93,1.19,1.19,0,0,0-.84-.32,1.2,1.2,0,0,0-1.25,1.25Z" fill="#262626" fill-opacity="0.87"/><path d="M174.44,63.35c2.72-1.88,4.07-3.44,4.07-4.68a1.37,1.37,0,0,0-.27-.89,1,1,0,0,0-.84-.32q-1.2,0-1.26,1.62h-1.65a3.14,3.14,0,0,1,.91-2.27,3,3,0,0,1,2.13-.78,2.71,2.71,0,0,1,2,.69,2.35,2.35,0,0,1,.71,1.8,3.51,3.51,0,0,1-.53,1.78A7,7,0,0,1,178.39,62a10.74,10.74,0,0,1-1.69,1.28h3.71v1.38h-6Zm13.24-5.82h-4v2.14a1.94,1.94,0,0,1,.76-.52,2.92,2.92,0,0,1,1.08-.2,2.6,2.6,0,0,1,1.45.38,2.31,2.31,0,0,1,.87,1,3.32,3.32,0,0,1,.28,1.39,3,3,0,0,1-.76,2.17,2.81,2.81,0,0,1-2.18.82,3.85,3.85,0,0,1-1.61-.32,2.6,2.6,0,0,1-1.48-2.32h1.64a1.45,1.45,0,0,0,.44.86,1.36,1.36,0,0,0,.93.32,1.24,1.24,0,0,0,1-.42,1.78,1.78,0,0,0,.35-1.14,1.45,1.45,0,0,0-.36-1.05,1.35,1.35,0,0,0-1-.37,1.46,1.46,0,0,0-.82.22,1.24,1.24,0,0,0-.49.55h-1.64V56h5.55ZM194,59.7v1.41h-5.1V59.7Zm8.06,2.67a2.31,2.31,0,0,1-.33,1.2,2.27,2.27,0,0,1-1,.87,3.32,3.32,0,0,1-1.55.33,4.07,4.07,0,0,1-1.6-.3,2.82,2.82,0,0,1-1.14-.89,2.55,2.55,0,0,1-.48-1.34h1.8a1.37,1.37,0,0,0,.41.86,1.32,1.32,0,0,0,.94.34,1.14,1.14,0,0,0,.81-.28,1,1,0,0,0,.29-.73.94.94,0,0,0-.23-.65,1.63,1.63,0,0,0-.58-.42q-.35-.15-1-.36a9.75,9.75,0,0,1-1.29-.52,2.39,2.39,0,0,1-.87-.75,2.21,2.21,0,0,1-.35-1.29,2.07,2.07,0,0,1,.78-1.71,3.22,3.22,0,0,1,2.09-.64,3.29,3.29,0,0,1,2.14.65,2.45,2.45,0,0,1,.91,1.73h-1.83a1.21,1.21,0,0,0-.38-.75,1.18,1.18,0,0,0-.85-.3,1.13,1.13,0,0,0-.76.26.86.86,0,0,0-.29.7A1,1,0,0,0,198,59a1.76,1.76,0,0,0,.56.39,9.87,9.87,0,0,0,.94.35,10.35,10.35,0,0,1,1.32.54,2.36,2.36,0,0,1,.88.76A2.2,2.2,0,0,1,202.05,62.37Zm7.76-1.26a3.07,3.07,0,0,1-.06.57h-4.87a1.83,1.83,0,0,0,.47,1.31,1.57,1.57,0,0,0,1.11.42,1.51,1.51,0,0,0,1-.29,1.22,1.22,0,0,0,.5-.78h1.79a2.84,2.84,0,0,1-.56,1.25,3,3,0,0,1-1.12.87,3.8,3.8,0,0,1-3.22-.1,2.94,2.94,0,0,1-1.18-1.19,4.11,4.11,0,0,1,0-3.62,2.82,2.82,0,0,1,1.18-1.19,3.58,3.58,0,0,1,1.72-.41,3.5,3.5,0,0,1,1.72.41,2.82,2.82,0,0,1,1.14,1.13A3.2,3.2,0,0,1,209.81,61.11Zm-1.71-.17a1.48,1.48,0,0,0-.43-1.24,1.6,1.6,0,0,0-1.13-.42,1.66,1.66,0,0,0-1.15.42,1.73,1.73,0,0,0-.51,1.24Zm7.14-3a2.91,2.91,0,0,1,1.52.41,2.76,2.76,0,0,1,1,1.19,4.06,4.06,0,0,1,.38,1.81,4.14,4.14,0,0,1-.38,1.82,2.73,2.73,0,0,1-1,1.18,2.91,2.91,0,0,1-1.52.41,2.51,2.51,0,0,1-1.44-.4,2.25,2.25,0,0,1-.84-1.08v4.56h-1.69V58H213v1.38a2.18,2.18,0,0,1,.84-1.07A2.51,2.51,0,0,1,215.24,58Zm-.53,1.48a1.66,1.66,0,0,0-1.27.53,2,2,0,0,0-.49,1.4,2,2,0,0,0,.49,1.4,1.69,1.69,0,0,0,1.27.52,1.71,1.71,0,0,0,1.28-.5,2.34,2.34,0,0,0,0-2.84A1.68,1.68,0,0,0,214.71,59.43Z" fill="#202020"/><path d="M177.45,71.58a3.15,3.15,0,0,1,2,.61,2.88,2.88,0,0,1,1,1.67h-1.33a1.73,1.73,0,0,0-.65-.81,1.77,1.77,0,0,0-1-.3,1.75,1.75,0,0,0-.91.25,1.71,1.71,0,0,0-.63.72,2.54,2.54,0,0,0-.23,1.1,2.47,2.47,0,0,0,.23,1.09,1.71,1.71,0,0,0,.63.72,1.66,1.66,0,0,0,.91.25,1.77,1.77,0,0,0,1-.29,1.73,1.73,0,0,0,.65-.81h1.33a2.86,2.86,0,0,1-1,1.66,3.09,3.09,0,0,1-2,.61,3.13,3.13,0,0,1-1.61-.4,2.78,2.78,0,0,1-1.08-1.15,3.9,3.9,0,0,1,0-3.36A2.7,2.7,0,0,1,175.84,72,3,3,0,0,1,177.45,71.58ZM183.84,73a2.7,2.7,0,0,1,1.31.31,2.17,2.17,0,0,1,.91.89,2.89,2.89,0,0,1,0,2.72,2.29,2.29,0,0,1-.91.89,3,3,0,0,1-2.62,0,2.29,2.29,0,0,1-.91-.89,2.89,2.89,0,0,1,0-2.72,2.17,2.17,0,0,1,.91-.89A2.7,2.7,0,0,1,183.84,73Zm0,1.1a1.23,1.23,0,0,0-.9.38,1.43,1.43,0,0,0-.37,1.08,1.5,1.5,0,0,0,.37,1.09,1.31,1.31,0,0,0,1.8,0,1.5,1.5,0,0,0,.37-1.09,1.43,1.43,0,0,0-.37-1.08A1.23,1.23,0,0,0,183.84,74.05Zm9.93-1.11a1.84,1.84,0,0,1,1.43.57,2.23,2.23,0,0,1,.53,1.59V78h-1.26V75.25a1.23,1.23,0,0,0-.3-.89,1,1,0,0,0-.8-.31,1.11,1.11,0,0,0-.84.33,1.37,1.37,0,0,0-.32,1V78H191V75.25a1.23,1.23,0,0,0-.3-.89,1,1,0,0,0-.8-.31,1.11,1.11,0,0,0-.84.33,1.37,1.37,0,0,0-.32,1V78h-1.27V73h1.27V74a1.58,1.58,0,0,1,.62-.75,1.85,1.85,0,0,1,1-.27,1.92,1.92,0,0,1,1.05.29,1.74,1.74,0,0,1,.67.83,1.9,1.9,0,0,1,.7-.81A1.79,1.79,0,0,1,193.77,72.94ZM200,73a2.09,2.09,0,0,1,1.13.31,2,2,0,0,1,.78.89,2.9,2.9,0,0,1,.29,1.36,3,3,0,0,1-.29,1.37,2,2,0,0,1-.78.88,2.17,2.17,0,0,1-1.13.3,2,2,0,0,1-1.08-.29,1.67,1.67,0,0,1-.63-.81v3.42H197V73h1.27v1a1.56,1.56,0,0,1,.63-.8A1.9,1.9,0,0,1,200,73Zm-.4,1.11a1.27,1.27,0,0,0-.95.39,1.69,1.69,0,0,0,0,2.11,1.27,1.27,0,0,0,.95.39,1.25,1.25,0,0,0,.95-.38,1.5,1.5,0,0,0,.36-1.06,1.52,1.52,0,0,0-.36-1.07A1.25,1.25,0,0,0,199.56,74.06Zm4.9-2.72V78h-1.27V71.34Zm6,4a2.47,2.47,0,0,1-.05.43h-3.65a1.4,1.4,0,0,0,.36,1,1.16,1.16,0,0,0,.83.32,1.24,1.24,0,0,0,.73-.22,1,1,0,0,0,.37-.58h1.35a2.2,2.2,0,0,1-.43.93,2.11,2.11,0,0,1-.84.65,2.55,2.55,0,0,1-1.12.23,2.74,2.74,0,0,1-1.3-.3,2.28,2.28,0,0,1-.88-.89,3.14,3.14,0,0,1,0-2.72,2.16,2.16,0,0,1,.88-.89A2.63,2.63,0,0,1,208,73a2.57,2.57,0,0,1,1.29.31,2.08,2.08,0,0,1,.85.84A2.36,2.36,0,0,1,210.43,75.32Zm-1.28-.13a1.12,1.12,0,0,0-.32-.93A1.25,1.25,0,0,0,208,74a1.28,1.28,0,0,0-.86.31,1.26,1.26,0,0,0-.39.93Zm5,1.72V78h-.66a1.91,1.91,0,0,1-1.29-.4,1.79,1.79,0,0,1-.44-1.35V74.08H211V73h.69V71.78H213V73h1.12v1.07H213v2.18a.76.76,0,0,0,.14.51.72.72,0,0,0,.49.14Zm5.74-1.59a2.47,2.47,0,0,1-.05.43h-3.65a1.4,1.4,0,0,0,.36,1,1.16,1.16,0,0,0,.83.32,1.19,1.19,0,0,0,.72-.22.92.92,0,0,0,.38-.58h1.34a2.07,2.07,0,0,1-.42.93,2.19,2.19,0,0,1-.84.65,2.55,2.55,0,0,1-1.12.23,2.74,2.74,0,0,1-1.3-.3,2.28,2.28,0,0,1-.88-.89,3.14,3.14,0,0,1,0-2.72,2.16,2.16,0,0,1,.88-.89,2.63,2.63,0,0,1,1.3-.31,2.57,2.57,0,0,1,1.29.31,2.08,2.08,0,0,1,.85.84A2.36,2.36,0,0,1,219.86,75.32Zm-1.28-.13a1.12,1.12,0,0,0-.32-.93,1.27,1.27,0,0,0-.85-.31,1.32,1.32,0,0,0-.87.31,1.29,1.29,0,0,0-.38.93ZM222.84,73a1.85,1.85,0,0,1,1.07.3,1.65,1.65,0,0,1,.65.8V71.34h1.26V78h-1.26V77a1.77,1.77,0,0,1-.65.81,1.92,1.92,0,0,1-1.07.29,2.15,2.15,0,0,1-1.13-.3,2.11,2.11,0,0,1-.79-.88,3.1,3.1,0,0,1-.28-1.37,3,3,0,0,1,.28-1.36,2,2,0,0,1,.79-.89A2.06,2.06,0,0,1,222.84,73Zm.4,1.11a1.27,1.27,0,0,0-1,.38,1.52,1.52,0,0,0-.36,1.07,1.5,1.5,0,0,0,.36,1.06,1.27,1.27,0,0,0,1,.38,1.23,1.23,0,0,0,.94-.39,1.65,1.65,0,0,0,0-2.11A1.23,1.23,0,0,0,223.24,74.06ZM231.5,73a2.66,2.66,0,0,1,1.3.31,2.19,2.19,0,0,1,.92.89,3,3,0,0,1,0,2.72,2.32,2.32,0,0,1-.92.89,2.77,2.77,0,0,1-1.3.3,2.85,2.85,0,0,1-1.32-.3,2.43,2.43,0,0,1-.91-.89,3,3,0,0,1,0-2.72,2.29,2.29,0,0,1,.91-.89A2.74,2.74,0,0,1,231.5,73Zm0,1.1a1.2,1.2,0,0,0-.9.38,1.43,1.43,0,0,0-.37,1.08,1.5,1.5,0,0,0,.37,1.09,1.22,1.22,0,0,0,.9.36,1.25,1.25,0,0,0,.9-.36,1.54,1.54,0,0,0,.37-1.09,1.47,1.47,0,0,0-.37-1.08A1.23,1.23,0,0,0,231.5,74.05Zm6.55-1.11a1.76,1.76,0,0,1,1.38.57,2.3,2.3,0,0,1,.51,1.59V78h-1.26V75.25a1.29,1.29,0,0,0-.3-.92,1.25,1.25,0,0,0-1.71,0,1.45,1.45,0,0,0-.32,1V78h-1.27V73h1.27v1a1.6,1.6,0,0,1,.65-.78A1.92,1.92,0,0,1,238.05,72.94Z" fill="#262626" fill-opacity="0.87"/><path d="M90,24.12v1.56H85.87v2.65H89.2v1.51H85.87V34h-2V24.12Zm3.3,3.61a3.2,3.2,0,0,1,1.15-1.16,3,3,0,0,1,1.6-.44v2.12H95.5c-1.44,0-2.17.67-2.17,2V34h-2V26.24h2Zm6.88-1.58a3,3,0,0,1,1.68.46,2.46,2.46,0,0,1,1,1.24V26.24h2V34h-2V32.38a2.55,2.55,0,0,1-1,1.26,3.06,3.06,0,0,1-1.68.46,3.36,3.36,0,0,1-1.77-.48,3.29,3.29,0,0,1-1.23-1.37,4.91,4.91,0,0,1-.43-2.13A4.79,4.79,0,0,1,97.21,28a3.28,3.28,0,0,1,1.23-1.39A3.35,3.35,0,0,1,100.21,26.15Zm.61,1.72a1.93,1.93,0,0,0-1.48.6,2.71,2.71,0,0,0,0,3.3,2.13,2.13,0,0,0,3,0,2.57,2.57,0,0,0,0-3.28A1.91,1.91,0,0,0,100.82,27.87Zm9.3-1.72a3.8,3.8,0,0,1,2.49.81,3.55,3.55,0,0,1,1.26,2.21h-2.09a1.58,1.58,0,0,0-.57-1,1.76,1.76,0,0,0-1.13-.36,1.7,1.7,0,0,0-1.32.59,2.48,2.48,0,0,0-.52,1.69,2.53,2.53,0,0,0,.52,1.71,1.72,1.72,0,0,0,1.32.57,1.75,1.75,0,0,0,1.13-.35,1.61,1.61,0,0,0,.57-1h2.09a3.58,3.58,0,0,1-1.26,2.22,3.8,3.8,0,0,1-2.49.81,4.16,4.16,0,0,1-2-.48,3.43,3.43,0,0,1-1.37-1.38,4.81,4.81,0,0,1,0-4.23,3.34,3.34,0,0,1,1.37-1.39A4.16,4.16,0,0,1,110.12,26.15Zm9.3,6.16V34h-1a2.89,2.89,0,0,1-2-.63,2.73,2.73,0,0,1-.69-2.1V27.91h-1.07V26.24h1.07V24.33h2v1.91h1.73v1.67h-1.73V31.3a1.09,1.09,0,0,0,.22.78,1,1,0,0,0,.76.23ZM120.61,24a1,1,0,0,1,.34-.77,1.23,1.23,0,0,1,.88-.31,1.21,1.21,0,0,1,.88.31,1,1,0,0,1,.34.77,1,1,0,0,1-.34.77,1.3,1.3,0,0,1-.88.29,1.31,1.31,0,0,1-.88-.29A1,1,0,0,1,120.61,24Zm2.2,2.22V34h-2V26.24Zm5.37-.09a4.22,4.22,0,0,1,2,.47A3.48,3.48,0,0,1,131.64,28a4.56,4.56,0,0,1,0,4.23,3.58,3.58,0,0,1-1.43,1.38,4.23,4.23,0,0,1-2,.48,4.3,4.3,0,0,1-2-.48,3.62,3.62,0,0,1-1.42-1.38,4.64,4.64,0,0,1,0-4.23,3.52,3.52,0,0,1,1.42-1.39A4.29,4.29,0,0,1,128.18,26.15Zm0,1.7a1.89,1.89,0,0,0-1.4.59,2.28,2.28,0,0,0-.57,1.68,2.36,2.36,0,0,0,.57,1.7,2,2,0,0,0,2.8,0,2.36,2.36,0,0,0,.57-1.7,2.28,2.28,0,0,0-.57-1.68A1.89,1.89,0,0,0,128.18,27.85Zm10-1.72a2.76,2.76,0,0,1,2.14.88,3.54,3.54,0,0,1,.8,2.48V34h-2V29.72a2,2,0,0,0-.47-1.43,1.67,1.67,0,0,0-1.31-.52,1.72,1.72,0,0,0-1.34.55,2.18,2.18,0,0,0-.5,1.56V34h-2V26.24h2V27.8a2.46,2.46,0,0,1,1-1.22A3,3,0,0,1,138.17,26.13Zm7.35,0a3.39,3.39,0,0,1,2.27.71,3.09,3.09,0,0,1,1.06,1.9H147a1.56,1.56,0,0,0-.51-.89,1.48,1.48,0,0,0-1-.34,1.16,1.16,0,0,0-.78.24.79.79,0,0,0-.28.64.65.65,0,0,0,.22.52,1.59,1.59,0,0,0,.56.31l1,.27a9,9,0,0,1,1.43.42,2.2,2.2,0,0,1,1,.68,1.85,1.85,0,0,1,.4,1.26,2,2,0,0,1-.78,1.61,3.25,3.25,0,0,1-2.09.62,4,4,0,0,1-2.42-.67,2.92,2.92,0,0,1-1.11-1.95h1.9a1.27,1.27,0,0,0,.5.91,1.89,1.89,0,0,0,1.13.32,1.09,1.09,0,0,0,.77-.24.82.82,0,0,0,.27-.64.71.71,0,0,0-.24-.55,1.57,1.57,0,0,0-.57-.32c-.23-.07-.55-.16-1-.26a11.8,11.8,0,0,1-1.41-.4,2.41,2.41,0,0,1-.93-.65,1.87,1.87,0,0,1-.38-1.24,2,2,0,0,1,.78-1.63A3.25,3.25,0,0,1,145.52,26.15Zm11,0a3,3,0,0,1,1.68.46,2.46,2.46,0,0,1,1,1.24V26.24h2V34h-2V32.38a2.55,2.55,0,0,1-1,1.26,3.06,3.06,0,0,1-1.68.46,3.3,3.3,0,0,1-1.76-.48,3.24,3.24,0,0,1-1.24-1.37,5.06,5.06,0,0,1-.43-2.13,4.93,4.93,0,0,1,.43-2.11,3.24,3.24,0,0,1,1.24-1.39A3.29,3.29,0,0,1,156.51,26.15Zm.62,1.72a2,2,0,0,0-1.49.6,2.71,2.71,0,0,0,0,3.3,1.94,1.94,0,0,0,1.49.59,2,2,0,0,0,1.47-.6,2.61,2.61,0,0,0,0-3.28A1.94,1.94,0,0,0,157.13,27.87Zm10.42-1.74a2.8,2.8,0,0,1,2.15.88,3.59,3.59,0,0,1,.79,2.48V34h-2V29.72a2,2,0,0,0-.47-1.43,1.67,1.67,0,0,0-1.3-.52,1.74,1.74,0,0,0-1.35.55,2.18,2.18,0,0,0-.5,1.56V34h-2V26.24h2V27.8a2.46,2.46,0,0,1,1-1.22A3,3,0,0,1,167.55,26.13Zm7.72,0a2.87,2.87,0,0,1,1.66.46,2.56,2.56,0,0,1,1,1.24V23.64h2V34h-2V32.38a2.65,2.65,0,0,1-1,1.26,3,3,0,0,1-1.66.46,3.36,3.36,0,0,1-1.77-.48,3.29,3.29,0,0,1-1.23-1.37,4.91,4.91,0,0,1-.43-2.13,4.79,4.79,0,0,1,.43-2.11,3.28,3.28,0,0,1,1.23-1.39A3.35,3.35,0,0,1,175.27,26.15Zm.61,1.72a1.93,1.93,0,0,0-1.48.6,2.71,2.71,0,0,0,0,3.3,2.13,2.13,0,0,0,2.95,0,2.57,2.57,0,0,0,0-3.28A1.91,1.91,0,0,0,175.88,27.87ZM193.43,29a5.27,5.27,0,0,1-.61,2.59A4.32,4.32,0,0,1,191,33.38a5.88,5.88,0,0,1-2.78.62h-3.51V24.12h3.51a5.88,5.88,0,0,1,2.78.61,4.19,4.19,0,0,1,1.79,1.72A5.25,5.25,0,0,1,193.43,29Zm-5.34,3.2a3.4,3.4,0,0,0,2.46-.84,3.1,3.1,0,0,0,.88-2.36,3.1,3.1,0,0,0-.88-2.36,3.4,3.4,0,0,0-2.46-.84h-1.38v6.4Zm14.12-2.41a4.49,4.49,0,0,1-.07.67h-5.69A2.19,2.19,0,0,0,197,32a2,2,0,0,0,2.42.15,1.45,1.45,0,0,0,.59-.91h2.09a3.29,3.29,0,0,1-.66,1.46,3.41,3.41,0,0,1-1.3,1,4,4,0,0,1-1.75.37,4.16,4.16,0,0,1-2-.48A3.43,3.43,0,0,1,195,32.24,4.81,4.81,0,0,1,195,28a3.34,3.34,0,0,1,1.37-1.39,4.16,4.16,0,0,1,2-.47,4,4,0,0,1,2,.47,3.31,3.31,0,0,1,1.33,1.32A3.69,3.69,0,0,1,202.21,29.83Zm-2-.2a1.71,1.71,0,0,0-.51-1.44,1.84,1.84,0,0,0-1.31-.49,2,2,0,0,0-1.35.49,2,2,0,0,0-.6,1.44Zm6.87-3.48a3.85,3.85,0,0,1,2.5.81,3.55,3.55,0,0,1,1.26,2.21h-2.09a1.59,1.59,0,0,0-.58-1,1.72,1.72,0,0,0-1.13-.36,1.7,1.7,0,0,0-1.31.59,2.43,2.43,0,0,0-.52,1.69,2.48,2.48,0,0,0,.52,1.71,1.88,1.88,0,0,0,2.44.22,1.62,1.62,0,0,0,.58-1h2.09a3.58,3.58,0,0,1-1.26,2.22,3.85,3.85,0,0,1-2.5.81,4.12,4.12,0,0,1-2-.48,3.37,3.37,0,0,1-1.37-1.38,4.72,4.72,0,0,1,0-4.23,3.28,3.28,0,0,1,1.37-1.39A4.12,4.12,0,0,1,207.09,26.15ZM212,24a1,1,0,0,1,.34-.77,1.23,1.23,0,0,1,.88-.31,1.21,1.21,0,0,1,.88.31,1,1,0,0,1,.34.77,1,1,0,0,1-.34.77,1.3,1.3,0,0,1-.88.29,1.31,1.31,0,0,1-.88-.29A1,1,0,0,1,212,24Zm2.2,2.22V34h-2V26.24Zm11.66-.11a2.89,2.89,0,0,1,2.22.88,3.47,3.47,0,0,1,.83,2.48V34h-2V29.72a1.9,1.9,0,0,0-.46-1.38,1.64,1.64,0,0,0-1.25-.49,1.72,1.72,0,0,0-1.31.52,2.11,2.11,0,0,0-.49,1.51V34h-2V29.72a1.9,1.9,0,0,0-.46-1.38,1.6,1.6,0,0,0-1.24-.49,1.76,1.76,0,0,0-1.32.52,2.16,2.16,0,0,0-.49,1.51V34h-2V26.24h2v1.47a2.41,2.41,0,0,1,1-1.16,3.11,3.11,0,0,1,3.17,0,2.77,2.77,0,0,1,1.06,1.29,2.93,2.93,0,0,1,2.7-1.74Zm7.82,0a3,3,0,0,1,1.68.46,2.54,2.54,0,0,1,1,1.24V26.24h2V34h-2V32.38a2.63,2.63,0,0,1-1,1.26,3.06,3.06,0,0,1-1.68.46,3.3,3.3,0,0,1-1.76-.48,3.16,3.16,0,0,1-1.23-1.37,4.91,4.91,0,0,1-.44-2.13,4.79,4.79,0,0,1,.44-2.11,3.16,3.16,0,0,1,1.23-1.39A3.29,3.29,0,0,1,233.7,26.15Zm.62,1.72a2,2,0,0,0-1.49.6,2.71,2.71,0,0,0,0,3.3,1.94,1.94,0,0,0,1.49.59,2,2,0,0,0,1.47-.6,2.57,2.57,0,0,0,0-3.28A1.94,1.94,0,0,0,234.32,27.87Zm7.78-4.23V34h-2V23.64Zm4.46,2.51a3.41,3.41,0,0,1,2.27.71,3.09,3.09,0,0,1,1.06,1.9H248a1.5,1.5,0,0,0-.5-.89,1.48,1.48,0,0,0-1-.34,1.18,1.18,0,0,0-.79.24.82.82,0,0,0-.28.64.65.65,0,0,0,.23.52,1.51,1.51,0,0,0,.56.31l1,.27a8.73,8.73,0,0,1,1.43.42,2.2,2.2,0,0,1,1,.68,1.85,1.85,0,0,1,.41,1.26,1.94,1.94,0,0,1-.79,1.61,3.22,3.22,0,0,1-2.08.62,4,4,0,0,1-2.42-.67,2.88,2.88,0,0,1-1.11-1.95h1.89a1.34,1.34,0,0,0,.5.91,1.9,1.9,0,0,0,1.14.32,1.13,1.13,0,0,0,.77-.24.82.82,0,0,0,.26-.64.7.7,0,0,0-.23-.55,1.54,1.54,0,0,0-.58-.32c-.22-.07-.54-.16-1-.26a12.62,12.62,0,0,1-1.42-.4,2.46,2.46,0,0,1-.92-.65,1.87,1.87,0,0,1-.38-1.24,2,2,0,0,1,.77-1.63A3.26,3.26,0,0,1,246.56,26.15Z" fill="#202020"/><path d="M17,58l-5,2h8Z" fill="#988989"/><path d="M66,58l5,2H63Z" fill="#988989"/><path d="M39.55,23.19a2.77,2.77,0,0,1,4.06,0l.17.18a2.78,2.78,0,0,0,3.42.52l.22-.13A2.78,2.78,0,0,1,51.3,25l.11.23a2.8,2.8,0,0,0,3.12,1.5l.24-.06a2.78,2.78,0,0,1,3.36,2.29l0,.25a2.77,2.77,0,0,0,2.53,2.35l.25,0a2.77,2.77,0,0,1,2.53,3.18l0,.24a2.77,2.77,0,0,0,1.72,3l.24.09a2.77,2.77,0,0,1,1.48,3.78l-.11.23a2.78,2.78,0,0,0,.77,3.37l.2.15a2.78,2.78,0,0,1,.3,4.06l-.17.18a2.79,2.79,0,0,0-.26,3.45l.14.2a2.78,2.78,0,0,1-.9,4l-.22.12a2.77,2.77,0,0,0-1.26,3.22l.07.24a2.77,2.77,0,0,1-2,3.52l-.24,0A2.78,2.78,0,0,0,61,67.3v.25a2.77,2.77,0,0,1-3,2.76l-.25,0a2.77,2.77,0,0,0-2.85,1.95l-.08.24a2.77,2.77,0,0,1-3.66,1.76L51,74.15a2.77,2.77,0,0,0-3.3,1l-.14.21a2.77,2.77,0,0,1-4,.6l-.2-.15a2.77,2.77,0,0,0-3.46,0l-.19.15a2.77,2.77,0,0,1-4-.6l-.14-.21a2.78,2.78,0,0,0-3.31-1l-.23.09a2.77,2.77,0,0,1-3.66-1.76l-.07-.24a2.79,2.79,0,0,0-2.86-1.95l-.25,0a2.77,2.77,0,0,1-3-2.76V67.3A2.77,2.77,0,0,0,20,64.59l-.25,0a2.77,2.77,0,0,1-2-3.52l.07-.24a2.77,2.77,0,0,0-1.26-3.22l-.22-.12a2.78,2.78,0,0,1-.9-4l.14-.2a2.77,2.77,0,0,0-.26-3.45l-.17-.18a2.77,2.77,0,0,1,.31-4.06l.19-.15a2.78,2.78,0,0,0,.77-3.37l-.11-.23a2.77,2.77,0,0,1,1.49-3.78L18,38a2.79,2.79,0,0,0,1.73-3l0-.24a2.77,2.77,0,0,1,2.53-3.18l.25,0A2.78,2.78,0,0,0,25,29.17l0-.25a2.77,2.77,0,0,1,3.35-2.29l.25.06a2.78,2.78,0,0,0,3.11-1.5l.11-.23a2.78,2.78,0,0,1,3.88-1.2l.22.13a2.78,2.78,0,0,0,3.42-.52Z" fill="url(#linear-gradient)"/><circle cx="41.55" cy="49.66" r="21.5" fill="#fff"/><g clip-path="url(#clip-path)"><path d="M51.85,52.55a.06.06,0,0,1,.06-.06h3.56a.06.06,0,0,1,.06.06V59a.06.06,0,0,1-.1,0l-1.71-1.12h-.07l-1.71,1.12a.06.06,0,0,1-.09,0Z" fill="#3162ae"/><circle cx="53.38" cy="51.07" r="4.6" fill="#608bc7"/><path d="M53.38,48.77l.51,1.59h1.68l-1.36,1,.52,1.59-1.35-1-1.35,1,.51-1.59-1.35-1h1.67Z" fill="#fff"/></g><g clip-path="url(#clip-path-2)"><path d="M29.36,52.55a.06.06,0,0,1,.06-.06H33a.06.06,0,0,1,.06.06V59a.06.06,0,0,1-.09,0l-1.71-1.12h-.07l-1.71,1.12a.06.06,0,0,1-.1,0Z" fill="#3162ae"/><circle cx="30.9" cy="51.07" r="4.6" fill="#608bc7"/><path d="M30.9,48.77l.51,1.59h1.67l-1.35,1,.52,1.59L30.9,52l-1.36,1,.52-1.59-1.35-1h1.67Z" fill="#fff"/></g><g clip-path="url(#clip-path-3)"><path d="M49,39.74H35.64V34.19H49Z" fill="#2050a3"/><path d="M30.92,36.91l6.63,11.48,4.81-2.78L35.64,34.19Z" fill="#3470b8"/><path d="M31.9,36.35l6.63,11.48,3-1.72L34.83,34.66Z" fill="#5291cd"/><path d="M53.67,36.91,47,48.39l-4.81-2.78L49,34.19Z" fill="#3470b8"/><path d="M52.68,36.35,46.06,47.83l-3-1.72,6.69-11.45Z" fill="#5291cd"/><circle cx="42.28" cy="51.14" r="7.34" fill="#ffd24a"/><circle cx="42.28" cy="51.14" r="5.94" fill="#ffd24a" stroke="#f0b946" stroke-width="0.35"/><path d="M42.33,47.82l.8,2.48h2.6l-2.1,1.53.8,2.48-2.1-1.54-2.11,1.54.8-2.48-2.1-1.53h2.6Z" fill="#f0b946"/></g><path d="M12,60H71l-3,6.5L71,73H12l3-6.5Z" fill="#f5b44e"/><path d="M45,60H12l3,6.5L12,73H39Z" fill="#e1aa42" opacity="0.7" style="isolation:isolate"/><path d="M23.93,63.65a2.61,2.61,0,0,1,1.61.48,2.11,2.11,0,0,1,.81,1.29H25.24a1.2,1.2,0,0,0-.5-.57,1.39,1.39,0,0,0-.8-.22,1.55,1.55,0,0,0-.81.21,1.46,1.46,0,0,0-.55.6,2,2,0,0,0-.19.91,1.78,1.78,0,0,0,.44,1.3,1.62,1.62,0,0,0,1.22.46,1.51,1.51,0,0,0,1-.33,1.6,1.6,0,0,0,.53-.94H23.77v-.76h2.67v1a2.44,2.44,0,0,1-1.29,1.68,2.6,2.6,0,0,1-1.21.26,2.82,2.82,0,0,1-1.38-.33,2.43,2.43,0,0,1-.92-1,3.11,3.11,0,0,1,0-2.79,2.43,2.43,0,0,1,.92-1A2.68,2.68,0,0,1,23.93,63.65Zm5,1.14a2.28,2.28,0,0,1,1.09.26,1.81,1.81,0,0,1,.76.74,2.44,2.44,0,0,1,0,2.27,1.93,1.93,0,0,1-.76.74,2.28,2.28,0,0,1-1.09.25,2.3,2.3,0,0,1-1.09-.25,1.93,1.93,0,0,1-.76-.74,2.44,2.44,0,0,1,0-2.27,1.81,1.81,0,0,1,.76-.74A2.31,2.31,0,0,1,28.93,64.79Zm0,.92a1,1,0,0,0-.75.31,1.48,1.48,0,0,0,0,1.81,1,1,0,0,0,.75.31,1,1,0,0,0,.75-.31,1.48,1.48,0,0,0,0-1.81A1,1,0,0,0,28.93,65.71Zm3.71-2.26V69H31.58V63.45ZM35,64.79a1.58,1.58,0,0,1,.89.25,1.42,1.42,0,0,1,.54.67V63.45h1V69h-1v-.87a1.45,1.45,0,0,1-.54.68,1.58,1.58,0,0,1-.89.24,1.71,1.71,0,0,1-1.6-1,2.8,2.8,0,0,1,0-2.27,1.71,1.71,0,0,1,.66-.74A1.77,1.77,0,0,1,35,64.79Zm.33.92a1,1,0,0,0-.79.33,1.24,1.24,0,0,0-.3.88,1.26,1.26,0,0,0,.3.89,1,1,0,0,0,.79.31,1.07,1.07,0,0,0,.79-.32,1.4,1.4,0,0,0,0-1.76A1,1,0,0,0,35.33,65.71Zm10-1.95V69h-1V65.35L42.94,69H42l-1.35-3.64V69H39.62V63.76h1.29L42.5,67.7l1.56-3.94Zm4.64,3a2.38,2.38,0,0,1,0,.36h-3a1.17,1.17,0,0,0,.3.82,1,1,0,0,0,.69.27,1,1,0,0,0,.61-.18.83.83,0,0,0,.31-.49h1.12a1.73,1.73,0,0,1-.35.78,1.81,1.81,0,0,1-.7.54,2.19,2.19,0,0,1-.94.19,2.26,2.26,0,0,1-1.08-.25,1.86,1.86,0,0,1-.73-.74,2.61,2.61,0,0,1,0-2.27,1.74,1.74,0,0,1,.73-.74,2.27,2.27,0,0,1,1.08-.26,2.21,2.21,0,0,1,1.08.26,1.77,1.77,0,0,1,.71.7A2,2,0,0,1,50,66.76Zm-1.06-.1a1,1,0,0,0-.27-.77,1,1,0,0,0-.71-.27,1,1,0,0,0-.72.27,1.08,1.08,0,0,0-.32.77Zm3.22-1.87A1.6,1.6,0,0,1,53,65a1.42,1.42,0,0,1,.54.67V63.45h1V69h-1v-.87a1.45,1.45,0,0,1-.54.68,1.6,1.6,0,0,1-.89.24,1.8,1.8,0,0,1-1-.25,1.76,1.76,0,0,1-.66-.74,2.92,2.92,0,0,1,0-2.27,1.71,1.71,0,0,1,.66-.74A1.81,1.81,0,0,1,52.13,64.79Zm.33.92a1,1,0,0,0-.8.33,1.24,1.24,0,0,0-.3.88,1.26,1.26,0,0,0,.3.89,1.05,1.05,0,0,0,.8.31,1,1,0,0,0,.78-.32,1.37,1.37,0,0,0,0-1.76A1,1,0,0,0,52.46,65.71ZM57,64.79a1.64,1.64,0,0,1,.9.25,1.34,1.34,0,0,1,.53.67v-.86h1.05V69H58.4v-.87a1.37,1.37,0,0,1-.53.68,1.63,1.63,0,0,1-.9.24A1.8,1.8,0,0,1,56,68.8a1.76,1.76,0,0,1-.66-.74,2.92,2.92,0,0,1,0-2.27,1.71,1.71,0,0,1,.66-.74A1.81,1.81,0,0,1,57,64.79Zm.33.92a1,1,0,0,0-.8.33,1.24,1.24,0,0,0-.3.88,1.26,1.26,0,0,0,.3.89,1.05,1.05,0,0,0,.8.31,1.07,1.07,0,0,0,.79-.32,1.4,1.4,0,0,0,0-1.76A1,1,0,0,0,57.3,65.71Zm3.94-2.26V69H60.18V63.45Z" fill="#fff"/><circle cx="300" cy="50" r="12" fill="#f68a4e"/><path d="M298,44l-1.41,1.41L301.19,50l-4.58,4.59L298,56l6-6Z" fill="#fff"/></svg>