<?xml version="1.0" encoding="utf-8"?>
<!-- Generator: Adobe Illustrator 24.1.2, SVG Export Plug-In . SVG Version: 6.00 Build 0)  -->
<svg version="1.1" id="Layer_1" xmlns="http://www.w3.org/2000/svg" xmlns:xlink="http://www.w3.org/1999/xlink" x="0px" y="0px"
	 width="105px" height="124px" viewBox="0 0 105 124" style="enable-background:new 0 0 105 124;" xml:space="preserve">
<style type="text/css">
	.st0{fill:#FFFFFF;}
	.st1{fill:#FEF9F8;}
	.st2{fill:#B4B4B5;}
	.st3{fill:#C4C4C4;filter:url(#Adobe_OpacityMaskFilter);}
	.st4{mask:url(#mask0_1_);}
	.st5{fill-rule:evenodd;clip-rule:evenodd;fill:#939598;}
	.st6{fill:#F16623;}
</style>
<g>
	<g>
		<path class="st0" d="M2,0h101c1.1,0,2,0.9,2,2v120c0,1.1-0.9,2-2,2H2c-1.1,0-2-0.9-2-2V2C0,0.9,0.9,0,2,0z"/>
	</g>
	<path class="st1" d="M103,124L0,2v74.2V121c0,1.7,1.3,3,3,3H103z"/>
	<path class="st2" d="M41.7,85.5h3.1v1.2h-4.6v-7.1h1.5V85.5z M49.9,83.6h-2.8v1.9h3.3v1.2h-4.8v-7.1h4.8v1.2h-3.3v1.7h2.8V83.6z
		 M55.3,85.2h-2.6l-0.5,1.5h-1.6l2.6-7.1h1.4l2.7,7.1h-1.6L55.3,85.2z M53.1,84h1.8L54,81.3L53.1,84z M58,86.6v-7.1h2.2
		c0.6,0,1.2,0.1,1.7,0.4c0.5,0.3,0.9,0.7,1.2,1.2c0.3,0.5,0.4,1.1,0.4,1.8v0.3c0,0.7-0.1,1.2-0.4,1.8c-0.3,0.5-0.7,0.9-1.1,1.2
		c-0.5,0.3-1.1,0.4-1.7,0.4H58z M59.5,80.7v4.7h0.7c0.6,0,1-0.2,1.3-0.6c0.3-0.4,0.5-0.9,0.5-1.6v-0.4c0-0.7-0.1-1.3-0.4-1.6
		c-0.3-0.4-0.7-0.6-1.3-0.6H59.5z M24.3,96.8c0-0.3-0.1-0.5-0.3-0.6c-0.2-0.1-0.5-0.3-1.1-0.5c-0.5-0.2-0.9-0.3-1.2-0.5
		c-0.8-0.4-1.2-1-1.2-1.8c0-0.4,0.1-0.7,0.3-1c0.2-0.3,0.5-0.5,0.9-0.7c0.4-0.2,0.9-0.3,1.4-0.3c0.5,0,1,0.1,1.4,0.3
		c0.4,0.2,0.7,0.4,0.9,0.8c0.2,0.3,0.3,0.7,0.3,1.1h-1.5c0-0.3-0.1-0.6-0.3-0.8c-0.2-0.2-0.5-0.3-0.9-0.3c-0.4,0-0.6,0.1-0.8,0.2
		C22.1,93,22,93.2,22,93.4c0,0.2,0.1,0.4,0.3,0.6c0.2,0.2,0.6,0.3,1,0.4c0.8,0.3,1.4,0.6,1.8,0.9c0.4,0.4,0.6,0.8,0.6,1.4
		c0,0.6-0.2,1.1-0.7,1.5c-0.5,0.3-1.1,0.5-1.9,0.5c-0.5,0-1-0.1-1.5-0.3c-0.4-0.2-0.8-0.5-1-0.8c-0.2-0.3-0.4-0.8-0.4-1.2h1.5
		c0,0.8,0.5,1.2,1.4,1.2c0.3,0,0.6-0.1,0.8-0.2C24.2,97.2,24.3,97,24.3,96.8z M32.1,92.7H30v5.9h-1.5v-5.9h-2.1v-1.2h5.8V92.7z
		 M38.4,91.5v4.7c0,0.8-0.2,1.4-0.7,1.8c-0.5,0.5-1.1,0.7-2,0.7c-0.8,0-1.5-0.2-2-0.7c-0.5-0.4-0.7-1-0.7-1.8v-4.7h1.5v4.7
		c0,0.5,0.1,0.8,0.3,1c0.2,0.2,0.5,0.3,0.9,0.3c0.8,0,1.2-0.4,1.3-1.3v-4.7H38.4z M39.6,98.6v-7.1h2.2c0.6,0,1.2,0.1,1.7,0.4
		c0.5,0.3,0.9,0.7,1.2,1.2c0.3,0.5,0.4,1.1,0.4,1.8v0.3c0,0.7-0.1,1.2-0.4,1.8c-0.3,0.5-0.7,0.9-1.1,1.2c-0.5,0.3-1.1,0.4-1.7,0.4
		H39.6z M41,92.7v4.7h0.7c0.6,0,1-0.2,1.3-0.6c0.3-0.4,0.5-0.9,0.5-1.6v-0.4c0-0.7-0.1-1.3-0.4-1.6c-0.3-0.4-0.7-0.6-1.3-0.6H41z
		 M50.3,95.6h-2.8v1.9h3.3v1.2h-4.8v-7.1h4.8v1.2h-3.3v1.7h2.8V95.6z M57.5,98.6H56L53.2,94v4.7h-1.5v-7.1h1.5l2.9,4.7v-4.7h1.5
		V98.6z M64,92.7h-2.2v5.9h-1.5v-5.9h-2.1v-1.2H64V92.7z M71,97.2h-2.6l-0.5,1.5h-1.6l2.6-7.1h1.4l2.7,7.1h-1.6L71,97.2z M68.8,96
		h1.8l-0.9-2.7L68.8,96z M75.2,96.1v2.5h-1.5v-7.1h2.8c0.5,0,1,0.1,1.4,0.3c0.4,0.2,0.7,0.5,0.9,0.8c0.2,0.4,0.3,0.8,0.3,1.2
		c0,0.7-0.2,1.2-0.7,1.7c-0.5,0.4-1.1,0.6-2,0.6H75.2z M75.2,94.9h1.3c0.4,0,0.7-0.1,0.9-0.3c0.2-0.2,0.3-0.4,0.3-0.8
		c0-0.3-0.1-0.6-0.3-0.8c-0.2-0.2-0.5-0.3-0.8-0.3h-1.3V94.9z M81.6,96.1v2.5h-1.5v-7.1h2.8c0.5,0,1,0.1,1.4,0.3
		c0.4,0.2,0.7,0.5,0.9,0.8c0.2,0.4,0.3,0.8,0.3,1.2c0,0.7-0.2,1.2-0.7,1.7c-0.5,0.4-1.1,0.6-2,0.6H81.6z M81.6,94.9h1.3
		c0.4,0,0.7-0.1,0.9-0.3c0.2-0.2,0.3-0.4,0.3-0.8c0-0.3-0.1-0.6-0.3-0.8c-0.2-0.2-0.5-0.3-0.8-0.3h-1.3V94.9z"/>
	<defs>
		<filter id="Adobe_OpacityMaskFilter" filterUnits="userSpaceOnUse" x="36.7" y="39" width="31.7" height="26.2">
			<feColorMatrix  type="matrix" values="1 0 0 0 0  0 1 0 0 0  0 0 1 0 0  0 0 0 1 0"/>
		</filter>
	</defs>
	<mask maskUnits="userSpaceOnUse" x="36.7" y="39" width="31.7" height="26.2" id="mask0_1_">
		<ellipse class="st3" cx="52.5" cy="49.2" rx="23.8" ry="23.6"/>
	</mask>
	<g class="st4">
		<path class="st5" d="M39.3,39h23.8c1.5,0,2.6,1.2,2.6,2.6v5.2c0,0.7-0.6,1.3-1.3,1.3c-0.7,0-1.3-0.6-1.3-1.3V43
			c0-0.7-0.6-1.3-1.3-1.3H40.6c-0.7,0-1.3,0.6-1.3,1.3v13.1c0,0.7,0.6,1.3,1.3,1.3h14.5c0.7,0,1.3,0.6,1.3,1.3
			c0,0.7-0.6,1.3-1.3,1.3h-1.3v2.6h1.3c0.7,0,1.3,0.6,1.3,1.3s-0.6,1.3-1.3,1.3h-7.9c-0.7,0-1.3-0.6-1.3-1.3s0.6-1.3,1.3-1.3h1.3V60
			h-9.2c-1.5,0-2.6-1.2-2.6-2.6V41.7C36.7,40.2,37.8,39,39.3,39z M67,50.9l-6.6,0c-0.7,0-1.3,0.6-1.3,1.3V64c0,0.7,0.6,1.3,1.3,1.3
			H67c0.7,0,1.3-0.6,1.3-1.3V52.2C68.3,51.4,67.8,50.9,67,50.9z M67,62.7h-6.6v-9.2H67V62.7z"/>
		<path class="st6" d="M52.5,48.2l-1.3-3.9l-1.3,3.9h-4l3.3,2.3l-1.2,3.8l3.3-2.4l3.3,2.4l-1.2-3.8l3.3-2.3H52.5z"/>
	</g>
</g>
</svg>
