<svg width="360" height="360" viewBox="0 0 360 360" fill="none" xmlns="http://www.w3.org/2000/svg">
<g clip-path="url(#clip0)">
<path opacity="0.33" d="M-50.7314 132.349C-46.8204 95.0451 -24.2818 101.252 -20.7176 57.8867C-19.4428 42.4057 -29.0601 32.6757 -33.8297 19.2775C-39.1196 4.45974 -37.2465 -8.84519 -30.1007 -19L361.77 -19C370.433 -14.337 378.697 -9.38397 385.895 -3.42578C395.798 4.76028 403.638 14.8426 407.636 28.676C411.243 41.1727 414.027 53.2238 404.548 62.7051C399.406 67.855 394.047 71.8341 389.39 76.611C385.886 80.1963 382.79 84.2375 380.449 89.5843C363.365 128.743 385.279 163.248 393.327 202.427C394.107 206.23 394.818 210.085 395.382 213.94C396.856 223.763 397.541 233.742 396.666 243.451C395.876 252.342 393.769 261.046 389.797 269.232C383.822 281.511 368.343 299.634 351.71 296.173C339.214 293.572 331.348 279.252 320.057 274.071C305.835 267.543 290.061 272.765 279.403 282.361C258.677 301.023 245.4 336.482 209.984 333.238C197.973 332.14 189.864 320.804 179.337 315.613C164.863 308.463 150.58 308.515 136.748 315.467C120.835 323.467 109.926 338.337 94.299 346.844C89.1826 349.631 83.6151 352.066 77.8049 353.932C65.2392 357.993 51.494 359.434 38.5381 356.304C35.7891 355.641 33.1875 354.854 30.716 353.932C-12.6093 337.995 -14.6559 285.78 -12.618 247.689C-11.6814 230.239 0.00840613 200.137 -8.62889 182.097C-17.2662 164.057 -54.5124 168.419 -50.7314 132.349Z" fill="#FFDDCA"/>
<path d="M65.1837 316.289H62.4653L62.1166 304.304H68.9934L65.1837 316.289Z" fill="#F5B895"/>
<path d="M115.923 316.289H118.648L118.99 304.304H112.114L115.923 316.289Z" fill="#F5B895"/>
<path d="M122.568 187.967H58.5459V305.68H122.568V187.967Z" fill="#FFDCC8"/>
<path d="M117.144 196.859H63.9633V219.988H117.144V196.859Z" fill="#F5B895"/>
<path d="M90.5535 211.962C92.5077 211.962 94.092 210.378 94.092 208.423C94.092 206.469 92.5077 204.885 90.5535 204.885C88.5992 204.885 87.015 206.469 87.015 208.423C87.015 210.378 88.5992 211.962 90.5535 211.962Z" fill="#FFDCC8"/>
<path d="M117.144 222.461H63.9633V245.59H117.144V222.461Z" fill="#F5B895"/>
<path d="M90.5535 237.564C92.5077 237.564 94.092 235.98 94.092 234.026C94.092 232.071 92.5077 230.487 90.5535 230.487C88.5992 230.487 87.015 232.071 87.015 234.026C87.015 235.98 88.5992 237.564 90.5535 237.564Z" fill="#FFDCC8"/>
<path d="M117.144 248.063H63.9633V271.192H117.144V248.063Z" fill="#F5B895"/>
<path d="M90.5535 263.166C92.5077 263.166 94.092 261.582 94.092 259.628C94.092 257.674 92.5077 256.089 90.5535 256.089C88.5992 256.089 87.015 257.674 87.015 259.628C87.015 261.582 88.5992 263.166 90.5535 263.166Z" fill="#FFDCC8"/>
<path d="M117.144 273.659H63.9633V296.788H117.144V273.659Z" fill="#F5B895"/>
<path d="M90.5535 288.769C92.5077 288.769 94.092 287.184 94.092 285.23C94.092 283.276 92.5077 281.692 90.5535 281.692C88.5992 281.692 87.015 283.276 87.015 285.23C87.015 287.184 88.5992 288.769 90.5535 288.769Z" fill="#FFDCC8"/>
<path d="M124.453 186.03H56.6539V190.473H124.453V186.03Z" fill="#F5B895"/>
<path d="M81.9139 107.854C81.1455 105.73 82.7469 102.992 84.8389 101.617C86.2337 100.7 87.8544 100.106 88.7196 98.8985C88.6357 100.493 88.2224 101.888 87.157 103.406C85.9948 105.071 84.2062 106.795 81.9139 107.854Z" fill="#FFDCC8"/>
<path d="M81.9075 108.584C82.2045 107.415 80.9712 106.305 80.1834 105.672C79.3892 105.026 78.5046 104.484 77.8137 103.767C76.2963 102.205 76.2382 99.1697 77.9557 97.5231C77.4715 97.9364 78.2269 99.3376 78.4594 99.6992C79.0018 100.539 79.8477 101.165 80.5644 101.895C82.2432 103.612 82.5273 106.137 81.9075 108.584Z" fill="#F5B895"/>
<path d="M82.3401 106.35C81.9527 105.278 83.0698 103.987 83.78 103.231C84.4968 102.469 85.3104 101.785 85.9238 100.971C87.2604 99.202 87.0731 96.2834 85.2716 95.0049C85.7753 95.3213 85.1618 96.7999 84.9681 97.1874C84.5097 98.0914 83.7348 98.8404 83.102 99.6733C81.604 101.617 81.533 104.103 82.3401 106.35Z" fill="#F5B895"/>
<path d="M81.7138 106.066C81.3328 105.975 80.9583 105.465 80.7775 105.194C80.4224 104.671 80.2222 104.09 80.1189 103.489C79.867 101.972 80.3255 100.493 80.3965 99.0276C80.4482 97.8912 80.3772 96.7547 79.9897 95.7152C79.796 95.1921 79.4667 94.766 79.1761 94.3011C79.1503 94.2623 79.6475 94.4173 79.6798 94.4302C82.7082 95.7991 83.3474 98.6079 82.7727 101.488C82.5919 102.385 82.4692 103.27 82.1851 104.174C82.0043 104.742 81.5653 105.498 81.7138 106.066Z" fill="#FFDCC8"/>
<path d="M85.9173 113.692H79.6734L77.6265 107.157H87.9642L85.9173 113.692Z" fill="#F5B895"/>
<path d="M86.2207 114.182H79.3504L79.3052 113.149H86.2594L86.2207 114.182Z" fill="#FFDCC8"/>
<path d="M88.1514 107.932H77.4133L77.2067 105.866H88.3516L88.1514 107.932Z" fill="#FFDCC8"/>
<path d="M124.763 101.662L125.506 103.173C125.783 103.735 126.319 104.129 126.946 104.219L128.612 104.465C130.181 104.69 130.807 106.621 129.67 107.725L128.463 108.901C128.011 109.34 127.804 109.972 127.914 110.592L128.198 112.252C128.463 113.814 126.829 115.002 125.428 114.266L123.937 113.485C123.381 113.194 122.716 113.194 122.161 113.485L120.669 114.266C119.268 115.002 117.628 113.814 117.899 112.252L118.183 110.592C118.287 109.972 118.087 109.34 117.635 108.901L116.427 107.725C115.291 106.621 115.917 104.697 117.486 104.465L119.152 104.219C119.772 104.129 120.314 103.735 120.592 103.173L121.334 101.662C122.038 100.248 124.066 100.248 124.763 101.662Z" fill="#FFDCC8"/>
<path d="M106.942 89.0967H100.091V114.331H106.942V89.0967Z" fill="#FFDCC8"/>
<path d="M110.661 92.3962H106.754V114.337H110.661V92.3962Z" fill="#C6A998"/>
<path d="M100.226 97.9557H94.4729V114.331H100.226V97.9557Z" fill="#F5B895"/>
<path opacity="0.68" d="M100.226 100.461H94.4729V102.359H100.226V100.461Z" fill="#FFDCC8"/>
<path opacity="0.68" d="M100.226 110.457H94.4729V112.355H100.226V110.457Z" fill="#FFDCC8"/>
<path d="M115.148 90.9563H110.318V114.337H115.148V90.9563Z" fill="#FFDCC8"/>
<path d="M113.87 98.0397H111.591V108.513H113.87V98.0397Z" fill="#F5B895"/>
<path d="M120.198 129.63H124.24V119.822H120.198V129.63Z" fill="#FFDCC8"/>
<path d="M117.57 121.744H126.868V118.922H117.57V121.744Z" fill="#FFDCC8"/>
<path d="M79.9291 129.63H83.9712V119.822H79.9291V129.63Z" fill="#FFDCC8"/>
<path d="M77.3075 121.744H86.6057V118.922H77.3075V121.744Z" fill="#FFDCC8"/>
<path d="M70.3737 119.387L133.801 119.387V114.086L70.3737 114.086V119.387Z" fill="#F5B895"/>
<path d="M52.3987 144.828H48.2791C48.1306 144.828 48.0079 144.918 47.9563 145.06L40.5888 157.49C40.4984 157.755 40.6985 158.052 40.9697 158.052H48.1371C48.2856 158.052 48.4083 157.961 48.4599 157.819L52.7732 145.389C52.8766 145.131 52.6699 144.828 52.3987 144.828Z" fill="#FFDCC8"/>
<path d="M44.379 139.856H66.0618L68.9869 158.084H47.3041L44.379 139.856Z" fill="#C6A998"/>
<path d="M45.141 139.856H66.8173L69.7424 158.084H48.066L45.141 139.856Z" fill="#FFDCC8"/>
<path d="M47.1233 141.534H65.3774L67.7601 156.399H49.5059L47.1233 141.534Z" fill="white"/>
<path d="M50.184 144.389H63.2337L64.6994 153.545H51.6497L50.184 144.389Z" fill="#FFDCC8"/>
<path d="M85.3686 151.801C85.3686 154.139 84.0514 156.166 82.1143 157.18C82.0755 157.206 82.0368 157.225 81.998 157.238C81.1844 157.651 80.2675 157.877 79.2925 157.877C77.4135 157.877 75.7282 157.018 74.6112 155.669C74.5208 155.566 74.4368 155.456 74.3593 155.34C73.6361 154.345 73.2164 153.125 73.2164 151.801C73.2164 148.786 75.4247 146.28 78.3046 145.809C78.4015 145.79 78.4983 145.777 78.5952 145.764C78.8212 145.738 79.0536 145.725 79.2925 145.725C82.3532 145.725 84.8843 147.992 85.3041 150.936C85.3234 151.059 85.3363 151.181 85.3493 151.304C85.3622 151.465 85.3686 151.633 85.3686 151.801Z" fill="#FFDCC8"/>
<path d="M78.2077 152.195C77.633 153.138 76.8969 154.016 76.0639 154.746C75.6313 155.12 75.147 155.462 74.6111 155.669C74.5207 155.566 74.4367 155.456 74.3593 155.34C75.1083 155.017 75.7604 154.487 76.3416 153.9C77.1487 153.08 77.859 152.156 78.3562 151.11C78.8727 150.019 79.1117 148.779 78.9309 147.572C78.8469 147.029 78.679 146.494 78.4207 146.009C78.3885 145.945 78.3497 145.874 78.3045 145.809C78.4014 145.79 78.4982 145.777 78.5951 145.764C78.6661 145.88 78.7242 145.996 78.7759 146.1C79.7445 148.063 79.3118 150.387 78.2077 152.195Z" fill="#F5B895"/>
<path d="M85.3493 151.304C85.0845 151.491 84.8391 151.704 84.6002 151.93C83.1668 153.306 82.2951 155.211 82.1143 157.18C82.0755 157.206 82.0368 157.225 81.998 157.238C82.0755 155.172 82.9279 153.183 84.3936 151.717C84.6777 151.433 84.9812 151.175 85.3041 150.936C85.3234 151.059 85.3363 151.181 85.3493 151.304Z" fill="#F5B895"/>
<path d="M81.8649 173.125H85.907V163.317H81.8649V173.125Z" fill="#FFDCC8"/>
<path d="M79.2369 165.239H88.535V162.418H79.2369V165.239Z" fill="#FFDCC8"/>
<path d="M41.5964 173.125H45.6385V163.317H41.5964V173.125Z" fill="#FFDCC8"/>
<path d="M38.9684 165.239H48.2666V162.418H38.9684V165.239Z" fill="#FFDCC8"/>
<path d="M32.041 162.883H95.4688V157.581H32.041V162.883Z" fill="#F5B895"/>
<path d="M305.503 288.226C313.847 288.226 320.612 281.802 320.612 273.878C320.612 265.954 313.847 259.531 305.503 259.531C297.158 259.531 290.393 265.954 290.393 273.878C290.393 281.802 297.158 288.226 305.503 288.226Z" fill="#FFDCC8"/>
<path d="M320.18 275.77H291.045L292.492 316.288H318.733L320.18 275.77Z" fill="#F5B895"/>
<path d="M322.453 273.284H289.418V278.482H322.453V273.284Z" fill="#FFDCC8"/>
<path d="M301.209 262.63C300.402 264.496 299.775 266.433 299.343 268.415C298.988 270.03 298.833 271.65 298.71 273.278H320.586C320.354 267.886 316.996 263.263 312.186 261.003C310.378 261.41 308.544 261.739 306.717 262.036C304.896 262.339 303.056 262.572 301.209 262.63Z" fill="#F5B895"/>
<path d="M132.608 260.48C133.403 260.48 133.952 260.602 134.41 261.313C134.681 261.739 134.804 262.249 134.849 262.733C134.888 263.147 134.759 263.702 135.107 263.954C135.65 264.341 136.67 264.348 137.283 264.264C138.381 264.109 138.911 263.553 138.484 262.494C138.078 261.481 137.258 260.68 136.283 260.196C135.533 259.828 134.701 259.518 133.868 259.485C133.5 259.472 133.209 259.582 132.931 259.815C132.789 259.937 132.395 260.299 132.608 260.48Z" fill="#FFD0B6"/>
<path d="M122.82 272.458C121.057 271.876 117.932 278.379 117.176 279.451C114.225 283.648 112.185 288.374 110.771 293.288C108.866 299.906 106.884 306.577 107.652 313.544C108.149 318.051 111.003 321.337 115.859 320.827C118.164 320.582 122.632 320.214 124.537 318.89C125.409 318.29 125.467 317.502 124.712 316.43C123.943 315.339 123.388 315.565 122.077 315.83C119.598 316.32 117.467 316.985 115.329 315.068C113.231 313.182 113.005 309.863 113.115 307.197C113.283 303.29 114.051 299.487 115.078 295.69C116.375 290.899 118.325 286.573 120.121 281.982C120.915 279.948 122.058 277.804 122.516 275.673C122.787 274.401 122.497 273.387 122.949 272.199C122.729 272.161 122.464 272.135 122.82 272.458Z" fill="#FFD0B6"/>
<path opacity="0.38" d="M113.799 319.323C112.74 318.4 111.972 317.199 111.429 315.914C110.215 313.014 110.035 309.734 110.131 306.628C110.241 303.18 110.751 299.745 111.313 296.349C111.784 293.501 112.353 290.673 113.095 287.883C113.373 286.831 113.689 285.798 114.032 284.771C112.682 287.496 111.61 290.357 110.764 293.282C108.859 299.9 106.877 306.57 107.645 313.537C108.143 318.044 110.997 321.331 115.852 320.821C115.994 320.808 116.149 320.789 116.311 320.776C115.394 320.453 114.542 319.975 113.799 319.323Z" fill="#C6A998"/>
<path d="M156.319 318.793C155.137 319.943 146.259 321.344 138.019 321.757C136.302 321.841 134.623 321.886 133.041 321.873C129.141 321.854 124.279 322.003 122.923 320.898C119.694 318.29 111.778 273.671 125.454 265.826C128.586 264.031 136.018 262.998 138.891 263.127C139.24 263.146 139.576 263.166 139.899 263.211C148.945 264.264 154.02 274.414 156.222 289.239C159.199 309.166 158.366 316.818 156.319 318.793Z" fill="#F1CCB8"/>
<path opacity="0.51" d="M138.026 321.757C136.308 321.841 134.63 321.886 133.048 321.88C129.148 321.861 124.285 322.003 122.929 320.905C119.701 318.29 111.784 273.678 125.461 265.833C126.849 265.038 129.076 264.393 131.382 263.928C132.518 263.702 133.68 263.515 134.759 263.385C136.431 263.179 137.923 263.088 138.898 263.127C139.246 263.146 139.582 263.166 139.911 263.211C136.412 263.547 133.596 266.033 132.266 270.282C128.315 282.918 132.311 306.299 138.026 321.757Z" fill="#F59711"/>
<path opacity="0.5" d="M134.759 263.385C133.467 264.102 132.279 264.967 131.278 266.072C129.076 268.499 127.578 271.644 126.584 274.75C125.583 277.869 125.067 281.129 124.854 284.397C124.621 287.864 124.996 291.293 125.209 294.754C125.448 298.641 126.145 302.405 126.532 306.273C126.558 306.557 125.699 306.79 125.448 306.641C125.157 306.712 124.847 306.712 124.808 306.564C124.247 304.368 124.085 302.031 123.807 299.784C123.543 297.576 123.336 295.354 123.213 293.133C122.839 286.334 123.065 279.257 125.525 272.826C126.713 269.72 128.418 266.491 130.955 264.283C131.097 264.16 131.233 264.044 131.382 263.928C132.518 263.702 133.68 263.515 134.759 263.385Z" fill="#F55E11"/>
<path d="M150.804 279.541C150.714 279.012 150.546 278.398 150.126 278.069C149.649 277.688 148.906 277.714 148.325 277.714C146.517 277.727 144.632 277.823 142.662 278.004C141.79 278.088 140.848 278.12 139.957 278.346C139.756 278.398 138.756 278.379 138.433 278.947C138.278 279.218 138.368 280.367 138.433 281.355C138.504 282.466 138.581 283.422 139.091 283.609C139.311 283.609 139.505 283.699 139.718 283.712C139.957 283.725 140.228 283.667 140.467 283.641C140.983 283.59 141.493 283.544 141.997 283.493C142.966 283.396 143.915 283.293 144.838 283.183C146.614 282.983 148.312 282.763 149.946 282.544C150.327 282.492 150.721 282.369 150.882 281.943C150.985 281.678 150.979 281.381 150.966 281.097C150.947 280.574 150.895 280.051 150.804 279.541Z" fill="#FFD0B6"/>
<path d="M128.786 265.18C128.127 265.219 128.683 261.416 129.251 260.648C130.194 259.382 131.859 259.001 133.345 258.846C135.062 258.665 138.543 260.441 138.497 262.643C137.484 260.815 134.274 258.84 132.512 260.99C131.743 261.926 132.537 263.385 132.034 264.154C131.382 265.142 129.445 265.142 128.786 265.18Z" fill="#C6A998"/>
<path d="M160.71 319.607C159.67 320.388 150.63 321.899 144.645 322.016C142.494 322.061 140.744 321.925 139.886 321.518C138 320.634 136.831 312.22 137.077 303.613C137.258 297.246 139.285 291.674 143.23 289.892C145.013 289.084 146.75 288.697 148.396 288.691C149.106 288.684 149.797 288.755 150.469 288.884C156.345 290.001 160.716 296 161.652 303.748C162.924 314.448 162.124 318.555 160.71 319.607Z" fill="#C6A998"/>
<path opacity="0.54" d="M150.462 288.884C148.099 289.136 146.459 290.821 146.059 291.551C143.895 295.49 143.301 300.41 143.166 304.988C143.004 310.264 143.146 316.65 144.638 322.022C142.488 322.067 140.738 321.932 139.879 321.525C137.994 320.64 136.825 312.227 137.07 303.619C137.251 297.253 139.279 291.68 143.224 289.898C145.006 289.091 146.743 288.704 148.39 288.697C149.1 288.684 149.791 288.755 150.462 288.884Z" fill="#FFD0B6"/>
<path d="M125.622 305.853C126.694 305.841 127.127 309.25 126.881 309.579C126.636 309.909 125.28 310.025 124.938 309.786C124.589 309.553 124.55 305.866 125.622 305.853Z" fill="#FFD0B6"/>
<path d="M205.773 321.926H203.359L211.507 249.748H218.223L205.773 321.926Z" fill="black"/>
<path d="M286.08 321.926H288.488L280.34 249.748H273.624L286.08 321.926Z" fill="black"/>
<path d="M269.227 321.926H271.642L263.487 249.748H256.778L269.227 321.926Z" fill="black"/>
<path d="M221.735 321.926H219.32L227.469 249.748H234.185L221.735 321.926Z" fill="black"/>
<path d="M293.557 167.641L280.824 241.554H250.999L263.739 167.641H293.557Z" fill="#FFD0B6"/>
<path opacity="0.45" d="M289.922 167.641L277.182 241.554H250.999L263.739 167.641H289.922Z" fill="#FFD0B6"/>
<path d="M280.824 241.555H210.371V251.505H280.824V241.555Z" fill="#FFD0B6"/>
<path opacity="0.45" d="M235.663 241.555H210.371V251.505H235.663V241.555Z" fill="#FFD0B6"/>
<path d="M190.645 276.526C190.645 276.526 177.905 279.051 180.875 282.014C183.852 284.978 200.795 287.813 201.615 286.683C202.429 285.553 204.947 277.146 204.947 277.146L193.182 271.832L190.645 276.526Z" fill="white"/>
<path d="M198.167 284.494C199.646 283.383 201.253 282.279 203.094 282.066C203.43 282.027 203.843 282.053 204.011 282.344C204.101 282.492 204.101 282.679 204.082 282.854C203.985 283.835 203.455 284.726 202.887 285.534C202.306 286.354 201.654 287.141 200.84 287.735C200.027 288.329 199.032 288.717 198.025 288.665C197.269 288.626 195.5 288.013 195.552 287.019C195.597 286.121 197.521 284.978 198.167 284.494Z" fill="#C6A998"/>
<path d="M186.092 283.177C186.157 284.087 186.073 285.133 185.363 285.708C184.607 286.321 183.477 286.115 182.593 285.695C181.385 285.114 180.333 284.171 179.739 282.97C179.151 281.769 179.054 280.303 179.609 279.083C179.816 278.618 180.113 278.205 180.429 277.804C180.856 277.268 181.346 276.758 181.96 276.461C182.509 276.203 183.419 276.055 183.89 276.526C184.342 276.984 184.665 277.914 184.924 278.495C185.576 279.974 185.976 281.569 186.092 283.177Z" fill="#C6A998"/>
<path opacity="0.24" d="M188.152 284.391C190.548 284.965 192.95 285.062 195.313 284.998C196.559 284.965 198.006 284.72 198.367 283.487C198.638 282.537 198.115 281.407 197.502 280.503C196.475 278.999 195.132 277.714 193.634 276.804C193.008 276.423 192.356 276.106 191.774 275.635C191.2 275.163 190.696 274.492 190.606 273.762C190.509 272.994 190.896 272.303 191.452 271.909C192.007 271.515 192.698 271.38 193.389 271.296C196.436 270.921 199.846 271.56 202.571 273.711C205.296 275.861 207.091 279.722 206.296 282.841C205.87 284.52 204.779 285.824 203.526 286.838C200.556 289.24 196.514 290.183 192.485 289.414C189.715 288.885 186.97 287.548 184.601 285.624C183.49 284.72 180.869 283.015 180.081 281.769C178.886 279.884 181.915 282.079 182.528 282.454C184.123 283.441 186.434 283.984 188.152 284.391Z" fill="#C6A998"/>
<path d="M207.581 283.906C207.581 283.906 196.921 291.325 200.834 292.849C204.747 294.373 221.412 290.176 221.703 288.814C222 287.451 220.935 278.741 220.935 278.741L208.027 278.586L207.581 283.906Z" fill="white"/>
<path d="M217.667 288.187C218.578 286.573 219.604 284.927 221.206 283.99C221.496 283.816 221.884 283.68 222.161 283.881C222.304 283.984 222.375 284.152 222.433 284.32C222.743 285.262 222.607 286.283 222.407 287.251C222.2 288.239 221.923 289.221 221.412 290.092C220.902 290.964 220.147 291.713 219.204 292.068C218.494 292.333 216.628 292.488 216.279 291.552C215.969 290.712 217.273 288.891 217.667 288.187Z" fill="#C6A998"/>
<path d="M206.077 291.829C206.503 292.636 206.845 293.631 206.426 294.438C205.974 295.303 204.856 295.568 203.881 295.535C202.545 295.49 201.195 295.045 200.175 294.179C199.155 293.314 198.477 292.01 198.496 290.667C198.503 290.163 198.606 289.66 198.735 289.169C198.91 288.51 199.155 287.845 199.6 287.329C199.994 286.87 200.776 286.366 201.395 286.618C201.99 286.857 202.661 287.58 203.132 288.007C204.321 289.098 205.328 290.396 206.077 291.829Z" fill="#C6A998"/>
<path opacity="0.24" d="M208.453 292.113C210.874 291.674 213.122 290.809 215.259 289.802C216.382 289.272 217.616 288.465 217.448 287.193C217.319 286.212 216.382 285.391 215.459 284.81C213.916 283.842 212.172 283.203 210.435 282.977C209.712 282.88 208.983 282.854 208.266 282.654C207.549 282.454 206.819 282.04 206.445 281.407C206.045 280.742 206.129 279.955 206.477 279.373C206.826 278.792 207.407 278.386 208.008 278.037C210.648 276.474 214.032 275.687 217.39 276.565C220.747 277.443 223.944 280.258 224.467 283.441C224.751 285.153 224.273 286.786 223.53 288.213C221.768 291.603 218.442 294.089 214.452 295C211.701 295.626 208.653 295.503 205.715 294.69C204.34 294.309 201.253 293.799 200.027 292.972C198.173 291.719 201.835 292.52 202.545 292.617C204.379 292.856 206.71 292.423 208.453 292.113Z" fill="#C6A998"/>
<path d="M264.5 222.164C264.5 222.164 268.194 239.643 257.546 239.921C246.898 240.199 218.229 241.309 218.229 241.309L204.65 280.93L188.385 275.028C188.385 275.028 200.059 231.327 204.456 227.723C208.853 224.12 236.819 221.899 242.211 222.035C247.615 222.164 264.5 222.164 264.5 222.164Z" fill="#3C1F23"/>
<path opacity="0.29" d="M264.5 222.164C264.5 222.164 268.194 239.643 257.546 239.921C246.898 240.199 218.229 241.309 218.229 241.309L204.65 280.93L188.385 275.028C188.385 275.028 200.059 231.327 204.456 227.723C208.853 224.12 236.819 221.899 242.211 222.035C247.615 222.164 264.5 222.164 264.5 222.164Z" fill="#555162"/>
<path d="M187.823 275.867L204.366 281.711L207.155 276.668L188.94 269.972L187.823 275.867Z" fill="#F59711"/>
<path opacity="0.3" d="M187.823 275.867L204.366 281.711L207.155 276.668L188.94 269.972L187.823 275.867Z" fill="#3C1F23"/>
<path opacity="0.27" d="M195.707 277.036C194.338 275.822 193.092 274.466 192.059 272.955C191.555 272.219 191.084 271.438 190.696 270.618L188.94 269.972L187.816 275.867L200.614 280.387C198.851 279.47 197.192 278.347 195.707 277.036Z" fill="#F59711"/>
<path d="M273.882 222.855C273.882 222.855 277.712 241.412 266.664 241.709C255.615 242.007 225.861 243.182 225.861 243.182L222.73 283.177L206.019 282.589C206.019 282.589 207.007 232.573 211.572 228.744C216.137 224.915 245.155 222.558 250.753 222.706C256.352 222.855 273.882 222.855 273.882 222.855Z" fill="#3C1F23"/>
<path opacity="0.1" d="M218.332 282.634C217.758 281.453 217.409 280.168 217.099 278.889C216.776 277.559 216.473 276.216 216.189 274.873C215.517 271.696 215.156 268.468 214.891 265.233C214.658 262.417 214.465 259.596 214.213 256.78C213.974 254.101 213.754 251.414 213.722 248.722C213.657 243.492 214.31 238.113 217.344 233.716C219.837 230.106 223.098 227.136 226.765 224.766C219.747 225.78 213.49 227.129 211.565 228.744C207 232.573 206.012 282.589 206.012 282.589L218.552 283.028C218.487 282.899 218.403 282.77 218.332 282.634Z" fill="#3C1F23"/>
<path opacity="0.1" d="M273.882 222.855C273.882 222.855 272.301 222.855 269.944 222.848C269.937 223.113 269.924 223.384 269.905 223.649C269.834 224.805 269.679 225.954 269.44 227.091C269.22 228.15 268.962 229.254 268.471 230.222C267.477 232.198 265.611 233.632 263.784 234.794C261.847 236.027 259.787 237.041 257.636 237.842C253.046 239.553 248.164 240.399 243.308 240.954C240.054 241.322 236.787 241.477 233.532 241.761C231.937 241.897 230.342 242.065 228.767 242.349C228.166 242.458 227.566 242.581 226.991 242.775C226.759 242.852 226.397 242.969 226.21 243.175C229.535 243.046 256.313 241.994 266.67 241.716C277.712 241.412 273.882 222.855 273.882 222.855Z" fill="#3C1F23"/>
<path d="M218.513 276.532C218.507 276.532 218.507 276.532 218.5 276.532C218.41 276.526 218.345 276.448 218.352 276.358L218.423 275.396C218.429 275.306 218.494 275.228 218.597 275.247C218.688 275.254 218.752 275.331 218.746 275.422L218.675 276.384C218.668 276.461 218.597 276.532 218.513 276.532Z" fill="#F59711"/>
<path d="M218.733 273.601C218.726 273.601 218.726 273.601 218.72 273.601C218.629 273.594 218.565 273.517 218.571 273.427L218.72 271.457C218.726 271.367 218.804 271.289 218.894 271.309C218.984 271.315 219.049 271.393 219.043 271.483L218.894 273.452C218.888 273.536 218.817 273.601 218.733 273.601ZM219.03 269.656C219.023 269.656 219.023 269.656 219.017 269.656C218.926 269.649 218.862 269.572 218.868 269.481L219.023 267.512C219.03 267.421 219.094 267.35 219.198 267.363C219.288 267.37 219.353 267.447 219.346 267.538L219.191 269.507C219.185 269.591 219.114 269.656 219.03 269.656ZM219.34 265.717C219.333 265.717 219.333 265.717 219.327 265.717C219.236 265.71 219.172 265.633 219.178 265.542C219.23 264.903 219.282 264.245 219.333 263.573C219.34 263.483 219.424 263.412 219.508 263.425C219.598 263.431 219.663 263.509 219.656 263.599C219.604 264.27 219.546 264.929 219.501 265.568C219.495 265.652 219.424 265.717 219.34 265.717ZM219.656 261.778C219.65 261.778 219.65 261.778 219.643 261.778C219.553 261.772 219.488 261.694 219.495 261.604L219.656 259.634C219.663 259.544 219.74 259.473 219.83 259.486C219.921 259.492 219.985 259.57 219.979 259.66L219.817 261.629C219.811 261.713 219.74 261.778 219.656 261.778ZM219.979 257.846C219.972 257.846 219.972 257.846 219.966 257.846C219.876 257.839 219.811 257.762 219.817 257.671L219.985 255.702C219.992 255.612 220.063 255.547 220.16 255.553C220.25 255.56 220.315 255.637 220.308 255.728L220.14 257.697C220.134 257.781 220.063 257.846 219.979 257.846ZM220.315 253.907C220.308 253.907 220.308 253.907 220.302 253.907C220.211 253.9 220.147 253.823 220.153 253.733L220.328 251.763C220.334 251.673 220.399 251.602 220.502 251.615C220.592 251.621 220.657 251.699 220.65 251.789L220.476 253.758C220.47 253.849 220.399 253.907 220.315 253.907ZM220.67 249.975C220.663 249.975 220.657 249.975 220.657 249.975C220.566 249.968 220.502 249.891 220.508 249.8C220.573 249.135 220.631 248.476 220.696 247.831C220.702 247.74 220.78 247.669 220.87 247.682C220.96 247.689 221.025 247.766 221.018 247.857C220.96 248.502 220.896 249.154 220.831 249.826C220.825 249.91 220.754 249.975 220.67 249.975ZM221.051 246.042C221.044 246.042 221.038 246.042 221.038 246.042C220.947 246.036 220.883 245.952 220.896 245.868C220.96 245.19 221.031 244.538 221.096 243.898C221.102 243.808 221.186 243.75 221.277 243.756C221.367 243.763 221.432 243.847 221.419 243.937C221.354 244.57 221.283 245.229 221.219 245.9C221.199 245.978 221.128 246.042 221.051 246.042ZM221.464 242.11C221.458 242.11 221.451 242.11 221.445 242.11C221.354 242.103 221.29 242.019 221.303 241.929C221.38 241.232 221.458 240.573 221.535 239.966C221.548 239.876 221.632 239.818 221.716 239.824C221.806 239.837 221.864 239.914 221.858 240.005C221.78 240.612 221.703 241.27 221.625 241.968C221.613 242.052 221.542 242.11 221.464 242.11ZM221.955 238.19C221.948 238.19 221.942 238.19 221.929 238.19C221.839 238.177 221.78 238.094 221.793 238.01C221.916 237.157 222.032 236.492 222.142 236.047C222.161 235.963 222.252 235.905 222.336 235.924C222.42 235.943 222.478 236.034 222.458 236.118C222.355 236.557 222.239 237.209 222.116 238.055C222.103 238.132 222.032 238.19 221.955 238.19ZM223.763 235.317C223.685 235.317 223.614 235.259 223.601 235.175C223.588 235.085 223.653 235.007 223.743 234.994C224.247 234.93 224.893 234.865 225.719 234.794C225.81 234.781 225.887 234.852 225.894 234.942C225.9 235.033 225.835 235.11 225.745 235.117C224.925 235.188 224.279 235.252 223.782 235.317C223.776 235.311 223.769 235.317 223.763 235.317ZM227.708 234.955C227.624 234.955 227.553 234.891 227.547 234.807C227.54 234.716 227.605 234.639 227.695 234.633C228.315 234.587 228.974 234.542 229.671 234.49C229.768 234.478 229.839 234.549 229.845 234.639C229.852 234.729 229.787 234.807 229.697 234.813C228.999 234.859 228.341 234.91 227.727 234.955C227.714 234.955 227.714 234.955 227.708 234.955ZM231.653 234.684C231.569 234.684 231.498 234.62 231.492 234.536C231.485 234.445 231.556 234.368 231.64 234.368C232.28 234.329 232.938 234.284 233.616 234.245C233.72 234.245 233.784 234.31 233.791 234.394C233.797 234.484 233.726 234.561 233.642 234.568C232.964 234.607 232.305 234.652 231.666 234.691C231.66 234.684 231.66 234.684 231.653 234.684ZM235.599 234.445C235.515 234.445 235.444 234.381 235.437 234.29C235.431 234.2 235.502 234.122 235.592 234.122L237.568 234.006C237.652 234.006 237.736 234.071 237.736 234.161C237.742 234.252 237.671 234.329 237.581 234.329L235.605 234.445C235.605 234.445 235.605 234.445 235.599 234.445ZM239.55 234.213C239.466 234.213 239.395 234.148 239.389 234.058C239.382 233.967 239.453 233.89 239.544 233.89L241.513 233.774C241.604 233.767 241.681 233.838 241.681 233.929C241.688 234.019 241.617 234.097 241.526 234.097L239.557 234.213H239.55ZM243.489 233.987C243.405 233.987 243.334 233.922 243.328 233.832C243.321 233.741 243.392 233.664 243.483 233.664L245.458 233.548C245.549 233.541 245.626 233.612 245.626 233.703C245.633 233.793 245.562 233.871 245.471 233.871L243.496 233.987C243.496 233.987 243.496 233.987 243.489 233.987ZM247.441 233.754C247.357 233.754 247.286 233.69 247.279 233.599C247.273 233.509 247.344 233.432 247.434 233.432C248.106 233.393 248.764 233.354 249.404 233.309C249.494 233.296 249.572 233.373 249.578 233.457C249.585 233.548 249.514 233.625 249.43 233.625C248.784 233.664 248.125 233.709 247.454 233.748C247.447 233.754 247.441 233.754 247.441 233.754ZM251.386 233.509C251.302 233.509 251.231 233.444 251.225 233.36C251.218 233.27 251.283 233.193 251.373 233.186C252.058 233.141 252.716 233.096 253.343 233.051C253.433 233.038 253.51 233.109 253.517 233.199C253.523 233.289 253.459 233.367 253.368 233.373C252.736 233.419 252.077 233.464 251.393 233.509H251.386ZM255.331 233.225C255.247 233.225 255.176 233.16 255.17 233.076C255.163 232.986 255.228 232.908 255.318 232.902C256.035 232.844 256.694 232.792 257.288 232.741C257.385 232.728 257.456 232.799 257.462 232.889C257.469 232.98 257.404 233.057 257.314 233.063C256.72 233.115 256.055 233.173 255.338 233.225H255.331ZM259.27 232.857C259.193 232.857 259.122 232.799 259.109 232.715C259.096 232.624 259.16 232.547 259.251 232.534C260.29 232.405 260.568 232.308 260.639 232.263C260.768 232.185 260.904 232.095 261.046 232.005C261.117 231.953 261.22 231.972 261.272 232.05C261.323 232.121 261.304 232.224 261.227 232.276C261.085 232.373 260.943 232.463 260.807 232.547C260.691 232.618 260.407 232.721 259.29 232.863C259.283 232.857 259.277 232.857 259.27 232.857ZM262.667 231.055C262.621 231.055 262.583 231.036 262.55 231.004C262.486 230.939 262.492 230.836 262.557 230.778C263.041 230.306 263.467 229.816 263.816 229.305C263.868 229.228 263.971 229.215 264.042 229.267C264.113 229.318 264.132 229.422 264.081 229.493C263.713 230.016 263.28 230.526 262.776 231.01C262.744 231.036 262.705 231.055 262.667 231.055Z" fill="#F59711"/>
<path d="M264.791 228.008C264.772 228.008 264.752 228.001 264.733 227.995C264.649 227.962 264.61 227.866 264.643 227.788C264.759 227.485 264.849 227.181 264.914 226.884C264.933 226.8 265.023 226.742 265.107 226.761C265.198 226.781 265.249 226.865 265.23 226.955C265.166 227.271 265.069 227.594 264.946 227.911C264.914 227.969 264.856 228.008 264.791 228.008Z" fill="#F59711"/>
<path d="M205.677 283.106L223.22 283.629L224.337 277.979L204.953 277.146L205.677 283.106Z" fill="#F59711"/>
<path opacity="0.27" d="M213.548 281.814C211.869 281.078 210.28 280.161 208.828 279.038C208.124 278.489 207.433 277.888 206.819 277.223L204.947 277.146L205.677 283.106L219.249 283.512C217.286 283.177 215.362 282.608 213.548 281.814Z" fill="#F59711"/>
<path d="M236.909 185.914C236.909 185.914 225.532 198.783 223.86 199.319C222.187 199.855 204.534 202.857 204.534 202.857L203.591 208.507C203.591 208.507 224.996 210.599 227.45 209.14C229.897 207.674 244.38 195.445 244.38 195.445L236.909 185.914Z" fill="#FFA18B"/>
<path d="M229.012 192.52C229.012 192.52 238.453 177.675 242.585 176.603C246.718 175.531 254.589 178.701 250.179 186.941C245.769 195.18 240.151 201.062 240.151 201.062C240.151 201.062 231.673 200.023 229.012 192.52Z" fill="#C6A998"/>
<path opacity="0.38" d="M244.161 176.403C243.024 177.907 242.056 179.534 241.158 181.187C240.047 183.241 239.06 185.359 238.104 187.489C237.135 189.653 236.238 191.854 235.489 194.102C234.972 195.658 234.533 197.24 234.191 198.841C237.168 200.701 240.151 201.062 240.151 201.062C240.151 201.062 245.775 195.18 250.179 186.941C254.072 179.664 248.39 176.338 244.161 176.403Z" fill="#C6A998"/>
<path d="M275.103 202.257C273.928 184.978 273.134 180.684 271.119 178.153C269.117 175.647 261.73 174.55 256.526 174.343C251.322 174.136 243.728 175.608 241.565 177.094C239.395 178.579 238.104 184.874 238.433 192.707C238.724 199.493 240.151 206.699 240.093 209.844C239.989 215.675 238.84 217.922 238.007 222.261C244.509 226.787 269.685 229.215 275.084 228.13C275.619 222.235 275.671 210.625 275.103 202.257Z" fill="white"/>
<path d="M247.46 178.366C247.299 179.147 247.615 179.986 248.158 180.58C248.7 181.174 249.501 181.459 250.263 181.672C251.741 182.078 255.092 181.639 256.597 179.954C259.102 185.907 261.995 192.242 267.845 195.438C269.466 196.323 271.209 197.072 273.024 197.311C274.858 197.55 276.782 197.233 278.202 196.148C279.875 194.87 280.63 192.674 280.63 190.518C280.63 188.368 279.959 186.25 279.197 184.209C277.886 180.716 276.213 177.255 273.482 174.724C269.375 170.908 263.558 169.791 258.185 169.61C253.665 169.455 249.158 169.855 245.026 171.315C240.945 172.754 237.206 175.299 234.766 178.889C231.608 183.538 230.827 189.924 232.757 195.464C233.061 195.503 233.565 195.567 233.823 195.399C236.709 193.585 238.175 190.092 239.976 187.057C241.92 183.796 244.548 180.761 247.46 178.366Z" fill="#C6A998"/>
<path opacity="0.24" d="M265.398 217.269C264.642 219.62 263.777 222.054 262.008 223.772C259.038 226.658 254.337 226.819 250.889 229.099C251.786 231.611 254.757 232.598 257.359 233.193C262.492 234.361 267.974 235.259 272.94 233.509C274.619 232.921 276.252 231.979 277.221 230.487C277.983 229.312 278.273 227.898 278.493 226.509C279.591 219.562 279.274 212.478 278.874 205.459C278.454 198.085 277.944 190.712 277.318 183.35C277.137 181.252 276.917 179.063 275.742 177.313C275.038 176.261 273.966 175.395 272.772 174.963C270.912 174.278 271.242 175.66 271.351 177.094C271.597 180.393 271.623 183.706 271.448 187.005C271.112 193.553 270.028 200.042 268.478 206.409C267.6 210.063 266.554 213.686 265.398 217.269Z" fill="#C6A998"/>
<path opacity="0.24" d="M252.413 226.91C249.669 225.922 247.041 225.011 244.477 223.649C243.276 223.01 242.043 222.267 241.481 221.131C242.908 220.95 244.361 221.111 245.788 221.266C248.106 221.518 250.418 221.776 252.736 222.028C250.295 221.208 248.016 219.859 245.801 218.6C244.684 217.967 241.565 216.675 242.469 214.893C242.772 214.286 243.463 214.009 243.999 213.647C244.684 213.176 244.774 212.517 244.374 211.794C243.844 210.845 242.818 210.238 241.939 209.669C240.958 209.03 240.073 208.333 239.234 207.513C238.769 207.054 238.311 206.564 237.897 206.041C237.717 207.468 238.033 208.959 237.968 210.412C237.904 211.871 237.445 213.292 237.116 214.719C236.367 217.941 236.257 221.279 236.793 224.521C236.89 225.115 237.019 225.722 237.394 226.212C237.82 226.781 238.524 227.142 239.228 227.439C242.831 228.983 246.911 229.428 250.915 229.757C253.31 229.951 255.105 227.885 252.413 226.91Z" fill="#C6A998"/>
<path d="M211.133 200.804C211.798 199.144 213.16 197.711 214.749 196.62C215.233 196.284 215.756 195.974 216.331 195.806C217.487 195.457 218.836 195.625 219.927 195.877C221.322 196.2 222.607 196.775 223.905 197.272C225.119 197.737 226.333 198.202 227.547 198.673C227.824 198.783 228.167 199.002 228.47 199.041C230.95 199.364 246.395 201.353 249.171 201.443C252.012 198.434 256.326 190.402 256.326 190.402C256.326 190.402 264.016 191.338 266.328 195.774C266.354 195.651 256.984 209.043 255.59 209.779C254.195 210.515 247.873 209.463 240.235 207.487C234.456 205.989 229.451 204.433 227.366 203.761C227.062 203.845 226.72 203.903 226.339 203.929C222.297 204.213 222.91 201.915 222.717 201.779L222.82 201.643C222.039 201.921 221.251 202.179 220.457 202.412C220.134 202.502 219.708 202.56 219.572 202.308C219.462 202.108 219.624 201.863 219.779 201.669C220.295 201.017 220.877 200.404 221.496 199.829C220.192 200.701 218.881 201.566 217.577 202.438C217.319 202.612 216.957 202.786 216.725 202.631C216.492 202.476 216.589 202.128 216.725 201.869C217.377 200.623 218.358 199.487 219.566 198.602C218.688 199.267 217.803 199.926 216.925 200.591C216.324 201.043 215.717 201.501 215.072 201.908C214.49 202.276 213.767 202.612 213.154 202.405C213.076 202.379 212.992 202.334 212.967 202.263C212.947 202.192 212.98 202.115 213.018 202.05C213.774 200.584 215.11 199.396 216.421 198.253C215.259 199.144 214.09 200.042 212.928 200.933C212.476 201.275 211.921 201.65 211.385 201.521C211.268 201.495 211.159 201.437 211.101 201.346C211.004 201.185 211.062 200.978 211.133 200.804Z" fill="#FFC9B0"/>
<path d="M253.872 201.114C252.949 200.048 252.368 198.925 251.948 197.75C254.195 194.353 256.319 190.395 256.319 190.395C256.319 190.395 264.01 191.331 266.321 195.767C266.341 195.69 262.408 201.288 259.264 205.434C257.094 204.691 255.131 202.567 253.872 201.114Z" fill="#FFC9B0"/>
<path opacity="0.3" d="M222.652 201.017C223.601 201.133 224.421 201.521 225.332 201.74C226.21 201.953 227.127 202.031 228.018 202.186C230.42 202.612 232.693 203.451 234.959 204.194C239.227 205.595 243.586 206.79 248.048 207.745C250.753 208.326 253.614 209.095 256.481 208.92C256.08 209.372 255.77 209.676 255.59 209.766C254.195 210.502 247.873 209.45 240.235 207.474C234.456 205.976 229.451 204.42 227.366 203.748C227.062 203.832 226.72 203.89 226.339 203.916C222.297 204.2 222.91 201.902 222.717 201.766L222.82 201.63C222.039 201.908 221.251 202.166 220.457 202.399C220.25 202.457 220.005 202.502 219.818 202.463C220.734 201.902 221.684 201.482 222.652 201.017Z" fill="#FFC9B0"/>
<path d="M250.895 196.562C251.612 195.567 257.359 186.573 259.335 183.228C260.374 181.459 261.543 179.676 263.274 178.353C264.5 177.41 267.968 175.279 270.46 178.172C270.589 178.327 270.719 178.488 270.835 178.65C270.964 178.837 271.087 179.024 271.196 179.218C272.849 182.085 272.365 186.017 271.384 189.336C271.19 189.988 270.957 190.621 270.686 191.248C268.956 195.27 266.05 200.281 263.183 203.936C259.348 203.652 252.807 200.197 250.895 196.562Z" fill="#C6A998"/>
<path opacity="0.38" d="M270.925 189.549C270.189 190.537 269.427 191.499 268.633 192.442C267.296 194.024 265.843 195.516 264.378 196.981C262.938 198.421 261.466 199.816 259.916 201.14C259.374 201.605 258.818 202.057 258.256 202.496C260.019 203.303 261.782 203.832 263.183 203.936C266.057 200.281 268.962 195.27 270.686 191.247C270.957 190.621 271.196 189.988 271.384 189.336C271.448 189.117 271.513 188.891 271.571 188.665C271.358 188.962 271.145 189.259 270.925 189.549Z" fill="#C6A998"/>
<path d="M248.351 169.519L257.217 168.234L258.185 175.544C258.256 176.073 258.101 176.596 257.759 177.016C256.997 177.939 255.389 179.438 252.742 179.747C250.024 180.064 249.681 178.818 249.72 178.043C249.759 177.326 249.662 176.603 249.533 175.886L248.351 169.519Z" fill="#FFC9B0"/>
<path d="M246.763 174.537C254.079 174.814 257.217 167.783 257.004 167.485C256.745 167.117 256.042 167.137 255.48 167.234C251.483 167.912 245.91 169.733 245.278 171.218C244.638 172.709 245.73 174.491 246.763 174.537Z" fill="#FFC9B0"/>
<path d="M263.661 161.429C263.19 161.409 262.634 161.377 262.279 161.041C261.943 160.725 261.872 160.208 261.679 159.821C261.033 158.549 259.58 157.871 258.269 158.768C255.06 160.964 256.571 164.683 256.862 165.271C257.275 166.11 258.153 166.904 259.076 167.182C259.386 167.279 259.955 167.389 260.045 166.956C260.097 166.698 259.8 166.452 259.761 166.226C260.381 166.465 260.891 166.749 261.595 166.775C262.389 166.801 263.713 166.575 264.113 165.813C264.533 165.012 263.725 164.67 263.125 164.341C264.152 164.38 265.159 163.004 265.521 162.223C265.992 161.209 264.294 161.455 263.661 161.429Z" fill="black"/>
<path d="M234.875 145.067C234.553 145.577 234.404 146.164 234.301 146.752C234.03 148.237 233.997 149.767 234.21 151.259C234.301 151.911 234.449 152.576 234.804 153.138C235.302 153.926 236.147 154.436 237.006 154.843C237.536 155.094 238.156 155.32 238.704 155.107C239.073 154.965 239.331 154.649 239.518 154.307C240.151 153.131 239.97 151.724 239.757 150.413C239.557 149.16 239.344 147.888 238.821 146.726C238.433 145.861 237.852 145.034 237.064 144.453C236.199 143.82 235.431 144.195 234.875 145.067Z" fill="black"/>
<path d="M248.745 172.302C243.444 173.581 240.577 172.302 239.021 170.514C238.905 170.378 238.795 170.243 238.692 170.101C237.232 168.099 236.044 163.631 235.695 161.92C235.67 161.771 235.644 161.629 235.612 161.474C235.612 161.455 235.612 161.435 235.605 161.422C235.166 158.982 235.011 156.308 235.101 153.525C235.528 141.709 245.452 136.614 253.885 140.501C257.068 141.974 259.8 144.731 261.407 148.05C261.53 148.302 261.653 148.56 261.763 148.831C266.806 160.699 258.812 169.894 248.745 172.302Z" fill="#FFC9B0"/>
<g opacity="0.21">
<g opacity="0.21">
<path opacity="0.21" d="M240.028 169.855C239.783 170.172 239.428 170.385 239.021 170.514C238.905 170.378 238.795 170.243 238.692 170.101C237.232 168.099 236.044 163.631 235.696 161.919C235.67 161.771 235.644 161.629 235.612 161.474C236.29 161.551 236.916 161.971 237.42 162.43C239.079 163.96 240.138 166.007 240.351 168.118C240.416 168.725 240.403 169.364 240.028 169.855Z" fill="#3C1F23"/>
<path opacity="0.21" d="M255.712 167.899C255.835 167.802 255.958 167.711 256.068 167.608C257.953 165.981 260.084 162.63 258.173 160.111C257.23 158.872 255.461 158.536 254.072 159.065C252.678 159.595 251.632 160.835 250.954 162.21C250.45 163.237 250.114 164.393 250.198 165.561C250.289 166.73 250.85 167.912 251.812 168.532C253.084 169.352 254.608 168.732 255.712 167.899Z" fill="#3C1F23"/>
</g>
</g>
<path d="M266.87 151.446C266.715 152.447 266.489 153.435 266.231 154.416C266.128 154.784 265.701 157.077 265.379 157.18C265.236 157.225 265.101 157.251 264.959 157.245C264.655 157.225 264.384 157.051 264.158 156.831C263.713 156.405 263.293 155.85 262.57 155.96C261.53 156.095 260.749 158.446 259.69 158.484C258.398 158.53 257.888 157.29 257.514 156.076C257.578 154.81 257.456 154.139 257.811 151.466C257.83 151.388 257.83 151.304 257.837 151.227C257.772 151.11 257.708 151.014 257.649 150.943C256.849 149.825 255.512 149.419 254.331 148.818C253.549 148.424 252.929 147.798 252.277 147.243C251.522 146.59 250.863 145.841 250.456 144.931C250.069 144.059 249.843 143.065 249.572 142.154C248.009 143.995 245.956 145.641 243.709 146.668C242.159 147.391 240.422 148.088 238.756 148.495C237.445 148.818 235.411 149.154 234.288 148.211C233.255 147.346 233.306 146.055 233.552 144.841C233.933 143.013 235.205 141.78 236.625 140.611C240.499 137.428 245.459 135.297 250.553 135.045C251.67 134.994 252.794 135.026 253.904 135.168C255.37 135.349 256.81 135.704 258.179 136.246C258.65 136.427 259.109 136.627 259.561 136.86C259.916 137.047 260.265 137.234 260.613 137.447C261.775 138.145 262.873 139.042 263.809 140.069C265.211 141.573 266.283 143.388 266.747 145.331C266.754 145.357 266.754 145.383 266.767 145.409C267.232 147.398 267.187 149.457 266.87 151.446Z" fill="black"/>
<path d="M263.822 140.075C262.97 140.398 261.595 139.475 260.878 139.346C258.883 138.99 261.033 141.832 260.833 142.548C260.607 143.336 259.587 143.368 258.889 143.291C257.74 143.175 257.152 142.4 256.177 141.961C255.454 141.638 254.731 141.98 254.524 142.761C254.376 143.317 255.073 144.731 254.666 145.118C254.053 145.68 252.419 144.77 251.98 144.376C251.16 143.646 250.534 142.245 250.986 141.173C251.108 140.837 252.019 140.734 252.387 140.534C253.149 140.14 253.846 139.643 254.595 139.242C255.661 138.681 256.687 137.912 257.83 137.46C258.34 137.254 258.947 137.04 259.574 136.873C259.929 137.06 260.277 137.247 260.626 137.46C261.788 138.145 262.886 139.049 263.822 140.075Z" fill="black"/>
<path d="M258.198 136.246C257.649 136.511 257.101 136.782 256.519 136.995C255.247 137.467 254.04 137.996 252.858 138.648C251.838 139.21 250.786 139.772 249.894 140.521C249.365 140.966 248.726 142.019 248.28 142.019C247.221 143.569 245.013 143.498 243.476 142.813C242.572 142.413 242.34 141.761 243.366 141.238C244.483 140.669 245.859 140.682 247.015 140.159C247.925 139.74 248.752 139.01 248.396 137.977C248.17 137.338 247.428 136.362 248.551 136.124C249.404 135.943 250.398 136.776 251.244 136.924C252.045 137.066 252.406 136.905 252.871 136.285C253.233 135.801 253.439 135.439 253.924 135.181C255.389 135.349 256.829 135.704 258.198 136.246Z" fill="black"/>
<path d="M239.796 159.963C239.931 160.809 239.615 161.558 239.079 161.642C238.549 161.719 238.001 161.099 237.865 160.254C237.729 159.408 238.046 158.659 238.582 158.575C239.111 158.497 239.654 159.117 239.796 159.963Z" fill="black"/>
<path d="M250.857 158.53C250.999 159.408 250.618 160.195 249.998 160.286C249.384 160.376 248.765 159.743 248.622 158.865C248.48 157.987 248.861 157.199 249.481 157.109C250.095 157.012 250.708 157.651 250.857 158.53Z" fill="black"/>
<path d="M242.572 165.355C243.792 165.264 245.019 164.98 246.123 164.47C247.228 163.953 248.164 163.23 249.061 162.436C249.139 162.372 249.275 162.455 249.21 162.546C247.815 164.548 245.032 165.69 242.566 165.6C242.411 165.594 242.411 165.368 242.572 165.355Z" fill="#C72C19"/>
<path d="M242.65 163.308C241.939 163.146 241.216 162.61 241.236 161.842C241.242 161.5 241.397 161.151 241.701 160.964C241.933 160.815 242.224 160.77 242.462 160.628C243.069 160.273 242.772 159.64 242.604 159.117C242.359 158.362 242.172 157.477 241.726 156.806C241.662 156.715 241.475 156.741 241.487 156.87C241.533 157.29 241.694 157.703 241.836 158.097C241.991 158.53 242.14 158.962 242.282 159.395C242.353 159.614 242.553 159.963 242.417 160.183C242.34 160.312 242.146 160.376 242.017 160.434C241.726 160.557 241.462 160.654 241.249 160.893C240.868 161.325 240.803 161.971 241.048 162.475C241.332 163.056 241.985 163.379 242.624 163.456C242.714 163.463 242.734 163.327 242.65 163.308Z" fill="#C72C19"/>
<path d="M239.563 153.086C239.757 153.564 239.053 153.506 238.001 153.803C236.948 154.1 236.884 155.017 236.567 154.978C236.251 154.939 236.296 153.332 237.652 152.776C238.691 152.35 239.434 152.77 239.563 153.086Z" fill="black"/>
<path d="M246.124 151.937C246.027 152.37 247.325 152.189 248.764 152.092C250.204 151.995 251.238 153.022 251.399 152.647C251.56 152.273 250.534 151.059 248.79 151.02C247.047 150.981 246.188 151.653 246.124 151.937Z" fill="black"/>
<path d="M259.987 156.844C260.749 154.894 262.331 153.332 264.597 154.035C265.333 154.261 265.889 154.894 266.141 155.598C266.392 156.302 266.386 157.07 266.276 157.806C265.992 159.666 264.998 161.474 263.37 162.514C262.751 162.907 261.976 163.185 261.278 162.946C260.323 162.61 259.832 161.597 259.612 160.706C259.341 159.614 259.483 158.149 259.987 156.844Z" fill="#FFC9B0"/>
<path opacity="0.3" d="M262.518 155.049C261.963 155.605 261.659 156.373 261.13 156.915C260.755 157.296 260.516 157.858 259.877 157.212C259.871 157.206 259.864 157.193 259.858 157.187C259.897 157.07 259.935 156.954 259.98 156.844C260.691 155.017 262.124 153.532 264.171 153.926C263.564 154.165 263.002 154.565 262.518 155.049Z" fill="#FFC9B0"/>
<path d="M264.714 155.882C264.5 155.734 264.242 155.676 263.984 155.688C263.39 155.727 262.88 156.128 262.563 156.592C262.234 157.077 262.008 157.651 261.827 158.2C261.64 158.775 261.55 159.382 261.588 159.989C261.595 160.112 261.808 160.105 261.808 159.982C261.821 158.988 262.221 157.981 262.712 157.115C262.789 156.986 262.873 156.857 262.97 156.734C263.274 157.148 263.441 157.638 263.474 158.142C263.512 158.749 263.364 159.304 263.17 159.873C263.151 159.931 263.228 159.976 263.267 159.924C263.997 158.923 263.952 157.477 263.132 156.541C263.306 156.36 263.512 156.211 263.764 156.14C264.158 156.024 264.707 156.147 264.94 156.496C264.985 156.56 265.107 156.508 265.088 156.431C265.017 156.211 264.914 156.018 264.714 155.882Z" fill="#C72C19"/>
<path d="M83.6574 321.926H80.5903L90.941 217.618H99.4643L83.6574 321.926Z" fill="black"/>
<path d="M255.073 321.926H258.134L247.783 217.618H239.266L255.073 321.926Z" fill="black"/>
<path d="M252.626 208.559H86.0981V219.962H252.626V208.559Z" fill="#FFD0B6"/>
<path opacity="0.45" d="M252.626 208.559H86.0981V213.021H252.626V208.559Z" fill="#FFD0B6"/>
<path d="M256.248 205.272H82.4758V210.909H256.248V205.272Z" fill="#FFD0B6"/>
<path d="M139.356 168.241H184.678C185.569 168.241 186.363 168.79 186.673 169.623L198.851 202.134H150.023L138.039 170.139C137.696 169.223 138.374 168.241 139.356 168.241Z" fill="#FFDCC8"/>
<path d="M148.372 205.515H220.491V202.132H148.372V205.515Z" fill="#FFDCC8"/>
<path d="M211.901 205.059C213.735 204.698 217.28 203.8 219.294 202.134H220.489V205.518H209.267C210.158 205.382 211.036 205.227 211.901 205.059Z" fill="#C6A998"/>
<path d="M148.375 205.515H197.203V202.132H148.375V205.515Z" fill="#C6A998"/>
<path opacity="0.8" d="M191.994 203.167H177.95V204.62H191.994V203.167Z" fill="#C6A998"/>
<path opacity="0.8" d="M153.206 203.167H149.958V204.62H153.206V203.167Z" fill="#C6A998"/>
<path opacity="0.8" d="M157.513 203.167H154.265V204.62H157.513V203.167Z" fill="#C6A998"/>
<path d="M137.703 168.241H183.025C183.916 168.241 184.71 168.79 185.02 169.623L197.198 202.134H148.37L136.386 170.139C136.043 169.223 136.721 168.241 137.703 168.241Z" fill="#9A6C52"/>
<path opacity="0.51" d="M137.703 168.241H175.89C157.32 168.712 147.395 169.274 143.579 169.836C139.763 170.398 137.193 171.244 137.858 174.059L136.392 170.139C136.043 169.223 136.721 168.241 137.703 168.241Z" fill="#FFDCC8"/>
<path opacity="0.35" d="M148.131 199.435C158.127 202.147 170.931 201.476 178.912 194.153C183.148 190.273 185.208 184.338 185.13 178.669C185.085 175.473 184.491 171.528 183.006 168.235H183.025C183.916 168.235 184.71 168.783 185.02 169.616L197.198 202.128H148.37L147.266 199.183C147.556 199.274 147.847 199.358 148.131 199.435Z" fill="#C6A998"/>
<path opacity="0.46" d="M193.331 203.826C193.331 204.342 193.75 204.756 194.26 204.756C194.777 204.756 195.19 204.336 195.19 203.826C195.19 203.309 194.771 202.896 194.26 202.896C193.744 202.89 193.331 203.309 193.331 203.826Z" fill="#C6A998"/>
<path opacity="0.8" d="M193.641 203.826C193.641 204.168 193.918 204.452 194.267 204.452C194.609 204.452 194.893 204.175 194.893 203.826C194.893 203.484 194.616 203.2 194.267 203.2C193.918 203.2 193.641 203.477 193.641 203.826Z" fill="#C6A998"/>
<path d="M172.08 191.176L168.645 188.419C168.316 188.155 167.922 188.045 167.58 188.122L164.009 188.91C163.15 189.097 162.195 188.135 162.395 187.283L163.208 183.719C163.286 183.376 163.176 182.982 162.918 182.653L160.187 179.199C159.534 178.372 159.948 177.365 160.897 177.5L164.836 178.056C165.21 178.107 165.539 177.972 165.72 177.694L167.606 174.776C168.058 174.078 169.272 174.414 169.659 175.35L171.28 179.257C171.435 179.631 171.745 179.948 172.119 180.103L176.013 181.749C176.949 182.143 177.278 183.363 176.575 183.809L173.637 185.669C173.359 185.843 173.217 186.179 173.269 186.553L173.792 190.492C173.914 191.428 172.907 191.835 172.08 191.176Z" fill="#45262A"/>
<path d="M172.067 189.788L168.355 186.811C168.245 186.721 168.109 186.682 167.993 186.708L164.132 187.554C163.841 187.619 163.518 187.289 163.583 186.999L164.461 183.15C164.487 183.034 164.448 182.898 164.364 182.789L161.413 179.057C161.194 178.772 161.336 178.437 161.652 178.482L165.907 179.082C166.037 179.102 166.146 179.057 166.211 178.96L168.245 175.802C168.4 175.563 168.813 175.68 168.942 175.996L170.692 180.219C170.744 180.348 170.854 180.451 170.976 180.503L175.186 182.285C175.503 182.421 175.619 182.834 175.38 182.982L172.203 184.991C172.106 185.049 172.061 185.165 172.08 185.288L172.649 189.543C172.687 189.872 172.345 190.014 172.067 189.788Z" fill="#F1CCB8"/>
<path d="M169.64 184.836L168.355 183.803C168.316 183.77 168.271 183.757 168.232 183.77L166.895 184.067C166.792 184.087 166.682 183.977 166.708 183.874L167.012 182.537C167.018 182.498 167.005 182.453 166.979 182.414L165.959 181.123C165.882 181.026 165.933 180.91 166.043 180.923L167.515 181.129C167.56 181.136 167.599 181.123 167.619 181.084L168.322 179.993C168.374 179.909 168.516 179.948 168.561 180.064L169.168 181.523C169.188 181.568 169.226 181.607 169.265 181.62L170.724 182.24C170.834 182.285 170.873 182.427 170.789 182.479L169.691 183.176C169.659 183.196 169.64 183.234 169.646 183.279L169.84 184.752C169.853 184.861 169.736 184.913 169.64 184.836Z" fill="white"/>
<path d="M158.249 191.473C159.263 195.025 162.595 197.769 165.694 197.601C168.794 197.433 170.486 194.424 169.472 190.873C168.458 187.322 165.126 184.577 162.027 184.745C158.927 184.913 157.236 187.922 158.249 191.473Z" fill="white"/>
<path d="M159.276 191.422C160.103 194.321 162.827 196.568 165.365 196.432C167.896 196.297 169.278 193.837 168.452 190.938C167.625 188.038 164.9 185.791 162.363 185.927C159.831 186.056 158.45 188.516 159.276 191.422Z" fill="#3C1F23"/>
<path d="M167.322 190.731C167.263 190.589 167.115 190.544 166.986 190.641C166.553 190.996 166.056 190.098 165.849 189.84C165.41 189.304 164.971 188.768 164.532 188.232C164.364 188.025 163.932 188.122 163.893 188.4C163.841 188.774 163.867 189.143 163.919 189.511C163.854 189.414 163.802 189.317 163.738 189.226C163.499 188.897 163.118 188.574 162.685 188.749C162.227 188.929 162.208 189.465 162.208 189.885C162.214 190.918 162.485 191.926 162.789 192.901C162.866 193.152 162.95 193.398 163.034 193.643C163.105 193.863 163.15 194.134 163.254 194.347C163.234 194.34 163.221 194.334 163.202 194.321C163.112 194.269 163.034 194.192 162.957 194.127C162.789 193.979 162.634 193.817 162.485 193.65C162.143 193.256 161.865 192.791 161.665 192.313C161.51 191.926 161.22 191.248 161.53 190.879C161.685 190.699 161.446 190.46 161.271 190.621C160.606 191.202 161.045 192.313 161.349 192.972C161.542 193.404 161.807 193.798 162.111 194.166C162.369 194.476 162.692 194.851 163.086 194.993C163.46 195.128 163.912 194.993 163.957 194.541C163.983 194.308 163.886 194.056 163.828 193.83C163.751 193.54 163.673 193.256 163.589 192.972C163.292 191.926 162.957 190.879 162.982 189.775C162.982 189.704 162.982 189.627 162.995 189.556V189.549C163.034 189.588 163.079 189.633 163.099 189.666C163.279 189.904 163.428 190.169 163.576 190.434C163.867 190.97 164.087 191.532 164.248 192.113C164.371 192.558 164.965 192.429 165.003 192.009C165.081 191.202 164.823 190.434 164.694 189.646C165.074 190.13 165.462 190.608 165.882 191.054C166.133 191.319 166.495 191.538 166.876 191.448C167.199 191.377 167.457 191.067 167.322 190.731Z" fill="#F1CCB8"/>
<path d="M124.337 177.849C122.368 176.228 122.206 173.213 122.897 170.947C123.252 169.784 123.614 168.545 123.769 167.337C123.898 166.343 123.995 165.232 123.64 164.27C123.904 164.703 124.214 165 124.486 165.432C124.905 166.097 125.17 166.808 125.415 167.55C125.803 168.712 126.093 169.842 126.093 171.076C126.093 172.251 125.803 173.387 125.609 174.543C125.48 175.312 125.383 176.093 125.125 176.829C125.041 177.042 124.66 178.114 124.337 177.849Z" fill="#FFDCC8"/>
<path d="M122.561 178.049C120.198 177.087 118.513 175.525 117.68 173.329C117.318 172.374 117.079 171.399 116.905 170.398C116.821 169.913 116.685 169.397 116.672 168.9C116.679 169.177 116.924 169.416 117.105 169.61C117.505 170.049 117.957 170.404 118.409 170.785C118.907 171.205 119.365 171.618 119.907 171.98C120.482 172.367 121.108 172.735 121.632 173.207C122.658 174.123 123.498 175.299 123.853 176.642C123.982 177.132 123.93 177.765 123.724 177.946C123.472 178.172 122.975 178.217 122.561 178.049Z" fill="#FFDCC8"/>
<path d="M124.259 177.778C123.898 177.236 124.479 176.196 124.782 175.776C125.525 174.737 126.655 173.884 127.779 173.284C129.025 172.612 130.387 172.167 131.717 171.696C132.286 171.495 132.886 171.321 133.383 170.979C133.648 170.798 134.055 170.533 134.132 170.198C134.126 171.663 133.067 172.942 132.163 174.007C131.227 175.111 130.181 175.951 128.87 176.558C128.076 176.926 127.307 177.236 126.487 177.526C126.022 177.688 125.544 177.849 125.054 177.869C124.763 177.881 124.408 177.998 124.259 177.778Z" fill="#FFDCC8"/>
<path d="M133.215 161.041C132.066 162.184 131.149 163.566 130.271 164.922C129.348 166.356 128.502 167.841 127.74 169.371C126.261 172.341 125.067 175.518 124.421 178.779C124.395 178.915 124.582 178.966 124.628 178.837C125.609 175.647 126.739 172.535 128.237 169.545C128.96 168.112 129.754 166.711 130.62 165.361C131.524 163.954 132.563 162.643 133.461 161.235C133.571 161.08 133.345 160.912 133.215 161.041Z" fill="#FFD0B6"/>
<path d="M122.6 170.101C121.806 167.46 120.727 164.677 118.745 162.701C118.68 162.636 118.558 162.727 118.616 162.804C120.308 165.071 121.373 167.641 122.116 170.352C122.91 173.239 123.149 176.151 123.465 179.115C123.485 179.296 123.723 179.296 123.743 179.115C124.046 176.125 123.459 172.955 122.6 170.101Z" fill="#FFD0B6"/>
<path d="M118.061 165.019C117.563 165.032 116.95 164.851 116.537 164.567C116.169 164.315 116.007 163.915 115.885 163.495C115.736 162.991 115.452 162.669 115.058 162.333C114.535 161.887 113.967 161.564 113.282 161.48C113.153 161.468 112.779 161.5 112.74 161.332C112.688 161.119 113.244 160.802 113.386 160.731C113.838 160.505 114.393 160.402 114.897 160.396C115.265 160.389 115.646 160.596 116.001 160.551C115.613 160.254 115.329 159.634 115.297 159.162C115.265 158.704 115.426 157.755 115.949 157.574C116.337 157.438 116.324 158.039 116.369 158.284C116.453 158.73 116.64 159.44 116.995 159.744C116.989 159.059 117.37 158.052 118.08 157.832C118.119 158.271 117.783 158.769 117.951 159.214C118.087 158.949 118.254 158.717 118.5 158.517C118.648 158.394 118.881 158.116 119.094 158.129C118.958 158.42 118.952 158.846 118.939 159.169C118.907 159.873 119.475 160.15 119.92 160.602C120.159 160.848 120.463 161.048 120.611 161.364C120.837 161.829 120.837 162.455 120.766 162.953C120.631 163.805 119.894 164.961 118.061 165.019Z" fill="#3C1F23"/>
<path d="M136.967 159.014C137.051 158.988 137.225 158.982 137.251 158.878C137.322 158.588 136.386 158.439 136.231 158.407C135.895 158.336 135.546 158.362 135.211 158.426C135.101 158.446 134.901 158.555 134.856 158.433C134.817 158.323 135.043 157.974 135.088 157.877C135.159 157.729 135.301 157.535 135.275 157.361C134.862 157.29 134.055 157.722 133.971 158.149C133.732 157.813 133.648 157.374 133.383 157.044C133.254 156.877 133.08 156.676 132.886 156.599C132.783 156.56 132.512 156.502 132.415 156.58C132.318 156.657 132.35 156.864 132.357 156.973C132.383 157.348 132.447 157.755 132.357 158.129C132.24 158.607 131.892 158.717 131.504 158.936C131.253 159.085 131.02 159.298 130.833 159.518C130.555 159.847 130.374 160.247 130.349 160.68C130.297 161.513 130.794 162.288 131.414 162.791C131.582 162.933 131.769 163.056 131.963 163.159C133.177 163.805 134.998 164.096 135.714 162.598C136.024 161.945 136.011 161.293 135.953 160.596C135.947 160.486 135.94 160.363 135.992 160.267C136.089 160.073 136.341 159.989 136.534 159.944C136.696 159.905 136.986 159.834 136.722 159.679C136.515 159.55 136.212 159.647 135.986 159.634C136.16 159.459 136.341 159.337 136.554 159.214C136.683 159.13 136.812 159.059 136.967 159.014Z" fill="#3C1F23"/>
<path d="M133.822 192.913C133.822 189.84 132.35 187.767 130.071 186.579C128.56 185.791 127.553 184.3 127.553 182.595V177.714H121.238V182.595C121.238 184.3 120.23 185.791 118.719 186.579C116.44 187.767 114.968 189.84 114.968 192.913C114.968 194.947 115.613 197.117 116.718 199.002C117.718 200.714 120.101 202.67 120.101 204.652H128.689C128.689 202.67 131.072 200.72 132.073 199.002C133.177 197.123 133.822 194.954 133.822 192.913Z" fill="#F1CCB8"/>
<path d="M127.83 178.54H120.966C120.747 178.54 120.566 178.359 120.566 178.14V177.785C120.566 177.565 120.747 177.384 120.966 177.384H127.83C128.05 177.384 128.231 177.565 128.231 177.785V178.14C128.231 178.359 128.05 178.54 127.83 178.54Z" fill="#F59711"/>
<path d="M128.922 204.239H119.869C119.649 204.239 119.475 204.413 119.475 204.633V204.982C119.475 205.201 119.649 205.376 119.869 205.376H128.922C129.141 205.376 129.315 205.201 129.315 204.982V204.633C129.315 204.413 129.141 204.239 128.922 204.239Z" fill="#F59711"/>
</g>
<defs>
<clipPath id="clip0">
<rect width="360" height="360" fill="white"/>
</clipPath>
</defs>
</svg>
