<svg width="89" height="22" viewBox="0 0 89 22" fill="none" xmlns="http://www.w3.org/2000/svg">
<path d="M89 4.40426L81 0V4.40426H89Z" fill="#082436"/>
<path opacity="0.85" d="M89 22V4H1.89241C1.08894 4 0.613545 4.89964 1.06625 5.56343L5.75367 12.4366C5.98546 12.7764 5.98546 13.2236 5.75367 13.5634L1.06625 20.4366C0.613545 21.1004 1.08894 22 1.89241 22H89Z" fill="#015288"/>
<path d="M13.1934 15.5031H14.9434V16.0001H12.5564V11.0651H13.1934V15.5031Z" fill="white"/>
<path d="M19.1266 13.8651C19.1266 14.0004 19.1172 14.1171 19.0986 14.2151H16.0256C16.0396 14.6537 16.1632 14.9827 16.3966 15.2021C16.6346 15.4214 16.9239 15.5311 17.2646 15.5311C17.5726 15.5311 17.8292 15.4541 18.0346 15.3001C18.2446 15.1414 18.3729 14.9314 18.4196 14.6701H19.0986C19.0519 14.9361 18.9469 15.1741 18.7836 15.3841C18.6249 15.5941 18.4172 15.7574 18.1606 15.8741C17.9039 15.9907 17.6146 16.0491 17.2926 16.0491C16.9239 16.0491 16.5972 15.9697 16.3126 15.8111C16.0279 15.6524 15.8039 15.4261 15.6406 15.1321C15.4819 14.8334 15.4026 14.4834 15.4026 14.0821C15.4026 13.6807 15.4819 13.3307 15.6406 13.0321C15.8039 12.7334 16.0279 12.5047 16.3126 12.3461C16.5972 12.1874 16.9239 12.1081 17.2926 12.1081C17.6659 12.1081 17.9902 12.1874 18.2656 12.3461C18.5456 12.5047 18.7579 12.7171 18.9026 12.9831C19.0519 13.2491 19.1266 13.5431 19.1266 13.8651ZM18.4826 13.9071C18.4966 13.6224 18.4499 13.3844 18.3426 13.1931C18.2352 13.0017 18.0882 12.8594 17.9016 12.7661C17.7149 12.6727 17.5119 12.6261 17.2926 12.6261C16.9426 12.6261 16.6486 12.7357 16.4106 12.9551C16.1726 13.1697 16.0442 13.4871 16.0256 13.9071H18.4826Z" fill="white"/>
<path d="M21.5347 12.1081C21.9081 12.1081 22.2231 12.2014 22.4797 12.3881C22.7411 12.5747 22.9231 12.8244 23.0257 13.1371V12.1571H23.6627V16.0001H23.0257V15.0201C22.9231 15.3327 22.7411 15.5824 22.4797 15.7691C22.2231 15.9557 21.9081 16.0491 21.5347 16.0491C21.1941 16.0491 20.8907 15.9697 20.6247 15.8111C20.3587 15.6524 20.1487 15.4261 19.9947 15.1321C19.8454 14.8334 19.7707 14.4834 19.7707 14.0821C19.7707 13.6807 19.8454 13.3307 19.9947 13.0321C20.1487 12.7334 20.3587 12.5047 20.6247 12.3461C20.8907 12.1874 21.1941 12.1081 21.5347 12.1081ZM21.7167 12.6751C21.3247 12.6751 21.0097 12.8011 20.7717 13.0531C20.5384 13.3004 20.4217 13.6434 20.4217 14.0821C20.4217 14.5207 20.5384 14.8661 20.7717 15.1181C21.0097 15.3654 21.3247 15.4891 21.7167 15.4891C21.9687 15.4891 22.1927 15.4307 22.3887 15.3141C22.5894 15.1974 22.7457 15.0341 22.8577 14.8241C22.9697 14.6094 23.0257 14.3621 23.0257 14.0821C23.0257 13.8021 22.9697 13.5547 22.8577 13.3401C22.7457 13.1254 22.5894 12.9621 22.3887 12.8501C22.1927 12.7334 21.9687 12.6751 21.7167 12.6751Z" fill="white"/>
<path d="M26.2515 12.1081C26.6248 12.1081 26.9398 12.2014 27.1965 12.3881C27.4578 12.5747 27.6398 12.8244 27.7425 13.1371V10.8201H28.3795V16.0001H27.7425V15.0201C27.6398 15.3327 27.4578 15.5824 27.1965 15.7691C26.9398 15.9557 26.6248 16.0491 26.2515 16.0491C25.9108 16.0491 25.6075 15.9697 25.3415 15.8111C25.0755 15.6524 24.8655 15.4261 24.7115 15.1321C24.5622 14.8334 24.4875 14.4834 24.4875 14.0821C24.4875 13.6807 24.5622 13.3307 24.7115 13.0321C24.8655 12.7334 25.0755 12.5047 25.3415 12.3461C25.6075 12.1874 25.9108 12.1081 26.2515 12.1081ZM26.4335 12.6751C26.0415 12.6751 25.7265 12.8011 25.4885 13.0531C25.2552 13.3004 25.1385 13.6434 25.1385 14.0821C25.1385 14.5207 25.2552 14.8661 25.4885 15.1181C25.7265 15.3654 26.0415 15.4891 26.4335 15.4891C26.6855 15.4891 26.9095 15.4307 27.1055 15.3141C27.3062 15.1974 27.4625 15.0341 27.5745 14.8241C27.6865 14.6094 27.7425 14.3621 27.7425 14.0821C27.7425 13.8021 27.6865 13.5547 27.5745 13.3401C27.4625 13.1254 27.3062 12.9621 27.1055 12.8501C26.9095 12.7334 26.6855 12.6751 26.4335 12.6751Z" fill="white"/>
<path d="M34.2448 14.7191C34.2448 14.9524 34.1888 15.1694 34.0768 15.3701C33.9648 15.5707 33.7945 15.7341 33.5658 15.8601C33.3371 15.9861 33.0548 16.0491 32.7188 16.0491C32.3921 16.0491 32.1005 15.9907 31.8438 15.8741C31.5918 15.7527 31.3888 15.5894 31.2348 15.3841C31.0855 15.1741 30.9991 14.9361 30.9758 14.6701H31.6548C31.6688 14.8101 31.7155 14.9477 31.7948 15.0831C31.8788 15.2137 31.9955 15.3234 32.1448 15.4121C32.2988 15.4961 32.4831 15.5381 32.6978 15.5381C32.9778 15.5381 33.1925 15.4634 33.3418 15.3141C33.4911 15.1647 33.5658 14.9734 33.5658 14.7401C33.5658 14.5394 33.5121 14.3761 33.4048 14.2501C33.3021 14.1241 33.1738 14.0261 33.0198 13.9561C32.8658 13.8814 32.6558 13.8021 32.3898 13.7181C32.0771 13.6154 31.8251 13.5197 31.6338 13.4311C31.4471 13.3377 31.2861 13.2001 31.1508 13.0181C31.0201 12.8361 30.9548 12.5957 30.9548 12.2971C30.9548 12.0404 31.0155 11.8141 31.1368 11.6181C31.2628 11.4221 31.4401 11.2704 31.6688 11.1631C31.9021 11.0557 32.1751 11.0021 32.4878 11.0021C32.9731 11.0021 33.3581 11.1211 33.6428 11.3591C33.9275 11.5924 34.0931 11.8911 34.1398 12.2551H33.4538C33.4165 12.0591 33.3161 11.8864 33.1528 11.7371C32.9895 11.5877 32.7678 11.5131 32.4878 11.5131C32.2311 11.5131 32.0258 11.5807 31.8718 11.7161C31.7178 11.8467 31.6408 12.0334 31.6408 12.2761C31.6408 12.4674 31.6898 12.6237 31.7878 12.7451C31.8905 12.8617 32.0165 12.9551 32.1658 13.0251C32.3151 13.0904 32.5205 13.1651 32.7818 13.2491C33.0991 13.3517 33.3535 13.4497 33.5448 13.5431C33.7408 13.6364 33.9065 13.7787 34.0418 13.9701C34.1771 14.1567 34.2448 14.4064 34.2448 14.7191Z" fill="white"/>
<path d="M36.8023 12.1081C37.2923 12.1081 37.6983 12.2387 38.0203 12.5001C38.3423 12.7614 38.5407 13.1114 38.6153 13.5501H37.9433C37.8967 13.2747 37.7683 13.0601 37.5583 12.9061C37.353 12.7474 37.0963 12.6681 36.7883 12.6681C36.5643 12.6681 36.359 12.7194 36.1723 12.8221C35.9903 12.9247 35.8433 13.0834 35.7313 13.2981C35.6193 13.5081 35.5633 13.7694 35.5633 14.0821C35.5633 14.3947 35.6193 14.6584 35.7313 14.8731C35.8433 15.0831 35.9903 15.2394 36.1723 15.3421C36.359 15.4447 36.5643 15.4961 36.7883 15.4961C37.0963 15.4961 37.353 15.4167 37.5583 15.2581C37.7683 15.0994 37.8967 14.8824 37.9433 14.6071H38.6153C38.5407 15.0504 38.3423 15.4027 38.0203 15.6641C37.6983 15.9207 37.2923 16.0491 36.8023 16.0491C36.4337 16.0491 36.107 15.9697 35.8223 15.8111C35.5377 15.6524 35.3137 15.4261 35.1503 15.1321C34.9917 14.8334 34.9123 14.4834 34.9123 14.0821C34.9123 13.6807 34.9917 13.3307 35.1503 13.0321C35.3137 12.7334 35.5377 12.5047 35.8223 12.3461C36.107 12.1874 36.4337 12.1081 36.8023 12.1081Z" fill="white"/>
<path d="M41.472 12.0941C41.92 12.0941 42.2816 12.2387 42.557 12.5281C42.8323 12.8127 42.97 13.2257 42.97 13.7671V16.0001H42.333V13.8231C42.333 13.4404 42.235 13.1464 42.039 12.9411C41.843 12.7357 41.577 12.6331 41.241 12.6331C40.891 12.6331 40.611 12.7474 40.401 12.9761C40.191 13.2001 40.086 13.5291 40.086 13.9631V16.0001H39.449V10.8201H40.086V13.0671C40.184 12.7544 40.3566 12.5141 40.604 12.3461C40.856 12.1781 41.1453 12.0941 41.472 12.0941Z" fill="white"/>
<path d="M45.69 12.1081C46.0587 12.1081 46.3877 12.1874 46.677 12.3461C46.971 12.5047 47.1997 12.7334 47.363 13.0321C47.531 13.3307 47.615 13.6807 47.615 14.0821C47.615 14.4834 47.531 14.8334 47.363 15.1321C47.1997 15.4261 46.971 15.6524 46.677 15.8111C46.3877 15.9697 46.0587 16.0491 45.69 16.0491C45.3214 16.0491 44.99 15.9697 44.696 15.8111C44.4067 15.6524 44.178 15.4261 44.01 15.1321C43.842 14.8334 43.758 14.4834 43.758 14.0821C43.758 13.6807 43.842 13.3307 44.01 13.0321C44.178 12.7334 44.4067 12.5047 44.696 12.3461C44.99 12.1874 45.3214 12.1081 45.69 12.1081ZM45.69 12.6681C45.4614 12.6681 45.249 12.7194 45.053 12.8221C44.8617 12.9247 44.7054 13.0834 44.584 13.2981C44.4674 13.5081 44.409 13.7694 44.409 14.0821C44.409 14.3901 44.4674 14.6514 44.584 14.8661C44.7054 15.0761 44.8617 15.2324 45.053 15.3351C45.249 15.4377 45.4614 15.4891 45.69 15.4891C45.9187 15.4891 46.1287 15.4377 46.32 15.3351C46.516 15.2324 46.6724 15.0761 46.789 14.8661C46.9104 14.6514 46.971 14.3901 46.971 14.0821C46.971 13.7694 46.9104 13.5081 46.789 13.2981C46.6724 13.0834 46.516 12.9247 46.32 12.8221C46.1287 12.7194 45.9187 12.6681 45.69 12.6681Z" fill="white"/>
<path d="M50.1881 12.1081C50.5567 12.1081 50.8857 12.1874 51.1751 12.3461C51.4691 12.5047 51.6977 12.7334 51.8611 13.0321C52.0291 13.3307 52.1131 13.6807 52.1131 14.0821C52.1131 14.4834 52.0291 14.8334 51.8611 15.1321C51.6977 15.4261 51.4691 15.6524 51.1751 15.8111C50.8857 15.9697 50.5567 16.0491 50.1881 16.0491C49.8194 16.0491 49.4881 15.9697 49.1941 15.8111C48.9047 15.6524 48.6761 15.4261 48.5081 15.1321C48.3401 14.8334 48.2561 14.4834 48.2561 14.0821C48.2561 13.6807 48.3401 13.3307 48.5081 13.0321C48.6761 12.7334 48.9047 12.5047 49.1941 12.3461C49.4881 12.1874 49.8194 12.1081 50.1881 12.1081ZM50.1881 12.6681C49.9594 12.6681 49.7471 12.7194 49.5511 12.8221C49.3597 12.9247 49.2034 13.0834 49.0821 13.2981C48.9654 13.5081 48.9071 13.7694 48.9071 14.0821C48.9071 14.3901 48.9654 14.6514 49.0821 14.8661C49.2034 15.0761 49.3597 15.2324 49.5511 15.3351C49.7471 15.4377 49.9594 15.4891 50.1881 15.4891C50.4167 15.4891 50.6267 15.4377 50.8181 15.3351C51.0141 15.2324 51.1704 15.0761 51.2871 14.8661C51.4084 14.6514 51.4691 14.3901 51.4691 14.0821C51.4691 13.7694 51.4084 13.5081 51.2871 13.2981C51.1704 13.0834 51.0141 12.9247 50.8181 12.8221C50.6267 12.7194 50.4167 12.6681 50.1881 12.6681Z" fill="white"/>
<path d="M53.5801 10.8201V16.0001H52.9431V10.8201H53.5801Z" fill="white"/>
<path d="M58.4402 10.4771C59.1496 10.4771 59.7562 10.6077 60.2602 10.8691C60.7642 11.1257 61.1469 11.4921 61.4082 11.9681C61.6696 12.4441 61.8002 13.0017 61.8002 13.6411C61.8002 14.0937 61.7209 14.5067 61.5622 14.8801C61.4036 15.2487 61.1912 15.5404 60.9252 15.7551C60.6592 15.9651 60.3722 16.0701 60.0642 16.0701C59.7796 16.0701 59.5556 15.9977 59.3922 15.8531C59.2336 15.7037 59.1636 15.4634 59.1822 15.1321C58.8369 15.7574 58.3352 16.0701 57.6772 16.0701C57.3879 16.0701 57.1289 16.0001 56.9002 15.8601C56.6762 15.7201 56.5012 15.5241 56.3752 15.2721C56.2492 15.0154 56.1862 14.7191 56.1862 14.3831C56.1862 13.9491 56.2772 13.5594 56.4592 13.2141C56.6412 12.8641 56.8886 12.5911 57.2012 12.3951C57.5186 12.1944 57.8709 12.0941 58.2582 12.0941C58.5989 12.0941 58.8929 12.1617 59.1402 12.2971C59.3876 12.4324 59.5742 12.6191 59.7002 12.8571C59.8309 13.0951 59.8962 13.3657 59.8962 13.6691C59.8962 13.7437 59.8869 13.8557 59.8682 14.0051L59.7142 14.9361C59.7049 15.0294 59.7002 15.0901 59.7002 15.1181C59.7002 15.2627 59.7352 15.3654 59.8052 15.4261C59.8752 15.4821 59.9756 15.5101 60.1062 15.5101C60.2882 15.5101 60.4586 15.4377 60.6172 15.2931C60.7806 15.1437 60.9089 14.9291 61.0022 14.6491C61.1002 14.3691 61.1492 14.0401 61.1492 13.6621C61.1492 13.1301 61.0419 12.6657 60.8272 12.2691C60.6126 11.8724 60.2952 11.5644 59.8752 11.3451C59.4599 11.1211 58.9536 11.0091 58.3562 11.0091C57.6702 11.0091 57.0776 11.1584 56.5782 11.4571C56.0836 11.7511 55.7056 12.1547 55.4442 12.6681C55.1876 13.1767 55.0592 13.7484 55.0592 14.3831C55.0592 15.3164 55.3206 16.0257 55.8432 16.5111C56.3706 17.0011 57.1172 17.2507 58.0832 17.2601L57.9642 17.7851C56.8442 17.7664 55.9739 17.4654 55.3532 16.8821C54.7372 16.3034 54.4292 15.4704 54.4292 14.3831C54.4292 13.6457 54.5972 12.9807 54.9332 12.3881C55.2692 11.7907 55.7406 11.3241 56.3472 10.9881C56.9586 10.6474 57.6562 10.4771 58.4402 10.4771ZM57.8732 15.5101C58.1252 15.5101 58.3562 15.4424 58.5662 15.3071C58.7762 15.1671 58.9442 14.9687 59.0702 14.7121C59.1962 14.4507 59.2592 14.1474 59.2592 13.8021C59.2592 13.4474 59.1636 13.1697 58.9722 12.9691C58.7809 12.7637 58.5102 12.6611 58.1602 12.6611C57.9036 12.6611 57.6702 12.7287 57.4602 12.8641C57.2549 12.9994 57.0939 13.1907 56.9772 13.4381C56.8606 13.6854 56.8022 13.9724 56.8022 14.2991C56.8022 14.6584 56.9002 14.9501 57.0962 15.1741C57.2922 15.3981 57.5512 15.5101 57.8732 15.5101Z" fill="white"/>
<path d="M66.3756 11.0651V16.0001H65.7316V13.7181H63.2256V16.0001H62.5886V11.0651H63.2256V13.2001H65.7316V11.0651H66.3756Z" fill="white"/>
<path d="M69.1373 12.1081C69.506 12.1081 69.835 12.1874 70.1243 12.3461C70.4183 12.5047 70.647 12.7334 70.8103 13.0321C70.9783 13.3307 71.0623 13.6807 71.0623 14.0821C71.0623 14.4834 70.9783 14.8334 70.8103 15.1321C70.647 15.4261 70.4183 15.6524 70.1243 15.8111C69.835 15.9697 69.506 16.0491 69.1373 16.0491C68.7686 16.0491 68.4373 15.9697 68.1433 15.8111C67.854 15.6524 67.6253 15.4261 67.4573 15.1321C67.2893 14.8334 67.2053 14.4834 67.2053 14.0821C67.2053 13.6807 67.2893 13.3307 67.4573 13.0321C67.6253 12.7334 67.854 12.5047 68.1433 12.3461C68.4373 12.1874 68.7686 12.1081 69.1373 12.1081ZM69.1373 12.6681C68.9086 12.6681 68.6963 12.7194 68.5003 12.8221C68.309 12.9247 68.1526 13.0834 68.0313 13.2981C67.9146 13.5081 67.8563 13.7694 67.8563 14.0821C67.8563 14.3901 67.9146 14.6514 68.0313 14.8661C68.1526 15.0761 68.309 15.2324 68.5003 15.3351C68.6963 15.4377 68.9086 15.4891 69.1373 15.4891C69.366 15.4891 69.576 15.4377 69.7673 15.3351C69.9633 15.2324 70.1196 15.0761 70.2363 14.8661C70.3576 14.6514 70.4183 14.3901 70.4183 14.0821C70.4183 13.7694 70.3576 13.5081 70.2363 13.2981C70.1196 13.0834 69.9633 12.9247 69.7673 12.8221C69.576 12.7194 69.366 12.6681 69.1373 12.6681Z" fill="white"/>
<path d="M76.6173 12.0941C77.0653 12.0941 77.4247 12.2387 77.6953 12.5281C77.9707 12.8127 78.1083 13.2257 78.1083 13.7671V16.0001H77.4713V13.8231C77.4713 13.4451 77.378 13.1557 77.1913 12.9551C77.0093 12.7544 76.7573 12.6541 76.4353 12.6541C76.0993 12.6541 75.8287 12.7661 75.6233 12.9901C75.4227 13.2094 75.3223 13.5337 75.3223 13.9631V16.0001H74.6853V13.8231C74.6853 13.4451 74.592 13.1557 74.4053 12.9551C74.2187 12.7544 73.9667 12.6541 73.6493 12.6541C73.3087 12.6541 73.0357 12.7661 72.8303 12.9901C72.6297 13.2094 72.5293 13.5337 72.5293 13.9631V16.0001H71.8923V12.1571H72.5293V13.0321C72.6227 12.7287 72.7883 12.4977 73.0263 12.3391C73.269 12.1757 73.5467 12.0941 73.8593 12.0941C74.186 12.0941 74.4683 12.1781 74.7063 12.3461C74.949 12.5094 75.1217 12.7521 75.2243 13.0741C75.3317 12.7614 75.5113 12.5211 75.7633 12.3531C76.0153 12.1804 76.3 12.0941 76.6173 12.0941Z" fill="white"/>
<path d="M82.6324 13.8651C82.6324 14.0004 82.6231 14.1171 82.6044 14.2151H79.5314C79.5454 14.6537 79.6691 14.9827 79.9024 15.2021C80.1404 15.4214 80.4297 15.5311 80.7704 15.5311C81.0784 15.5311 81.3351 15.4541 81.5404 15.3001C81.7504 15.1414 81.8787 14.9314 81.9254 14.6701H82.6044C82.5577 14.9361 82.4527 15.1741 82.2894 15.3841C82.1307 15.5941 81.9231 15.7574 81.6664 15.8741C81.4097 15.9907 81.1204 16.0491 80.7984 16.0491C80.4297 16.0491 80.1031 15.9697 79.8184 15.8111C79.5337 15.6524 79.3097 15.4261 79.1464 15.1321C78.9877 14.8334 78.9084 14.4834 78.9084 14.0821C78.9084 13.6807 78.9877 13.3307 79.1464 13.0321C79.3097 12.7334 79.5337 12.5047 79.8184 12.3461C80.1031 12.1874 80.4297 12.1081 80.7984 12.1081C81.1717 12.1081 81.4961 12.1874 81.7714 12.3461C82.0514 12.5047 82.2637 12.7171 82.4084 12.9831C82.5577 13.2491 82.6324 13.5431 82.6324 13.8651ZM81.9884 13.9071C82.0024 13.6224 81.9557 13.3844 81.8484 13.1931C81.7411 13.0017 81.5941 12.8594 81.4074 12.7661C81.2207 12.6727 81.0177 12.6261 80.7984 12.6261C80.4484 12.6261 80.1544 12.7357 79.9164 12.9551C79.6784 13.1697 79.5501 13.4871 79.5314 13.9071H81.9884Z" fill="white"/>
</svg>
