<svg id="Layer_1" data-name="Layer 1" xmlns="http://www.w3.org/2000/svg" xmlns:xlink="http://www.w3.org/1999/xlink" viewBox="0 0 360 56"><defs><linearGradient id="linear-gradient" x1="540.34" y1="-125.79" x2="333.66" y2="-329.21" gradientTransform="matrix(1, 0, 0, -1, -257, -199.5)" gradientUnits="userSpaceOnUse"><stop offset="0" stop-color="#ec5f24"/><stop offset="1" stop-color="#f8995c"/></linearGradient></defs><rect width="360" height="56" fill="url(#linear-gradient)"/><path d="M327,25.5h1.59a1,1,0,0,1,.7,1.71L324.7,31.8a1,1,0,0,1-1.41,0l-4.59-4.59a1,1,0,0,1,.71-1.71H321v-5a1,1,0,0,1,1-1h4a1,1,0,0,1,1,1Zm-9,11a1,1,0,0,1,0-2h12a1,1,0,0,1,0,2Z" fill="#fff" fill-rule="evenodd"/><path d="M328,14h0a4,4,0,0,1,4,4h0a4,4,0,0,1-4,4h0a4,4,0,0,1-4-4h0A4,4,0,0,1,328,14Z" fill="#f8b219"/><path d="M67.13,32.42H72.3V34H65.16V22.62h2Z" fill="#fff"/><path d="M77.85,34.16A3.94,3.94,0,0,1,74.92,33a4.16,4.16,0,0,1-1.12-3v-.23a5.11,5.11,0,0,1,.49-2.26A3.77,3.77,0,0,1,75.66,26a3.64,3.64,0,0,1,2-.56,3.34,3.34,0,0,1,2.67,1.1,4.67,4.67,0,0,1,.94,3.12v.77H75.72A2.6,2.6,0,0,0,76.41,32a2.12,2.12,0,0,0,1.55.61,2.59,2.59,0,0,0,2.13-1.05l1,1a3.39,3.39,0,0,1-1.36,1.18A4.21,4.21,0,0,1,77.85,34.16Zm-.23-7.25a1.61,1.61,0,0,0-1.26.55A2.86,2.86,0,0,0,75.75,29h3.62v-.14a2.25,2.25,0,0,0-.51-1.43A1.59,1.59,0,0,0,77.62,26.91Z" fill="#fff"/><path d="M88.27,34a3.3,3.3,0,0,1-.22-.79,2.94,2.94,0,0,1-2.21.95,3,3,0,0,1-2.08-.73,2.31,2.31,0,0,1-.81-1.8,2.41,2.41,0,0,1,1-2.07,4.9,4.9,0,0,1,2.88-.72H88v-.56a1.32,1.32,0,0,0-1.48-1.44,1.69,1.69,0,0,0-1.06.32A1,1,0,0,0,85,28h-1.9a2.12,2.12,0,0,1,.46-1.29,3.11,3.11,0,0,1,1.25-1,4.67,4.67,0,0,1,1.78-.34,3.5,3.5,0,0,1,2.36.75,2.63,2.63,0,0,1,.91,2.09v3.82a4.4,4.4,0,0,0,.32,1.82V34Zm-2.08-1.37a2.16,2.16,0,0,0,1-.27,1.73,1.73,0,0,0,.75-.74V30H87a2.79,2.79,0,0,0-1.59.37,1.19,1.19,0,0,0-.53,1,1.12,1.12,0,0,0,.36.87A1.41,1.41,0,0,0,86.19,32.63Z" fill="#fff"/><path d="M92,29.71a5,5,0,0,1,.91-3.13,2.9,2.9,0,0,1,2.43-1.19,2.73,2.73,0,0,1,2.17.94V22h1.9V34H97.71l-.09-.88a2.81,2.81,0,0,1-2.28,1,2.88,2.88,0,0,1-2.4-1.2A5.23,5.23,0,0,1,92,29.71Zm1.9.17a3.62,3.62,0,0,0,.49,2,1.64,1.64,0,0,0,1.42.72,1.8,1.8,0,0,0,1.7-1V28a1.76,1.76,0,0,0-1.69-1,1.62,1.62,0,0,0-1.42.73A3.93,3.93,0,0,0,93.92,29.88Z" fill="#fff"/><path d="M112.52,31.07a1.36,1.36,0,0,0-.53-1.16,6.39,6.39,0,0,0-1.9-.82,8.91,8.91,0,0,1-2.18-.92,2.92,2.92,0,0,1-1.56-2.55,2.76,2.76,0,0,1,1.12-2.26,4.57,4.57,0,0,1,2.91-.89,4.82,4.82,0,0,1,2.12.44A3.37,3.37,0,0,1,114,24.16a3.11,3.11,0,0,1,.53,1.79h-2a1.77,1.77,0,0,0-.56-1.4,2.31,2.31,0,0,0-1.59-.5,2.4,2.4,0,0,0-1.51.41,1.37,1.37,0,0,0-.53,1.16,1.24,1.24,0,0,0,.58,1,6.74,6.74,0,0,0,1.9.82,8.3,8.3,0,0,1,2.13.9,3.18,3.18,0,0,1,1.18,1.15,2.88,2.88,0,0,1,.38,1.52,2.71,2.71,0,0,1-1.09,2.27,4.73,4.73,0,0,1-3,.84,5.48,5.48,0,0,1-2.27-.46,3.87,3.87,0,0,1-1.61-1.26,3.17,3.17,0,0,1-.57-1.88h2a1.82,1.82,0,0,0,.64,1.5,2.75,2.75,0,0,0,1.83.53,2.41,2.41,0,0,0,1.55-.41A1.35,1.35,0,0,0,112.52,31.07Z" fill="#fff"/><path d="M118.93,23.49v2.06h1.49V27h-1.49v4.72a1.08,1.08,0,0,0,.19.71.92.92,0,0,0,.69.21,3.05,3.05,0,0,0,.66-.08V34a4.66,4.66,0,0,1-1.25.18c-1.46,0-2.19-.81-2.19-2.42V27h-1.39v-1.4H117V23.49Z" fill="#fff"/><path d="M127.5,33.17a3,3,0,0,1-2.38,1,2.62,2.62,0,0,1-2.08-.81,3.42,3.42,0,0,1-.7-2.33V25.55h1.89V31c0,1.07.45,1.61,1.34,1.61a1.89,1.89,0,0,0,1.87-1V25.55h1.9V34h-1.79Z" fill="#fff"/><path d="M131.41,29.71a5,5,0,0,1,.91-3.13,2.9,2.9,0,0,1,2.43-1.19,2.73,2.73,0,0,1,2.17.94V22h1.9V34H137.1l-.09-.88a2.81,2.81,0,0,1-2.28,1,2.88,2.88,0,0,1-2.4-1.2A5.23,5.23,0,0,1,131.41,29.71Zm1.9.17a3.62,3.62,0,0,0,.49,2,1.64,1.64,0,0,0,1.42.72,1.8,1.8,0,0,0,1.7-1V28a1.76,1.76,0,0,0-1.69-1,1.62,1.62,0,0,0-1.42.73A3.93,3.93,0,0,0,133.31,29.88Z" fill="#fff"/><path d="M145,34.16A3.94,3.94,0,0,1,142.09,33,4.16,4.16,0,0,1,141,30v-.23a5.11,5.11,0,0,1,.48-2.26A3.72,3.72,0,0,1,142.84,26a3.59,3.59,0,0,1,2-.56,3.33,3.33,0,0,1,2.67,1.1,4.67,4.67,0,0,1,.94,3.12v.77h-5.52a2.56,2.56,0,0,0,.7,1.65,2.08,2.08,0,0,0,1.54.61,2.59,2.59,0,0,0,2.13-1.05l1,1a3.39,3.39,0,0,1-1.36,1.18A4.18,4.18,0,0,1,145,34.16Zm-.22-7.25a1.63,1.63,0,0,0-1.27.55,2.86,2.86,0,0,0-.61,1.52h3.62v-.14a2.25,2.25,0,0,0-.51-1.43A1.58,1.58,0,0,0,144.8,26.91Z" fill="#fff"/><path d="M152.16,25.55l.05,1a3.06,3.06,0,0,1,2.46-1.13c1.76,0,2.66,1,2.69,3V34h-1.9V28.52a1.71,1.71,0,0,0-.35-1.18A1.45,1.45,0,0,0,154,27a1.82,1.82,0,0,0-1.71,1v6h-1.9V25.55Z" fill="#fff"/><path d="M162.18,23.49v2.06h1.49V27h-1.49v4.72a1.08,1.08,0,0,0,.19.71.91.91,0,0,0,.68.21,3.14,3.14,0,0,0,.67-.08V34a4.66,4.66,0,0,1-1.25.18c-1.46,0-2.19-.81-2.19-2.42V27h-1.39v-1.4h1.39V23.49Z" fill="#fff"/><path d="M176.66,31.35h-4.4L171.34,34h-2.06l4.3-11.38h1.77L179.66,34h-2.07Zm-3.85-1.59h3.3L174.46,25Z" fill="#fff"/><path d="M188.3,29.86a5.06,5.06,0,0,1-.89,3.13,3.09,3.09,0,0,1-4.62.25v4h-1.9V25.55h1.75l.08.86a2.78,2.78,0,0,1,2.27-1,2.87,2.87,0,0,1,2.42,1.16,5.11,5.11,0,0,1,.89,3.19Zm-1.89-.16a3.48,3.48,0,0,0-.51-2,1.61,1.61,0,0,0-1.44-.74,1.74,1.74,0,0,0-1.67,1v3.75a1.77,1.77,0,0,0,1.69,1,1.62,1.62,0,0,0,1.41-.73A3.9,3.9,0,0,0,186.41,29.7Z" fill="#fff"/><path d="M197.81,29.86a5,5,0,0,1-.89,3.13,2.84,2.84,0,0,1-2.39,1.17,2.88,2.88,0,0,1-2.23-.92v4h-1.89V25.55h1.75l.07.86a2.8,2.8,0,0,1,2.28-1,2.87,2.87,0,0,1,2.42,1.16,5.11,5.11,0,0,1,.88,3.19Zm-1.89-.16a3.48,3.48,0,0,0-.51-2A1.6,1.6,0,0,0,194,27a1.76,1.76,0,0,0-1.68,1v3.75a1.78,1.78,0,0,0,1.69,1,1.62,1.62,0,0,0,1.42-.73A3.9,3.9,0,0,0,195.92,29.7Z" fill="#fff"/><path d="M31.41,22.41,30,21l-6,6,6,6,1.41-1.41L26.83,27Z" fill="#fff" fill-opacity="0.87" fill-rule="evenodd"/></svg>